<?xml version="1.0" encoding="UTF-8"?>
<svg width="23px" height="23px" viewBox="0 0 23 23" version="1.1" xmlns="http://www.w3.org/2000/svg" xmlns:xlink="http://www.w3.org/1999/xlink">
    <!-- Generator: Sketch 52.1 (67048) - http://www.bohemiancoding.com/sketch -->
    <title>Artboard 2</title>
    <desc>Created with Sketch.</desc>
    <g id="Artboard-2" stroke="none" stroke-width="1" fill="none" fill-rule="evenodd">
        <rect id="Rectangle-43-Copy" stroke="#E4E4E4" x="0.5" y="0.5" width="22" height="22" rx="2"></rect>
        <path d="M11,11 L11,4.5 C11,4.22385763 11.2238576,4 11.5,4 C11.7761424,4 12,4.22385763 12,4.5 L12,11 L18.5,11 C18.7761424,11 19,11.2238576 19,11.5 C19,11.7761424 18.7761424,12 18.5,12 L12,12 L12,18.5 C12,18.7761424 11.7761424,19 11.5,19 C11.2238576,19 11,18.7761424 11,18.5 L11,12 L4.5,12 C4.22385763,12 4,11.7761424 4,11.5 C4,11.2238576 4.22385763,11 4.5,11 L11,11 Z" id="Combined-Shape" fill="#E4E4E4"></path>
    </g>
</svg>