<?xml version="1.0" encoding="UTF-8"?>
<svg width="14px" height="14px" viewBox="0 0 14 14" version="1.1" xmlns="http://www.w3.org/2000/svg" xmlns:xlink="http://www.w3.org/1999/xlink">
    <!-- Generator: Sketch 52.1 (67048) - http://www.bohemiancoding.com/sketch -->
    <title>Artboard 3</title>
    <desc>Created with Sketch.</desc>
    <g id="Artboard-3" stroke="none" stroke-width="1" fill="none" fill-rule="evenodd">
        <g id="问好" fill="#CCCCCC" fill-rule="nonzero">
            <path d="M6.99789247,0.7094565 C7.81483284,0.7094565 8.61447507,0.864948192 9.36724536,1.1709912 C10.1471535,1.48690127 10.8480841,1.95337634 11.4502893,2.55310459 C12.0524946,3.15530987 12.5165064,3.85624047 12.8324027,4.63614858 C13.1384457,5.39138221 13.2939374,6.18856109 13.2939374,7.00550147 C13.2939374,7.82244184 13.1384457,8.62208407 12.8324027,9.37484066 C12.5164927,10.1547625 12.0500313,10.8556794 11.4502893,11.4578847 C10.8480841,12.0601036 10.1471535,12.5241017 9.36724536,12.8400117 C8.61201173,13.1460547 7.81483284,13.3015327 6.99789247,13.3015327 C6.1809521,13.3015327 5.38130987,13.1460547 4.62855327,12.8400117 C3.84863148,12.5241017 3.14771457,12.0576266 2.54550929,11.4578847 C1.94329032,10.8556794 1.47929228,10.1547488 1.16338221,9.37485435 C0.857352884,8.61960704 0.701861193,7.82242815 0.701861193,7.00550147 C0.701861193,6.18857478 0.857352884,5.38891887 1.16338221,4.63614858 C1.47930596,3.85624047 1.94576735,3.15530987 2.54550929,2.55310459 C3.14771457,1.95089932 3.84864516,1.48688759 4.62855327,1.1709912 C5.38130987,0.864948192 6.17850244,0.709442815 6.99789247,0.709442815 L6.99789247,0.7094565 Z M6.99789247,0.0085259042 C5.20608407,0.0085259042 3.416739,0.692185728 2.04941935,2.05949169 C-0.682729228,4.79164027 -0.682729228,9.21934897 2.04941935,11.9514976 C3.41426197,13.3188172 5.20608407,14 6.99542913,14 C8.78477419,14 10.5765826,13.3163402 11.9414389,11.9514976 C14.6735875,9.21934897 14.6735875,4.78917693 11.9414389,2.05702835 C10.5790733,0.692185728 8.78725122,0.0085259042 6.99789247,0.0085259042 Z M7.00777322,3.39224242 C6.34880156,3.39224242 5.8181564,3.56994526 5.4158651,3.92288759 C5.01603715,4.27829326 4.77416422,4.7866999 4.69272336,5.45308895 L5.59356794,5.5592043 C5.67254545,5.06065103 5.83544086,4.69785533 6.08718084,4.46338612 C6.33645748,4.22891691 6.6499042,4.11292082 7.02256696,4.11292082 C7.41006452,4.11292082 7.73584164,4.24372434 8.00240274,4.50040469 C8.26895015,4.75708504 8.40223069,5.05818768 8.40223069,5.39878592 C8.40223069,5.58635582 8.35533138,5.76158162 8.26647312,5.91955034 C8.1751652,6.07750538 7.97771457,6.29222678 7.67414858,6.55878788 C7.37056891,6.82779863 7.16078788,7.03017595 7.04479179,7.17086022 C6.88683675,7.36337048 6.77084066,7.55340371 6.69926686,7.74098729 C6.60300489,7.99025024 6.55365591,8.28888954 6.55365591,8.63195112 C6.55365591,8.69118084 6.55611926,8.77756207 6.5585826,8.89603519 L7.40019746,8.89603519 C7.40758749,8.54556989 7.42981232,8.29136657 7.4742346,8.13587488 C7.51619355,7.98038319 7.58282698,7.84217595 7.66920821,7.72123949 C7.75558944,7.60030303 7.94317302,7.41519648 8.22946823,7.16097947 C8.65397067,6.78337634 8.94026588,6.46498925 9.08589052,6.20090518 C9.23150147,5.93929814 9.30553861,5.6505259 9.30553861,5.33955621 C9.30553861,4.80150733 9.09822092,4.33998631 8.68112219,3.95990616 C8.26154643,3.58228935 7.70622678,3.39224242 7.00777322,3.39224242 Z M7.0003695,9.54266276 C6.70419355,9.54266276 6.46232063,9.78207234 6.46232063,10.0807116 C6.46232063,10.3768739 6.70173021,10.6187468 7.0003695,10.6187468 C7.29653177,10.6187468 7.53840469,10.3793509 7.53840469,10.0807116 C7.53594135,9.78453568 7.29653177,9.54267644 7.0003695,9.54267644 L7.0003695,9.54266276 Z" id="Shape"></path>
        </g>
    </g>
</svg>