<?xml version="1.0" encoding="UTF-8"?>
<svg width="18px" height="19px" viewBox="0 0 18 19" version="1.1" xmlns="http://www.w3.org/2000/svg" xmlns:xlink="http://www.w3.org/1999/xlink">
    <!-- Generator: Sketch 52.5 (67469) - http://www.bohemiancoding.com/sketch -->
    <title>画板</title>
    <desc>Created with Sketch.</desc>
    <g id="画板" stroke="none" stroke-width="1" fill="none" fill-rule="evenodd">
        <g id="下载" fill="#999" fill-rule="nonzero">
            <path d="M13.2354196,0.0139396768 C12.9043026,0.0139396768 12.6359069,0.282356 12.6359069,0.613452404 C12.6359069,0.944548808 12.9043025,1.21296513 13.2354196,1.21296513 L16.7916257,1.21296513 L16.7916257,16.8924348 L1.21554099,16.8924348 L1.21554099,1.21296513 L4.77027931,1.21296513 C5.10137572,1.21296513 5.36979204,0.944548808 5.36979204,0.613452404 C5.36979204,0.282356 5.10137572,0.0139396768 4.77027931,0.0139396768 L0.0165155556,0.0139396768 L0.0165155556,18.0914602 L17.9906719,18.0914602 L17.9906719,0.0139396768 L13.2354196,0.0139396768 Z" id="Shape"></path>
            <path d="M4.22623186,7.63668192 C3.99114018,7.86983034 3.98958972,8.24942527 4.22273814,8.48451695 L9.04399879,13.3456555 L13.9244251,8.46524984 C14.1585452,8.23112978 14.1585452,7.85153487 13.9244251,7.61741481 C13.6903258,7.38327408 13.3106895,7.38327408 13.0765901,7.61741481 L9.62980541,11.0641788 L9.62980541,0.654798101 C9.62980541,0.323701697 9.36140978,0.0552853737 9.03029269,0.0552853737 C8.69919628,0.0552853737 8.43077996,0.323701697 8.43077996,0.654798101 L8.43077996,11.0246523 L5.07404622,7.64017564 C4.8408978,7.40508396 4.46130287,7.40351283 4.22623186,7.63668192 Z" id="Shape"></path>
        </g>
    </g>
</svg>