<?xml version="1.0" encoding="UTF-8"?>
<svg width="44px" height="44px" viewBox="0 0 44 44" version="1.1" xmlns="http://www.w3.org/2000/svg" xmlns:xlink="http://www.w3.org/1999/xlink">
    <!-- Generator: Sketch 52.1 (67048) - http://www.bohemiancoding.com/sketch -->
    <title>Artboard 6</title>
    <desc>Created with Sketch.</desc>
    <g id="Artboard-6" stroke="none" stroke-width="1" fill="none" fill-rule="evenodd">
        <path d="M22,44 C9.8505,44 0,34.1495 0,22 C0,9.8505 9.8505,0 22,0 C34.1495,0 44,9.8505 44,22 C44,34.1495 34.1495,44 22,44 Z" id="Shape" fill="#F6F7FA" fill-rule="nonzero"></path>
        <path d="M20.1960349,15.7347105 L20.9801375,24.9803516 C21.0602303,25.7709362 21.7199513,26.3760847 22.5144964,26.3877875 L21.9391118,26.3877875 C22.7147529,26.3877875 23.408599,25.7574029 23.4734708,24.9803516 L24.2561631,15.7347105 C24.3112736,15.2077542 24.1374843,14.6824989 23.7789522,14.2924029 C23.42042,13.9023069 22.9116575,13.6849212 22.3819323,13.6954798 L22.0730862,13.6954798 C21.5431178,13.6845107 21.0339703,13.9017178 20.6751217,14.2918645 C20.3162731,14.6820112 20.1423003,15.2075049 20.1974452,15.7347105 L20.1960349,15.7347105 Z" id="Path" fill="#4B505F"></path>
        <path d="M22.2268041,30.6185567 C22.7306916,30.6186338 23.1963359,30.3498574 23.4483019,29.9134908 C23.700268,29.4771243 23.700268,28.9394763 23.4483019,28.5031098 C23.1963359,28.0667432 22.7306916,27.7979667 22.2268041,27.7980439 C21.4480253,27.7981631 20.8167636,28.4295215 20.8167636,29.2083003 C20.8167636,29.9870791 21.4480253,30.6184375 22.2268041,30.6185567 Z" id="Path" fill="#4B505F"></path>
    </g>
</svg>