<?xml version="1.0" encoding="UTF-8"?>
<svg width="82px" height="89px" viewBox="0 0 82 89" version="1.1" xmlns="http://www.w3.org/2000/svg" xmlns:xlink="http://www.w3.org/1999/xlink">
    <!-- Generator: Sketch 52.1 (67048) - http://www.bohemiancoding.com/sketch -->
    <title>画板1</title>
    <desc>Created with Sketch.</desc>
    <g id="画板1" stroke="none" stroke-width="1" fill="none" fill-rule="evenodd">
        <g id="Page-1" transform="translate(59.128802, 26.221200) scale(-1, 1) rotate(-23.000000) translate(-59.128802, -26.221200) translate(42.628802, -1.778800)" stroke="#FFFFFF" stroke-linecap="round" stroke-width="2">
            <path d="M15.2874225,19.8483785 C16.0519499,19.2259207 17.1444878,19.0489771 18.5650363,19.3175475 C20.6678536,19.7151085 21.1579499,21.2951737 21.775769,21.4675884 C23.2843009,21.8885744 24.3952692,22.2504785 25.1086739,22.5533009 C27.2546233,23.4642023 26.7816845,24.4784478 27.3760389,24.7722794 C28.1206158,25.1403767 28.5706808,25.1003588 29.6650976,25.5649111 C30.7013707,26.0047829 31.6758481,26.6059053 32.1529661,28.0481555 C33.8704729,33.2398995 32.1210605,43.2478794 32.1369158,43.4320163 C32.1504224,43.588876 30.0006068,47.4201852 25.6874692,54.925944" id="Stroke-1" stroke-linejoin="round"></path>
            <polyline id="Stroke-3" stroke-linejoin="round" points="6.7658102 55.5467245 6.7658102 51.0931327 0.271932653 43.5421122"></polyline>
            <path d="M7.14336122,34.2062571 L7.14336122,9.48572653 C7.14336122,7.40013469 8.83403469,5.71021633 10.9188714,5.71021633 C13.0037082,5.71021633 14.6943816,7.40013469 14.6943816,9.48572653 L14.6943816,27.463951" id="Stroke-5"></path>
            <path d="M21.1156563,21.3846538 L20.9619551,29.3063245" id="Stroke-7"></path>
            <path d="M27.3470707,32.6823332 L27.264264,24.959304" id="Stroke-9"></path>
            <path d="M0.271857143,43.5421878 L0.271857143,33.080249 C0.271857143,29.9782898 2.78634694,27.4638 5.88755102,27.4638 L7.14328571,27.4638" id="Stroke-11"></path>
            <path d="M2,12.3275552 L2,9.09000015 C2,4.06979507 6.06979507,0 11.0900002,0 C16.1102052,0 20.1800003,4.06979507 20.1800003,9.09000015 L20.1800003,11.6781252" id="Stroke-13"></path>
        </g>
        <text id="点击这里-发出邀请哦" transform="translate(39.922371, 69.408940) rotate(16.000000) translate(-39.922371, -69.408940) " font-family="PingFangSC-Regular, PingFang SC" font-size="10" font-weight="normal" line-spacing="16" fill="#ECECEC">
            <tspan x="19.9223709" y="64.4089397">点击这里</tspan>
            <tspan x="14.9223709" y="80.4089397">发出邀请哦</tspan>
        </text>
        <polygon id="Star" fill="#FFE639" points="13.8042261 57.7487181 10.7140561 59.3733166 11.3042261 55.9323618 8.80422607 53.495464 12.2591411 52.9934355 13.8042261 49.8627514 15.349311 52.9934355 18.8042261 53.495464 16.3042261 55.9323618 16.894396 59.3733166"></polygon>
        <polygon id="Star-Copy" fill="#FFE639" points="67.7527638 71.3416408 66.0514622 72.236068 66.3763819 70.3416408 65 69 66.902113 68.7236068 67.7527638 67 68.6034146 68.7236068 70.5055277 69 69.1291458 70.3416408 69.4540655 72.236068"></polygon>
        <polygon id="Star-Copy-3" fill="#FFE639" points="70.7527638 86.0617865 67.3535769 87.8488448 68.0027638 84.0637945 65.2527638 81.3832071 69.0531704 80.8309757 70.7527638 77.3872231 72.4523573 80.8309757 76.2527638 81.3832071 73.5027638 84.0637945 74.1519508 87.8488448"></polygon>
        <polygon id="Star-Copy-2" fill="#FFE639" points="3.94298334 71.2188471 1.50608562 72.5 1.97149167 69.7864745 -2.3529551e-14 67.8647451 2.72453448 67.4688471 3.94298334 65 5.1614322 67.4688471 7.88596668 67.8647451 5.91447501 69.7864745 6.37988106 72.5"></polygon>
    </g>
</svg>