<?xml version="1.0" encoding="UTF-8"?>
<svg width="343px" height="469px" viewBox="0 0 343 469" version="1.1" xmlns="http://www.w3.org/2000/svg" xmlns:xlink="http://www.w3.org/1999/xlink">
    <!-- Generator: Sketch 52.1 (67048) - http://www.bohemiancoding.com/sketch -->
    <title>画板</title>
    <desc>Created with Sketch.</desc>
    <defs>
        <linearGradient x1="60.643606%" y1="0%" x2="50%" y2="100%" id="linearGradient-1">
            <stop stop-color="#FF7859" offset="0%"></stop>
            <stop stop-color="#FFAA7B" offset="100%"></stop>
        </linearGradient>
        <path d="M20,0 L323,0 C334.045695,-2.02906125e-15 343,8.954305 343,20 L343,449 C343,460.045695 334.045695,469 323,469 L20,469 C8.954305,469 1.3527075e-15,460.045695 0,449 L0,20 C-1.3527075e-15,8.954305 8.954305,2.02906125e-15 20,0 Z" id="path-2"></path>
        <linearGradient x1="95.3145955%" y1="31.0772816%" x2="2.66049229%" y2="55.5648199%" id="linearGradient-4">
            <stop stop-color="#FD6138" offset="0%"></stop>
            <stop stop-color="#FF9A62" stop-opacity="0.726817255" offset="100%"></stop>
        </linearGradient>
        <linearGradient x1="15.2061057%" y1="17.0617063%" x2="80.9999637%" y2="87.9054186%" id="linearGradient-5">
            <stop stop-color="#FFBC39" offset="0%"></stop>
            <stop stop-color="#FFD27E" stop-opacity="0" offset="100%"></stop>
        </linearGradient>
        <path d="M308,206 L308,425 C308,432.731986 301.731986,439 294,439 L51,439 C43.2680135,439 37,432.731986 37,425 L37,206 C41.9705627,206 46,201.970563 46,197 C46,192.029437 41.9705627,188 37,188 L37,95 C37,87.2680135 43.2680135,81 51,81 L294,81 C301.731986,81 308,87.2680135 308,95 L308,188 C303.029437,188 299,192.029437 299,197 C299,201.970563 303.029437,206 308,206 Z" id="path-6"></path>
        <filter x="-11.1%" y="-8.4%" width="122.1%" height="116.8%" filterUnits="objectBoundingBox" id="filter-7">
            <feOffset dx="0" dy="0" in="SourceAlpha" result="shadowOffsetOuter1"></feOffset>
            <feGaussianBlur stdDeviation="10" in="shadowOffsetOuter1" result="shadowBlurOuter1"></feGaussianBlur>
            <feColorMatrix values="0 0 0 0 1   0 0 0 0 0.300850237   0 0 0 0 0.0775923295  0 0 0 1 0" type="matrix" in="shadowBlurOuter1"></feColorMatrix>
        </filter>
        <linearGradient x1="24.9368797%" y1="37.1162221%" x2="84.5177849%" y2="50%" id="linearGradient-8">
            <stop stop-color="#409FFD" offset="0%"></stop>
            <stop stop-color="#59E0D0" offset="100%"></stop>
        </linearGradient>
        <linearGradient x1="17.3021167%" y1="8.5341713%" x2="88.2577258%" y2="90.7421444%" id="linearGradient-9">
            <stop stop-color="#31DD74" offset="0%"></stop>
            <stop stop-color="#2DC261" offset="100%"></stop>
        </linearGradient>
        <linearGradient x1="15.9849573%" y1="14.1131571%" x2="84.386522%" y2="85.3939773%" id="linearGradient-10">
            <stop stop-color="#FFDD6A" offset="0%"></stop>
            <stop stop-color="#FDC804" offset="100%"></stop>
        </linearGradient>
        <linearGradient x1="23.9423712%" y1="7.27921961%" x2="63.3448389%" y2="95.5056093%" id="linearGradient-11">
            <stop stop-color="#FED01D" offset="0%"></stop>
            <stop stop-color="#F29602" offset="100%"></stop>
        </linearGradient>
        <path d="M286.299047,429.836428 C286.77584,429.836428 287.216415,430.090794 287.454812,430.503709 C287.693208,430.916624 287.693208,431.425357 287.454812,431.838272 C287.216415,432.251187 286.77584,432.505553 286.299047,432.505553 L282.333728,432.505553 L282.333728,435.40489 C282.333728,436.141948 281.736224,436.739452 280.999166,436.739452 C280.262107,436.739452 279.664604,436.141948 279.664604,435.40489 L279.664604,432.505553 L275.699285,432.505553 C275.222492,432.505553 274.781917,432.251187 274.54352,431.838272 C274.305124,431.425357 274.305124,430.916624 274.54352,430.503709 C274.781917,430.090794 275.222492,429.836428 275.699285,429.836428 L279.664604,429.836428 L279.664604,428.141534 L275.699285,428.141534 C274.962227,428.141534 274.364723,427.54403 274.364723,426.806972 C274.364723,426.069913 274.962227,425.472409 275.699285,425.472409 L278.508539,425.472409 L275.395672,420.791432 C275.121563,420.394542 275.082946,419.880628 275.294666,419.447232 C275.506386,419.013835 275.935491,418.72841 276.417039,418.700669 C276.898587,418.672927 277.35763,418.907188 277.617719,419.313404 L280.935774,424.301331 L284.25383,419.313404 C284.513919,418.907188 284.972962,418.672927 285.454509,418.700669 C285.936057,418.72841 286.365162,419.013835 286.576882,419.447232 C286.788602,419.880628 286.749986,420.394542 286.475876,420.791432 L283.363009,425.472409 L286.300715,425.472409 C286.777508,425.472409 287.218083,425.726775 287.45648,426.13969 C287.694876,426.552606 287.694876,427.061338 287.45648,427.474253 C287.218083,427.887168 286.777508,428.141534 286.300715,428.141534 L282.333728,428.141534 L282.333728,429.836428 L286.299047,429.836428 Z" id="path-12"></path>
        <filter x="-7.5%" y="-5.5%" width="130.1%" height="122.2%" filterUnits="objectBoundingBox" id="filter-13">
            <feOffset dx="1" dy="1" in="SourceAlpha" result="shadowOffsetOuter1"></feOffset>
            <feGaussianBlur stdDeviation="0.5" in="shadowOffsetOuter1" result="shadowBlurOuter1"></feGaussianBlur>
            <feColorMatrix values="0 0 0 0 0.941176471   0 0 0 0 0.596078431   0 0 0 0 0.0117647059  0 0 0 1 0" type="matrix" in="shadowBlurOuter1"></feColorMatrix>
        </filter>
        <filter x="-7.5%" y="-5.5%" width="130.1%" height="122.2%" filterUnits="objectBoundingBox" id="filter-14">
            <feGaussianBlur stdDeviation="1" in="SourceAlpha" result="shadowBlurInner1"></feGaussianBlur>
            <feOffset dx="0" dy="0" in="shadowBlurInner1" result="shadowOffsetInner1"></feOffset>
            <feComposite in="shadowOffsetInner1" in2="SourceAlpha" operator="arithmetic" k2="-1" k3="1" result="shadowInnerInner1"></feComposite>
            <feColorMatrix values="0 0 0 0 1   0 0 0 0 1   0 0 0 0 1  0 0 0 0.5 0" type="matrix" in="shadowInnerInner1"></feColorMatrix>
        </filter>
        <filter x="-7.0%" y="-7.0%" width="114.0%" height="114.0%" filterUnits="objectBoundingBox" id="filter-15">
            <feGaussianBlur stdDeviation="0.513392857" in="SourceGraphic"></feGaussianBlur>
        </filter>
        <filter x="-9.2%" y="-9.2%" width="118.3%" height="118.3%" filterUnits="objectBoundingBox" id="filter-16">
            <feGaussianBlur stdDeviation="0.513392857" in="SourceGraphic"></feGaussianBlur>
        </filter>
        <filter x="-9.8%" y="-9.6%" width="119.6%" height="119.3%" filterUnits="objectBoundingBox" id="filter-17">
            <feGaussianBlur stdDeviation="0.513392857" in="SourceGraphic"></feGaussianBlur>
        </filter>
        <path d="M14.4480818,12.3892276 C14.7315804,12.3892276 14.993544,12.5404723 15.1352934,12.7859893 C15.2770427,13.0315064 15.2770427,13.3339959 15.1352934,13.5795129 C14.993544,13.82503 14.7315804,13.9762747 14.4480818,13.9762747 L12.0903249,13.9762747 L12.0903249,15.7002046 C12.0903249,16.1384556 11.7350523,16.4937282 11.2968013,16.4937282 C10.8585504,16.4937282 10.5032778,16.1384556 10.5032778,15.7002046 L10.5032778,13.9762747 L8.14552092,13.9762747 C7.86202226,13.9762747 7.60005868,13.82503 7.45830934,13.5795129 C7.31656,13.3339959 7.31656,13.0315064 7.45830934,12.7859893 C7.60005868,12.5404723 7.86202226,12.3892276 8.14552092,12.3892276 L10.5032778,12.3892276 L10.5032778,11.3814527 L8.14552092,11.3814527 C7.70726997,11.3814527 7.35199737,11.0261801 7.35199737,10.5879291 C7.35199737,10.1496781 7.70726997,9.79440555 8.14552092,9.79440555 L9.81588801,9.79440555 L7.96499432,7.01112168 C7.80201028,6.7751329 7.77904912,6.46956262 7.90493674,6.21186745 C8.03082437,5.95417228 8.28596767,5.78445985 8.57229339,5.76796506 C8.85861911,5.75147027 9.13156357,5.89076037 9.28621104,6.13229434 L11.259109,9.09808863 L13.2320069,6.13229434 C13.3866544,5.89076037 13.6595988,5.75147027 13.9459246,5.76796506 C14.2322503,5.78445985 14.4873936,5.95417228 14.6132812,6.21186745 C14.7391688,6.46956262 14.7162077,6.7751329 14.5532236,7.01112168 L12.7023299,9.79440555 L14.4490737,9.79440555 C14.7325723,9.79440554 14.9945359,9.94565027 15.1362853,10.1911673 C15.2780346,10.4366844 15.2780346,10.7391738 15.1362853,10.9846909 C14.9945359,11.2302079 14.7325723,11.3814527 14.4490737,11.3814527 L12.0903249,11.3814527 L12.0903249,12.3892276 L14.4480818,12.3892276 Z" id="path-18"></path>
        <filter x="-19.5%" y="-14.4%" width="154.3%" height="147.4%" filterUnits="objectBoundingBox" id="filter-19">
            <feGaussianBlur stdDeviation="0.513392857" in="SourceGraphic"></feGaussianBlur>
        </filter>
        <filter x="-32.2%" y="-23.7%" width="179.7%" height="166.0%" filterUnits="objectBoundingBox" id="filter-20">
            <feOffset dx="1" dy="1" in="SourceAlpha" result="shadowOffsetOuter1"></feOffset>
            <feGaussianBlur stdDeviation="0.5" in="shadowOffsetOuter1" result="shadowBlurOuter1"></feGaussianBlur>
            <feColorMatrix values="0 0 0 0 0.941176471   0 0 0 0 0.596078431   0 0 0 0 0.0117647059  0 0 0 1 0" type="matrix" in="shadowBlurOuter1"></feColorMatrix>
        </filter>
        <filter x="-32.2%" y="-23.7%" width="179.7%" height="166.0%" filterUnits="objectBoundingBox" id="filter-21">
            <feGaussianBlur stdDeviation="1" in="SourceAlpha" result="shadowBlurInner1"></feGaussianBlur>
            <feOffset dx="0" dy="0" in="shadowBlurInner1" result="shadowOffsetInner1"></feOffset>
            <feComposite in="shadowOffsetInner1" in2="SourceAlpha" operator="arithmetic" k2="-1" k3="1" result="shadowInnerInner1"></feComposite>
            <feColorMatrix values="0 0 0 0 1   0 0 0 0 1   0 0 0 0 1  0 0 0 0.5 0" type="matrix" in="shadowInnerInner1"></feColorMatrix>
        </filter>
        <linearGradient x1="87.2234514%" y1="91.9598492%" x2="9.67525593%" y2="48.4301836%" id="linearGradient-22">
            <stop stop-color="#FFE84C" offset="0%"></stop>
            <stop stop-color="#FFC015" offset="100%"></stop>
        </linearGradient>
    </defs>
    <g id="画板" stroke="none" stroke-width="1" fill="none" fill-rule="evenodd">
        <mask id="mask-3" fill="white">
            <use xlink:href="#path-2"></use>
        </mask>
        <use id="Mask" fill="url(#linearGradient-1)" xlink:href="#path-2"></use>
        <rect id="Rectangle-9" fill="#FFE300" mask="url(#mask-3)" transform="translate(316.000000, 257.000000) rotate(-30.000000) translate(-316.000000, -257.000000) " x="282" y="256" width="68" height="2"></rect>
        <ellipse id="Oval-6" fill="url(#linearGradient-4)" mask="url(#mask-3)" cx="293.5" cy="448.5" rx="67.5" ry="42.5"></ellipse>
        <polygon id="Rectangle-9" fill="#FFE300" mask="url(#mask-3)" transform="translate(225.000000, 469.000000) rotate(-30.000000) translate(-225.000000, -469.000000) " points="191 468 259 468 259 470 191 470"></polygon>
        <circle id="Oval-5" fill="url(#linearGradient-5)" mask="url(#mask-3)" cx="26" cy="23" r="53"></circle>
        <rect id="Rectangle-9" fill="#FFE300" mask="url(#mask-3)" transform="translate(25.000000, 111.000000) rotate(-30.000000) translate(-25.000000, -111.000000) " x="-9" y="110" width="68" height="2"></rect>
        <g id="Combined-Shape" mask="url(#mask-3)">
            <use fill="black" fill-opacity="1" filter="url(#filter-7)" xlink:href="#path-6"></use>
            <use fill="#FFFFFF" fill-rule="evenodd" xlink:href="#path-6"></use>
        </g>
        <path d="M58.2011303,432.836908 C61.2311384,435.297194 62.6932888,436.358805 62.0849852,436.09478 C61.7617911,435.954503 60.7375903,435.321141 59.1934789,434.256371 C59.0378189,435.523851 56.2468047,437.972081 51.6258252,438.786885 C46.7013344,439.655205 41.5633998,438.339666 41.3566568,437.167168 C41.2654071,436.649666 42.8491826,436.366431 44.1912399,435.783675 C45.8898631,435.046088 47.675028,434.018949 50.4260091,433.533876 C52.0360524,433.249982 53.5968257,432.841993 54.8560959,432.780934 C55.8020123,432.73507 56.616101,432.782938 57.2753843,432.900582 C55.7606444,431.806274 53.9592571,430.45337 51.9624044,428.872921 C51.1908691,430.19883 48.5774577,432.090105 44.6258252,432.786885 C39.7013344,433.655205 34.5633998,432.339666 34.3566568,431.167168 C34.2654071,430.649666 35.8491826,430.366431 37.1912399,429.783675 C38.8898631,429.046088 40.675028,428.018949 43.4260091,427.533876 C45.0360524,427.249982 46.5968257,426.841993 47.8560959,426.780934 C48.4129818,426.753933 48.9241765,426.759419 49.3849911,426.792504 C47.9066406,425.57591 46.3532724,424.257177 44.7548115,422.846496 C44.0649278,424.047649 42.0119853,425.723362 37.656576,426.258139 C34.4085504,426.656947 30.5683412,426.412303 28.387096,425.833292 C27.5226836,425.603834 27.0811922,424.700381 27.316379,424.069447 C27.5393968,423.47116 28.3994744,423.145209 29.0619165,422.895604 C31.3513964,422.032939 34.3470503,421.85572 36.3636168,421.608117 C38.2454421,421.377058 40.4224977,420.684283 41.8779119,420.635798 C42.021149,420.631026 42.15771,420.628093 42.2879146,420.626903 C41.278929,419.701203 40.2585813,418.74252 39.2338845,417.753243 C37.6853573,418.739379 34.3087863,419.833489 30.0977037,419.612795 C26.8297706,419.44153 23.0903848,418.533758 21.0428217,417.584775 C20.2313867,417.208699 19.9534855,416.242307 20.2946598,415.661798 C20.6181811,415.111327 21.5217929,414.939678 22.2175144,414.808898 C24.6220122,414.356903 27.6029291,414.702566 29.6318553,414.808898 C31.5252143,414.908124 33.7894947,414.603916 35.2312172,414.808898 C35.6681111,414.871014 36.0837582,414.943073 36.4748376,415.022881 C35.4275714,413.960002 34.3823154,412.867526 33.346509,411.747988 C31.7481335,412.477119 28.0768027,413.005641 23.7782167,411.933883 C20.6030037,411.142214 17.105532,409.537612 15.276663,408.21537 C13.8646277,407.194493 13.7132363,406.385937 13.8155416,405.975613 C13.8541813,405.820638 15.5050225,405.705654 16.9594357,405.714636 C19.4060007,405.729745 22.41117,406.020318 24.3825302,406.511833 C26.2221695,406.970507 28.6454647,407.880172 30.0215863,408.356481 C30.1950773,408.41653 30.3635516,408.476972 30.5269368,408.537678 C29.3514101,407.069734 28.1672121,405.387995 26.9743425,403.492463 C25.2715703,403.882326 21.5520583,403.060257 17.8609919,400.07129 C13.3543304,396.421868 10.5966555,390.924095 11.4655657,389.85108 C11.8490743,389.377487 13.3019475,390.548163 14.8330656,391.279396 C16.7709805,392.204907 19.0281644,392.985863 21.5457323,395.024549 C21.9491185,395.351205 22.3578356,395.667552 22.7594866,395.976414 C22.5930867,395.647914 22.4265236,395.315391 22.2597973,394.978846 C22.2773645,394.900544 22.295155,394.826971 22.3131689,394.758127 C21.0577259,392.736571 19.7948088,389.64748 19.3357881,386.381378 C18.5287247,380.638823 20.5124198,376.523654 21.8796947,376.331496 C22.7999443,376.202163 24.0119596,377.762066 24.8023298,380.66629 C25.1862641,382.07706 25.2956048,383.944696 25.5594711,385.822203 C26.010323,389.030181 25.517197,391.367187 25.3124153,393.504978 C25.1619407,395.075837 25.3721329,396.78445 24.9168268,397.084082 C24.9624981,397.154466 25.0079992,397.224723 25.0533337,397.294853 C25.4609929,396.098021 26.0737956,394.761703 26.606472,393.374034 C27.7674066,390.349696 29.3317074,388.544776 30.5472351,386.774302 C31.5076058,385.375477 32.1804929,383.635205 32.749418,383.853595 C34.0384235,384.348398 34.3990934,390.488446 32.3209213,395.902269 C31.1951595,398.834979 29.5846581,400.952983 28.1400394,402.199695 C29.3609699,404.153935 30.5031644,405.94371 31.6712656,407.517313 C31.6757401,407.11861 31.69124,406.66521 31.7173658,406.150905 C31.7912439,404.696559 32.1563244,402.864865 32.4201906,400.987359 C32.8710425,397.779381 33.7499322,395.635199 34.3888777,393.615986 C34.8936992,392.020635 35.1565299,390.173413 35.5807553,390.233034 C35.9995254,390.291888 36.6924924,390.735146 37.1100761,392.426789 C37.6509307,394.617808 37.0604335,399.30795 36.605001,402.548521 C36.0210488,406.703557 34.5944678,408.904362 33.4862571,409.752468 C34.6721069,411.100287 35.8529928,412.271212 36.7175946,413.146418 C36.7919946,411.692792 37.1565957,409.862934 37.4201906,407.987359 C37.8710425,404.779381 38.7499322,402.635199 39.3888777,400.615986 C39.8936992,399.020635 40.1565299,397.173413 40.5807553,397.233034 C40.9995254,397.291888 41.6924924,397.735146 42.1100761,399.426789 C42.6509307,401.617808 42.8285159,405.461702 42.3730833,408.702272 C41.9181104,411.939573 40.7831459,414.533759 39.7072573,416.156908 C39.7136325,416.163235 39.7200067,416.169561 39.7263799,416.175885 C39.8960272,416.296865 40.0177113,416.41686 40.0866237,416.532696 C40.8587051,417.29604 41.6163911,418.036277 42.3587126,418.753548 C42.3502954,418.490339 42.3410191,418.221879 42.3268991,417.952453 C42.2386469,416.2685 42.3283259,415.014598 42.4824475,413.917906 C42.6042168,413.051425 42.7475877,412.150032 43.0046158,412.136562 C43.2583388,412.123265 43.7164021,412.277787 44.1498127,413.097961 C44.7111664,414.160251 45.8331837,416.251391 45.9223327,417.952453 C45.9842842,419.13456 46.0077982,420.354535 45.9223327,420.993453 C45.8627031,421.439227 45.7113031,421.659717 45.5305475,421.769107 C50.7757609,426.674696 55.0647791,430.28415 57.9810693,432.658002 C57.1218536,431.630581 55.6344011,429.683095 53.7581671,426.7063 C53.918278,426.665443 54.1011404,426.559782 54.3127813,426.352666 C54.7734859,425.90181 55.5060485,424.925979 56.1850075,423.956325 C57.1620359,422.560984 57.5653081,420.222361 57.7769666,419.039661 C57.9403841,418.126521 57.6745583,417.722744 57.4664354,417.577015 C57.2556014,417.429387 56.5876707,418.051426 55.9582566,418.659254 C55.161616,419.428572 54.318969,420.361448 53.3517672,421.742755 C52.856288,422.450373 52.3277671,423.119626 51.9559005,423.72016 C51.4598494,422.863287 50.9459571,421.946521 50.4174377,420.968416 C52.1032208,420.514259 55.2769731,418.557397 57.8961712,414.952381 C59.8196501,412.304939 61.4674505,408.827611 62.018525,406.639141 C62.4439992,404.949464 62.0402425,404.232763 61.6981208,403.984197 C61.3515424,403.732393 60.2522581,405.240002 59.0575555,406.411614 C57.5454372,407.894506 55.7627912,409.375093 53.8586581,411.995907 C52.7442424,413.529769 51.5619671,414.975664 50.8139624,416.225092 C50.1469022,417.339314 49.6847411,418.30722 49.4181011,419.077697 C49.1005056,418.463536 48.7786242,417.828269 48.4530898,417.17161 C47.9992306,416.256098 47.6060439,414.686153 47.2658986,412.737899 C49.0324852,412.580232 52.4654807,411.259157 55.675451,408.265811 C58.0687459,406.034028 60.349777,402.935003 61.3083065,400.891891 C62.048369,399.314443 61.7887836,398.533869 61.5003763,398.22459 C61.208212,397.911282 59.8414591,399.181439 58.4451526,400.103565 C56.677867,401.270686 54.645464,402.383926 52.2762403,404.593262 C50.8896248,405.886302 49.4531815,407.080043 48.4805176,408.16379 C47.8086572,408.91238 47.2742159,409.598256 46.8774479,410.197273 C46.7378221,409.16307 46.6091352,408.070553 46.490605,406.948028 C48.1938038,406.458001 51.3143975,404.505887 53.8961712,400.952381 C55.8196501,398.304939 57.4674505,394.827611 58.018525,392.639141 C58.4439992,390.949464 58.0402425,390.232763 57.6981208,389.984197 C57.3515424,389.732393 56.2522581,391.240002 55.0575555,392.411614 C53.5454372,393.894506 51.7627912,395.375093 49.8586581,397.995907 C48.7442424,399.529769 47.5619671,400.975664 46.8139624,402.225092 C46.5661454,402.639032 46.3466079,403.032778 46.1548692,403.40371 C46.021265,401.836041 45.9049033,400.266958 45.8038248,398.767356 C47.2374259,397.585105 49.0120983,394.517013 49.4694371,390.165725 C50.0755966,384.398502 48.1380549,378.56102 46.7649067,378.416696 C46.1588439,378.352996 45.9593003,380.208125 45.3936961,381.807849 C44.6778189,383.832598 43.6339679,385.980887 43.2953474,389.202645 C43.0971659,391.088216 42.7514367,392.926827 42.7826702,394.388574 C42.8467858,397.389221 43.6410915,399.194281 44.5619648,399.30079 C44.2473821,412.936713 48.0810692,423.420627 56.0630259,430.752533 C57.0580681,431.666539 57.7584064,432.366971 58.2011303,432.836908 Z" id="Combined-Shape" fill="url(#linearGradient-8)" mask="url(#mask-3)"></path>
        <path d="M302.739768,408.494669 C301.564241,407.026725 300.380043,405.344987 299.187174,403.449454 C297.484401,403.839318 293.764889,403.017248 290.073823,400.028282 C285.567161,396.378859 282.809487,390.881086 283.678397,389.808072 C284.061905,389.334478 285.514779,390.505154 287.045897,391.236387 C288.983812,392.161899 291.240995,392.942854 293.758563,394.981541 C294.16195,395.308196 294.570667,395.624543 294.972318,395.933405 C294.805918,395.604905 294.639355,395.272382 294.472628,394.935837 C294.490196,394.857535 294.507986,394.783962 294.526,394.715118 C293.270557,392.693563 292.00764,389.604471 291.548619,386.338369 C290.741556,380.595815 292.725251,376.480645 294.092526,376.288487 C295.012775,376.159154 295.618417,383.618484 295.882283,385.49599 C296.333135,388.703968 297.730028,391.324178 297.525246,393.461969 C297.374772,395.032828 297.584964,396.741441 297.129658,397.041073 C297.175329,397.111457 297.22083,397.181715 297.266165,397.251844 C297.673824,396.055013 298.286627,394.718694 298.819303,393.331025 C299.980238,390.306687 301.544538,388.501768 302.760066,386.731294 C303.720437,385.332468 304.393324,383.592196 304.962249,383.810586 C306.251255,384.305389 306.611924,390.445437 304.533752,395.859261 C303.407991,398.79197 301.797489,400.909974 300.35287,402.156686 C301.573801,404.110926 302.715996,405.900701 303.884097,407.474304 C303.888571,407.075601 303.904071,406.622202 303.930197,406.107897 C304.004075,404.65355 304.369155,402.821856 304.633022,400.94435 C305.083874,397.736372 305.962763,395.59219 306.601709,393.572977 C307.10653,391.977627 307.369361,390.130404 307.793586,390.190025 C308.212356,390.248879 308.905324,390.692137 309.322907,392.383781 C309.863762,394.574799 309.273265,399.264942 308.817832,402.505512 C308.23388,406.660548 306.807299,408.861354 305.699088,409.709459 C306.884938,411.057278 308.065824,412.228204 308.930426,413.103409 C309.004826,411.649783 309.369427,409.819925 309.633022,407.94435 C310.083874,404.736372 310.962763,402.59219 311.601709,400.572977 C312.10653,398.977627 312.369361,397.130404 312.793586,397.190025 C313.212356,397.248879 313.905324,397.692137 314.322907,399.383781 C314.863762,401.574799 315.041347,405.418693 314.585914,408.659264 C314.130942,411.896564 312.995977,414.49075 311.920088,416.1139 C311.926464,416.120227 311.932838,416.126552 311.939211,416.132876 C312.108858,416.253856 312.230542,416.373851 312.299455,416.489687 C313.229327,417.409036 314.138319,418.294869 315.024737,419.147432 C315.581321,417.380505 316.648045,414.65069 316.758223,413.866696 C316.879992,413.000216 318.720484,406.956962 319.812933,406.744611 C320.905383,406.53226 321.430479,414.551608 321.018939,415.963532 C320.106225,419.094901 318.220629,420.311527 318.135164,420.950444 C318.075534,421.396219 317.924134,421.616708 317.743379,421.726098 C319.260429,423.14492 320.697492,424.455319 322.04449,425.658758 C322.07881,425.378308 322.12916,425.062281 322.197863,424.705782 C322.473428,423.275871 323.49824,421.233993 324.020836,419.411481 C324.580852,417.458476 325.224512,414.527427 326.43471,412.401084 C326.78487,411.785845 327.241354,410.987346 327.867164,410.860667 C328.527121,410.727075 329.350387,411.304463 329.441796,412.194128 C329.672456,414.439096 329.313346,418.270296 328.411346,421.415946 C327.327404,425.1961 325.627708,427.006527 324.354895,427.69691 C331.314395,433.757813 335.228296,436.455632 334.297816,436.051771 C333.974622,435.911494 332.950421,435.278132 331.40631,434.213362 C331.25065,435.480842 328.459636,437.929073 323.838656,438.743876 C318.914165,439.612196 313.776231,438.296657 313.569488,437.124159 C313.478238,436.606657 315.062014,436.323422 316.404071,435.740666 C318.102694,435.00308 319.887859,433.97594 322.63884,433.490868 C324.248883,433.206974 325.809657,432.798984 327.068927,432.737926 C328.014843,432.692061 328.828932,432.73993 329.488215,432.857573 C327.973476,431.763265 326.172088,430.410361 324.175235,428.829913 C323.4037,430.155821 320.790289,432.047096 316.838656,432.743876 C311.914165,433.612196 306.776231,432.296657 306.569488,431.124159 C306.478238,430.606657 308.062014,430.323422 309.404071,429.740666 C311.102694,429.00308 312.887859,427.97594 315.63884,427.490868 C317.248883,427.206974 318.809657,426.798984 320.068927,426.737926 C320.625813,426.710924 321.137008,426.71641 321.597822,426.749495 C320.119472,425.532901 318.566103,424.214168 316.967643,422.803488 C316.277759,424.00464 314.224816,425.680353 309.869407,426.21513 C306.621381,426.613938 302.781172,426.369295 300.599927,425.790284 C299.735515,425.560826 299.294023,424.657372 299.52921,424.026439 C299.752228,423.428151 300.612305,423.1022 301.274748,422.852595 C303.564228,421.989931 306.559881,421.812712 308.576448,421.565108 C310.458273,421.334049 312.635329,420.641274 314.090743,420.592789 C314.23398,420.588018 314.370541,420.585084 314.500746,420.583894 C313.49176,419.658194 312.471412,418.699511 311.446716,417.710235 C309.898188,418.69637 306.521617,419.79048 302.310535,419.569787 C299.042602,419.398521 295.303216,418.49075 293.255653,417.541766 C292.444218,417.16569 292.166317,416.199298 292.507491,415.61879 C292.831012,415.068318 293.734624,414.89667 294.430346,414.765889 C296.834843,414.313894 299.81576,414.659557 301.844686,414.765889 C303.738045,414.865116 306.002326,414.560907 307.444048,414.765889 C307.880942,414.828006 308.296589,414.900064 308.687669,414.979872 C307.640402,413.916993 306.595146,412.824518 305.55934,411.704979 C303.960965,412.43411 300.289634,412.962633 295.991048,411.890875 C292.815835,411.099205 289.318363,409.494603 287.489494,408.172362 C286.077459,407.151484 285.926067,406.342929 286.028373,405.932605 C286.067012,405.777629 287.717854,405.662645 289.172267,405.671627 C291.618832,405.686737 294.624001,405.977309 296.595361,406.468825 C298.435001,406.927498 300.858296,407.837163 302.234417,408.313472 C302.407908,408.373521 302.576383,408.433963 302.739768,408.494669 Z" id="Combined-Shape" fill="url(#linearGradient-9)" mask="url(#mask-3)" transform="translate(308.976182, 407.655827) scale(-1, 1) rotate(11.000000) translate(-308.976182, -407.655827) "></path>
        <path d="M262,427.5 C262,437.736667 270.263333,446 280.5,446 C290.736667,446 299,437.736667 299,427.5 C299,417.263333 290.736667,409 280.5,409 C270.263333,409 262,417.263333 262,427.5 Z" id="Shape" fill="url(#linearGradient-10)" fill-rule="nonzero" mask="url(#mask-3)"></path>
        <path d="M266.316667,427.5 C266.316667,432.556667 269.03,437.243333 273.346667,439.71 C277.663333,442.176667 283.09,442.3 287.53,439.71 C291.97,437.12 294.56,432.556667 294.56,427.5 C294.56,419.73 288.27,413.316667 280.376667,413.316667 C272.483333,413.316667 266.316667,419.73 266.316667,427.5 Z" id="Shape" fill="#FBB11B" fill-rule="nonzero" mask="url(#mask-3)"></path>
        <path d="M294.683333,427.5 C294.683333,424.416667 293.696667,421.456667 291.846667,419.113333 C291.239821,418.641342 288.89251,416.699033 286.725281,415.814792 C284.350682,414.845943 282.142656,414.952164 281.481631,414.952164 C273.588298,414.952164 268.279929,420.478304 268.279929,428.371638 C268.279929,431.454971 270.386667,436.626667 272.236667,438.97 C274.456667,440.696667 277.54,441.806667 280.623333,441.806667 C288.393333,441.683333 294.683333,435.393333 294.683333,427.5 Z" id="Shape" fill="url(#linearGradient-11)" fill-rule="nonzero" mask="url(#mask-3)"></path>
        <g id="Shape" fill-rule="nonzero" mask="url(#mask-3)" transform="translate(281.000000, 427.718952) rotate(24.000000) translate(-281.000000, -427.718952) ">
            <use fill="black" fill-opacity="1" filter="url(#filter-13)" xlink:href="#path-12"></use>
            <use fill="#FFDD6C" xlink:href="#path-12"></use>
            <use fill="black" fill-opacity="1" filter="url(#filter-14)" xlink:href="#path-12"></use>
        </g>
        <g id="金币" mask="url(#mask-3)" fill-rule="nonzero">
            <g transform="translate(27.000000, 18.000000)" id="Shape">
                <path d="M0,11 C0,17.0866667 4.91333333,22 11,22 C17.0866667,22 22,17.0866667 22,11 C22,4.91333333 17.0866667,0 11,0 C4.91333333,0 0,4.91333333 0,11 Z" fill="url(#linearGradient-10)" filter="url(#filter-15)"></path>
                <path d="M2.56666667,11 C2.56666667,14.0066667 4.18,16.7933333 6.74666667,18.26 C9.31333335,19.7266667 12.54,19.8 15.18,18.26 C17.82,16.72 19.36,14.0066667 19.36,11 C19.36,6.38 15.62,2.56666667 10.9266667,2.56666667 C6.23333335,2.56666667 2.56666667,6.38 2.56666667,11 Z" fill="#FBB11B" filter="url(#filter-16)"></path>
                <path d="M19.4333333,11 C19.4333333,9.16666667 18.8466667,7.40666667 17.7466667,6.01333333 C17.3858396,5.73269001 15.9901413,4.57780317 14.7015187,4.0520386 C13.2895945,3.4759664 11.9767145,3.53912434 11.5836725,3.53912434 C6.89033916,3.53912434 3.73401164,6.82493769 3.73401164,11.518271 C3.73401164,13.3516043 4.98666667,16.4266667 6.08666667,17.82 C7.40666667,18.8466667 9.24,19.5066667 11.0733333,19.5066667 C15.6933333,19.4333333 19.4333333,15.6933333 19.4333333,11 Z" fill="url(#linearGradient-11)" filter="url(#filter-17)"></path>
                <g fill="none" filter="url(#filter-19)" transform="translate(11.297297, 11.130188) rotate(24.000000) translate(-11.297297, -11.130188) ">
                    <use fill="black" fill-opacity="1" filter="url(#filter-20)" xlink:href="#path-18"></use>
                    <use fill="#FFDD6C" xlink:href="#path-18"></use>
                    <use fill="black" fill-opacity="1" filter="url(#filter-21)" xlink:href="#path-18"></use>
                </g>
            </g>
        </g>
        <g id="Group-10" mask="url(#mask-3)">
            <g transform="translate(55.000000, 402.000000)">
                <path d="M29.7888915,37.0149133 C29.6656322,33.8518953 29.2601126,31.2842149 28.5723328,29.3118722 C27.884553,27.3395295 26.0919707,24.5547027 23.1945859,20.9573917 L22.070923,23.0242351 C21.3163539,22.2423042 20.3802024,20.662201 19.2624685,18.2839256 C19.0892098,17.9152717 18.577604,16.2710806 17.7276512,13.3513524 C17.3719087,13.848894 17.1047295,14.1830143 16.9261135,14.3537134 C16.7474976,14.5244124 16.3127827,14.7951765 15.6219687,15.1660055 C15.2316337,13.2592907 14.8509838,11.9269063 14.480019,11.1688522 C13.2288634,8.61215771 11.5388902,7.01883431 10.7234148,6.31880317 C9.54525951,5.30743559 8.75184258,3.20116787 8.34316401,0 C3.12575747,4.58975013 1.82292956,10.684392 4.43468027,18.2839256 C4.35164616,18.4163977 3.29500063,17.682167 1.26474369,16.0812334 C-0.197095035,24.3246006 2.38324411,31.3024939 9.00576114,37.0149133 C11.543469,37.0149133 15.0823517,37.0149133 19.6224093,37.0149133 L29.7888915,37.0149133 Z" id="Path-4" stroke="none" fill="url(#linearGradient-22)" fill-rule="evenodd"></path>
                <path d="M20.406399,37.017393 C20.3892276,34.518836 19.0831434,32.446838 16.4881466,30.8013991 C13.8931497,29.1559601 12.2469194,25.1081857 11.5494557,18.6580758" id="Path-5" stroke="#FFFFFF" stroke-width="1.5" fill="none"></path>
                <circle id="Oval-7" stroke="none" fill="#FFFFFF" fill-rule="evenodd" cx="12" cy="20" r="2"></circle>
                <circle id="Oval-7-Copy" stroke="none" fill="#FFFFFF" fill-rule="evenodd" cx="9.5" cy="26.5" r="1.5"></circle>
                <circle id="Oval-7-Copy-2" stroke="none" fill="#FFFFFF" fill-rule="evenodd" cx="17.5" cy="25.5" r="1.5"></circle>
                <circle id="Oval-7-Copy-3" stroke="none" fill="#FFFFFF" fill-rule="evenodd" cx="21.5" cy="29.5" r="1.5"></circle>
                <circle id="Oval-7-Copy-4" stroke="none" fill="#FFFFFF" fill-rule="evenodd" cx="14.5" cy="33.5" r="1.5"></circle>
                <path d="M21.0677994,30 C20.1186444,31.3189196 19.8022594,32.9619392 20.1186444,34.9290588" id="Path-11" stroke="#FFFFFF" stroke-width="1" fill="none"></path>
                <path d="M17.0677994,26 C16.1186444,27.3189196 15.8022594,28.9619392 16.1186444,30.9290588" id="Path-11-Copy-3" stroke="#FFFFFF" stroke-width="1" fill="none"></path>
                <path d="M10.5493702,26.8649816 C11.5128598,28.1091832 12.55529,28.5070971 13.6766609,28.0587234" id="Path-12" stroke="#FFFFFF" stroke-width="1" fill="none"></path>
                <path d="M15,34 C17.3704162,35.1314741 18.994685,35.4982542 19.8728063,35.1003403" id="Path-12-Copy" stroke="#FFFFFF" stroke-width="1" fill="none"></path>
            </g>
        </g>
        <path d="M281.5,196 L59.5,196" id="Line" stroke="#FF8862" stroke-linecap="round" stroke-linejoin="round" stroke-dasharray="1,3" mask="url(#mask-3)"></path>
    </g>
</svg>