<?xml version="1.0" encoding="UTF-8"?>
<svg width="14px" height="14px" viewBox="0 0 14 14" version="1.1" xmlns="http://www.w3.org/2000/svg" xmlns:xlink="http://www.w3.org/1999/xlink">
    <!-- Generator: Sketch 52.1 (67048) - http://www.bohemiancoding.com/sketch -->
    <title>Artboard 8</title>
    <desc>Created with Sketch.</desc>
    <g id="Artboard-8" stroke="none" stroke-width="1" fill="none" fill-rule="evenodd">
        <path d="M11.347,14 L2.653,14 C1.18858796,13.9980719 0.00192812896,12.811412 2.13162821e-14,11.347 L2.13162821e-14,2.653 C0.00192812896,1.18858796 1.18858796,0.00192812896 2.653,2.13162821e-14 L11.347,2.13162821e-14 C12.811412,0.00192812896 13.9980719,1.18858796 14,2.653 L14,11.347 C13.9980719,12.811412 12.811412,13.9980719 11.347,14 Z M8.05,4.15975 C6.88206977,4.16795173 5.7474741,4.55003449 4.8125,5.25 C3.170125,6.500375 2.33625,8.6695 2.33625,11.69875 L2.33625,11.68825 C2.68576937,10.8790123 3.13206405,10.115111 3.665375,9.41325 C4.54513277,8.08441722 5.98930095,7.23638822 7.578375,7.1155 C7.7997507,7.11591994 8.02071237,7.13465047 8.239,7.1715 L8.239,9.0265 L11.69875,5.65775 L8.239,2.289 L8.239,4.165 C8.234625,4.165 8.16375,4.15975 8.05,4.15975 Z" id="Shape" fill="#4B505F" fill-rule="nonzero"></path>
    </g>
</svg>