<?xml version="1.0" encoding="UTF-8"?>
<svg width="14px" height="14px" viewBox="0 0 14 14" version="1.1" xmlns="http://www.w3.org/2000/svg" xmlns:xlink="http://www.w3.org/1999/xlink">
    <!-- Generator: Sketch 52.1 (67048) - http://www.bohemiancoding.com/sketch -->
    <title>Artboard 9</title>
    <desc>Created with Sketch.</desc>
    <g id="Artboard-9" stroke="none" stroke-width="1" fill="none" fill-rule="evenodd">
        <path d="M7,14 C3.13356522,14 0,10.8658261 0,7 C0,3.13356522 3.13356522,0 7,0 C10.8664348,0 14,3.13356522 14,7 C14,10.8658261 10.8664348,14 7,14 Z" id="Shape" fill="#4B505F" fill-rule="nonzero"></path>
        <path d="M10.0615819,8.16666667 L6.27174051,8.16666667 C6.14291071,8.16619354 6.02096914,8.10297624 5.93907046,7.99420291 C5.87143557,7.90921072 5.8339179,7.80050203 5.83333333,7.68782609 L5.83333333,7.68309179 L5.83333333,7.6810628 L5.83333333,2.81285024 C5.83333333,2.54772946 6.03244068,2.33333333 6.27792396,2.33333333 C6.52340724,2.33333333 6.72251458,2.54772946 6.72251458,2.81285024 L6.72251458,7.19478261 L10.0615819,7.19478261 C10.3039735,7.19478261 10.4999891,7.41256039 10.4999891,7.6810628 C10.5008117,7.80907348 10.4550645,7.93218873 10.372829,8.02327727 C10.2905935,8.11436582 10.1786191,8.16595166 10.0615819,8.16666667 Z" id="Path" fill="#FFFFFF"></path>
    </g>
</svg>