<?xml version="1.0" encoding="UTF-8"?>
<svg width="12px" height="12px" viewBox="0 0 12 12" version="1.1" xmlns="http://www.w3.org/2000/svg" xmlns:xlink="http://www.w3.org/1999/xlink">
    <!-- Generator: Sketch 52.1 (67048) - http://www.bohemiancoding.com/sketch -->
    <title>画板</title>
    <desc>Created with Sketch.</desc>
    <g id="画板" stroke="none" stroke-width="1" fill="none" fill-rule="evenodd">
        <g id="Group-3">
            <path d="M6,12 C2.68591304,12 0,9.31356521 0,6 C0,2.68591304 2.68591304,0 6,0 C9.31408696,0 12,2.68591304 12,6 C12,9.31356521 9.31408696,12 6,12 Z" id="Shape" fill="#4E8CEE" fill-rule="nonzero"></path>
            <path d="M9.19252174,6.74973913 L5.99478261,6.74973913 C5.88608042,6.74937415 5.78319027,6.70060651 5.71408696,6.61669566 C5.65701894,6.55113026 5.62536281,6.46726927 5.62486957,6.38034783 L5.62486957,6.37669566 L5.62486957,6.37513043 L5.62486957,2.61965217 C5.62486957,2.41513043 5.79286957,2.24973913 6,2.24973913 C6.20713043,2.24973913 6.37513043,2.41513043 6.37513043,2.61965217 L6.37513043,6 L9.19252174,6 C9.39704348,6 9.56243479,6.168 9.56243479,6.37513043 C9.56312885,6.47388152 9.52452894,6.56885615 9.45514143,6.63912445 C9.38575393,6.70939276 9.29127374,6.74918755 9.19252174,6.74973913 Z" id="Path" fill="#FFFFFF"></path>
        </g>
    </g>
</svg>