<?xml version="1.0" encoding="UTF-8"?>
<svg width="37px" height="38px" viewBox="0 0 37 38" version="1.1" xmlns="http://www.w3.org/2000/svg" xmlns:xlink="http://www.w3.org/1999/xlink">
    <!-- Generator: Sketch 52.1 (67048) - http://www.bohemiancoding.com/sketch -->
    <title>Artboard 10</title>
    <desc>Created with Sketch.</desc>
    <defs>
        <path d="M18.5,0 L18.5,0 C28.7172679,-1.87688166e-15 37,8.28273213 37,18.5 L37,19.0246873 C37,29.2419552 28.7172679,37.5246873 18.5,37.5246873 L18.5,37.5246873 C8.28273213,37.5246873 1.25125444e-15,29.2419552 0,19.0246873 L0,18.5 C-1.25125444e-15,8.28273213 8.28273213,1.87688166e-15 18.5,0 Z" id="path-1"></path>
    </defs>
    <g id="Artboard-10" stroke="none" stroke-width="1" fill="none" fill-rule="evenodd">
        <g id="Group-2">
            <g id="Path-Copy">
                <mask id="mask-2" fill="white">
                    <use xlink:href="#path-1"></use>
                </mask>
                <use id="Mask" fill="#4B505F" xlink:href="#path-1"></use>
                <path d="M29.6100673,37.1595079 C28.5301353,37.6577114 27.39571,38.0045501 26.2343955,38.1915845 C21.4685997,39.0138083 16.6123661,39.0138083 11.8465704,38.1915845 C10.6823195,38.0052302 9.54494551,37.6583815 8.46222071,37.1595079 C7.36200344,36.7548309 6.58398159,35.689553 6.475,34.4385786 C6.62898763,32.5748844 7.34555841,30.8176607 8.51428763,29.4376984 C9.84642193,27.7735026 11.5844825,26.5477945 13.5300674,25.9004904 C13.737582,25.825191 13.8925666,25.6365053 13.93721,25.4048153 C13.9818534,25.1731252 13.9094522,24.9332206 13.7470129,24.7745886 C11.376965,22.419583 10.5860124,18.733644 11.7548583,15.4908958 C12.9237041,12.2481476 15.8128974,10.1129032 19.0318051,10.1129032 C22.2507128,10.1129032 25.1399061,12.2481476 26.308752,15.4908958 C27.4775978,18.733644 26.6866453,22.419583 24.3165973,24.7745886 C24.1538514,24.9318612 24.080216,25.1704964 24.1230237,25.4019161 C24.1658314,25.6333358 24.3186917,25.8229933 24.524865,25.9004904 C26.4814118,26.5508722 28.2327358,27.7753415 29.5840339,29.4376984 C30.22612,30.2474928 30.7446255,31.1628415 31.120008,32.1492451 C31.4093038,32.8835202 31.5710939,33.6691081 31.597288,34.4667262 C31.4786003,35.7071176 30.70232,36.7590155 29.6100673,37.1595079 Z" fill="#FFFFFF" mask="url(#mask-2)"></path>
            </g>
            <path d="M19.4560593,27.8717663 C19.4038389,27.677789 19.4323521,27.4688393 19.5341597,27.2994329 L19.7944943,26.8678372 C19.8685384,26.7455124 19.904981,26.6010385 19.8986281,26.4550066 L19.8986281,26.3987115 C19.8809529,26.0405985 19.6139363,25.7559647 19.2825029,25.7419355 L18.076286,25.7419355 C17.7448525,25.7559647 17.4778359,26.0405985 17.4601608,26.3987115 L17.4601608,26.4550066 C17.4538079,26.6010385 17.4902505,26.7455124 17.5642946,26.8678372 L17.833307,27.3088154 C17.9330257,27.4718992 17.9645319,27.6728809 17.9200852,27.8623838 L16.6704792,33.0978269 C16.6036164,33.3774435 16.7038312,33.6726116 16.9221359,33.8390456 L18.4147209,34.9555648 C18.6341562,35.1191185 18.9242225,35.1191185 19.1436578,34.9555648 L20.6188871,33.8484281 C20.8443506,33.6792656 20.9454716,33.3738879 20.8705439,33.0884444 L19.4560593,27.8717663 Z" id="Shape-Copy" fill="#4A505D" fill-rule="nonzero"></path>
        </g>
    </g>
</svg>