<?xml version="1.0" encoding="UTF-8"?>
<svg width="11px" height="11px" viewBox="0 0 11 11" version="1.1" xmlns="http://www.w3.org/2000/svg" xmlns:xlink="http://www.w3.org/1999/xlink">
    <!-- Generator: Sketch 52.1 (67048) - http://www.bohemiancoding.com/sketch -->
    <title>画板</title>
    <desc>Created with Sketch.</desc>
    <g id="画板" stroke="none" stroke-width="1" fill="none" fill-rule="evenodd">
        <path d="M10.9684153,0.378954955 L10.9819233,0.252900901 C10.9835124,0.183135135 10.9676208,0.121297297 10.9223296,0.0769009009 C10.877833,0.0325045045 10.8150609,0.00475675676 10.7467269,0.00713513514 L10.6203883,0.0103063063 C10.6180045,0.0103063063 10.6164153,0.0110990991 10.6140316,0.0110990991 L7.46112867,0 C7.32287133,0.00317117117 7.20845147,0.117333333 7.20527314,0.256864865 L7.20368397,0.432864865 C7.2251377,0.59618018 7.35465463,0.691315315 7.49211738,0.688144144 L9.80355756,0.693693694 L7.05271332,3.4209009 C6.30660045,2.79697297 5.34515576,2.42118919 4.29551242,2.42118919 C1.92288939,2.42118919 0,4.33974775 0,6.70702703 C0,9.07351351 1.92288939,10.9936577 4.29551242,10.9936577 C6.66813544,10.9936577 8.59181941,9.07351351 8.59181941,6.70702703 C8.59181941,5.63358559 8.19611738,4.65369369 7.54376524,3.90133333 L10.3025553,1.1661982 L10.2906366,3.51524324 C10.2874582,3.65398198 10.3979052,3.77448649 10.5369571,3.77131532 L10.714149,3.77131532 C10.8532009,3.76814414 10.9676208,3.68569369 10.9707991,3.54695495 L10.9779503,0.385297297 C10.9771558,0.383711712 10.9684153,0.381333333 10.9684153,0.378954955 Z M7.91006772,6.70702703 C7.91006772,8.69852252 6.29150339,10.3134414 4.29551242,10.3134414 C2.29952144,10.3134414 0.681751693,8.69852252 0.681751693,6.70702703 C0.681751693,4.71473874 2.30031603,3.10140541 4.29551242,3.10140541 C6.29150339,3.10140541 7.91006772,4.71553153 7.91006772,6.70702703 Z" id="Shape" fill="#4E8CEE" fill-rule="nonzero"></path>
    </g>
</svg>