<?xml version="1.0" encoding="UTF-8"?>
<svg width="11px" height="11px" viewBox="0 0 11 11" version="1.1" xmlns="http://www.w3.org/2000/svg" xmlns:xlink="http://www.w3.org/1999/xlink">
    <!-- Generator: Sketch 52.1 (67048) - http://www.bohemiancoding.com/sketch -->
    <title>画板 copy 12</title>
    <desc>Created with Sketch.</desc>
    <g id="画板-copy-12" stroke="none" stroke-width="1" fill="none" fill-rule="evenodd">
        <path d="M6.70015985,8.59073829 C9.07243076,8.59073829 10.995529,6.66743248 10.995529,4.29536915 C10.995529,1.92330581 9.07243076,0 6.70015985,0 C4.32788895,0 2.40479071,1.92206042 2.40479071,4.29536915 C2.40342087,5.31180101 2.76397245,6.29551816 3.42186372,7.07031793 L2.05421187,8.44523458 L0.601250428,6.97898893 C0.465089487,6.85975203 0.25977096,6.86661335 0.131874202,6.9946745 C0.00397744435,7.12273565 -0.00262012575,7.32806282 0.116791576,7.46407048 L1.56975302,8.9317691 L0.105375445,10.4054871 C0.015755434,10.4917443 -0.0202713895,10.6196892 0.0111730494,10.7400358 C0.0426174884,10.8603823 0.136626525,10.9543512 0.256986464,10.9857442 C0.377346403,11.0171373 0.505275994,10.9810558 0.591494835,10.891399 L2.05421187,9.42100197 L3.51962727,10.9003243 C3.65398184,11.0334262 3.87065058,11.0328956 4.00435169,10.8991373 C4.13805281,10.7653791 4.13849078,10.5487102 4.00533152,10.4144125 L2.5388783,8.93363719 L3.90632258,7.55768271 C4.68383722,8.22563858 5.67533482,8.59222973 6.70036742,8.59073829 L6.70015985,8.59073829 Z M6.70015985,0.68247675 C8.16177424,0.68247675 9.47946866,1.56293201 10.0388043,2.91328763 C10.5981399,4.26364324 10.2889651,5.81796979 9.25544766,6.85148723 C8.22193021,7.88500467 6.66760366,8.19417944 5.31724805,7.63484383 C3.96689244,7.07550822 3.08643718,5.75781379 3.08643718,4.29619941 C3.08655181,2.30044297 4.70440342,0.682591368 6.70015985,0.68247675 Z" id="形状" fill="#F94197" fill-rule="nonzero"></path>
    </g>
</svg>