<?xml version="1.0" encoding="UTF-8"?>
<svg width="335px" height="187px" viewBox="0 0 335 187" version="1.1" xmlns="http://www.w3.org/2000/svg" xmlns:xlink="http://www.w3.org/1999/xlink">
    <!-- Generator: Sketch 52.1 (67048) - http://www.bohemiancoding.com/sketch -->
    <title>画板 copy 15</title>
    <desc>Created with Sketch.</desc>
    <defs>
        <linearGradient x1="0%" y1="0%" x2="99.1853573%" y2="98.502691%" id="linearGradient-1">
            <stop stop-color="#FCEAAF" offset="0%"></stop>
            <stop stop-color="#FFC23C" offset="100%"></stop>
        </linearGradient>
        <rect id="path-2" x="0" y="0" width="305" height="157" rx="4"></rect>
        <filter x="-8.0%" y="-13.1%" width="116.1%" height="131.2%" filterUnits="objectBoundingBox" id="filter-4">
            <feOffset dx="0" dy="4" in="SourceAlpha" result="shadowOffsetOuter1"></feOffset>
            <feGaussianBlur stdDeviation="7.5" in="shadowOffsetOuter1" result="shadowBlurOuter1"></feGaussianBlur>
            <feColorMatrix values="0 0 0 0 0.980392157   0 0 0 0 0.780392157   0 0 0 0 0.207843137  0 0 0 0.401579484 0" type="matrix" in="shadowBlurOuter1"></feColorMatrix>
        </filter>
    </defs>
    <g id="画板-copy-15" stroke="none" stroke-width="1" fill="none" fill-rule="evenodd">
        <g id="A" transform="translate(15.000000, 11.000000)">
            <g id="Combined-Shape">
                <mask id="mask-3" fill="white">
                    <use xlink:href="#path-2"></use>
                </mask>
                <g id="Mask">
                    <use fill="black" fill-opacity="1" filter="url(#filter-4)" xlink:href="#path-2"></use>
                    <use fill="url(#linearGradient-1)" fill-rule="evenodd" xlink:href="#path-2"></use>
                </g>
                <path d="M24.8120773,39.5649554 L70.4071429,39.5649554 L47.0753222,76.6109461 L70.4071429,115.435045 L22.623637,115.435045 L-2.67351321,155.601563 L-26.8120773,115.435045 L-72.4071429,115.435045 L-49.0753222,78.3890539 L-72.4071429,39.5649554 L-24.623637,39.5649554 L0.673513213,-0.6015625 L24.8120773,39.5649554 Z" fill="#FFFFFF" opacity="0.201483243" mask="url(#mask-3)"></path>
                <path d="M59.5099591,142.053906 L78.075,142.053906 L68.5749324,157.138002 L78.075,172.946094 L58.6188871,172.946094 L48.318592,189.300781 L38.4900409,172.946094 L19.925,172.946094 L29.4250676,157.861998 L19.925,142.053906 L39.3811129,142.053906 L49.681408,125.699219 L59.5099591,142.053906 Z" fill="#FFFFFF" opacity="0.201483243" mask="url(#mask-3)"></path>
            </g>
        </g>
    </g>
</svg>