<?xml version="1.0" encoding="UTF-8"?>
<svg width="16px" height="15px" viewBox="0 0 16 15" version="1.1" xmlns="http://www.w3.org/2000/svg" xmlns:xlink="http://www.w3.org/1999/xlink">
    <!-- Generator: Sketch 52.1 (67048) - http://www.bohemiancoding.com/sketch -->
    <title>画板</title>
    <desc>Created with Sketch.</desc>
    <g id="画板" stroke="none" stroke-width="1" fill="none" fill-rule="evenodd">
        <path d="M9.71893081,15 C9.57610113,15 9.43336895,14.9824542 9.2936006,14.9493798 L9.22268299,14.9337561 L3.96040864,11.3929687 C3.91053037,11.3579533 3.8406072,11.3452411 3.70982786,11.3452411 L3.58109591,11.3471632 C3.52885827,11.3494849 3.47660113,11.350817 3.42434399,11.3511024 L1.84791381,11.3511024 C0.852629812,11.3511024 0,10.2871269 0,9.41703046 L0,5.52454699 C0,4.56091741 0.939458557,3.98502708 1.84791381,3.98502708 L3.42334954,3.98502708 C3.58109591,3.98502708 3.77875658,3.86424273 3.95044468,3.74730248 L9.21971915,0.067195451 L9.29459505,0.0486981476 C9.43535784,0.015604721 9.57916247,7.10542736e-15 9.7228891,7.10542736e-15 C10.7142148,7.10542736e-15 11.5199107,0.782386457 11.5199107,1.7450455 L11.5199107,13.2461816 C11.5199107,14.2147019 10.7122259,15 9.71893081,15 Z M9.54815916,14.2108388 C10.1472054,14.3121553 10.7262457,13.8308258 10.7262457,13.2461816 L10.7262457,1.7450455 C10.7218194,1.45841342 10.5895191,1.18789987 10.3639165,1.00422089 C10.1382943,0.820598993 9.84193008,0.742099634 9.55219544,0.78923731 L4.40972253,4.38064482 C4.11914944,4.5784632 3.80069288,4.76065783 3.42334954,4.76065783 L1.84791381,4.76065783 C1.32980768,4.76065783 0.794659486,5.04513951 0.794659486,5.52549849 L0.794659486,9.41798197 C0.794659486,9.94808576 1.36576371,10.5765183 1.84791381,10.5765183 L3.55711222,10.5725791 C3.60798493,10.570657 3.65993009,10.568716 3.70883341,10.568716 C3.91053037,10.568716 4.1710946,10.5910954 4.41368082,10.7557443 L9.54815916,14.2108388 Z M13.8040936,11.7544654 C13.642545,11.7558737 13.496303,11.6614651 13.4344524,11.5158464 C13.3725432,11.3702087 13.4074268,11.202515 13.5225875,11.0918928 C15.7409031,8.92692804 15.7409031,6.01851253 13.5225875,3.85352876 C13.4223435,3.75556156 13.3833457,3.61283545 13.4201401,3.47909158 C13.4570126,3.34536673 13.5641008,3.2410054 13.7011978,3.20532387 C13.8382167,3.16956623 13.9844587,3.20798809 14.0846248,3.30597432 C16.6384584,5.79831469 16.6384584,9.1481535 14.0846248,11.6414644 C14.0100608,11.7137219 13.9092124,11.7543132 13.8040936,11.7544654 Z" id="通知2" fill="#F88F5B"></path>
    </g>
</svg>