<?xml version="1.0" encoding="UTF-8"?>
<svg width="10px" height="10px" viewBox="0 0 10 10" version="1.1" xmlns="http://www.w3.org/2000/svg" xmlns:xlink="http://www.w3.org/1999/xlink">
    <!-- Generator: Sketch 52.1 (67048) - http://www.bohemiancoding.com/sketch -->
    <title>画板 copy 7</title>
    <desc>Created with Sketch.</desc>
    <g id="画板-copy-7" stroke="none" stroke-width="1" fill="none" fill-rule="evenodd">
        <path d="M9.83333333,1.44942648 L8.54166667,0.156412928 C8.33333334,-0.0521376426 8,-0.0521376426 7.75,0.156412928 L6.75,1.15745567 L8.875,3.28467153 L9.83333333,2.24191865 C10.0416667,1.99165797 10.0416667,1.65797705 9.83333333,1.44942648 Z M0,7.87278415 L0,10 L2.125,10 L8.25,3.82690302 L6.125,1.69968716 L0,7.87278415 Z M8.75,8.74869655 L10,8.74869655 L10,10 L8.75,10 L8.75,8.74869655 Z M6.66666666,8.74869655 L7.91666667,8.74869655 L7.91666667,10 L6.66666666,10 L6.66666666,8.74869655 Z M4.58333333,8.74869655 L5.83333333,8.74869655 L5.83333333,10 L4.58333333,10 L4.58333333,8.74869655 Z" id="Shape" fill="#4B505F" fill-rule="nonzero"></path>
    </g>
</svg>