<?xml version="1.0" encoding="UTF-8"?>
<svg width="20px" height="20px" viewBox="0 0 20 20" version="1.1" xmlns="http://www.w3.org/2000/svg" xmlns:xlink="http://www.w3.org/1999/xlink">
    <!-- Generator: Sketch 52.1 (67048) - http://www.bohemiancoding.com/sketch -->
    <title>画板</title>
    <desc>Created with Sketch.</desc>
    <g id="画板" stroke="none" stroke-width="1" fill="none" fill-rule="evenodd">
        <path d="M11.1151619,9.77717566 L16.4161995,15.0782133 C16.7917992,15.4538129 16.7917992,16.0627803 16.4161995,16.43838 C16.0405999,16.8139796 15.4316325,16.8139796 15.0560328,16.43838 L9.75499523,11.1373423 L4.52472618,16.3676114 C4.14799181,16.7443458 3.53718472,16.7443458 3.16045036,16.3676114 C2.78371599,15.990877 2.78371599,15.3800699 3.16045036,15.0033356 L8.39071941,9.77306653 L3.18685806,4.56920518 C2.8112584,4.19360552 2.8112584,3.58463815 3.18685806,3.20903849 C3.56245772,2.83343883 4.17142509,2.83343883 4.54702475,3.20903849 L9.7508861,8.41289984 L15.025516,3.13826993 C15.4022504,2.76153556 16.0130575,2.76153556 16.3897918,3.13826993 C16.7665262,3.51500429 16.7665262,4.12581138 16.3897918,4.50254575 L11.1151619,9.77717566 Z" id="Combined-Shape" fill="#FFFFFF" transform="translate(9.787899, 9.787899) rotate(-45.000000) translate(-9.787899, -9.787899) "></path>
    </g>
</svg>