<?xml version="1.0" encoding="UTF-8"?>
<svg width="112px" height="112px" viewBox="0 0 112 112" version="1.1" xmlns="http://www.w3.org/2000/svg" xmlns:xlink="http://www.w3.org/1999/xlink">
    <!-- Generator: Sketch 52.1 (67048) - http://www.bohemiancoding.com/sketch -->
    <title>北京银行2</title>
    <desc>Created with Sketch.</desc>
    <defs>
        <linearGradient x1="-83.5205176%" y1="35.2021158%" x2="128.44535%" y2="35.2021158%" id="linearGradient-1">
            <stop stop-color="#FFFFFF" stop-opacity="0.275617074" offset="0%"></stop>
            <stop stop-color="#FFFFFF" stop-opacity="0" offset="100%"></stop>
        </linearGradient>
    </defs>
    <g id="北京银行2" stroke="none" stroke-width="1" fill="none" fill-rule="evenodd">
        <polygon id="Shape" fill="url(#linearGradient-1)" fill-rule="nonzero" points="109.7796 71.2362 110.2906 69.3588 110.7344 67.48 111.1124 65.5662 111.4176 63.6874 111.5562 62.727 111.6556 61.7372 111.762 60.781 111.86 59.8262 111.8936 58.8364 111.9678 57.8466 111.9678 56.854 112 55.8642 111.9678 54.4264 111.9342 53.0278 111.8278 51.6264 111.7284 50.225 111.5898 48.8236 111.4176 47.4586 111.2118 46.0908 110.9402 44.7594 110.6686 43.4266 110.3564 42.0952 110.0512 40.796 109.6746 39.4982 109.263 38.2326 108.8206 36.967 108.3432 35.7042 107.8658 34.475 107.3156 33.2458 106.7724 32.0138 106.155 30.8182 105.5404 29.6212 104.8908 28.462 104.209 27.3 103.4586 26.1366 102.7026 25.0096 101.9228 23.884 101.101 22.7906 100.2456 21.6972 99.3902 20.636 98.469 19.544 97.5156 18.5192 96.5552 17.4594 95.5276 16.436 94.507 15.4448 93.4472 14.4508 92.386 13.531 91.3262 12.6098 90.2328 11.7208 89.1408 10.8668 88.0138 10.045 86.8882 9.2596 85.7612 8.5078 84.595 7.7896 83.4358 7.1064 82.2416 6.4246 81.0432 5.8114 79.8504 5.2276 78.617 4.648 77.385 4.1342 76.1264 3.6218 74.8608 3.1444 73.5952 2.7328 72.3296 2.3254 71.0304 1.9474 69.7326 1.6072 68.3998 1.2978 67.0684 1.0276 65.737 0.7854 64.372 0.5838 63.007 0.4116 61.635 0.2422 60.2378 0.1386 58.8378 0.07 57.435 0 54.565 0 53.1272 0.07 51.6964 0.1386 50.2922 0.2422 48.9272 0.4116 47.5622 0.5838 46.1972 0.7854 44.8252 1.0276 43.4938 1.2978 42.161 1.6072 40.8632 1.9474 39.564 2.3254 38.3054 2.7328 37.0398 3.1444 35.7742 3.6218 34.5408 4.1342 33.3158 4.648 32.0838 5.2276 30.891 5.8114 29.6912 6.4246 28.532 7.1064 27.3658 7.7896 26.2066 8.5078 25.0796 9.2596 23.9526 10.045 22.8606 10.8668 21.7658 11.7208 20.6738 12.6098 19.5804 13.531 18.5528 14.4508 17.493 15.4448 16.4724 16.436 15.4448 17.4594 14.4914 18.5192 13.531 19.544 12.6098 20.636 11.7222 21.6972 10.9004 22.7906 10.0786 23.884 9.296 25.0096 8.5078 26.1366 7.7924 27.3 7.1106 28.462 6.461 29.6212 5.8114 30.8182 5.2276 32.0138 4.6844 33.2458 4.1342 34.475 3.6246 35.7042 3.1808 36.967 2.737 38.2326 2.3254 39.4982 1.9488 40.796 1.61 42.0952 1.2992 43.4266 1.0262 44.7594 0.7882 46.0908 0.5838 47.4586 0.4102 48.8236 0.2786 50.225 0.14 51.6264 0.0728 53.0278 0.0322 54.4264 0 55.8642 0.0322 57.2992 0.0728 58.7328 0.14 60.1356 0.2786 61.5328 0.4102 62.9356 0.5838 64.302 0.7882 65.667 1.0262 67.0012 1.2992 68.3354 1.61 69.6668 1.9488 70.9996 2.3254 72.2974 2.737 73.5588 3.1808 74.8566 3.6246 76.09 4.1342 77.3542 4.6844 78.5848 5.2276 79.814 5.8114 81.0096 6.461 82.2066 7.1106 83.3994 7.7924 84.5614 8.5078 85.7234 9.296 86.8826 10.0786 88.0152 10.9004 89.1058 11.7222 90.2328 12.6098 91.294 13.531 92.3874 14.4914 93.443 15.4448 94.5042 16.4724 95.5318 17.493 96.5216 18.5528 97.5114 19.5804 98.4662 20.6738 99.3566 21.7658 100.2456 22.8606 101.0996 23.9526 101.92 25.0796 102.704 26.2066 103.4558 27.3658 104.1754 28.532 104.8558 29.6912 105.539 30.891 106.155 32.0838 106.7724 33.3158 107.3142 34.5408 107.8672 35.7742 108.3418 37.0398 108.8206 38.3054 109.2644 39.564 109.641 40.8632 110.0162 42.161 110.3578 43.4938 110.6644 44.8252 110.9402 46.1972 111.1782 47.5622 111.3826 48.9272 111.5884 50.2922 111.7242 51.6964 111.8292 53.1272 111.895 54.565 111.9622 56.0028 111.9622 58.0174 111.93 59.9984 111.8614 61.9472 111.692 63.8946 111.4862 65.8028 111.2104 67.6522 110.8716 69.5268 110.4586 71.3426 110.0162 73.1192 109.4688 74.8944 108.8892 76.636 108.2382 78.3468 107.5578 80.0156 106.7724 81.6928 105.9492 83.335 105.0644 84.9394 104.1362 86.0328 103.4558 87.0926 102.7726 88.1188 102.0922 89.0736 101.3726 90.0284 100.6894 90.916 99.9698 91.7714 99.2558 92.5932 98.5362 93.3408 97.7844 94.0968 97.0662 94.7786 96.3172 95.4282 95.564 96.0456 94.78 96.621 94.0282 97.1376 93.2372 97.6486 92.4532 98.091 91.6678 98.5026 90.8838 98.8806 90.0984 99.218 89.2752 99.5302 88.4576 99.7682 87.6344 100.0076 86.8168 100.1798 85.9642 100.3114 85.141 100.4178 84.2912 100.4514 83.4344 100.4836 82.579 100.4514 81.6928 100.4178 80.8374 100.3114 79.9484 100.1798 79.0622 100.0076 78.344 99.8354 77.595 99.6296 76.9076 99.4238 76.1922 99.1522 75.5076 98.8806 74.8566 98.5684 74.2098 98.231 73.5588 97.8544 72.9456 97.4764 72.331 97.0326 71.7178 96.5874 71.1326 96.11 70.5866 95.634 70.042 95.0838 69.4946 94.5406 68.9486 93.9568 68.4362 93.3408 67.956 92.6912 67.48 92.0486 67.0012 91.3598 66.556 90.6444 66.1122 89.8954 65.702 89.1058 65.2596 88.319 64.8816 87.5042 64.5078 86.6488 64.1298 85.7612 63.7882 84.84 63.4466 83.9132 63.1078 82.9584 62.7984 81.9644 62.489 79.4066 61.6042 80.2214 61.1254 81.0096 60.6116 81.7586 60.0964 82.4488 59.5532 83.097 58.9708 83.7074 58.3912 84.2576 57.7752 84.7672 57.127 85.2446 56.4774 85.6548 55.7956 86.0664 55.076 86.3772 54.3592 86.6824 53.6074 86.9204 52.8556 87.0926 52.0716 87.2648 51.2498 87.332 50.295 87.3642 49.4074 87.332 48.482 87.2648 47.558 87.0926 46.6746 86.8546 45.7828 86.583 44.9316 86.2386 44.0398 85.827 43.1886 85.3496 42.3332 84.7994 41.4792 84.1904 40.6602 83.5016 39.8398 82.7526 39.018 81.9308 38.2326 81.0754 37.4472 80.122 36.6254 79.1686 35.84 78.1746 35.1246 77.147 34.4386 76.0942 33.789 74.9994 33.1758 73.8682 32.6298 72.7076 32.0838 71.5148 31.6022 70.2828 31.1262 69.0172 30.7146 67.718 30.3408 66.3866 29.9992 65.0202 29.6576 63.616 29.3832 62.1852 29.1452 60.5416 28.9058 58.905 28.7014 57.1956 28.5292 55.4862 28.392 53.7446 28.2562 51.968 28.154 50.1928 28.084 48.3504 28.0518 46.501 28.0182 44.6194 28.0518 42.7112 28.0518 40.7638 28.1176 38.7828 28.2198 36.7682 28.3262 34.7466 28.4256 32.6998 28.5978 32.6998 46.263 34.3364 46.0572 35.98 45.8528 37.6166 45.7156 39.2924 45.577 40.936 45.4748 42.6062 45.4076 44.282 45.3712 47.6602 45.3712 49.3374 45.4412 51.0468 45.5112 52.7562 45.647 54.4586 45.7828 56.1694 45.955 57.911 46.1608 59.654 46.3652 61.0582 46.6046 62.3896 46.8762 63.616 47.1842 64.7822 47.4922 65.8434 47.8674 66.8304 48.244 67.7516 48.6556 68.572 49.098 68.95 49.301 69.2888 49.5432 69.6332 49.8148 69.9384 50.0528 70.2492 50.3272 70.4886 50.6002 70.7602 50.8746 70.9646 51.1462 71.1704 51.4542 71.3748 51.7636 71.547 52.0716 71.68 52.4118 71.7864 52.7198 71.8858 53.0614 71.9586 53.403 72.0244 53.7796 72.0244 54.3942 71.9586 54.7008 71.8858 55.0438 71.6142 55.7956 71.2362 56.6496 70.9982 56.9912 70.7266 57.3328 70.4214 57.6394 70.0434 57.8788 69.6668 58.1168 69.2552 58.3226 68.8114 58.4948 68.3354 58.632 67.8244 58.7328 67.2406 58.8364 66.6582 58.87 65.3604 58.87 64.6758 58.8364 63.9618 58.7328 63.1722 58.632 61.1254 58.3912 59.1122 58.1854 57.0962 58.0132 55.1082 57.8788 53.1678 57.7752 51.219 57.7066 49.2716 57.6744 47.3564 57.6394 45.4748 57.6744 43.6002 57.7066 41.7172 57.7752 39.8748 57.8788 38.066 58.0132 36.2516 58.1854 34.475 58.3912 32.6998 58.632 32.6998 76.6374 35.1904 76.3616 37.6166 76.09 40.0078 75.8856 42.4004 75.7134 44.6922 75.6098 46.9784 75.5076 49.1988 75.4754 51.3856 75.4754 53.5388 75.544 55.6584 75.6098 57.7066 75.7484 59.7268 75.9514 61.7078 76.1558 63.6566 76.4316 65.5326 76.7354 67.3806 77.0798 68.845 77.3542 70.2156 77.693 71.5148 78.0346 72.7076 78.4112 73.8332 78.8578 74.8608 79.3002 75.3382 79.5382 75.782 79.7762 76.2258 80.0198 76.636 80.29 77.0154 80.5672 77.385 80.8374 77.7294 81.1468 78.0346 81.4198 78.3468 81.7264 78.617 82.0344 78.8564 82.341 79.0944 82.6826 79.3016 83.0242 79.4738 83.3672 79.646 83.706 79.744 84.0854 79.884 84.4242 79.9498 84.7994 80.0156 85.1774 80.0884 85.589 80.0884 85.8928 80.122 86.2344 80.0884 86.5788 80.0884 86.8826 80.0156 87.2242 79.9498 87.5336 79.8504 87.878 79.744 88.1818 79.611 88.5262 79.4388 88.8328 79.2666 89.1744 79.0622 89.5188 78.617 90.1992 78.0752 90.8838 77.7294 91.294 77.3206 91.6678 76.909 92.0458 76.4638 92.3874 76.0214 92.729 75.544 93.0678 75.0666 93.3772 74.55 93.6866 74.0404 93.989 73.4958 94.2662 72.9134 94.5392 72.3296 94.8122 71.7136 95.0502 71.071 95.2882 70.4214 95.494 69.7326 95.6984 69.0494 95.907 68.3354 96.0792 67.6186 96.2458 66.8304 96.3816 65.2596 96.6588 63.616 96.8968 61.873 97.0662 60.032 97.2048 58.1168 97.2734 55.0424 97.2734 53.9826 97.2384 52.9228 97.1698 51.8686 97.1012 50.841 96.9976 49.8148 96.8632 48.8264 96.7246 47.8002 96.5538 46.8132 96.3494 45.8192 96.1114 44.8644 95.8734 43.904 95.5976 42.9506 95.3274 41.9958 94.9816 41.0676 94.64 40.1478 94.2984 39.2266 93.891 38.3054 93.4808 37.4178 93.0678 36.5232 92.5918 35.6748 92.1116 34.8194 91.602 33.9654 91.0882 33.11 90.5422 32.2882 89.9612 31.4678 89.3466 30.653 88.7292 29.8312 88.081 29.0416 87.3964 28.2604 86.716 27.5044 85.9964 26.7232 85.2446 26.0008 84.4956 25.2854 83.706 24.5686 82.9206 23.8868 82.1366 23.2372 81.3512 22.6212 80.528 22.0052 79.7104 21.4214 78.89 20.8782 78.0346 20.3294 77.217 19.8184 76.328 19.341 75.4754 18.8972 74.5864 18.4534 73.6974 18.0432 72.8098 17.6316 71.8844 17.2536 70.9996 16.9162 70.042 16.6054 69.1208 16.3002 68.1632 16.0286 67.2042 15.7836 66.2494 15.5456 65.2596 15.3454 64.267 15.1732 63.2744 15.001 62.2524 14.896 61.229 14.763 60.2014 14.6902 59.178 14.623 58.1168 14.5908 57.057 14.5908 54.9388 14.623 53.8804 14.6902 52.8234 14.763 51.7958 14.896 50.7724 15.001 49.7476 15.1732 48.7578 15.3454 47.7302 15.5456 46.7726 15.7836 45.7828 16.0286 44.828 16.3002 43.834 16.6054 42.9142 16.9162 41.9552 17.2536 41.0354 17.6316 40.1114 18.0432 39.1902 18.4534 38.3026 18.8972 37.4136 19.341 36.526 19.8184 35.6342 20.3294 34.783 20.8782 33.929 21.4214 33.1072 22.0052 32.2518 22.6212 31.4342 23.2372 30.6124 23.8868 29.827 24.5686 29.0416 25.2854 28.2562 26.0008 27.4722 26.7232 26.719 27.5044 25.9672 28.2926 25.249 29.0752 24.5658 29.8634 23.884 30.6852 23.2344 31.5 22.6184 32.3218 22.0052 33.1436 21.4214 33.999 20.8754 34.853 20.3294 35.707 19.8184 36.596 19.3382 37.4836 18.8608 38.3712 18.417 39.2588 18.0068 40.18 17.6288 41.1012 17.2536 42.0294 16.9134 42.9828 16.5718 43.904 16.296 44.898 16.0244 45.8514 15.7542 46.8454 15.5442 47.8338 15.3426 48.8264 15.1704 49.8148 15.0024 50.841 14.8624 51.9022 14.7602 52.9228 14.693 53.9826 14.623 55.0424 14.5908 56.1022 14.5572 57.162 14.5908 58.2232 14.623 59.2844 14.693 60.3036 14.7602 61.3312 14.8624 62.3574 15.0024 63.3444 15.1704 64.3398 15.3426 65.3268 15.5442 66.3194 15.7542 67.2742 16.0244 68.2346 16.296 69.1894 16.5718 70.1106 16.9134 71.071 17.2536 71.9586 17.6288 72.8798 18.0068 73.7674 18.417 74.655 18.8608 75.544 19.3382 76.398 19.8184 77.2856 20.3294 78.1074 20.8754 78.9614 21.4214 79.7776 22.0052 80.5994 22.6184 81.3876 23.2344 82.2024 23.884 82.9906 24.5658 83.7466 25.249 84.5292 25.9672 85.2838 26.719 85.9992 27.4722 86.7146 28.2198 87.43 29.008 88.1188 29.7934 88.7684 30.5788 89.3788 31.4006 89.9948 32.2196 90.5772 33.0414 91.1218 33.8954 91.6384 34.748 92.148 35.602 92.659 36.4896 93.1028 37.345 93.5466 38.269 93.9568 39.1566 94.3684 40.0778 94.7464 41.0018 95.0838 41.923 95.396 42.8806 95.6998 43.834 95.9714 44.7916 96.2178 45.7492 96.4544 46.7404 96.6602 47.7302 96.8268 48.7214 96.9654 49.7476 97.104 50.7724 97.2048 51.7958 97.3098 52.8234 97.377 53.8804 97.4092 54.9388 97.4092 56 97.2048 60.5094 98.091 61.0568 98.98 61.5678 99.8676 62.1474 100.7216 62.727 101.5434 63.3458 102.3652 63.9604 103.187 64.5736 103.9696 65.2596 104.7578 65.9428 105.5404 66.6246 106.2614 67.3428 107.0118 68.0596 107.7258 68.845 108.409 69.5968 109.0978 70.42 109.7796 71.2362"></polygon>
    </g>
</svg>