<?xml version="1.0" encoding="UTF-8"?>
<svg width="34px" height="34px" viewBox="0 0 34 34" version="1.1" xmlns="http://www.w3.org/2000/svg" xmlns:xlink="http://www.w3.org/1999/xlink">
    <!-- Generator: Sketch 52.1 (67048) - http://www.bohemiancoding.com/sketch -->
    <title>北京银行</title>
    <desc>Created with Sketch.</desc>
    <g id="北京银行" stroke="none" stroke-width="1" fill="none" fill-rule="evenodd">
        <polygon id="Shape" fill="#FFFFFF" fill-rule="nonzero" points="33.32595 21.625275 33.481075 21.05535 33.6158 20.485 33.73055 19.904025 33.8232 19.333675 33.865275 19.042125 33.89545 18.74165 33.92775 18.451375 33.9575 18.161525 33.9677 17.86105 33.990225 17.560575 33.990225 17.25925 34 16.958775 33.990225 16.5223 33.980025 16.097725 33.947725 15.6723 33.91755 15.246875 33.875475 14.82145 33.8232 14.407075 33.760725 13.99185 33.678275 13.587675 33.595825 13.183075 33.50105 12.7789 33.4084 12.3845 33.294075 11.990525 33.169125 11.606325 33.034825 11.222125 32.8899 10.838775 32.744975 10.465625 32.57795 10.092475 32.41305 9.718475 32.225625 9.355525 32.03905 8.99215 31.84185 8.64025 31.634875 8.2875 31.407075 7.934325 31.177575 7.5922 30.94085 7.2505 30.691375 6.918575 30.4317 6.58665 30.172025 6.2645 29.892375 5.933 29.60295 5.6219 29.3114 5.300175 28.99945 4.9895 28.689625 4.6886 28.3679 4.38685 28.04575 4.107625 27.724025 3.827975 27.3921 3.5581 27.0606 3.29885 26.718475 3.049375 26.376775 2.81095 26.03465 2.582725 25.680625 2.3647 25.328725 2.1573 24.9662 1.950325 24.6024 1.764175 24.2403 1.58695 23.865875 1.411 23.491875 1.255025 23.1098 1.099475 22.7256 0.95455 22.3414 0.8296 21.9572 0.705925 21.5628 0.591175 21.168825 0.4879 20.764225 0.393975 20.36005 0.31195 19.955875 0.238425 19.5415 0.177225 19.127125 0.12495 18.710625 0.073525 18.286475 0.042075 17.861475 0.02125 17.435625 0 16.564375 0 16.1279 0.02125 15.69355 0.042075 15.267275 0.073525 14.8529 0.12495 14.438525 0.177225 14.02415 0.238425 13.60765 0.31195 13.203475 0.393975 12.798875 0.4879 12.4049 0.591175 12.0105 0.705925 11.628425 0.8296 11.244225 0.95455 10.860025 1.099475 10.4856 1.255025 10.113725 1.411 9.739725 1.58695 9.377625 1.764175 9.0134 1.950325 8.6615 2.1573 8.307475 2.3647 7.955575 2.582725 7.61345 2.81095 7.271325 3.049375 6.939825 3.29885 6.607475 3.5581 6.275975 3.827975 5.94405 4.107625 5.6321 4.38685 5.310375 4.6886 5.00055 4.9895 4.6886 5.300175 4.399175 5.6219 4.107625 5.933 3.827975 6.2645 3.558525 6.58665 3.30905 6.918575 3.059575 7.2505 2.822 7.5922 2.582725 7.934325 2.36555 8.2875 2.158575 8.64025 1.961375 8.99215 1.764175 9.355525 1.58695 9.718475 1.42205 10.092475 1.255025 10.465625 1.100325 10.838775 0.9656 11.222125 0.830875 11.606325 0.705925 11.990525 0.5916 12.3845 0.48875 12.7789 0.3944 13.183075 0.311525 13.587675 0.239275 13.99185 0.177225 14.407075 0.124525 14.82145 0.084575 15.246875 0.0425 15.6723 0.0221 16.097725 0.009775 16.5223 0 16.958775 0.009775 17.3944 0.0221 17.8296 0.0425 18.25545 0.084575 18.6796 0.124525 19.10545 0.177225 19.52025 0.239275 19.934625 0.311525 20.33965 0.3944 20.744675 0.48875 21.14885 0.5916 21.55345 0.705925 21.947425 0.830875 22.33035 0.9656 22.724325 1.100325 23.09875 1.255025 23.482525 1.42205 23.8561 1.58695 24.22925 1.764175 24.5922 1.961375 24.955575 2.158575 25.317675 2.36555 25.670425 2.582725 26.023175 2.822 26.375075 3.059575 26.7189 3.30905 27.049975 3.558525 27.3921 3.827975 27.71425 4.107625 28.046175 4.399175 28.366625 4.6886 28.688775 5.00055 29.000725 5.310375 29.3012 5.6321 29.601675 5.94405 29.891525 6.275975 30.161825 6.607475 30.4317 6.939825 30.69095 7.271325 30.94 7.61345 31.178 7.955575 31.406225 8.307475 31.624675 8.6615 31.831225 9.0134 32.038625 9.377625 32.225625 9.739725 32.41305 10.113725 32.577525 10.4856 32.7454 10.860025 32.889475 11.244225 33.034825 11.628425 33.16955 12.0105 33.283875 12.4049 33.397775 12.798875 33.501475 13.203475 33.59455 13.60765 33.678275 14.02415 33.750525 14.438525 33.812575 14.8529 33.87505 15.267275 33.916275 15.69355 33.94815 16.1279 33.968125 16.564375 33.988525 17.00085 33.988525 17.612425 33.97875 18.2138 33.957925 18.8054 33.9065 19.396575 33.844025 19.97585 33.7603 20.537275 33.65745 21.10635 33.532075 21.657575 33.397775 22.1969 33.2316 22.7358 33.05565 23.2645 32.858025 23.78385 32.651475 24.29045 32.41305 24.7996 32.16315 25.298125 31.89455 25.785175 31.612775 26.1171 31.406225 26.438825 31.198825 26.75035 30.992275 27.0402 30.773825 27.33005 30.566425 27.5995 30.347975 27.859175 30.131225 28.10865 29.912775 28.3356 29.68455 28.5651 29.466525 28.772075 29.23915 28.969275 29.0105 29.1567 28.7725 29.331375 28.544275 29.4882 28.30415 29.643325 28.06615 29.777625 27.827725 29.902575 27.589725 30.017325 27.3513 30.11975 27.1014 30.214525 26.8532 30.286775 26.6033 30.35945 26.3551 30.411725 26.096275 30.451675 25.846375 30.483975 25.5884 30.494175 25.3283 30.50395 25.068625 30.494175 24.7996 30.483975 24.539925 30.451675 24.27005 30.411725 24.001025 30.35945 23.783 30.307175 23.555625 30.2447 23.34695 30.182225 23.129775 30.099775 22.92195 30.017325 22.724325 29.92255 22.527975 29.820125 22.33035 29.7058 22.1442 29.59105 21.957625 29.456325 21.771475 29.321175 21.593825 29.17625 21.428075 29.03175 21.26275 28.864725 21.096575 28.699825 20.930825 28.5226 20.775275 28.3356 20.6295 28.1384 20.485 27.943325 20.33965 27.734225 20.2045 27.51705 20.069775 27.289675 19.94525 27.049975 19.81095 26.811125 19.6962 26.563775 19.582725 26.3041 19.467975 26.03465 19.364275 25.755 19.260575 25.47365 19.157725 25.1838 19.0638 24.88205 18.969875 24.105575 18.701275 24.352925 18.555925 24.5922 18.39995 24.819575 18.24355 25.0291 18.07865 25.225875 17.90185 25.411175 17.7259 25.5782 17.5389 25.7329 17.342125 25.877825 17.144925 26.00235 16.93795 26.1273 16.7195 26.22165 16.5019 26.3143 16.273675 26.38655 16.04545 26.438825 15.80745 26.4911 15.557975 26.5115 15.268125 26.521275 14.998675 26.5115 14.71775 26.4911 14.43725 26.438825 14.169075 26.366575 13.89835 26.284125 13.63995 26.179575 13.369225 26.054625 13.110825 25.9097 12.85115 25.742675 12.5919 25.5578 12.343275 25.3487 12.094225 25.121325 11.84475 24.87185 11.606325 24.612175 11.3679 24.32275 11.118425 24.033325 10.88 23.731575 10.662825 23.419625 10.454575 23.100025 10.257375 22.767675 10.071225 22.424275 9.905475 22.07195 9.739725 21.70985 9.593525 21.33585 9.449025 20.95165 9.324075 20.55725 9.2106 20.153075 9.1069 19.738275 9.0032 19.312 8.9199 18.87765 8.84765 18.3787 8.774975 17.881875 8.712925 17.36295 8.66065 16.844025 8.619 16.315325 8.577775 15.776 8.54675 15.2371 8.5255 14.6778 8.515725 14.116375 8.505525 13.545175 8.515725 12.9659 8.515725 12.374725 8.5357 11.77335 8.566725 11.161775 8.599025 10.548075 8.6292 9.926725 8.681475 9.926725 14.044125 10.42355 13.98165 10.9225 13.9196 11.419325 13.87795 11.92805 13.835875 12.427 13.80485 12.934025 13.78445 13.44275 13.7734 14.468275 13.7734 14.977425 13.79465 15.49635 13.8159 16.015275 13.857125 16.532075 13.89835 17.051425 13.950625 17.580125 14.0131 18.10925 14.07515 18.535525 14.147825 18.9397 14.230275 19.312 14.323775 19.666025 14.417275 19.988175 14.531175 20.2878 14.6455 20.56745 14.77045 20.8165 14.90475 20.93125 14.966375 21.0341 15.0399 21.13865 15.12235 21.2313 15.1946 21.32565 15.2779 21.398325 15.360775 21.480775 15.444075 21.542825 15.526525 21.6053 15.620025 21.66735 15.71395 21.719625 15.80745 21.76 15.910725 21.7923 16.004225 21.822475 16.107925 21.844575 16.211625 21.86455 16.32595 21.86455 16.512525 21.844575 16.6056 21.822475 16.709725 21.740025 16.93795 21.625275 17.1972 21.553025 17.3009 21.470575 17.4046 21.377925 17.497675 21.263175 17.57035 21.14885 17.6426 21.0239 17.705075 20.889175 17.75735 20.744675 17.799 20.58955 17.8296 20.412325 17.86105 20.235525 17.87125 19.84155 17.87125 19.633725 17.86105 19.416975 17.8296 19.177275 17.799 18.555925 17.7259 17.944775 17.663425 17.332775 17.61115 16.729275 17.57035 16.140225 17.5389 15.548625 17.518075 14.95745 17.5083 14.37605 17.497675 13.80485 17.5083 13.235775 17.518075 12.66415 17.5389 12.10485 17.57035 11.55575 17.61115 11.00495 17.663425 10.465625 17.7259 9.926725 17.799 9.926725 23.264925 10.6828 23.1812 11.419325 23.09875 12.145225 23.0367 12.87155 22.984425 13.567275 22.952975 14.2613 22.92195 14.93535 22.912175 15.5992 22.912175 16.25285 22.933 16.8963 22.952975 17.518075 22.99505 18.13135 23.056675 18.732725 23.118725 19.324325 23.20245 19.893825 23.294675 20.454825 23.399225 20.899375 23.482525 21.31545 23.585375 21.70985 23.689075 22.07195 23.8034 22.41365 23.938975 22.7256 24.073275 22.870525 24.145525 23.00525 24.217775 23.139975 24.291725 23.2645 24.37375 23.379675 24.4579 23.491875 24.539925 23.596425 24.63385 23.689075 24.716725 23.78385 24.8098 23.865875 24.9033 23.93855 24.996375 24.0108 25.100075 24.0737 25.203775 24.125975 25.3079 24.17825 25.41075 24.208 25.525925 24.2505 25.628775 24.270475 25.742675 24.29045 25.857425 24.31255 25.982375 24.31255 26.0746 24.32275 26.1783 24.31255 26.28285 24.31255 26.375075 24.29045 26.478775 24.270475 26.5727 24.2403 26.67725 24.208 26.769475 24.167625 26.874025 24.11535 26.9671 24.063075 27.0708 24.001025 27.17535 23.865875 27.3819 23.7014 27.589725 23.596425 27.71425 23.472325 27.827725 23.347375 27.942475 23.212225 28.046175 23.077925 28.149875 22.933 28.252725 22.788075 28.34665 22.63125 28.440575 22.47655 28.532375 22.311225 28.616525 22.134425 28.6994 21.9572 28.782275 21.7702 28.854525 21.575125 28.926775 21.377925 28.98925 21.168825 29.0513 20.961425 29.114625 20.744675 29.1669 20.527075 29.217475 20.2878 29.2587 19.81095 29.34285 19.312 29.4151 18.782875 29.466525 18.224 29.5086 17.6426 29.529425 16.7093 29.529425 16.387575 29.5188 16.06585 29.497975 15.745825 29.47715 15.433875 29.4457 15.12235 29.4049 14.8223 29.362825 14.510775 29.310975 14.21115 29.248925 13.9094 29.176675 13.61955 29.104425 13.328 29.0207 13.038575 28.938675 12.748725 28.8337 12.46695 28.73 12.187725 28.6263 11.908075 28.502625 11.628425 28.3781 11.358975 28.252725 11.0874 28.108225 10.82985 27.96245 10.570175 27.80775 10.310925 27.651775 10.05125 27.486025 9.801775 27.30965 9.552725 27.123075 9.305375 26.93565 9.0559 26.738875 8.8162 26.53105 8.57905 26.3245 8.34955 26.10605 8.1124 25.877825 7.8931 25.65045 7.675925 25.41075 7.458325 25.172325 7.25135 24.934325 7.05415 24.6959 6.86715 24.446 6.68015 24.1978 6.502925 23.94875 6.338025 23.689075 6.171425 23.440875 6.0163 23.171 5.871375 22.912175 5.73665 22.6423 5.601925 22.372425 5.4774 22.102975 5.35245 21.82205 5.2377 21.55345 5.135275 21.26275 5.040925 20.9831 4.948275 20.6924 4.865825 20.401275 4.79145 20.111425 4.7192 19.81095 4.658425 19.509625 4.60615 19.2083 4.553875 18.89805 4.522 18.587375 4.481625 18.275425 4.459525 17.96475 4.439125 17.6426 4.42935 17.320875 4.42935 16.67785 4.439125 16.35655 4.459525 16.035675 4.481625 15.723725 4.522 15.41305 4.553875 15.10195 4.60615 14.801475 4.658425 14.489525 4.7192 14.198825 4.79145 13.89835 4.865825 13.6085 4.948275 13.30675 5.040925 13.027525 5.135275 12.7364 5.2377 12.457175 5.35245 12.176675 5.4774 11.897025 5.601925 11.627575 5.73665 11.3577 5.871375 11.08825 6.0163 10.817525 6.171425 10.559125 6.338025 10.299875 6.502925 10.0504 6.68015 9.790725 6.86715 9.542525 7.05415 9.29305 7.25135 9.054625 7.458325 8.8162 7.675925 8.577775 7.8931 8.339775 8.1124 8.111125 8.34955 7.8829 8.588825 7.664875 8.8264 7.457475 9.065675 7.2505 9.31515 7.0533 9.5625 6.8663 9.811975 6.68015 10.06145 6.502925 10.321125 6.337175 10.580375 6.171425 10.839625 6.0163 11.1095 5.870525 11.37895 5.7256 11.6484 5.590875 11.91785 5.46635 12.1975 5.3516 12.47715 5.2377 12.758925 5.134425 13.04835 5.030725 13.328 4.947 13.62975 4.86455 13.919175 4.782525 14.220925 4.718775 14.520975 4.657575 14.8223 4.6053 15.12235 4.5543 15.433875 4.5118 15.756025 4.480775 16.06585 4.460375 16.387575 4.439125 16.7093 4.42935 17.031025 4.41915 17.35275 4.42935 17.6749 4.439125 17.99705 4.460375 18.30645 4.480775 18.6184 4.5118 18.929925 4.5543 19.22955 4.6053 19.531725 4.657575 19.83135 4.718775 20.132675 4.782525 20.422525 4.86455 20.714075 4.947 21.003925 5.030725 21.283575 5.134425 21.575125 5.2377 21.844575 5.3516 22.124225 5.46635 22.393675 5.590875 22.663125 5.7256 22.933 5.870525 23.19225 6.0163 23.4617 6.171425 23.711175 6.337175 23.970425 6.502925 24.2182 6.68015 24.467675 6.8663 24.70695 7.0533 24.9543 7.2505 25.193575 7.457475 25.423075 7.664875 25.66065 7.8829 25.889725 8.111125 26.1069 8.339775 26.324075 8.566725 26.54125 8.806 26.75035 9.044425 26.94755 9.28285 27.13285 9.532325 27.31985 9.78095 27.49665 10.030425 27.661975 10.289675 27.8188 10.5485 27.9735 10.80775 28.128625 11.0772 28.26335 11.336875 28.398075 11.617375 28.5226 11.886825 28.64755 12.166475 28.7623 12.446975 28.864725 12.726625 28.9595 13.017325 29.051725 13.30675 29.134175 13.59745 29.208975 13.88815 29.2808 14.18905 29.343275 14.489525 29.39385 14.790425 29.435925 15.10195 29.478 15.41305 29.5086 15.723725 29.540475 16.035675 29.560875 16.35655 29.57065 16.67785 29.57065 17 29.5086 18.368925 29.777625 18.5351 30.0475 18.690225 30.31695 18.866175 30.5762 19.042125 30.825675 19.229975 31.07515 19.41655 31.324625 19.6027 31.5622 19.81095 31.801475 20.01835 32.03905 20.225325 32.257925 20.44335 32.485725 20.66095 32.702475 20.899375 32.909875 21.1276 33.118975 21.3775 33.32595 21.625275"></polygon>
    </g>
</svg>