<?xml version="1.0" encoding="UTF-8"?>
<svg width="14px" height="14px" viewBox="0 0 14 14" version="1.1" xmlns="http://www.w3.org/2000/svg" xmlns:xlink="http://www.w3.org/1999/xlink">
    <!-- Generator: Sketch 52.1 (67048) - http://www.bohemiancoding.com/sketch -->
    <title>画板 copy</title>
    <desc>Created with Sketch.</desc>
    <g id="画板-copy" stroke="none" stroke-width="1" fill="none" fill-rule="evenodd">
        <rect id="Rectangle-Copy" fill="#FF8862" x="0" y="0" width="14" height="14" rx="2"></rect>
        <path d="M10.2576724,4 L3.71544828,4 C3.32332759,4 3,4.32332759 3,4.71544828 L3,5.51344828 L10.98,5.51344828 L10.98,4.70856897 C10.98,4.31644828 10.6566724,4 10.2576724,4 Z M3,9.59287932 C3,9.98500001 3.32332759,10.3083276 3.71544828,10.3083276 L10.2576724,10.3083276 C10.6566724,10.3083276 10.98,9.98500001 10.98,9.59287932 L10.98,6.57974139 L3,6.57974139 L3,9.59287932 Z M7.49906898,8.79487932 L8.14572415,8.79487932 L8.14572415,9.4415345 L7.49906898,9.4415345 L7.49906898,8.79487932 Z M8.47593105,8.79487932 L9.12258622,8.79487932 L9.12258622,9.4415345 L8.47593105,9.4415345 L8.47593105,8.79487932 Z M9.45967243,8.79487932 L10.1063276,8.79487932 L10.1063276,9.4415345 L9.45967243,9.4415345 L9.45967243,8.79487932 Z" id="Shape" fill="#FFFFFF" fill-rule="nonzero"></path>
    </g>
</svg>