<?xml version="1.0" encoding="UTF-8"?>
<svg width="112px" height="112px" viewBox="0 0 112 112" version="1.1" xmlns="http://www.w3.org/2000/svg" xmlns:xlink="http://www.w3.org/1999/xlink">
    <!-- Generator: Sketch 52.1 (67048) - http://www.bohemiancoding.com/sketch -->
    <title>工商银行2</title>
    <desc>Created with Sketch.</desc>
    <defs>
        <linearGradient x1="-83.5205176%" y1="35.2021158%" x2="128.44535%" y2="35.2021158%" id="linearGradient-1">
            <stop stop-color="#FFFFFF" stop-opacity="0.275617074" offset="0%"></stop>
            <stop stop-color="#FFFFFF" stop-opacity="0" offset="100%"></stop>
        </linearGradient>
    </defs>
    <g id="工商银行2" stroke="none" stroke-width="1" fill="none" fill-rule="evenodd">
        <path d="M55.9790769,111.950646 C25.0667077,111.950646 0,86.8899692 0,55.9757538 C0,25.0547692 25.0667077,0 55.9790769,0 C86.8948923,0 111.951385,25.0547692 111.951385,55.9757538 C111.951385,86.8898462 86.8948923,111.950523 55.9790769,111.950523 L55.9790769,111.950646 Z M55.9790769,7.20283077 C29.0503385,7.20283077 7.21033846,29.0402462 7.21033846,55.9757538 C7.21033846,82.9011692 29.0503385,104.745231 55.9790769,104.745231 C82.9181538,104.745231 104.752862,82.9011692 104.752862,55.9757538 C104.752862,29.0401231 82.9180308,7.20283077 55.9790769,7.20283077 Z M57.8580923,79.6605538 L79.4605538,79.6605538 L79.4605538,69.3511385 L57.8580923,69.3511385 L57.8580923,45.0147692 L79.4605538,45.0147692 L79.4605538,36.5852308 L57.8580923,36.5852308 L57.8580923,27.6700308 L88.3006769,27.6700308 L88.3006769,52.9588923 L66.2489846,52.9588923 L66.2489846,60.3426462 L88.3006769,60.3426462 L88.3006769,87.6045538 L57.8580923,87.6045538 L57.8580923,79.6605538 Z M23.6624,60.3427692 L45.7091692,60.3427692 L45.7091692,52.9590154 L23.6624,52.9590154 L23.6624,27.6700308 L54.1102769,27.6700308 L54.1101538,36.5853538 L32.4924308,36.5853538 L32.4924308,45.0147692 L54.1102769,45.0147692 L54.1102769,69.3511385 L32.4924308,69.3511385 L32.4924308,79.6604308 L54.1102769,79.6604308 L54.1102769,87.6045538 L23.6624,87.6045538 L23.6625231,60.3427692 L23.6624,60.3427692 Z" id="Shape" fill="url(#linearGradient-1)" fill-rule="nonzero"></path>
    </g>
</svg>