<?xml version="1.0" encoding="UTF-8"?>
<svg width="34px" height="34px" viewBox="0 0 34 34" version="1.1" xmlns="http://www.w3.org/2000/svg" xmlns:xlink="http://www.w3.org/1999/xlink">
    <!-- Generator: Sketch 52.1 (67048) - http://www.bohemiancoding.com/sketch -->
    <title>工商银行</title>
    <desc>Created with Sketch.</desc>
    <g id="工商银行" stroke="none" stroke-width="1" fill="none" fill-rule="evenodd">
        <g fill="#FFFFFF" fill-rule="nonzero" id="Shape">
            <g>
                <path d="M17.0010088,33.9925275 C7.6168967,33.9925275 0.00736043956,26.384822 0.00736043956,17.0001495 C0.00736043956,7.61342198 7.6168967,0.00750989011 17.0010088,0.00750989011 C26.386167,0.00750989011 33.9926022,7.61342198 33.9926022,17.0001495 C33.9926022,26.3847846 26.386167,33.9924901 17.0010088,33.9924901 L17.0010088,33.9925275 Z M17.0010088,2.19408352 C8.82621319,2.19408352 2.19621319,8.8232989 2.19621319,17.0001495 C2.19621319,25.1739363 8.82621319,31.8051692 17.0010088,31.8051692 C25.1789429,31.8051692 31.8073363,25.1739363 31.8073363,17.0001495 C31.8073363,8.82326154 25.1789055,2.19408352 17.0010088,2.19408352 Z M17.5714242,24.190178 L24.1293143,24.190178 L24.1293143,21.0605341 L17.5714242,21.0605341 L17.5714242,13.6727077 L24.1293143,13.6727077 L24.1293143,11.1137407 L17.5714242,11.1137407 L17.5714242,8.40734066 L26.8129231,8.40734066 L26.8129231,16.0843165 L20.1186593,16.0843165 L20.1186593,18.3258132 L26.8129231,18.3258132 L26.8129231,26.6017495 L17.5714242,26.6017495 L17.5714242,24.190178 Z M7.19058901,18.3258505 L13.8833582,18.3258505 L13.8833582,16.0843538 L7.19058901,16.0843538 L7.19058901,8.40734066 L16.4336945,8.40734066 L16.4336571,11.113778 L9.87113407,11.113778 L9.87113407,13.6727077 L16.4336945,13.6727077 L16.4336945,21.0605341 L9.87113407,21.0605341 L9.87113407,24.1901407 L16.4336945,24.1901407 L16.4336945,26.6017495 L7.19058901,26.6017495 L7.19062637,18.3258505 L7.19058901,18.3258505 Z"></path>
            </g>
        </g>
    </g>
</svg>