<?xml version="1.0" encoding="UTF-8"?>
<svg width="34px" height="34px" viewBox="0 0 34 34" version="1.1" xmlns="http://www.w3.org/2000/svg" xmlns:xlink="http://www.w3.org/1999/xlink">
    <!-- Generator: Sketch 52.1 (67048) - http://www.bohemiancoding.com/sketch -->
    <title>光大银行</title>
    <desc>Created with Sketch.</desc>
    <g id="光大银行" stroke="none" stroke-width="1" fill="none" fill-rule="evenodd">
        <path d="M13.3129702,18.9847664 C13.315891,18.8857205 13.2880391,18.798733 13.2880391,18.798733 L6.58585156,18.798733 L6.58585156,18.5042884 L13.2880156,18.4457804 C13.3260781,18.2679179 13.2506094,18.1700429 13.2506094,18.1700429 L6.58585156,18.1700429 L6.58585156,17.8745857 L13.1543281,17.8349536 C13.1543281,17.6589473 12.9054922,17.4833027 12.9054922,17.4833027 L6.58585156,17.5416902 L6.58585156,17.1876768 L12.7720859,17.1488643 C12.7720859,17.0305946 12.5248672,16.8348446 12.5248672,16.8348446 L9.83171094,16.8348446 L9.83171094,16.5404 L12.1244375,16.4810241 C12.0261875,16.2063232 11.3788437,16.2063232 11.3788437,16.2063232 L9.83173437,16.1865554 L9.83173437,15.8919661 L10.7864844,15.9106973 C11.5701172,15.9500161 11.6830156,15.5578652 11.6830156,15.5578652 L6.58554687,15.5975214 L6.58554687,15.2820071 L12.1413359,15.2626009 C12.3518281,15.203683 12.371,14.8896634 12.371,14.8896634 L6.58585156,14.9286446 L6.58585156,14.6347062 L12.5615937,14.5953875 C12.7161406,14.5169187 12.7161406,14.2611179 12.7161406,14.2611179 L6.58582812,14.3007741 L6.58582812,13.9862482 L12.810125,13.9270411 C12.9054687,13.7898473 12.8680391,13.5931089 12.8680391,13.5931089 L6.58552344,13.6125393 L6.58552344,13.2794509 L12.8475547,13.2794509 C12.8475547,13.2003071 12.8101484,12.9451812 12.8101484,12.9451812 L6.58552344,12.9652625 L6.58552344,12.6306554 L12.7161406,12.6306554 C12.7717578,12.3753366 12.5434062,12.2575491 12.5434062,12.2575491 L10.5762969,12.2575491 L10.5762969,11.9629598 L12.3518047,11.9433848 C12.3518047,11.8053714 12.1039297,11.6285455 12.1039297,11.6285455 L10.5759922,11.6091152 L10.5759922,11.2954812 L11.5697891,11.2954812 C11.3788203,11 10.3655,11 10.3655,11 L5,11 L5.00032812,11 L5.00032812,21.7451562 L10.0411953,21.7646107 C11.5496094,21.8241554 11.7213828,21.4502536 11.7213828,21.4502536 L10.5763203,21.4698286 L10.5763203,21.1360893 L12.2763359,21.1163455 C12.4097187,21.076858 12.5434297,20.7625009 12.5434297,20.7625009 L10.5763437,20.7822205 L10.5763437,20.4479509 L12.8479062,20.4479509 C12.9812891,20.429075 13.0014453,20.1138741 13.0014453,20.1138741 L6.58585156,20.1334732 L6.58585156,19.8195982 L13.0033659,19.8195982 C13.0093725,19.7317953 13.0254099,19.606289 13.0663008,19.4667661 L6.58585156,19.4667661 L6.58585156,19.1524089 L13.2227227,19.1123036 C13.2494862,19.0691404 13.2794428,19.0264268 13.3129702,18.9847664 Z M17,34 C7.61115925,34 0,26.3888407 0,17 C0,7.61115925 7.61115925,0 17,0 C26.3888407,0 34,7.61115925 34,17 C34,26.3888407 26.3888407,34 17,34 Z M13.3129702,18.9847664 C13.3117281,19.0268874 13.3049207,19.0711892 13.2880391,19.1119089 L13.2227227,19.1123036 C13.148967,19.231254 13.0994614,19.3536191 13.0663008,19.4667661 L13.2304297,19.4667661 C13.2304297,19.4667661 13.2880156,19.6623473 13.1348047,19.8195982 L13.0033659,19.8195982 C12.9979219,19.8991786 13.0007179,19.9477866 13.0007179,19.9477866 C13.0007179,21.4597866 14.3360929,21.5586982 14.3360929,21.5586982 C15.5777413,21.8534562 16.3418741,21.0291607 16.3418741,21.0291607 L16.4378272,21.5787554 L17.9644522,21.540425 L17.7732022,20.9302732 L17.7731788,20.9302973 L17.7159444,17.3952982 C17.6398194,15.4896286 14.6610304,16.1181741 14.6610304,16.1181741 C13.0586085,16.3938634 13.2293976,17.8466562 13.2293976,17.8466562 L14.6610304,17.8269366 C14.6997491,16.9628402 15.9593038,17.2574536 15.9593038,17.2574536 C16.8197179,17.9838259 15.8073819,18.1608446 15.8073819,18.1608446 C15.3490616,18.1608446 13.8594913,18.5928205 13.8594913,18.5928205 C13.6140567,18.6875931 13.4384896,18.8287989 13.3129702,18.9847664 Z M18.2705694,16.1798884 L18.3092647,21.5238634 L19.7601163,21.5422571 L19.7419054,18.9489795 C19.664796,17.7314241 20.1251085,17.5555866 20.1251085,17.5555866 C21.1549991,16.8875777 21.5570929,17.9290062 21.5570929,17.9290062 L21.5749757,21.5422812 L23.0065851,21.5422812 L22.9685226,17.5356741 C22.6643741,15.6699741 21.1156241,15.9840179 21.1156241,15.9840179 C20.5056632,15.9048741 19.7021554,16.7502393 19.7021554,16.7502393 L19.7223585,16.1799125 L18.2705694,16.1799125 L18.2705694,16.1798884 Z M23.5228663,14 L23.5599679,21.5238393 L24.9919288,21.5238393 L24.9737179,20.3248464 L25.6799601,19.3426491 L26.8454835,21.5422571 L28.5250147,21.4832187 L26.7121241,18.0655009 L28.2192257,15.9249312 L26.5592413,15.9249312 L24.9343663,18.1049402 L24.8605382,14.0202259 L23.5228663,14 Z M16.3496788,19.6561625 C16.3496788,19.6561625 16.2013429,20.1494911 15.7592413,20.3644786 C15.7592413,20.3644786 14.7963819,20.8941607 14.4905694,20.1675714 C14.4905694,20.1675714 14.3884288,19.7061848 14.8276007,19.5293589 C14.8276007,19.5293589 15.9716788,19.1064232 16.3613976,18.9697357 C16.3613976,18.9697357 16.4023663,19.2778973 16.3496788,19.6561625 Z" id="合并形状" fill="#FFFFFF"></path>
    </g>
</svg>