<?xml version="1.0" encoding="UTF-8"?>
<svg width="112px" height="112px" viewBox="0 0 112 112" version="1.1" xmlns="http://www.w3.org/2000/svg" xmlns:xlink="http://www.w3.org/1999/xlink">
    <!-- Generator: Sketch 52.1 (67048) - http://www.bohemiancoding.com/sketch -->
    <title>光大银行2</title>
    <desc>Created with Sketch.</desc>
    <defs>
        <linearGradient x1="-83.5205176%" y1="35.2021158%" x2="128.44535%" y2="35.2021158%" id="linearGradient-1">
            <stop stop-color="#FFFFFF" stop-opacity="0.275617074" offset="0%"></stop>
            <stop stop-color="#FFFFFF" stop-opacity="0" offset="100%"></stop>
        </linearGradient>
    </defs>
    <g id="光大银行2" stroke="none" stroke-width="1" fill="none" fill-rule="evenodd">
        <path d="M56,112 C25.072054,112 0,86.927946 0,56 C0,25.072054 25.072054,0 56,0 C86.927946,0 112,25.072054 112,56 C112,86.927946 86.927946,112 56,112 Z M16.4705882,36.2352941 L16.4716691,36.2352941 L16.4716691,71.6311029 L33.0768787,71.6951882 C38.0457721,71.8913353 38.611614,70.6596588 38.611614,70.6596588 L34.8396434,70.7241412 L34.8396434,69.6247647 L40.4396949,69.5597265 C40.8790735,69.42965 41.3195331,68.3941206 41.3195331,68.3941206 L34.8397206,68.4590794 L34.8397206,67.3579559 L42.3225147,67.3579559 C42.7618934,67.2957765 42.8282904,66.2574676 42.8282904,66.2574676 L21.6945699,66.3220294 L21.6945699,65.2880882 L43.2675919,65.2880882 C43.7722868,64.7700853 43.5825919,64.1258176 43.5825919,64.1258176 L21.6945699,64.1258176 L21.6945699,63.0902882 L43.772364,62.9568765 C43.958739,62.5073265 43.772364,61.9252382 43.772364,61.9252382 L21.6945699,61.9252382 L21.6945699,60.9553029 L43.7722868,60.7625706 C43.8976691,60.1766706 43.6490662,59.8542588 43.6490662,59.8542588 L21.6945699,59.8542588 L21.6945699,58.8809882 L43.3319044,58.7504353 C43.3319044,58.17065 42.5122096,57.5920559 42.5122096,57.5920559 L21.6945699,57.7843912 L21.6945699,56.6182294 L42.0727537,56.4903765 C42.0727537,56.1007824 41.258386,55.4559588 41.258386,55.4559588 L32.3868125,55.4559588 L32.3868125,54.4860235 L39.9393235,54.2904324 C39.6156765,53.3855353 37.48325,53.3855353 37.48325,53.3855353 L32.3868897,53.3204176 L32.3868897,52.3500059 L35.5319485,52.4117088 C38.1133272,52.5412294 38.4852279,51.2494382 38.4852279,51.2494382 L21.6935662,51.3800706 L21.6935662,50.3407294 L39.994989,50.2768029 C40.688375,50.0827206 40.7515294,49.0483029 40.7515294,49.0483029 L21.6945699,49.1767118 L21.6945699,48.2084441 L41.3793676,48.0789235 C41.8884632,47.8204382 41.8884632,46.9778 41.8884632,46.9778 L21.6944926,47.1084324 L21.6944926,46.0723471 L42.1980588,45.8773118 C42.5121324,45.4253794 42.3888346,44.7773 42.3888346,44.7773 L21.693489,44.8413059 L21.693489,43.7440735 L42.3213566,43.7440735 C42.3213566,43.4833647 42.198136,42.64295 42.198136,42.64295 L21.693489,42.7091 L21.693489,41.6068647 L41.8884632,41.6068647 C42.0716728,40.7658147 41.3194559,40.3778088 41.3194559,40.3778088 L34.8395662,40.3778088 L34.8395662,39.4073971 L40.6882978,39.3429147 C40.6882978,38.8882824 39.8717684,38.3057971 39.8717684,38.3057971 L34.8385625,38.2417912 L34.8385625,37.2086441 L38.1122463,37.2086441 C37.4831728,36.2352941 34.1451765,36.2352941 34.1451765,36.2352941 L16.4705882,36.2352941 Z M63.4795228,53.2984559 L63.6069897,70.9021382 L68.3862655,70.9627294 L68.3262765,62.4201676 C68.0722692,58.4093971 69.5885927,57.8301676 69.5885927,57.8301676 C72.9811736,55.6296676 74.3057177,59.0602559 74.3057177,59.0602559 L74.3646258,70.9628088 L79.0805155,70.9628088 L78.9551331,57.7645735 C77.9532324,51.6187382 72.8514677,52.6532353 72.8514677,52.6532353 C70.8421846,52.3925265 68.1953353,55.1772588 68.1953353,55.1772588 L68.2618868,53.2985353 L63.4795228,53.2985353 L63.4795228,53.2984559 Z M80.7812067,46.1176471 L80.9034236,70.9020588 L85.6204714,70.9020588 L85.5604824,66.9524353 L87.8869272,63.7169618 L91.7262986,70.9627294 L97.2588721,70.76825 L91.2869971,59.5098853 L96.2515669,52.4585971 L90.7833831,52.4585971 L85.4308537,59.6398029 L85.1876552,46.1842735 L80.7812067,46.1176471 Z M61.8410596,68.9468618 L61.6525228,57.3021588 C61.4017581,51.0246588 51.5892765,53.0951618 51.5892765,53.0951618 C46.3107103,54.0033147 46.8733096,58.7889853 46.8733096,58.7889853 L51.5892765,58.7240265 C51.7168206,55.8775912 55.8659419,56.8480824 55.8659419,56.8480824 C58.7002471,59.2408382 55.3654934,59.8239588 55.3654934,59.8239588 C53.8557324,59.8239588 48.9489125,61.2469382 48.9489125,61.2469382 C45.9303169,62.4125441 46.1200118,65.7103559 46.1200118,65.7103559 C46.1200118,70.6910618 50.5188942,71.0168882 50.5188942,71.0168882 C54.6090302,71.9878559 57.1261736,69.2725294 57.1261736,69.2725294 L57.4422544,71.0829588 L62.4711368,70.9566941 L61.8411368,68.9467824 L61.8410596,68.9468618 Z M57.1518831,64.7497118 C57.1518831,64.7497118 56.6632471,66.3747941 55.2069125,67.0829882 C55.2069125,67.0829882 52.0351405,68.8278235 51.0277581,66.4343529 C51.0277581,66.4343529 50.6912949,64.9144912 52.1379787,64.3320059 C52.1379787,64.3320059 55.9067067,62.9388059 57.1904861,62.4885412 C57.1904861,62.4885412 57.3254419,63.5036618 57.1518831,64.7497118 Z" id="合并形状" fill="url(#linearGradient-1)"></path>
    </g>
</svg>