<?xml version="1.0" encoding="UTF-8"?>
<svg width="112px" height="112px" viewBox="0 0 112 112" version="1.1" xmlns="http://www.w3.org/2000/svg" xmlns:xlink="http://www.w3.org/1999/xlink">
    <!-- Generator: Sketch 52.1 (67048) - http://www.bohemiancoding.com/sketch -->
    <title>华夏银行2</title>
    <desc>Created with Sketch.</desc>
    <defs>
        <linearGradient x1="-83.5205176%" y1="35.2021158%" x2="128.44535%" y2="35.2021158%" id="linearGradient-1">
            <stop stop-color="#FFFFFF" stop-opacity="0.275617074" offset="0%"></stop>
            <stop stop-color="#FFFFFF" stop-opacity="0" offset="100%"></stop>
        </linearGradient>
    </defs>
    <g id="华夏银行2" stroke="none" stroke-width="1" fill="none" fill-rule="evenodd">
        <path d="M56,112 C25.072054,112 0,86.927946 0,56 C0,25.072054 25.072054,0 56,0 C86.927946,0 112,25.072054 112,56 C112,86.927946 86.927946,112 56,112 Z M89.4733117,31.6732655 L86.7783212,28.1081797 C86.7783212,28.1081797 76.2841917,29.8907226 76.4883576,23.7791469 C76.4883576,23.7791469 77.223355,19.1954651 69.6283819,20.978008 C69.6283819,20.978008 67.7908884,19.1954651 67.913388,18.1768691 C67.913388,18.1768691 68.4442194,15.5030547 60.1959153,16.9460656 C60.1959153,16.9460656 47.9867918,18.5164011 34.5935059,34.4319629 C34.5935059,34.4319629 21.1185536,45.8911675 21.1185536,34.0924309 C21.1185536,34.0924309 13.7277464,41.9016666 17.6885657,48.1405669 C17.6885657,48.1405669 22.1802165,54.7189991 30.7551861,49.3713703 C30.7551861,49.3713703 28.0601957,70.9740929 41.7801471,82.22109 C41.7801471,82.22109 56.1125964,96.0145769 72.6500379,91.1338046 C72.6500379,91.1338046 86.4516557,88.1204582 91.7191371,73.6479073 C91.7191371,73.6479073 89.2691458,76.1943972 88.2074828,75.9821897 C88.2074828,75.9821897 91.9641362,71.3136249 92.1683022,69.3188745 C92.1683022,69.3188745 92.0458026,66.5601771 89.9224768,70.8892099 C89.9224768,70.8892099 90.4533082,68.2153955 88.9424802,69.5735235 C88.9424802,69.5735235 81.6741726,78.3589136 78.5708503,78.8257701 C78.5708503,78.8257701 55.5409318,92.958789 45.0468022,64.4805437 C45.0468022,64.4805437 40.5551515,50.9841473 51.1717806,40.8830707 C61.7884097,30.7395526 72.1600396,31.7581485 81.7150058,39.1005277 C81.7150058,39.1005277 86.5333221,33.413367 88.5749815,34.5168459 C88.5341484,34.4744044 90.3716419,33.328484 89.4733117,31.6732655 Z M57.3784253,48.8196308 L57.3784253,66.7723846 L80.1633446,66.7723846 L80.1633446,48.6923063 L57.3784253,48.8196308 Z" id="合并形状" fill="url(#linearGradient-1)"></path>
    </g>
</svg>