<?xml version="1.0" encoding="UTF-8"?>
<svg width="34px" height="34px" viewBox="0 0 34 34" version="1.1" xmlns="http://www.w3.org/2000/svg" xmlns:xlink="http://www.w3.org/1999/xlink">
    <!-- Generator: Sketch 52.1 (67048) - http://www.bohemiancoding.com/sketch -->
    <title>华夏银行</title>
    <desc>Created with Sketch.</desc>
    <g id="华夏银行" stroke="none" stroke-width="1" fill="none" fill-rule="evenodd">
        <path d="M17,34 C7.61115925,34 0,26.3888407 0,17 C0,7.61115925 7.61115925,0 17,0 C26.3888407,0 34,7.61115925 34,17 C34,26.3888407 26.3888407,34 17,34 Z M27.1250863,9.81575492 L26.2713937,8.68644201 C26.2713937,8.68644201 22.9471663,9.25109847 23.01184,7.31513348 C23.01184,7.31513348 23.2446653,5.86315974 20.8388042,6.42781619 C20.8388042,6.42781619 20.2567411,5.86315974 20.2955453,5.54049891 C20.2955453,5.54049891 20.4636968,4.69351422 17.85088,5.15061707 C17.85088,5.15061707 13.9833937,5.64805252 9.7408,10.689628 C9.7408,10.689628 5.47233684,14.3195624 5.47233684,10.5820744 C5.47233684,10.5820744 3.13114947,13.0558074 4.38581895,15.032105 C4.38581895,15.032105 5.80864,17.1159562 8.52493474,15.4219869 C8.52493474,15.4219869 7.67124211,22.2650853 12.0173137,25.8277987 C12.0173137,25.8277987 16.5574063,30.1971641 21.7959747,28.651081 C21.7959747,28.651081 26.1679158,27.6965427 27.8364968,23.11207 C27.8364968,23.11207 27.0604126,23.9187221 26.7241095,23.8515011 C26.7241095,23.8515011 27.9141053,22.3726389 27.9787789,21.7407615 C27.9787789,21.7407615 27.9399747,20.8668884 27.2673684,22.2381969 C27.2673684,22.2381969 27.43552,21.3912123 26.9569347,21.8214267 C26.9569347,21.8214267 24.6545516,24.6043764 23.6715116,24.7522626 C23.6715116,24.7522626 16.37632,29.2291816 13.0520926,20.2081225 C13.0520926,20.2081225 11.6292716,15.9328665 14.9923032,12.7331466 C18.3553347,9.51998249 21.6407579,9.84264333 24.6674863,12.1684902 C24.6674863,12.1684902 26.1937853,10.3669672 26.8405221,10.7165164 C26.8275874,10.7030722 27.4096505,10.3400788 27.1250863,9.81575492 Z M16.9583832,15.2472123 L16.9583832,20.9341094 L24.1759663,20.9341094 L24.1759663,15.2068796 L16.9583832,15.2472123 Z" id="合并形状" fill="#FFFFFF"></path>
        <g transform="translate(4.000000, 5.000000)">
            <g></g>
        </g>
    </g>
</svg>