<?xml version="1.0" encoding="UTF-8"?>
<svg width="96px" height="102px" viewBox="0 0 96 102" version="1.1" xmlns="http://www.w3.org/2000/svg" xmlns:xlink="http://www.w3.org/1999/xlink">
    <!-- Generator: Sketch 52.1 (67048) - http://www.bohemiancoding.com/sketch -->
    <title>建设银行2</title>
    <desc>Created with Sketch.</desc>
    <defs>
        <linearGradient x1="-83.5205176%" y1="35.2021158%" x2="128.44535%" y2="35.2021158%" id="linearGradient-1">
            <stop stop-color="#FFFFFF" stop-opacity="0.275617074" offset="0%"></stop>
            <stop stop-color="#FFFFFF" stop-opacity="0" offset="100%"></stop>
        </linearGradient>
    </defs>
    <g id="建设银行2" stroke="none" stroke-width="1" fill="none" fill-rule="evenodd">
        <path d="M93.4378069,54.4828288 L74.8833655,54.4828288 C74.8833655,54.4828288 73.5500907,54.4828288 72.9945868,54.705899 C72.66135,54.8174879 71.550233,55.7098761 71.550233,55.7098761 L48.6632763,78.6875009 C48.2187421,79.02216 47.6633474,79.02216 47.2188133,78.6875009 L22.8873936,54.2595435 C22.5540476,53.9248844 22.5540476,53.255674 22.8873936,52.9210149 L47.3301107,28.4931651 C47.4851408,28.2829115 47.7329725,28.1584923 47.9967481,28.1584923 C48.2605237,28.1584923 48.5083554,28.2829115 48.6633855,28.4931651 L70.1060976,50.0211029 C70.1060976,50.0211029 70.9948383,51.0249724 71.9948764,51.3595239 C72.994696,51.582594 74.4390498,50.3555467 74.4390498,50.3555467 L84.3272592,40.2052629 L55.4405111,11.4273836 C49.3297499,5.2924701 42.663594,5.85019929 39.9971535,6.18485833 C16.7765232,10.0888551 0,30.0550866 0,53.8136184 C0,80.5838663 22.1096226,102 47.9965842,102 C73.4391209,102 94.7709726,81.4760393 95.9930593,55.5982872 C95.9930593,55.2636282 96.1041382,55.040558 95.4375554,54.5943101 C94.7708633,54.1481698 93.4376977,54.4828288 93.4376977,54.4828288 L93.4378069,54.4828288 Z M62.9317035,9.97970286 L88.1418822,35 L95.1077339,28.2466858 C95.1077339,28.2466858 95.7711225,27.139557 95.9922158,26.1431839 C96.1028711,25.5896196 94.9971873,24.7041088 94.9971873,24.7041088 L79.6279426,9.20473412 C65.1432886,-5.29816068 49,1.67645114 49,1.67645114 C49,1.67645114 55.7447584,1.78720673 62.9319209,9.97970286 L62.9317035,9.97970286 Z" id="Shape-Copy-6" fill="url(#linearGradient-1)" fill-rule="nonzero"></path>
    </g>
</svg>