<?xml version="1.0" encoding="UTF-8"?>
<svg width="34px" height="36px" viewBox="0 0 34 36" version="1.1" xmlns="http://www.w3.org/2000/svg" xmlns:xlink="http://www.w3.org/1999/xlink">
    <!-- Generator: Sketch 52.1 (67048) - http://www.bohemiancoding.com/sketch -->
    <title>建设银行</title>
    <desc>Created with Sketch.</desc>
    <g id="建设银行" stroke="none" stroke-width="1" fill="none" fill-rule="evenodd">
        <path d="M32.9404938,18.9870567 L26.399325,18.9870567 C26.399325,18.9870567 25.9292933,18.9870567 25.7334564,19.0656495 C25.6159773,19.1049648 25.224265,19.4193738 25.224265,19.4193738 L17.1557146,27.5149224 C16.9989989,27.6328305 16.8032005,27.6328305 16.6464847,27.5149224 L8.06870442,18.9083881 C7.95118686,18.79048 7.95118686,18.5547016 8.06870442,18.4367935 L16.6857214,9.83029709 C16.7403756,9.75621991 16.827746,9.71238414 16.9207373,9.71238414 C17.0137285,9.71238414 17.1010989,9.75621991 17.1557531,9.83029709 L24.7151506,17.4150875 C24.7151506,17.4150875 25.0284666,17.7687739 25.3810193,17.8866441 C25.7334949,17.9652369 26.2426863,17.5329198 26.2426863,17.5329198 L29.7286682,13.95674 L19.5449558,3.8176276 C17.3906727,1.6561557 15.0405912,1.85265659 14.1005663,1.97056471 C5.91438279,3.34603304 0,10.3805982 0,18.7512784 C0,28.1830558 7.79450963,35.728455 16.9206795,35.728455 C25.8901721,35.728455 33.410487,28.497389 33.8413205,19.3800585 C33.8413205,19.2621504 33.8804802,19.1835576 33.6454836,19.0263341 C33.4104485,18.8691486 32.9404553,18.9870567 32.9404553,18.9870567 L32.9404938,18.9870567 Z M22.2474745,3.54253394 L31.177846,12.4240861 L33.6454066,10.0268359 C33.6454066,10.0268359 33.8804032,9.63383411 33.9587225,9.28014767 C33.9979207,9.08364678 33.6062469,8.7693136 33.6062469,8.7693136 L28.1618958,3.26744027 C23.0308992,-1.8807087 17.3123533,0.595096381 17.3123533,0.595096381 C17.3123533,0.595096381 19.7015946,0.634411724 22.2475515,3.54253394 L22.2474745,3.54253394 Z" id="Shape" fill="#FFFFFF" fill-rule="nonzero"></path>
    </g>
</svg>