<?xml version="1.0" encoding="UTF-8"?>
<svg width="34px" height="34px" viewBox="0 0 34 34" version="1.1" xmlns="http://www.w3.org/2000/svg" xmlns:xlink="http://www.w3.org/1999/xlink">
    <!-- Generator: Sketch 52.1 (67048) - http://www.bohemiancoding.com/sketch -->
    <title>民生银行</title>
    <desc>Created with Sketch.</desc>
    <g id="民生银行" stroke="none" stroke-width="1" fill="none" fill-rule="evenodd">
        <path d="M17,34 C7.61115925,34 0,26.3888407 0,17 C0,7.61115925 7.61115925,0 17,0 C26.3888407,0 34,7.61115925 34,17 C34,26.3888407 26.3888407,34 17,34 Z M17.1765886,7.00808989 L17.0107023,7.00269663 L17.0107023,7.01078652 C12.6789298,7.14292135 6.70434783,8.37258427 5.56989967,12.4040449 C5.53244147,12.5604494 5.49498328,12.6791011 5.49498328,12.7977528 L5.49498328,13.3478652 C5.72240803,15.6777528 9.03210702,18.352809 14.4742475,18.352809 L11.5444816,20.1676404 L16.7565217,22.9235955 L17.0989967,22.767191 L22.6187291,19.9707865 L17.0133779,17.5680899 L16.5692308,17.371236 C16.5692308,17.371236 8.57725753,17.6867416 9.26220736,11.9348315 C10.0943144,9.62651685 13.6474916,8.2458427 17.1257525,8.15146067 C20.922408,8.03820225 24.7913043,9.53752809 25.3210702,13.0350562 L28.9732441,13.0350562 C29.0107023,8.38606742 21.1337793,6.8894382 17.1765886,7.00808989 Z M14.8943144,20.1676404 L16.9491639,18.905618 L19.3090301,20.1676404 L17.0240803,21.3892135 L14.8943144,20.1676404 Z M19.5364548,14.847191 L22.4287625,13.0755056 L17.2541806,10.2791011 L11.3919732,13.2346067 L16.9090301,15.6373034 L17.4040134,15.8341573 C17.4040134,15.8341573 25.3959866,15.5591011 24.748495,21.2705618 C23.8735786,23.5950562 20.4113712,24.9757303 16.9090301,25.051236 C13.0668896,25.1321348 9.22207358,23.6355056 8.68963211,20.1676404 L5,20.1676404 C5,24.8166292 12.8769231,26.272809 16.8341137,26.1946067 L16.9090301,26.1919101 C21.2461538,26.0274157 27.3010033,24.8408989 28.4381271,20.7959551 C28.4755853,20.6773034 28.5157191,20.5586517 28.5157191,20.3995506 L28.5157191,19.8898876 C28.2882943,17.5276404 24.9384615,14.8876404 19.5364548,14.847191 Z M19.116388,13.0755056 L17.032107,14.3213483 L14.7016722,13.0755056 L16.9866221,11.8134831 L19.116388,13.0755056 Z" id="合并形状" fill="#FFFFFF"></path>
    </g>
</svg>