<?xml version="1.0" encoding="UTF-8"?>
<svg width="112px" height="112px" viewBox="0 0 112 112" version="1.1" xmlns="http://www.w3.org/2000/svg" xmlns:xlink="http://www.w3.org/1999/xlink">
    <!-- Generator: Sketch 52.1 (67048) - http://www.bohemiancoding.com/sketch -->
    <title>民生银行2</title>
    <desc>Created with Sketch.</desc>
    <defs>
        <linearGradient x1="-83.5205176%" y1="35.2021158%" x2="128.44535%" y2="35.2021158%" id="linearGradient-1">
            <stop stop-color="#FFFFFF" stop-opacity="0.275617074" offset="0%"></stop>
            <stop stop-color="#FFFFFF" stop-opacity="0" offset="100%"></stop>
        </linearGradient>
    </defs>
    <g id="民生银行2" stroke="none" stroke-width="1" fill="none" fill-rule="evenodd">
        <path d="M56,112 C25.072054,112 0,86.927946 0,56 C0,25.072054 25.072054,0 56,0 C86.927946,0 112,25.072054 112,56 C112,86.927946 86.927946,112 56,112 Z M54.9511706,23.0801118 L54.4047216,23.0623458 L54.4047216,23.0889948 C40.1353531,23.5242625 20.4543773,27.5749168 16.7173716,40.8550226 C16.5939799,41.3702374 16.4705882,41.76109 16.4705882,42.1519426 L16.4705882,43.9640774 C17.2197521,51.6390014 28.12229,60.4509512 46.0493409,60.4509512 L36.3983474,66.4292195 L53.5674208,75.5076597 L54.6955735,74.9924449 L72.8782215,65.7807595 L54.4135353,57.8659942 L52.9504623,57.2175342 C52.9504623,57.2175342 26.6239622,58.2568468 28.8802676,39.3093782 C31.621326,31.7055183 43.3259099,27.1574152 54.7837104,26.8465097 C67.2903404,26.4734231 80.03494,31.4123788 81.7800512,42.9336478 L93.8107417,42.9336478 C93.9341334,27.6193319 67.9866221,22.6892592 54.9511706,23.0801118 Z M47.4330907,66.4292195 L54.2020067,62.271969 L61.9756837,66.4292195 L54.4487901,70.4532248 L47.4330907,66.4292195 Z M64.3553807,47.989002 L73.8829825,42.1528619 L56.8373008,32.9411765 L37.5265001,42.6769597 L55.7003344,50.591725 L57.3308676,51.2401851 C57.3308676,51.2401851 83.6573677,50.3341176 81.5244541,69.148341 C78.6423765,76.805499 67.2374582,81.3536021 55.7003344,81.6023265 C43.0438717,81.8688169 30.3785953,76.9387442 28.6246705,65.5151884 L16.4705882,65.5151884 C16.4705882,80.8295043 42.4180995,85.6263318 55.4535511,85.3687244 L55.7003344,85.3598414 C69.9873303,84.8179775 89.9327169,80.9094514 93.6785363,67.5849306 C93.801928,67.194078 93.9341334,66.8032254 93.9341334,66.2791276 L93.9341334,64.6002379 C93.1849695,56.8187178 82.1502262,48.1222472 64.3553807,47.989002 Z M62.9716309,42.1528619 L56.1057643,46.2568143 L48.429038,42.1528619 L55.9559315,37.9956114 L62.9716309,42.1528619 Z" id="合并形状" fill="url(#linearGradient-1)"></path>
    </g>
</svg>