<?xml version="1.0" encoding="UTF-8"?>
<svg width="34px" height="34px" viewBox="0 0 34 34" version="1.1" xmlns="http://www.w3.org/2000/svg" xmlns:xlink="http://www.w3.org/1999/xlink">
    <!-- Generator: Sketch 52.1 (67048) - http://www.bohemiancoding.com/sketch -->
    <title>农业银行</title>
    <desc>Created with Sketch.</desc>
    <g id="农业银行" stroke="none" stroke-width="1" fill="none" fill-rule="evenodd">
        <path d="M17,0 C16.49,0 15.98,0.017 15.47,0.068 L15.47,8.279 C15.47,8.653 15.776,8.959 16.15,8.959 L17.85,8.959 C18.224,8.959 18.53,8.653 18.53,8.279 L18.53,0.068 C18.02,0.017 17.51,0 17,0 Z M18.037,11.135 L20.417,11.135 C20.791,11.135 21.097,10.829 21.097,10.455 L21.097,1.7 L22.797,1.7 L22.797,15.64 C22.797,16.082 22.44,16.422 22.015,16.422 L18.156,16.422 C17.408,16.422 17.374,16.813 17.374,16.813 L17.374,11.798 C17.357,11.441 17.663,11.135 18.037,11.135 Z" id="Shape" fill="#FFFFFF" fill-rule="nonzero"></path>
        <path d="M15.997,11.135 L13.617,11.135 C13.243,11.135 12.937,10.829 12.937,10.455 L12.937,1.7 L11.237,1.7 L11.237,15.64 C11.237,16.082 11.594,16.422 12.019,16.422 L15.878,16.422 C16.626,16.422 16.66,16.813 16.66,16.813 L16.66,11.798 C16.677,11.441 16.371,11.135 15.997,11.135 Z M11.917,22.423 L14.637,22.423 C15.011,22.423 15.317,22.729 15.317,23.103 L15.317,33.66 L16.677,33.66 L16.677,17.918 C16.677,17.476 16.32,17.136 15.895,17.136 L12.036,17.136 C11.288,17.136 11.254,16.745 11.254,16.745 L11.254,21.76 C11.237,22.117 11.543,22.423 11.917,22.423 Z M22.117,22.423 L19.397,22.423 C19.023,22.423 18.717,22.729 18.717,23.103 L18.717,33.66 L17.357,33.66 L17.357,17.918 C17.357,17.476 17.714,17.136 18.139,17.136 L21.998,17.136 C22.746,17.136 22.78,16.745 22.78,16.745 L22.78,21.76 C22.797,22.117 22.491,22.423 22.117,22.423 Z" id="Shape" fill="#FFFFFF" fill-rule="nonzero"></path>
        <path d="M21.097,0.493 L21.097,4.029 C26.605,5.763 30.6,10.914 30.6,17 C30.6,24.514 24.514,30.6 17,30.6 C9.486,30.6 3.4,24.514 3.4,17 C3.4,10.897 7.412,5.746 12.937,4.012 L12.937,0.476 C5.508,2.312 0,9.01 0,17 C0,26.384 7.616,34 17,34 C26.384,34 34,26.384 34,17 C34,9.027 28.509,2.329 21.097,0.493 Z" id="Shape" fill="#FFFFFF" fill-rule="nonzero"></path>
    </g>
</svg>