<?xml version="1.0" encoding="UTF-8"?>
<svg width="112px" height="112px" viewBox="0 0 112 112" version="1.1" xmlns="http://www.w3.org/2000/svg" xmlns:xlink="http://www.w3.org/1999/xlink">
    <!-- Generator: Sketch 52.1 (67048) - http://www.bohemiancoding.com/sketch -->
    <title>平安银行2</title>
    <desc>Created with Sketch.</desc>
    <defs>
        <linearGradient x1="-83.5205176%" y1="35.2021158%" x2="128.44535%" y2="35.2021158%" id="linearGradient-1">
            <stop stop-color="#FFFFFF" stop-opacity="0.275617074" offset="0%"></stop>
            <stop stop-color="#FFFFFF" stop-opacity="0" offset="100%"></stop>
        </linearGradient>
    </defs>
    <g id="平安银行2" stroke="none" stroke-width="1" fill="none" fill-rule="evenodd">
        <path d="M56,112 C25.072054,112 9.9475983e-14,86.927946 9.9475983e-14,56 C9.9475983e-14,25.072054 25.072054,9.9475983e-14 56,9.9475983e-14 C86.927946,9.9475983e-14 112,25.072054 112,56 C112,86.927946 86.927946,112 56,112 Z M64.4883723,64.1293703 L47.4451411,64.1293703 C46.5717147,64.1293703 45.8678212,64.7906168 45.8678212,65.6369583 L45.8678212,81.4757005 C45.8678212,82.2881704 46.5717147,82.9787174 47.4451411,82.9787174 L64.4883723,82.9787174 C65.3664266,82.9787174 66.0865175,82.2881704 66.0865175,81.4757005 L66.0865175,65.6369583 C66.0865175,64.7906168 65.3664266,64.1293703 64.4883723,64.1293703 Z M63.8077723,21.5558566 C63.1805466,20.504112 62.1561756,19.8068206 60.9389782,19.8068206 L51.0246933,19.8068206 C49.7773378,19.8068206 48.7668504,20.504112 48.1326829,21.5558566 L16.9381537,79.9681124 C15.8975082,81.85256 16.7755625,82.9787174 18.6269273,82.9787174 L28.5109771,82.9787174 C29.948845,82.9787174 30.4924612,82.6221658 31.2125521,81.3244771 L55.9655998,34.3522953 L80.7279803,81.3244771 C81.4619547,82.6221658 81.998552,82.9787174 83.4294781,82.9787174 L93.3204697,82.9787174 C95.1625788,82.9787174 96.0592216,81.85256 95.0185761,79.9681124 L63.8077723,21.5558566 Z" id="合并形状" fill="url(#linearGradient-1)"></path>
    </g>
</svg>