<?xml version="1.0" encoding="UTF-8"?>
<svg width="34px" height="34px" viewBox="0 0 34 34" version="1.1" xmlns="http://www.w3.org/2000/svg" xmlns:xlink="http://www.w3.org/1999/xlink">
    <!-- Generator: Sketch 52.1 (67048) - http://www.bohemiancoding.com/sketch -->
    <title>平安银行</title>
    <desc>Created with Sketch.</desc>
    <g id="平安银行" stroke="none" stroke-width="1" fill="none" fill-rule="evenodd">
        <path d="M17,34 C7.61115925,34 0,26.3888407 0,17 C0,7.61115925 7.61115925,0 17,0 C26.3888407,0 34,7.61115925 34,17 C34,26.3888407 26.3888407,34 17,34 Z M19.5768273,19.4678445 L14.4029893,19.4678445 C14.137842,19.4678445 13.92416,19.6685801 13.92416,19.9255052 L13.92416,24.7336948 C13.92416,24.9803374 14.137842,25.1899678 14.4029893,25.1899678 L19.5768273,25.1899678 C19.8433795,25.1899678 20.0619785,24.9803374 20.0619785,24.7336948 L20.0619785,19.9255052 C20.0619785,19.6685801 19.8433795,19.4678445 19.5768273,19.4678445 Z M19.3702166,6.54374218 C19.1798088,6.22446256 18.868839,6.01278483 18.4993327,6.01278483 L15.489639,6.01278483 C15.1109776,6.01278483 14.8042224,6.22446256 14.6117073,6.54374218 L5.14193951,24.2760341 C4.82602927,24.8480986 5.09258146,25.1899678 5.65460293,25.1899678 L8.65511805,25.1899678 C9.09161366,25.1899678 9.25664,25.0817289 9.47523902,24.6877877 L16.9895571,10.4283754 L24.5067083,24.6877877 C24.729522,25.0817289 24.8924176,25.1899678 25.3268059,25.1899678 L28.3294283,25.1899678 C28.88864,25.1899678 29.1608351,24.8480986 28.8449249,24.2760341 L19.3702166,6.54374218 Z" id="合并形状" fill="#FFFFFF"></path>
    </g>
</svg>