<?xml version="1.0" encoding="UTF-8"?>
<svg width="34px" height="31px" viewBox="0 0 34 31" version="1.1" xmlns="http://www.w3.org/2000/svg" xmlns:xlink="http://www.w3.org/1999/xlink">
    <!-- Generator: Sketch 52.1 (67048) - http://www.bohemiancoding.com/sketch -->
    <title>浦发银行</title>
    <desc>Created with Sketch.</desc>
    <g id="浦发银行" stroke="none" stroke-width="1" fill="none" fill-rule="evenodd">
        <path d="M24.1690527,5.99985402 C26.1055254,6.79176562 27.6350273,8.44641964 28.3024434,10.5078214 C27.815752,10.3915688 27.3169746,10.3443368 26.795752,10.3443368 C25.8673926,10.3443368 24.9843887,10.5200819 24.1690527,10.8566819 L24.1690527,5.99985402 Z M24.1690859,24.5565683 C24.9843887,24.8947393 25.8900039,25.0804567 26.83025,25.0804567 C30.7722246,25.0804225 34,21.7721049 34,17.7066763 L34,5.4409942 L28.6987227,0 L28.6987227,12.2903739 L28.6761113,12.2903739 C28.6868359,12.4641723 28.6986895,12.6392002 28.6986895,12.8143989 L28.6986895,12.8376563 C28.6986895,15.9485424 26.8195254,18.604117 24.1688867,19.699433 L24.1688867,24.5566025 L24.1690859,24.5565683 Z M19.626002,17.6841362 L19.626002,17.7066763 C19.626002,21.7721049 16.4114746,25.0804225 12.4681387,25.0804225 C11.5292207,25.0804225 10.6341641,24.8945685 9.81902734,24.5565342 L9.81902734,19.6875141 C12.4589746,18.6038779 14.3381387,15.9366234 14.3381387,12.8374513 L14.3381387,12.8142281 C14.3500254,8.77116897 17.565748,5.46356853 21.5065273,5.46356853 C22.4468066,5.46356853 23.3418633,5.6495933 24.1690859,5.99985402 L24.1690859,10.8566819 C21.5184141,11.940079 19.63925,14.5959951 19.63925,17.6841362 L19.6259688,17.6841362 L19.626002,17.6841362 Z M24.1690859,19.6990232 C23.3418633,20.0244214 22.4586934,20.2113683 21.5305,20.2113683 C21.0104727,20.2113683 20.5105,20.1533103 20.0224141,20.048396 C20.6913906,22.0975373 22.219498,23.7529085 24.169252,24.5563975 L24.169252,19.6990232 L24.1690859,19.6990232 Z M9.81902734,10.8566819 C10.6341641,10.5310788 11.5293867,10.3443368 12.4681387,10.3443368 C12.9788027,10.3443368 13.476252,10.3915688 13.9643047,10.5078214 C13.2967227,8.44628304 11.7672539,6.79176563 9.81886133,5.98813996 L9.81886133,10.8566819 L9.81902734,10.8566819 Z M9.81902734,24.5565683 C7.87066797,23.7646225 6.34252734,22.0975373 5.66285937,20.0485667 C6.14958398,20.153481 6.64836133,20.2115391 7.16838867,20.2115391 C8.09794336,20.2115391 8.99180469,20.0247971 9.81902734,19.6876507 L9.81902734,24.5565683 Z M9.81902734,5.98813996 C8.99180469,5.6495933 8.09794336,5.46356853 7.16838867,5.46356853 C3.21588867,5.46356853 0,8.77116897 0,12.8374513 L0,25.1043971 L5.30111133,30.5439911 L5.30111133,18.2543685 L5.31183594,18.2543685 C5.30111133,18.0901667 5.30111133,17.9165391 5.30111133,17.7406232 L5.30111133,17.7065397 C5.30111133,14.6073676 7.16838867,11.9521688 9.81906055,10.8565112 L9.81906055,5.98813996 L9.81902734,5.98813996 Z" id="Shape" fill="#FFFFFF" fill-rule="nonzero"></path>
    </g>
</svg>