<?xml version="1.0" encoding="UTF-8"?>
<svg width="112px" height="101px" viewBox="0 0 112 101" version="1.1" xmlns="http://www.w3.org/2000/svg" xmlns:xlink="http://www.w3.org/1999/xlink">
    <!-- Generator: Sketch 52.1 (67048) - http://www.bohemiancoding.com/sketch -->
    <title>浦发银行2</title>
    <desc>Created with Sketch.</desc>
    <defs>
        <linearGradient x1="-83.5205176%" y1="35.2021158%" x2="128.44535%" y2="35.2021158%" id="linearGradient-1">
            <stop stop-color="#FFFFFF" stop-opacity="0.275617074" offset="0%"></stop>
            <stop stop-color="#FFFFFF" stop-opacity="0" offset="100%"></stop>
        </linearGradient>
    </defs>
    <g id="浦发银行2" stroke="none" stroke-width="1" fill="none" fill-rule="evenodd">
        <path d="M79.6157031,19.764225 C85.9946719,22.372875 91.0330312,27.8235 93.2315781,34.614 C91.6283594,34.23105 89.9853281,34.0754625 88.2683594,34.0754625 C85.2102344,34.0754625 82.3015156,34.6543875 79.6157031,35.7631875 L79.6157031,19.764225 Z M79.6158125,80.892225 C82.3015156,82.0062 85.2847188,82.617975 88.382,82.617975 C101.367328,82.6178625 112,71.719875 112,58.327875 L112,17.923275 L94.5369687,0 L94.5369687,40.4859375 L94.4624844,40.4859375 C94.4978125,41.05845 94.5368594,41.6350125 94.5368594,42.2121375 L94.5368594,42.28875 C94.5368594,52.536375 88.3466719,61.28415 79.6151562,64.89225 L79.6151562,80.8923375 L79.6158125,80.892225 Z M64.6503594,58.253625 L64.6503594,58.327875 C64.6503594,71.719875 54.0613281,82.6178625 41.0715156,82.6178625 C37.9786094,82.6178625 35.0301875,82.0056375 32.3450313,80.8921125 L32.3450313,64.8529875 C41.0413281,61.2833625 47.2315156,52.4971125 47.2315156,42.288075 L47.2315156,42.211575 C47.2706719,28.8932625 57.8636406,17.9976375 70.8450313,17.9976375 C73.9424219,17.9976375 76.8908438,18.610425 79.6158125,19.764225 L79.6158125,35.7631875 C70.8841875,39.332025 64.694,48.080925 64.694,58.253625 L64.65025,58.253625 L64.6503594,58.253625 Z M79.6158125,64.8909 C76.8908438,65.9628 73.9815781,66.578625 70.924,66.578625 C69.2109688,66.578625 67.564,66.387375 65.9561875,66.041775 C68.159875,72.7918875 73.1936406,78.244875 79.6163594,80.8916625 L79.6163594,64.8909 L79.6158125,64.8909 Z M32.3450313,35.7631875 C35.0301875,34.6906125 37.9791563,34.0754625 41.0715156,34.0754625 C42.7537031,34.0754625 44.3923594,34.23105 46.0000625,34.614 C43.8009688,27.82305 38.7627188,22.372875 32.3444844,19.7256375 L32.3444844,35.7631875 L32.3450313,35.7631875 Z M32.3450312,80.892225 C25.9269063,78.2834625 20.8930312,72.7918875 18.654125,66.0423375 C20.2574531,66.3879375 21.9004844,66.5791875 23.6135156,66.5791875 C26.6755781,66.5791875 29.6200625,65.9640375 32.3450312,64.8534375 L32.3450312,80.892225 Z M32.3450312,19.7256375 C29.6200625,18.610425 26.6755781,17.9976375 23.6135156,17.9976375 C10.5935156,17.9976375 0,28.8932625 0,42.288075 L0,82.6968375 L17.4624844,100.6155 L17.4624844,60.1320375 L17.4978125,60.1320375 C17.4624844,59.5911375 17.4624844,59.0191875 17.4624844,58.4397 L17.4624844,58.327425 C17.4624844,48.1183875 23.6135156,39.37185 32.3451406,35.762625 L32.3451406,19.7256375 L32.3450312,19.7256375 Z" id="Shape-Copy" fill="url(#linearGradient-1)" fill-rule="nonzero"></path>
    </g>
</svg>