<?xml version="1.0" encoding="UTF-8"?>
<svg width="14px" height="14px" viewBox="0 0 14 14" version="1.1" xmlns="http://www.w3.org/2000/svg" xmlns:xlink="http://www.w3.org/1999/xlink">
    <!-- Generator: Sketch 52.1 (67048) - http://www.bohemiancoding.com/sketch -->
    <title>画板</title>
    <desc>Created with Sketch.</desc>
    <g id="画板" stroke="none" stroke-width="1" fill="none" fill-rule="evenodd">
        <rect id="Rectangle" fill="#4E8CEE" x="0" y="0" width="14" height="14" rx="2"></rect>
        <path d="M7.86120916,11.5928751 C7.62821852,11.7809934 7.3313712,11.8949 7.00863602,11.8949 C6.68935256,11.8949 6.3942311,11.7827193 6.16124046,11.5980526 L2.33329064,8.24643921 C2.24872367,8.14979124 2.19694797,8.02725543 2.19694797,7.88918691 C2.19694797,7.63893771 2.36608191,7.43010906 2.59562083,7.36625238 C2.59562083,7.36625238 2.65084824,7.3455421 2.7319635,7.3455421 L3.86067368,7.3455421 L3.86067368,3.84723087 C3.86067368,3.34500662 4.23863627,2.9722216 4.74086052,2.9722216 L9.27986324,2.9722216 C9.78036163,2.9722216 10.1600501,3.34328075 10.1600501,3.84723087 L10.1600501,7.34381624 L11.2663241,7.34381624 C11.2697758,7.34381624 11.2732275,7.34209039 11.2766793,7.34209039 C11.280131,7.34209039 11.2835827,7.34381624 11.2870344,7.34381624 L11.3008413,7.34381624 L11.3008413,7.3455421 C11.5890593,7.35934895 11.8203241,7.5957913 11.8203241,7.88918691 C11.8203241,8.02380372 11.7702742,8.14288782 11.6926107,8.23780993 L7.86120916,11.5928751 Z" id="Shape" fill="#FFFFFF" fill-rule="nonzero"></path>
        <path d="M8.59723443,7.35719996 C8.74094906,7.35719996 8.87374686,7.4338708 8.94560418,7.55833132 C9.0174615,7.68279184 9.0174615,7.83613353 8.94560418,7.96059406 C8.87374686,8.08505458 8.74094906,8.16172542 8.59723443,8.16172541 L7.40201131,8.16172541 L7.40201131,9.03564118 C7.40201131,9.25780475 7.22191215,9.43790391 6.99974859,9.43790391 C6.77758502,9.43790391 6.59748586,9.25780475 6.59748586,9.03564118 L6.59748586,8.16172541 L5.40226274,8.16172541 C5.25854811,8.16172542 5.12575031,8.08505458 5.05389299,7.96059406 C4.98203567,7.83613353 4.98203567,7.68279184 5.05389299,7.55833132 C5.12575031,7.4338708 5.25854811,7.35719996 5.40226274,7.35719996 L6.59748586,7.35719996 L6.59748586,6.8463263 L5.40226274,6.8463263 C5.18009917,6.8463263 5.00000002,6.66622715 5.00000002,6.44406358 C5.00000002,6.22190001 5.18009917,6.04180086 5.40226274,6.04180086 L6.24902578,6.04180086 L5.31074797,4.63086435 C5.2281261,4.51123402 5.21648634,4.35633057 5.28030285,4.22569656 C5.34411935,4.09506256 5.47345973,4.00902984 5.61860749,4.0006681 C5.76375525,3.99230636 5.90211961,4.06291701 5.98051541,4.18535838 L6.98064111,5.68881532 L7.98076681,4.18535838 C8.0591626,4.06291701 8.19752696,3.99230636 8.34267472,4.0006681 C8.48782248,4.00902984 8.61716286,4.09506256 8.68097936,4.22569656 C8.74479587,4.35633057 8.73315611,4.51123402 8.65053424,4.63086435 L7.71225644,6.04180086 L8.59773726,6.04180086 C8.74145189,6.04180085 8.87424969,6.11847169 8.94610701,6.24293221 C9.01796433,6.36739274 9.01796433,6.52073442 8.94610701,6.64519495 C8.87424969,6.76965547 8.74145189,6.84632631 8.59773726,6.8463263 L7.40201131,6.8463263 L7.40201131,7.35719996 L8.59723443,7.35719996 Z" id="Shape" fill="#4E8CEE" fill-rule="nonzero"></path>
    </g>
</svg>