<?xml version="1.0" encoding="UTF-8"?>
<svg width="34px" height="23px" viewBox="0 0 34 23" version="1.1" xmlns="http://www.w3.org/2000/svg" xmlns:xlink="http://www.w3.org/1999/xlink">
    <!-- Generator: Sketch 52.1 (67048) - http://www.bohemiancoding.com/sketch -->
    <title>兴业银行</title>
    <desc>Created with Sketch.</desc>
    <g id="兴业银行" stroke="none" stroke-width="1" fill="none" fill-rule="evenodd">
        <path d="M33.9970117,10.9147561 C33.9970117,6.46547025 28.0908066,2.8587638 20.8054434,2.8587638 C14.9740117,2.8587638 10.0261816,5.1729592 8.28620508,8.37664571 L8.28620508,8.37359509 C8.12355076,8.66681405 8.03709288,8.99764222 8.03505664,9.33460613 C8.03505664,10.1333584 8.52845508,10.8444564 9.299,11.308692 L15.986375,15.2494745 C16.3561969,15.4530936 16.7702122,15.5585758 17.1903867,15.5562307 C17.6107577,15.5585455 18.0250471,15.4537128 18.3956934,15.2512371 L24.7383867,11.5104393 C25.1672383,11.2575095 25.438375,10.8622517 25.438375,10.4205567 C25.438375,9.99191166 25.1816816,9.61139847 24.7762383,9.35629939 L22.4178867,7.96488067 L17.1899883,11.0449156 L13.2361934,8.71200982 C14.7632051,7.3071684 17.6103066,6.36134264 20.8704883,6.36134264 C25.7448066,6.36134264 29.6977383,8.47426534 29.6977383,11.0826755 C29.5931484,15.1197557 23.7940566,18.2435839 16.7479883,18.0570558 C9.70019336,17.866562 4.07276172,14.4364183 4.175625,10.4001854 L4.17393164,10.4001854 C4.22363672,5.07622086 11.0610566,0.826512883 19.441625,0.909828528 C20.1904883,0.918065184 20.9210566,0.958401074 21.6363516,1.03171748 C19.9171934,0.384411196 17.76925,0 15.43175,0 C13.5655684,0 11.817125,0.246862423 10.3138867,0.674660123 C4.24913672,2.37412301 0,6.31965092 0,10.9147561 C0,17.0682503 7.61088672,22.0576982 17,22.0576982 C26.3891133,22.0576982 34,17.0682503 34,10.9147561 L33.9970117,10.9147561 Z" id="Shape" fill="#FFFFFF" fill-rule="nonzero"></path>
    </g>
</svg>