<?xml version="1.0" encoding="UTF-8"?>
<svg width="112px" height="73px" viewBox="0 0 112 73" version="1.1" xmlns="http://www.w3.org/2000/svg" xmlns:xlink="http://www.w3.org/1999/xlink">
    <!-- Generator: Sketch 52.1 (67048) - http://www.bohemiancoding.com/sketch -->
    <title>兴业银行2</title>
    <desc>Created with Sketch.</desc>
    <defs>
        <linearGradient x1="-83.5205176%" y1="35.2021158%" x2="128.44535%" y2="35.2021158%" id="linearGradient-1">
            <stop stop-color="#FFFFFF" stop-opacity="0.275617074" offset="0%"></stop>
            <stop stop-color="#FFFFFF" stop-opacity="0" offset="100%"></stop>
        </linearGradient>
    </defs>
    <g id="兴业银行2" stroke="none" stroke-width="1" fill="none" fill-rule="evenodd">
        <path d="M111.990156,35.9544908 C111.990156,21.2980196 92.5344219,9.41710429 68.5355781,9.41710429 C49.3261562,9.41710429 33.0274219,17.0403362 27.2957344,27.5936564 L27.2957344,27.5836074 C26.7599319,28.5495051 26.4751295,29.639292 26.4684219,30.7492908 C26.4684219,33.3804748 28.0937344,35.7229153 30.632,37.252162 L52.661,50.2335632 C53.8792367,50.9043085 55.2430518,51.251779 56.6271562,51.244054 C58.0119076,51.2516794 59.3766256,50.906348 60.5975781,50.2393693 L81.4911562,37.9167411 C82.9038437,37.0835607 83.797,35.781535 83.797,34.3265399 C83.797,32.9145325 82.9514219,31.6610773 81.6158437,30.8207509 L73.8471562,26.237254 L56.6258437,36.3832515 L43.6015781,28.6983853 C48.6317344,24.0706724 58.0104219,20.955011 68.7498437,20.955011 C84.8064219,20.955011 97.8278437,27.915227 97.8278437,36.5076368 C97.4833125,49.806254 78.3804219,60.0965117 55.1698437,59.4820663 C31.9535781,58.8545571 13.4161562,47.5552601 13.755,34.2594344 L13.7494219,34.2594344 C13.9131562,16.7216687 36.4364219,2.72263067 64.043,2.99708221 C66.5098437,3.02421472 68.9164219,3.15708589 71.2726875,3.39859877 C65.6095781,1.26629571 58.534,0 50.834,0 C44.6865781,0 38.927,0.813193865 33.9751562,2.22240982 C13.9971562,7.82064049 0,20.8176736 0,35.9544908 C0,56.2248245 25.0711563,72.6606528 56,72.6606528 C86.9288437,72.6606528 112,56.2248245 112,35.9544908 L111.990156,35.9544908 Z" id="Shape" fill="url(#linearGradient-1)" fill-rule="nonzero"></path>
    </g>
</svg>