<?xml version="1.0" encoding="UTF-8"?>
<svg width="95px" height="95px" viewBox="0 0 95 95" version="1.1" xmlns="http://www.w3.org/2000/svg" xmlns:xlink="http://www.w3.org/1999/xlink">
    <!-- Generator: Sketch 52.1 (67048) - http://www.bohemiancoding.com/sketch -->
    <title>邮政储蓄银行</title>
    <desc>Created with Sketch.</desc>
    <defs>
        <linearGradient x1="-83.5205176%" y1="35.2021158%" x2="128.44535%" y2="35.2021158%" id="linearGradient-1">
            <stop stop-color="#FFFFFF" stop-opacity="0.275617074" offset="0%"></stop>
            <stop stop-color="#FFFFFF" stop-opacity="0" offset="100%"></stop>
        </linearGradient>
    </defs>
    <g id="邮政储蓄银行" stroke="none" stroke-width="1" fill="none" fill-rule="evenodd">
        <path d="M47.5,95 C21.2664744,95 0,73.7335256 0,47.5 C0,21.2664744 21.2664744,0 47.5,0 C73.7335256,0 95,21.2664744 95,47.5 C95,73.7335256 73.7335256,95 47.5,95 Z M47.202,19 L45.2334,28.5589433 L29.6852,28.5589433 L25.7412,47.4490717 L11.6142,47.4490717 L9.96860002,55.1100299 L9.64220001,57.008015 L8,64.6793259 L22.2358,64.6793259 L18.2952,83.5694542 L52.2408,83.5694542 L53.883,75.9084961 L56.1814,64.6793259 L66.5854,64.6793259 L68.1154,57.008015 L53.4478,57.008015 L51.9178,64.6793259 L49.5038,75.9084961 L24.2078,75.9084961 L24.5376,74.1209392 L47.0932,74.1209392 L51.0372,55.1100299 L68.4554,55.1100299 L70.0908,47.4490717 L48.3002,47.4490717 L46.7668,55.1100299 L44.3596,66.459981 L26.1832,66.459981 L26.5096,64.6793259 L42.0612,64.6793259 L43.5912,57.008015 L44.0264,55.1100299 L45.5632,47.4490717 L30.0116,47.4490717 L30.4536,45.6718674 L53.0024,45.6718674 L54.9744,36.2268032 L72.3926,36.2268032 L74.028,28.5554924 L52.2408,28.5554924 L50.5986,36.2268032 L50.2756,38.0040075 L31.9836,38.0040075 L32.4222,36.2268032 L47.9704,36.2268032 L49.5004,28.5554924 L49.8336,26.6713108 L74.3646,26.6713108 L76,19 L47.202,19 Z M39.654,55.1100299 L39.3174,57.008015 L28.0362,57.008015 L28.4782,55.1100299 L39.654,55.1100299 Z M24.2078,55.1100299 L23.7658,57.008015 L13.916,57.008015 L14.2458,55.1100299 L24.2078,55.1100299 Z" id="合并形状" fill="url(#linearGradient-1)"></path>
    </g>
</svg>