<?xml version="1.0" encoding="UTF-8"?>
<svg width="116px" height="116px" viewBox="0 0 116 116" version="1.1" xmlns="http://www.w3.org/2000/svg" xmlns:xlink="http://www.w3.org/1999/xlink">
    <!-- Generator: Sketch 52.1 (67048) - http://www.bohemiancoding.com/sketch -->
    <title>招商银行2</title>
    <desc>Created with Sketch.</desc>
    <defs>
        <linearGradient x1="-83.5205176%" y1="35.2021158%" x2="128.44535%" y2="35.2021158%" id="linearGradient-1">
            <stop stop-color="#FFFFFF" stop-opacity="0.275617074" offset="0%"></stop>
            <stop stop-color="#FFFFFF" stop-opacity="0" offset="100%"></stop>
        </linearGradient>
    </defs>
    <g id="招商银行2" stroke="none" stroke-width="1" fill="none" fill-rule="evenodd">
        <g id="招商银行-copy" fill="url(#linearGradient-1)" fill-rule="nonzero">
            <path d="M53.1930234,81.4468398 L68.9183867,41.7223906 L85.32525,81.4468398 L53.1930234,81.4468398 Z M20.2617109,81.4468398 L35.9870742,41.7223906 L52.3939375,81.4468398 L20.2617109,81.4468398 Z M114.260566,72.3971406 L113.602402,74.6537031 L103.071891,74.6537031 L101.990734,72.3971406 L114.260566,72.3971406 Z M114.942293,69.2003437 L100.650844,69.2003437 L99.5931367,66.8028594 L115.341836,66.8028594 L114.942293,69.2003437 Z M115.71793,63.6060625 L98.2533594,63.6060625 L97.1955391,61.1850156 L116,61.1850156 L115.71793,63.6060625 Z M116,57.9882187 L95.8557617,57.9882187 L94.9155273,55.5907344 L116,55.5907344 L116,57.9882187 Z M115.71793,52.3939375 L93.4581641,52.3939375 L92.5179297,49.9963398 L115.459422,49.9963398 L115.71793,52.3939375 Z M114.942293,46.799543 L91.2016016,46.799543 L90.120332,44.4020586 L114.401602,44.4020586 L114.942293,46.799543 Z" id="Shape"></path>
            <polygon id="Shape" points="58.0117813 0 60.3858164 0 62.9244492 0.258507812 65.3219336 0.399542969 67.6020586 0.799199219 69.999543 1.19874219 72.2561055 1.71587109 74.5361172 2.39759766 76.7926797 3.05576172 77.8505 3.45530469 78.9316563 3.85496094 81.0707461 4.79508203 83.1862734 5.73531641 85.1842148 6.79313672 87.1821563 7.85084375 89.2036602 9.04969922 91.0605664 10.3894766 92.9410352 11.7292539 94.6569063 13.0691445 96.3963398 14.5263945 98.1357734 16.124793 99.7341719 17.7231914 101.33257 19.3215898 102.78982 21.0610234 103.471547 22.0012578 104.129711 22.9179297 105.587074 24.7983984 106.809266 26.6553047 108.008121 28.5357734 109.183414 30.5337148 110.123648 32.6492422 111.204918 34.6707461 112.004004 36.7862734 112.803203 39.0662852 113.602402 41.2052617 88.8040039 41.2052617 73.4549609 5.33577344 57.4710898 45.7418359 40.6646836 5.73531641 11.0710898 82.1284531 24.5397773 98.9349727 93.0585078 98.9349727 105.587074 80.6476406 104.388219 77.8505 112.521133 77.8505 111.721934 79.9894766 110.781813 81.987418 109.865027 83.9853594 108.924793 85.8658281 107.726051 87.8638828 106.668344 89.7207891 105.328453 91.4602227 104.129711 93.1760938 102.78982 94.9389766 101.33257 96.6549609 99.875207 98.1357734 98.2532461 99.7341719 96.6549609 101.191535 95.0565625 102.672348 93.3405781 104.012125 91.6012578 105.328453 89.8618242 106.527309 88.004918 107.726051 86.1244492 108.783758 84.1263945 109.865027 82.1284531 110.781813 80.1305117 111.604461 77.9915352 112.40366 75.9934805 113.202859 73.8545039 113.861023 71.5979414 114.401602 69.4589648 114.942293 67.2024023 115.341836 66.1446953 115.459422 64.9223906 115.600457 62.6658281 115.858965 60.3858164 116 55.0736055 116 52.1353164 115.71793 49.1971406 115.341836 46.2589648 114.801258 43.4618242 114.119531 40.8057188 113.461367 38.1260508 112.521133 35.4463828 111.463426 32.9313125 110.264684 30.3926797 109.065828 29.1939375 108.266629 27.995082 107.608465 25.5975977 106.127652 23.3174727 104.529254 21.0610234 102.813383 20.0032031 101.873148 19.0629688 100.932914 18.0052617 99.9926797 17.0650273 99.0524453 15.0670859 97.0545039 13.1866172 94.9389766 12.4109805 93.857707 11.5882188 92.6589648 9.87234766 90.4024023 9.19073438 89.3211328 8.39153516 88.1223906 7.73337109 86.9236484 7.05164453 85.5837578 5.73531641 83.2097227 4.53657422 80.5300547 3.59633984 77.9915352 2.65610547 75.1942813 1.85690625 72.5381758 1.45736328 71.0573633 1.19874219 69.7410352 0.940234375 68.2602227 0.658164063 66.8028594 0.258507813 64.0057187 0.117472656 60.9263945 0 59.4691445 0 57.9882188 0.117472656 55.0736055 0.258507813 52.1118672 0.658164063 49.1971406 1.19874219 46.2589648 1.85690625 43.4618242 2.65610547 40.7821563 3.59633984 38.1260508 4.53657422 35.4699453 5.73531641 32.9313125 7.05164453 30.3926797 7.73337109 29.1939375 8.39153516 27.995082 9.87234766 25.5975977 11.5882188 23.3174727 13.1866172 21.0610234 14.1268516 20.0032031 15.0670859 19.0629687 16.0073203 18.0052617 17.0650273 17.0650273 19.0629688 15.0670859 21.0610234 13.1866172 22.2597656 12.387418 23.3174727 11.5882187 25.5975977 9.87234766 26.7963398 9.19073437 27.995082 8.39153516 29.1939375 7.70980859 30.3926797 7.05164453 32.9313125 5.73531641 35.4463828 4.53657422 38.1260508 3.45530469 40.8057188 2.65610547 43.4618242 1.85690625 44.9191875 1.45736328 46.2589648 1.19874219 47.7163281 0.940234375 49.1971406 0.658164063 52.1353164 0.258507813 55.0736055 0.117472656 56.5308555 0"></polygon>
        </g>
    </g>
</svg>