<?xml version="1.0" encoding="UTF-8"?>
<svg width="34px" height="34px" viewBox="0 0 34 34" version="1.1" xmlns="http://www.w3.org/2000/svg" xmlns:xlink="http://www.w3.org/1999/xlink">
    <!-- Generator: Sketch 52.1 (67048) - http://www.bohemiancoding.com/sketch -->
    <title>招商银行</title>
    <desc>Created with Sketch.</desc>
    <g id="招商银行" stroke="none" stroke-width="1" fill="none" fill-rule="evenodd">
        <g fill="#FFFFFF" fill-rule="nonzero" id="Shape">
            <path d="M15.5910586,23.8723496 L20.2002168,12.2289766 L25.009125,23.8723496 L15.5910586,23.8723496 Z M5.93877734,23.8723496 L10.5479355,12.2289766 L15.3568438,23.8723496 L5.93877734,23.8723496 Z M33.490166,21.2198516 L33.2972559,21.8812578 L30.2107266,21.8812578 L29.8938359,21.2198516 L33.490166,21.2198516 Z M33.6899824,20.2828594 L29.5011094,20.2828594 L29.1910918,19.5801484 L33.8070898,19.5801484 L33.6899824,20.2828594 Z M33.9173242,18.6431563 L28.7983984,18.6431563 L28.4883477,17.9335391 L34,17.9335391 L33.9173242,18.6431563 Z M34,16.9965469 L28.0956543,16.9965469 L27.8200684,16.2938359 L34,16.2938359 L34,16.9965469 Z M33.9173242,15.3568438 L27.3929102,15.3568438 L27.1173242,14.6540996 L33.8415547,14.6540996 L33.9173242,15.3568438 Z M33.6899824,13.7171074 L26.7315039,13.7171074 L26.4145801,13.0143965 L33.5315039,13.0143965 L33.6899824,13.7171074 Z"></path>
            <polygon points="17.0034531 0 17.699291 0 18.443373 0.0757695313 19.146084 0.117107422 19.8143965 0.234248047 20.5171074 0.351355469 21.1785137 0.502927734 21.846793 0.702744141 22.5081992 0.895654297 22.81825 1.01276172 23.1351406 1.12990234 23.7621152 1.40545508 24.3821836 1.68104102 24.9677871 1.9910918 25.5533906 2.30110938 26.1459004 2.65249805 26.690166 3.04519141 27.2413379 3.43788477 27.7442656 3.83061133 28.2540996 4.25773633 28.7639336 4.72623242 29.2324297 5.19472852 29.7009258 5.66322461 30.1280508 6.17305859 30.3278672 6.44864453 30.5207773 6.71732422 30.9479355 7.26849609 31.3061641 7.81276172 31.6575527 8.36393359 32.0020352 8.94953711 32.2776211 9.56960547 32.5945449 10.1621152 32.8287598 10.7821836 33.0630078 11.4504629 33.2972559 12.0774043 26.0287598 12.0774043 21.5299023 1.56393359 16.8449746 13.4070898 11.918959 1.68104102 3.24497461 24.0721328 7.19269336 28.9981816 27.2757695 28.9981816 30.9479355 23.6381016 30.5965469 22.81825 32.980332 22.81825 32.746084 23.4451914 32.4705313 24.0307949 32.2018184 24.6163984 31.9262324 25.1675703 31.574877 25.753207 31.2648594 26.2974727 30.8721328 26.8073066 30.5207773 27.3102344 30.1280508 27.8269414 29.7009258 28.3299023 29.2737676 28.7639336 28.7983652 29.2324297 28.3299023 29.6595879 27.8614063 30.0936191 27.3584453 30.4863125 26.8486445 30.8721328 26.3388105 31.2235215 25.7945449 31.574877 25.243373 31.8848945 24.6577363 32.2018184 24.0721328 32.4705313 23.4865293 32.7116523 22.8595879 32.9459004 22.2739512 33.1801484 21.6470098 33.3730586 20.9856035 33.5315039 20.3586621 33.6899824 19.6972559 33.8070898 19.3872383 33.8415547 19.0289766 33.8828926 18.3675703 33.9586621 17.699291 34 16.1422637 34 15.281041 33.9173242 14.4198516 33.8070898 13.5586621 33.6486445 12.7388105 33.4488281 11.9602969 33.255918 11.174877 32.980332 10.389457 32.6703145 9.65228125 32.318959 8.90819922 31.9675703 8.55684375 31.7333223 8.20545508 31.5404121 7.50274414 31.1063809 6.83443164 30.6378848 6.17305859 30.134957 5.86300781 29.8593711 5.58742188 29.5837852 5.2774043 29.3081992 5.00181836 29.0326133 4.41621484 28.4470098 3.86504297 27.8269414 3.63770117 27.5100176 3.39654688 27.1586621 2.89361914 26.4972559 2.69383594 26.180332 2.45958789 25.8289766 2.26667773 25.4776211 2.06686133 25.0848945 1.68104102 24.3890566 1.32968555 23.6036367 1.05409961 22.8595879 0.778513672 22.0397031 0.544265625 21.2611895 0.427158203 20.8271582 0.351355469 20.4413379 0.275585938 20.0073066 0.192910156 19.5801484 0.0757695313 18.7602969 0.0344316406 17.8577363 0 17.4306113 0 16.9965469 0.0344316406 16.1422637 0.0757695313 15.274168 0.192910156 14.4198516 0.351355469 13.5586621 0.544265625 12.7388105 0.778513672 11.9533906 1.05409961 11.174877 1.32968555 10.3963633 1.68104102 9.65228125 2.06686133 8.90819922 2.26667773 8.55684375 2.45958789 8.20545508 2.89361914 7.50274414 3.39654688 6.83443164 3.86504297 6.17305859 4.14062891 5.86300781 4.41621484 5.58742188 4.69180078 5.2774043 5.00181836 5.00181836 5.58742188 4.41621484 6.17305859 3.86504297 6.52441406 3.63079492 6.83443164 3.39654687 7.50274414 2.89361914 7.85409961 2.69383594 8.20545508 2.45958789 8.55684375 2.25977148 8.90819922 2.06686133 9.65228125 1.68104102 10.389457 1.32968555 11.174877 1.01276172 11.9602969 0.778513672 12.7388105 0.544265625 13.1659688 0.427158203 13.5586621 0.351355469 13.9858203 0.275585938 14.4198516 0.192910156 15.281041 0.0757695313 16.1422637 0.0344316406 16.5693887 0"></polygon>
        </g>
    </g>
</svg>