<?xml version="1.0" encoding="UTF-8"?>
<svg width="112px" height="112px" viewBox="0 0 112 112" version="1.1" xmlns="http://www.w3.org/2000/svg" xmlns:xlink="http://www.w3.org/1999/xlink">
    <!-- Generator: Sketch 52.1 (67048) - http://www.bohemiancoding.com/sketch -->
    <title>中信银行2</title>
    <desc>Created with Sketch.</desc>
    <defs>
        <linearGradient x1="-83.5205176%" y1="35.2021158%" x2="128.44535%" y2="35.2021158%" id="linearGradient-1">
            <stop stop-color="#FFFFFF" stop-opacity="0.275617074" offset="0%"></stop>
            <stop stop-color="#FFFFFF" stop-opacity="0" offset="100%"></stop>
        </linearGradient>
    </defs>
    <g id="中信银行2" stroke="none" stroke-width="1" fill="none" fill-rule="evenodd">
        <path d="M56.0002793,3.37342937e-15 C25.071659,3.37342937e-15 0,25.0646213 0,55.9854218 C0,86.9062224 25.0717708,111.970844 56.0002793,111.970844 C86.9287878,111.970844 112,86.9062224 112,55.9854218 C112,25.063951 86.9288995,0 56.0002793,3.37342937e-15 Z M56.0002793,106.87932 C27.8829557,106.87932 5.09130008,84.0942554 5.09130008,55.9854218 C5.09130008,27.8778171 27.8835143,5.08962442 56.0002793,5.08962442 C84.1170443,5.08962442 106.909258,27.8784873 106.909258,55.9854218 C106.909258,84.0942554 84.1170443,106.87932 56.0002793,106.87932 Z M33.2777722,24.9656461 L33.2777722,99.068996 C36.2016727,100.589817 39.2887816,101.804777 42.5739526,102.648076 L42.5739526,39.6727293 C42.5732823,33.2159965 38.759164,27.6116119 33.2777722,24.9656461 Z M7.78675337,56.1162344 C7.78675337,71.7349837 15.2542392,85.576872 26.8494138,94.4393938 L26.8494138,60.5016382 C26.0503513,59.3094679 24.5203696,58.7484597 23.125222,59.2509318 C20.7628883,60.1279679 19.0976257,62.0607763 18.5328193,64.2791157 C18.5328193,64.3410031 17.6119929,64.3410031 17.6119929,64.3410031 C17.4798398,64.7523197 18.1273116,64.9285983 17.7245967,64.9285983 C17.5236302,64.9285983 16.4438402,64.8981014 16.3201771,64.7431595 C14.3093951,62.4179135 14.0302315,59.3947027 14.0302315,56.1199208 C14.0302315,52.8212329 15.1819628,49.8342162 17.1935268,47.4811544 C17.2370937,47.4563548 17.2235768,47.4335659 17.1883881,47.4140166 C17.384216,47.5038316 17.542956,47.643916 17.6132217,47.8605219 L17.6132217,47.8501329 C17.5742349,47.7550676 18.4279235,47.6153182 18.3793296,47.4719942 C18.8959889,49.9403408 20.5860512,52.068977 23.126004,52.9853351 C24.5218219,53.5111546 26.0531441,52.9429969 26.8482967,51.7326179 L26.8482967,17.7943038 C15.254351,26.6256584 7.78686509,40.4926815 7.78686509,56.116011 L7.78675337,56.1162344 Z M16.8799905,47.3081154 C16.9895614,47.3081154 17.0484506,47.4120256 17.1452998,47.4433635 C16.9156934,47.3546276 16.7053746,47.3081154 16.8799905,47.3081154 Z M68.1271939,39.672841 L68.1271939,102.647294 C71.3947147,101.803995 74.4669662,100.588924 77.420805,99.067432 L77.420805,24.9655344 C71.9446636,27.6115002 68.1271939,33.2157731 68.1271939,39.6726176 L68.1271939,39.672841 Z M76.3546437,12.6396641 C69.9824755,9.59087169 62.8633017,7.86048205 55.3592867,7.86048205 C55.3522489,7.86048205 55.3438707,7.86048205 55.3356041,7.86048205 C47.7075908,7.86048205 40.4927932,9.62885313 34.0783986,12.7779612 C33.6636189,12.9636234 33.1646098,13.6925319 33.1646098,14.5669986 C33.1646098,15.4878251 33.8102943,16.2981702 34.6730315,16.6222413 C43.2942594,19.2792663 49.5480149,27.3336771 49.5480149,36.8139558 L49.5480149,104.026244 C51.4425067,104.24743 53.4094984,104.390084 55.3592867,104.390084 C57.3376727,104.390084 59.2710397,104.247542 61.1651963,104.026244 L61.1651963,36.8164134 C61.1651963,27.320607 67.4112438,19.2829527 76.0831881,16.626598 C76.9512874,16.3018567 77.5891522,15.4902827 77.5891522,14.569568 C77.5891522,14.5694563 77.5891522,14.5693446 77.5891522,14.5691211 C77.5891522,13.7185603 77.0894728,12.9845132 76.3676021,12.6449144 L76.3546437,12.6396641 Z M99.3231365,59.2495913 C96.9310878,60.1261806 95.294423,62.0595475 94.7289464,64.3384338 C94.623492,64.7036141 94.3162892,64.9254704 93.9421721,64.9254704 C93.6596572,64.9254704 93.4592492,64.8162179 93.2964876,64.6116767 C91.3950698,62.3008413 90.2132885,59.3157237 90.2132885,56.11791 C90.2132885,52.907138 91.3950698,49.9592198 93.2964876,47.6152065 C93.4393648,47.4285389 93.6623382,47.309456 93.9130157,47.309456 C93.9232931,47.309456 93.9334587,47.3096794 93.9435126,47.3100145 C94.3160658,47.3100145 94.6058418,47.5079648 94.6904064,47.8501329 L94.7289464,47.8611922 C95.2937527,50.2020776 96.9310878,52.1055062 99.3258175,52.9858936 C100.963711,53.6118054 102.695441,52.7777777 103.295436,51.1091637 C103.363244,50.936013 103.416642,50.7350466 103.475736,50.5358674 C101.916598,37.2041592 94.9306948,25.5739077 84.7938958,17.7993307 L84.7938958,94.4436388 C94.9306948,86.6866003 101.916598,75.0405976 103.475736,61.7378224 C103.416083,61.529483 103.358776,61.3089672 103.295436,61.1273266 C102.692984,59.502503 100.964381,58.6824391 99.3233599,59.2492562 L99.3231365,59.2495913 Z" id="Shape-Copy-3" fill="url(#linearGradient-1)" fill-rule="nonzero"></path>
    </g>
</svg>