<?xml version="1.0" encoding="UTF-8"?>
<svg width="34px" height="34px" viewBox="0 0 34 34" version="1.1" xmlns="http://www.w3.org/2000/svg" xmlns:xlink="http://www.w3.org/1999/xlink">
    <!-- Generator: Sketch 52.1 (67048) - http://www.bohemiancoding.com/sketch -->
    <title>中信银行</title>
    <desc>Created with Sketch.</desc>
    <g id="中信银行" stroke="none" stroke-width="1" fill="none" fill-rule="evenodd">
        <path d="M16.9762948,1.02264368e-15 C7.60038845,1.02264368e-15 0,7.59825498 0,16.9717908 C0,26.3453267 7.60042231,33.9435817 16.9762948,33.9435817 C26.3521673,33.9435817 33.9524203,26.3453267 33.9524203,16.9717908 C33.9524203,7.59805179 26.3522012,0 16.9762948,1.02264368e-15 Z M16.9762948,32.4001036 C8.45262351,32.4001036 1.54341036,25.4928884 1.54341036,16.9717908 C1.54341036,8.45106574 8.45279283,1.54290239 16.9762948,1.54290239 C25.4997968,1.54290239 32.4091793,8.45126892 32.4091793,16.9717908 C32.4091793,25.4928884 25.4997968,32.4001036 16.9762948,32.4001036 Z M10.0880438,7.568251 L10.0880438,30.0324303 C10.9744143,30.4934622 11.910261,30.8617729 12.9061494,31.1174163 L12.9061494,12.0266534 C12.9059462,10.0693167 11.7497092,8.37036653 10.0880438,7.568251 Z M2.36052789,17.0114462 C2.36052789,21.7462171 4.62427092,25.9423386 8.13930876,28.6289821 L8.13930876,18.3408665 C7.8970757,17.9794641 7.43326693,17.8093964 7.01033267,17.9617191 C6.2941992,18.2275896 5.78938048,18.8135139 5.61816135,19.485996 C5.61816135,19.504757 5.33901594,19.504757 5.33901594,19.504757 C5.29895418,19.6294462 5.49523307,19.6828845 5.37315139,19.6828845 C5.31222908,19.6828845 4.98489442,19.6736394 4.94740637,19.6266693 C4.33784462,18.9217789 4.25321713,18.0053028 4.25321713,17.0125637 C4.25321713,16.0125777 4.60236056,15.1070737 5.21215936,14.393751 C5.22536653,14.3862331 5.22126892,14.3793247 5.21060159,14.3733984 C5.26996614,14.4006255 5.31808765,14.4430916 5.33938845,14.508755 L5.33938845,14.5056056 C5.32756972,14.4767869 5.58636255,14.4344223 5.57163147,14.3909741 C5.72825498,15.139245 6.24059163,15.7845339 7.01056972,16.0623247 C7.43370717,16.2217251 7.89792231,16.04949 8.13897012,15.6825677 L8.13897012,5.39428287 C4.62430478,8.07147809 2.36056175,12.2752191 2.36056175,17.0113785 L2.36052789,17.0114462 Z M5.11711189,14.3412948 C5.15032794,14.3412948 5.16818002,14.3727948 5.19753953,14.3822948 C5.1279351,14.3553948 5.06417769,14.3412948 5.11711189,14.3412948 Z M20.6525279,12.0266873 L20.6525279,31.1171793 C21.6430657,30.8615359 22.5744084,30.4931912 23.4698546,30.0319562 L23.4698546,7.56821713 C21.8097809,8.37033267 20.6525279,10.069249 20.6525279,12.0266195 L20.6525279,12.0266873 Z M23.1466514,3.83167131 C21.2149502,2.90744024 19.0567968,2.38287849 16.7819801,2.38287849 C16.7798466,2.38287849 16.7773068,2.38287849 16.7748008,2.38287849 C14.4623944,2.38287849 12.275253,2.91895418 10.330751,3.87359562 C10.205012,3.92987849 10.053739,4.15084462 10.053739,4.41593625 C10.053739,4.69508167 10.2494761,4.94073506 10.511012,5.0389761 C13.124508,5.84444422 15.0203127,8.28611155 15.0203127,11.1600259 L15.0203127,31.5352032 C15.5946215,31.602255 16.1909084,31.6455 16.7819801,31.6455 C17.3817211,31.6455 17.9678147,31.6022888 18.5420219,31.5352032 L18.5420219,11.1607709 C18.5420219,8.2821494 20.43549,5.84556175 23.0643606,5.04029681 C23.3275219,4.94185259 23.5208884,4.69582669 23.5208884,4.41671514 C23.5208884,4.41668127 23.5208884,4.41664741 23.5208884,4.41657968 C23.5208884,4.15873506 23.3694124,3.93621116 23.1505797,3.83326295 L23.1466514,3.83167131 Z M30.1094721,17.9613127 C29.3843307,18.2270478 28.8881813,18.8131414 28.716759,19.5039781 C28.6847908,19.6146813 28.5916633,19.6819363 28.478251,19.6819363 C28.3926076,19.6819363 28.3318546,19.6488167 28.2825139,19.5868108 C27.7061056,18.8862888 27.3478526,17.9813606 27.3478526,17.0119542 C27.3478526,16.0386195 27.7061056,15.1449681 28.2825139,14.4343884 C28.3258267,14.3778008 28.3934203,14.3417012 28.4694124,14.3417012 C28.4725279,14.3417012 28.4756096,14.3417689 28.4786574,14.3418705 C28.5915956,14.3418705 28.6794402,14.4018785 28.7050757,14.5056056 L28.716759,14.5089582 C28.8879781,15.2185896 29.3843307,15.7956076 30.1102849,16.062494 C30.6068068,16.2522371 31.1317749,15.9994044 31.3136614,15.4935697 C31.3342171,15.4410797 31.3504044,15.3801574 31.3683187,15.3197769 C30.8956713,11.2783147 28.7779183,7.75264343 25.7049821,5.39580677 L25.7049821,28.6302689 C28.7779183,26.278749 30.8956713,22.7483028 31.3683187,18.7156116 C31.3502351,18.6524542 31.3328625,18.5856056 31.3136614,18.5305418 C31.1310299,18.0379821 30.60701,17.7893825 30.1095398,17.9612112 L30.1094721,17.9613127 Z" id="Shape" fill="#FFFFFF" fill-rule="nonzero"></path>
    </g>
</svg>