<?xml version="1.0" encoding="UTF-8"?>
<svg width="34px" height="34px" viewBox="0 0 34 34" version="1.1" xmlns="http://www.w3.org/2000/svg" xmlns:xlink="http://www.w3.org/1999/xlink">
    <!-- Generator: Sketch 52.1 (67048) - http://www.bohemiancoding.com/sketch -->
    <title>中国银行</title>
    <desc>Created with Sketch.</desc>
    <g id="中国银行" stroke="none" stroke-width="1" fill="none" fill-rule="evenodd">
        <path d="M33.9396135,16.2284963 C33.720185,10.2174974 29.9898993,6.11825345 29.9898993,6.11825345 C24.2298993,-0.609653624 16.8424707,0.0153432083 16.8424707,0.0153432083 C8.94304211,-0.242008428 4.09732782,5.75060826 4.09732782,5.732226 C0.787613537,9.68441185 0.403613537,13.3424815 0.403613537,13.3424815 C-1.07752932,19.4821563 1.99447068,24.7762471 1.99447068,24.7762471 C4.28018497,28.9306378 6.69389925,30.8607751 10.6070421,32.6806188 C14.520185,34.5188448 20.4813278,34.2614932 24.1750421,32.4048849 C27.8687564,30.5482767 30.1178993,28.5078458 32.184185,24.629189 C34.2504707,20.7689145 33.9396135,16.2284963 33.9396135,16.2284963 Z M15.2516135,30.1806315 C15.2516135,30.1806315 9.05275639,29.8313686 5.63332782,23.8571341 C5.63332782,23.8571341 2.68932782,19.6292144 3.91447068,14.3718881 C5.13961354,9.11456179 7.99218497,7.00060192 8.55904211,6.46751639 C9.10761354,5.93443085 12.7464707,3.74694194 15.2516135,3.78370646 L15.2516135,10.052057 L12.6184707,10.052057 C12.6184707,10.052057 9.05275639,10.2726442 8.92475639,14.2432123 L8.92475639,20.0336241 C8.92475639,20.0336241 9.01618497,23.5997825 12.7098993,24.0041922 L15.2516135,24.0041922 L15.2516135,30.1806315 Z M13.112185,20.3277403 C13.112185,20.3277403 12.4904707,20.4931806 12.3990421,19.7578902 L12.3990421,14.2064477 C12.3990421,14.2064477 12.4904707,13.6182154 12.9658993,13.6182154 L20.7007564,13.6182154 C20.7007564,13.6182154 21.3590421,13.4895396 21.4138993,14.22483 L21.4138993,19.6108321 C21.4138993,19.6108321 21.5784707,20.4564161 20.9384707,20.3277403 L13.112185,20.3277403 Z M28.1796135,24.3534551 C25.6744707,28.1953474 20.920185,29.9600444 18.6893278,30.143867 L18.6893278,23.9674277 L21.6333278,23.9674277 C21.6333278,23.9674277 24.760185,23.3424309 24.9613278,20.0703886 L24.9613278,13.5263041 C24.9613278,13.5263041 24.4676135,10.2174974 20.9933278,10.0704393 L18.7076135,10.0704393 L18.7076135,3.78370646 L18.6893278,3.78370646 L18.7076135,3.78370646 C18.9818993,3.80208872 22.7304707,4.20649844 25.7658993,7.01898418 C28.9293278,9.94176348 29.7338993,12.882925 30.0813278,14.4454171 C30.4287564,16.0262915 30.6847564,20.5299451 28.1796135,24.3534551 Z" id="Shape" fill="#FFFFFF" fill-rule="nonzero"></path>
    </g>
</svg>