<?xml version="1.0" encoding="UTF-8"?>
<svg width="112px" height="112px" viewBox="0 0 112 112" version="1.1" xmlns="http://www.w3.org/2000/svg" xmlns:xlink="http://www.w3.org/1999/xlink">
    <!-- Generator: Sketch 52.1 (67048) - http://www.bohemiancoding.com/sketch -->
    <title>中国银行2</title>
    <desc>Created with Sketch.</desc>
    <defs>
        <linearGradient x1="-83.5205176%" y1="35.2021158%" x2="128.44535%" y2="35.2021158%" id="linearGradient-1">
            <stop stop-color="#FFFFFF" stop-opacity="0.275617074" offset="0%"></stop>
            <stop stop-color="#FFFFFF" stop-opacity="0" offset="100%"></stop>
        </linearGradient>
    </defs>
    <g id="中国银行2" stroke="none" stroke-width="1" fill="none" fill-rule="evenodd">
        <path d="M111.80108,53.4585761 C111.078256,33.6576384 98.7902564,20.1542467 98.7902564,20.1542467 C79.8161387,-2.00827076 55.4810799,0.0505423334 55.4810799,0.0505423334 C29.4594328,-0.797204235 13.4970799,18.9431801 13.4970799,18.8826268 C2.59449165,31.901592 1.32955047,43.9517039 1.32955047,43.9517039 C-3.54950835,64.1765149 6.57002106,81.6158729 6.57002106,81.6158729 C14.0994328,95.3009246 22.0504917,101.659024 34.9408446,107.653803 C47.8311975,113.709136 67.4679034,112.861389 79.6354328,106.745503 C91.8029622,100.629617 99.2119034,93.9081981 106.018492,81.1314462 C112.82508,68.4152477 111.80108,53.4585761 111.80108,53.4585761 Z M50.2406093,99.4185508 C50.2406093,99.4185508 29.8208446,98.2680376 18.5568446,78.5882065 C18.5568446,78.5882065 8.85896224,64.6609415 12.8947269,47.3426902 C16.9304917,30.0244388 26.3271975,23.0608063 28.1944917,21.3047599 C30.0015505,19.5487134 41.988374,12.3428676 50.2406093,12.4639742 L50.2406093,33.1126585 L41.5667269,33.1126585 C41.5667269,33.1126585 29.8208446,33.8392984 29.3991975,46.9188169 L29.3991975,65.9931147 C29.3991975,65.9931147 29.700374,77.74046 41.8679034,79.0726331 L50.2406093,79.0726331 L50.2406093,99.4185508 Z M43.1930799,66.9619679 C43.1930799,66.9619679 41.1450799,67.5069478 40.8439034,65.0848148 L40.8439034,46.7977102 C40.8439034,46.7977102 41.1450799,44.8600038 42.7111975,44.8600038 L68.1907269,44.8600038 C68.1907269,44.8600038 70.3591975,44.4361305 70.5399034,46.8582636 L70.5399034,64.6003882 C70.5399034,64.6003882 71.0820211,67.3858412 68.9737858,66.9619679 L43.1930799,66.9619679 Z M92.8269622,80.2231463 C84.5747269,92.8787915 68.9135505,98.6919109 61.5648446,99.2974441 L61.5648446,78.9515265 L71.2627269,78.9515265 C71.2627269,78.9515265 81.5629622,76.8927134 82.2255505,66.1142213 L82.2255505,44.5572372 C82.2255505,44.5572372 80.5991975,33.6576384 69.1544917,33.1732118 L61.6250799,33.1732118 L61.6250799,12.4639742 L61.5648446,12.4639742 L61.6250799,12.4639742 C62.5286093,12.5245275 74.8768446,13.8567007 84.8759034,23.1213597 C95.2966093,32.7493385 97.9469622,42.4378707 99.0914328,47.5849035 C100.235903,52.7924895 101.079198,67.6280545 92.8269622,80.2231463 Z" id="Shape" fill="url(#linearGradient-1)" fill-rule="nonzero"></path>
    </g>
</svg>