<?xml version="1.0" encoding="UTF-8"?>
<svg width="14px" height="12px" viewBox="0 0 14 12" version="1.1" xmlns="http://www.w3.org/2000/svg" xmlns:xlink="http://www.w3.org/1999/xlink">
    <!-- Generator: Sketch 52.1 (67048) - http://www.bohemiancoding.com/sketch -->
    <title>画板 copy 16</title>
    <desc>Created with Sketch.</desc>
    <g id="画板-copy-16" stroke="none" stroke-width="1" fill="none" fill-rule="evenodd">
        <path d="M12.7190527,0 L1.25382131,0 C0.566630786,0 0,0.566630786 0,1.25382131 L0,2.65231432 L13.98493,2.65231432 L13.98493,1.24176534 C13.98493,0.554574812 13.4182992,0 12.7190527,0 Z M0,9.801507 C0,10.4886975 0.566630786,11.0553283 1.25382131,11.0553283 L12.7190527,11.0553283 C13.4182992,11.0553283 13.98493,10.4886975 13.98493,9.801507 L13.98493,4.52099031 L0,4.52099031 L0,9.801507 Z M7.8846071,8.40301399 L9.01786868,8.40301399 L9.01786868,9.53627557 L7.8846071,9.53627557 L7.8846071,8.40301399 Z M9.59655544,8.40301399 L10.729817,8.40301399 L10.729817,9.53627557 L9.59655544,9.53627557 L9.59655544,8.40301399 Z M11.3205597,8.40301399 L12.4538213,8.40301399 L12.4538213,9.53627557 L11.3205597,9.53627557 L11.3205597,8.40301399 Z" id="Shape" fill="#4E8CEE" fill-rule="nonzero"></path>
    </g>
</svg>