<?xml version="1.0" encoding="UTF-8"?>
<svg width="15px" height="10px" viewBox="0 0 15 10" version="1.1" xmlns="http://www.w3.org/2000/svg" xmlns:xlink="http://www.w3.org/1999/xlink">
    <!-- Generator: Sketch 52.1 (67048) - http://www.bohemiancoding.com/sketch -->
    <title>画板 copy 22</title>
    <desc>Created with Sketch.</desc>
    <g id="画板-copy-22" stroke="none" stroke-width="1" fill="none" fill-rule="evenodd">
        <g id="银联-2" fill-rule="nonzero">
            <path d="M2.94899119,0.00575905975 L6.69496572,0.00575905975 C7.21398629,0.00575905975 7.54495593,0.434515181 7.41708129,0.953535749 L5.67196866,8.43044074 C5.55161606,8.95698335 5.02507346,9.37821743 4.50605289,9.37821743 L0.760078355,9.37821743 C0.241057786,9.37821743 -0.0899118511,8.94946131 0.0379627816,8.43044074 L1.78307542,0.953535749 C1.90342801,0.434515181 2.42244858,0.00575905975 2.94899119,0.00575905975" id="Shape" fill="#999999"></path>
            <path d="M6.37904016,0.00575905975 L10.6816454,0.00575905975 C11.200666,0.00575905975 10.9674829,0.434515181 10.8471303,0.953535749 L9.10201763,8.43044074 C8.98166503,8.95698335 9.01927522,9.37821743 8.49273262,9.37821743 L4.19012733,9.37821743 C3.66358472,9.37821743 3.34013712,8.94946131 3.46801175,8.43044074 L5.21312439,0.953535749 C5.33347698,0.434515181 5.85249755,0.00575905975 6.37904016,0.00575905975" id="Shape" fill="#999999"></path>
            <path d="M10.5086386,0.00575905975 L14.2470911,0.00575905975 C14.7736337,0.00575905975 15.0970813,0.434515181 14.9692067,0.953535749 L13.224094,8.43044074 C13.1037414,8.95698335 12.5771988,9.37821743 12.0581783,9.37821743 L8.31972576,9.37821743 C7.79318315,9.37821743 7.46973555,8.94946131 7.59761019,8.43044074 L9.34272282,0.953535749 C9.46307542,0.434515181 9.98961802,0.00575905975 10.5086386,0.00575905975" id="Shape" fill="#999999"></path>
            <path d="M9.8843095,6.79063663 L10.2378452,6.79063663 L10.3431538,6.45214496 L9.98961802,6.45214496 L9.8843095,6.79063663 Z M10.1701469,5.85038198 L10.0497943,6.24904995 C10.0497943,6.24904995 10.185191,6.18135162 10.2528893,6.1587855 C10.3281097,6.14374143 10.4334182,6.12869736 10.4334182,6.12869736 L10.5161606,5.85038198 L10.1701469,5.85038198 Z M10.3431538,5.27870715 L10.2228012,5.66233105 C10.2228012,5.66233105 10.3506758,5.60215475 10.4258962,5.58711068 C10.5011166,5.56454456 10.6064251,5.56454456 10.6064251,5.56454456 L10.6891675,5.28622919 L10.3431538,5.27870715 Z M11.1254456,5.27870715 L10.6666014,6.79063663 L10.786954,6.79063663 L10.6891675,7.09904016 L10.5688149,7.09904016 L10.5387267,7.19682664 L10.1024486,7.19682664 L10.1325367,7.09904016 L9.25245837,7.09904016 L9.34272282,6.81320274 L9.43298727,6.81320274 L9.89935357,5.27870715 L9.98961802,4.97030362 L10.4334182,4.97030362 L10.388286,5.12826641 C10.388286,5.12826641 10.5086386,5.045524 10.6214691,5.01543585 C10.7342997,4.9853477 11.3736729,4.97782566 11.3736729,4.97782566 L11.2758864,5.28622919 L11.1254456,5.27870715 Z" id="Shape" fill="#FFFFFF"></path>
            <path d="M11.3210186,4.97030362 L11.794907,4.97030362 L11.802429,5.14331048 C11.802429,5.17339863 11.8249951,5.1884427 11.8776494,5.1884427 L11.9754358,5.1884427 L11.8851714,5.48180215 L11.6294221,5.48180215 C11.4112831,5.49684623 11.3210186,5.39905975 11.3285406,5.29375122 L11.3210186,4.97030362 Z M11.3811949,6.34683643 L10.9298727,6.34683643 L11.005093,6.09108717 L11.5165916,6.09108717 L11.5918119,5.85790402 L11.0803134,5.85790402 L11.1705779,5.56454456 L12.5847209,5.56454456 L12.4944564,5.85790402 L12.0205681,5.85790402 L11.9453477,6.09108717 L12.419236,6.09108717 L12.3440157,6.34683643 L11.8325171,6.34683643 L11.7422527,6.45214496 L11.9528697,6.45214496 L12.005524,6.77559256 C12.013046,6.80568071 12.013046,6.82824682 12.0205681,6.84329089 C12.0280901,6.85833497 12.0957884,6.85833497 12.1333986,6.85833497 L12.1935749,6.85833497 L12.0957884,7.1893046 L11.9378257,7.1893046 C11.9152595,7.1893046 11.8776494,7.1893046 11.8249951,7.18178257 C11.7798629,7.17426053 11.7422527,7.15169442 11.7121645,7.13665034 C11.6820764,7.12160627 11.6369442,7.08399608 11.6294221,7.02381978 L11.5767679,6.70037218 L11.3435847,7.02381978 C11.2683643,7.12160627 11.1705779,7.20434868 10.997571,7.20434868 L10.6666014,7.20434868 L10.7493438,6.91851126 L10.8772184,6.91851126 C10.9148286,6.91851126 10.9449167,6.90346719 10.9674829,6.88842311 C10.990049,6.88090108 11.0126151,6.865857 11.0351812,6.82824682 L11.3811949,6.34683643 Z M6.44673849,5.63976494 L7.64274241,5.63976494 L7.55247796,5.92560235 L7.07858962,5.92560235 L7.00336925,6.16630754 L7.49230167,6.16630754 L7.40203722,6.45966699 L6.9131048,6.45966699 L6.7927522,6.85081293 C6.77770813,6.89594515 6.90558276,6.90346719 6.95823702,6.90346719 L7.19894221,6.87337904 L7.10115573,7.19682664 L6.55204701,7.19682664 C6.50691479,7.19682664 6.47682664,7.1893046 6.42417238,7.18178257 C6.37904016,7.16673849 6.35647405,7.15169442 6.33390793,7.11408423 C6.31134182,7.08399608 6.28125367,7.05390793 6.30381978,6.9862096 L6.46178257,6.45966699 L6.19098923,6.45966699 L6.28125367,6.1587855 L6.55204701,6.1587855 L6.62726738,5.91808031 L6.35647405,5.91808031 L6.44673849,5.63976494 Z M7.25159647,5.12826641 L7.74052889,5.12826641 L7.65026445,5.42914789 L6.98080313,5.42914789 L6.90558276,5.48932419 C6.87549461,5.51941234 6.86045054,5.50436827 6.82284035,5.52693438 C6.78523017,5.54950049 6.70248776,5.58711068 6.60470127,5.58711068 L6.39408423,5.58711068 L6.48434868,5.30127326 L6.55204701,5.30127326 C6.60470127,5.30127326 6.64231146,5.29375122 6.66487757,5.28622919 C6.68744368,5.27118511 6.71000979,5.24109696 6.74009794,5.19596474 L6.86045054,4.97030362 L7.34938296,4.97030362 L7.25159647,5.12826641 Z M8.19185113,5.61719882 C8.19185113,5.61719882 8.3272478,5.49684623 8.55290891,5.45923604 C8.60556317,5.45171401 8.92901077,5.45171401 8.92901077,5.45171401 L8.98166503,5.28622919 L8.28963761,5.28622919 L8.19185113,5.61719882 Z M8.83874633,5.74507346 L8.15424094,5.74507346 L8.10910872,5.88047013 L8.70334966,5.88047013 C8.77104799,5.87294809 8.78609207,5.88047013 8.7936141,5.88047013 L8.83874633,5.74507346 Z M7.95114594,4.97030362 L8.36485798,4.97030362 L8.30468168,5.18092067 C8.30468168,5.18092067 8.44007835,5.07561214 8.5303428,5.03800196 C8.62060725,5.00039177 8.83122429,4.97030362 8.83122429,4.97030362 L9.50820764,4.97030362 L9.28254652,5.73755142 C9.24493634,5.86542605 9.19980411,5.9556905 9.16971596,5.99330069 C9.14714985,6.03091087 9.1170617,6.06852106 9.05688541,6.09860921 C8.99670911,6.12869736 8.95157689,6.14374143 8.89892262,6.15126347 C8.8537904,6.15126347 8.78609207,6.1587855 8.68830558,6.1587855 L8.03388834,6.1587855 L7.85335945,6.76054848 C7.83831538,6.82072478 7.83079334,6.85081293 7.83831538,6.865857 C7.84583741,6.88090108 7.86840353,6.89594515 7.89849167,6.89594515 L8.18432909,6.865857 L8.08654261,7.19682664 L7.763095,7.19682664 C7.65778648,7.19682664 7.59008815,7.19682664 7.53743389,7.1893046 C7.48477963,7.1893046 7.4396474,7.1893046 7.40203722,7.15921645 C7.37194907,7.12912831 7.32681685,7.09904016 7.32681685,7.06142997 C7.32681685,7.03134182 7.34186092,6.97116552 7.36442703,6.89594515 L7.95114594,4.97030362 Z" id="Shape" fill="#FFFFFF"></path>
            <path d="M9.16219393,6.20391773 L9.12458374,6.38444662 C9.10953967,6.44462292 9.09449559,6.4822331 9.04936337,6.51984329 C9.00423115,6.55745348 8.95157689,6.6025857 8.82370225,6.6025857 L8.5905191,6.61010774 L8.5905191,6.82072478 C8.5905191,6.88090108 8.60556317,6.87337904 8.61308521,6.88090108 C8.62060725,6.88842311 8.63565132,6.89594515 8.64317336,6.89594515 L8.71839373,6.89594515 L8.93653281,6.88090108 L8.84626836,7.18178257 L8.5905191,7.18178257 C8.40999021,7.18178257 8.28211557,7.18178257 8.23698335,7.14417238 C8.19185113,7.11408423 8.19185113,7.08399608 8.19185113,7.02381978 L8.2068952,6.21143976 L8.61308521,6.21143976 L8.60556317,6.37692458 L8.70334966,6.37692458 C8.73343781,6.37692458 8.75600392,6.37692458 8.77104799,6.36188051 C8.78609207,6.35435847 8.7936141,6.3393144 8.80113614,6.31674829 L8.83874633,6.18887365 L9.16219393,6.20391773 Z M3.39279138,2.3977669 C3.37774731,2.46546523 3.12199804,3.66146915 3.114476,3.66146915 C3.06182174,3.90217434 3.01668952,4.07518119 2.88129285,4.18801175 C2.80607248,4.25571009 2.70828599,4.28579824 2.60297747,4.28579824 C2.42997062,4.28579824 2.33218413,4.20305583 2.31714006,4.03757101 L2.31714006,3.98491675 L2.36979432,3.66146915 C2.36979432,3.66146915 2.64058766,2.57077375 2.69324192,2.42785504 C2.69324192,2.42033301 2.69324192,2.41281097 2.70076396,2.41281097 C2.16669931,2.42033301 2.07643487,2.41281097 2.06891283,2.40528893 C2.06891283,2.41281097 2.05386876,2.4805093 2.05386876,2.4805093 L1.77555338,3.71412341 L1.75298727,3.81943193 L1.70785504,4.1579236 C1.70785504,4.25571009 1.73042116,4.3384525 1.76803134,4.41367287 C1.89590597,4.63933399 2.25696376,4.66942214 2.46005877,4.66942214 C2.72333007,4.66942214 2.9715573,4.60924584 3.13704212,4.51145935 C3.43040157,4.3384525 3.50562194,4.06765916 3.57332027,3.834476 L3.60340842,3.71412341 C3.60340842,3.71412341 3.8817238,2.57829579 3.93437806,2.43537708 C3.93437806,2.42785504 3.93437806,2.42033301 3.9419001,2.42033301 C3.53571009,2.41281097 3.42287953,2.40528893 3.39279138,2.3977669 Z M4.94233105,4.65437806 C4.75428012,4.65437806 4.68658178,4.65437806 4.4684427,4.6619001 L4.46092067,4.64685602 C4.48348678,4.56411361 4.49853085,4.4813712 4.52109696,4.3986288 L4.55118511,4.28579824 C4.5887953,4.10526934 4.63392752,3.90217434 4.63392752,3.834476 C4.64144956,3.79686582 4.6489716,3.69907933 4.54366308,3.69907933 C4.49853085,3.69907933 4.45339863,3.72164545 4.40074437,3.74421156 C4.37065622,3.84199804 4.31800196,4.10526934 4.29543585,4.22562194 C4.24278159,4.4813712 4.23525955,4.51145935 4.21269344,4.63933399 L4.19764936,4.65437806 C4.0020764,4.65437806 3.93437806,4.65437806 3.71623898,4.6619001 L3.70871694,4.64685602 C3.74632713,4.49641528 3.78393732,4.34597453 3.8215475,4.18801175 C3.91181195,3.77429971 3.93437806,3.61633692 3.96446621,3.40571988 L3.97951028,3.39067581 C4.19764936,3.36058766 4.25030362,3.35306562 4.48348678,3.3079334 L4.50605289,3.33049951 L4.4684427,3.45837414 C4.50605289,3.43580803 4.54366308,3.41324192 4.5887953,3.39067581 C4.70162586,3.33802155 4.82197845,3.32297747 4.88967679,3.32297747 C4.99498531,3.32297747 5.10781587,3.35306562 5.15294809,3.47341822 C5.19808031,3.57872674 5.16799216,3.71412341 5.10781587,3.96987267 L5.07772772,4.09774731 C5.01755142,4.38358472 5.01002938,4.43623898 4.9724192,4.63181195 L4.94233105,4.65437806 Z M5.70957884,4.39110676 L5.45382958,4.39110676 C5.38613124,4.39110676 5.31091087,4.3986288 5.20560235,4.3986288 L5.19808031,4.39110676 L5.19055828,4.38358472 C5.22064643,4.2782762 5.2356905,4.23314398 5.25073457,4.19553379 C5.26577865,4.1579236 5.28082272,4.12031342 5.30338883,4.00748286 C5.33347698,3.86456415 5.3560431,3.76677767 5.37108717,3.67651322 C5.38613124,3.59377081 5.39365328,3.51855044 5.40869736,3.43580803 L5.41621939,3.42828599 L5.42374143,3.42076396 C5.53657199,3.40571988 5.61179236,3.39067581 5.6794907,3.38315377 C5.75471107,3.37563173 5.82993144,3.36058766 5.942762,3.33802155 L5.95028404,3.34554358 L5.95028404,3.35306562 L5.8825857,3.62385896 C5.86001959,3.71412341 5.83745348,3.80438786 5.8224094,3.8946523 C5.77727718,4.08270323 5.7622331,4.1579236 5.75471107,4.20305583 C5.74718903,4.24818805 5.73966699,4.2782762 5.72462292,4.37606268 L5.71710088,4.38358472 L5.70957884,4.39110676 Z M6.90558276,3.72916748 C6.89806072,3.77429971 6.8529285,3.96235064 6.7927522,4.03757101 C6.75514202,4.09022527 6.70248776,4.12783546 6.6498335,4.12783546 C6.63478942,4.12783546 6.54452498,4.12783546 6.53700294,3.99243879 C6.53700294,3.92474045 6.55204701,3.85704212 6.56709109,3.78182174 C6.61974535,3.56368266 6.67239961,3.37563173 6.82284035,3.37563173 C6.95071499,3.3681097 6.95823702,3.50350637 6.90558276,3.72916748 Z M7.39451518,3.74421156 C7.46221352,3.45085211 7.40955926,3.32297747 7.34186092,3.24023506 C7.24407444,3.11236043 7.07106758,3.07475024 6.89053869,3.07475024 C6.78523017,3.07475024 6.5294809,3.08227228 6.3263859,3.27032321 C6.18346719,3.40571988 6.11576885,3.58624878 6.07815867,3.75925563 C6.04054848,3.93226249 5.98789422,4.25571009 6.28125367,4.37606268 C6.37151812,4.41367287 6.49939275,4.42871694 6.5896572,4.42871694 C6.80779628,4.42871694 7.02593536,4.36854065 7.19142018,4.19553379 C7.31929481,4.04509305 7.37947111,3.834476 7.39451518,3.74421156 Z M12.2913614,3.08979432 C12.0581783,3.13492654 11.9904799,3.14244858 11.7648188,3.17253673 L11.7497747,3.1875808 C11.7497747,3.20262488 11.7422527,3.22519099 11.7422527,3.24023506 C11.7046425,3.18005877 11.6595103,3.13492654 11.5767679,3.10483839 C11.4789814,3.06722821 11.2382762,3.11988247 11.0351812,3.30041136 C10.8922625,3.43580803 10.8245642,3.61633692 10.786954,3.78934378 C10.7493438,3.96235064 10.6966895,4.28579824 10.990049,4.3986288 C11.0803134,4.43623898 11.1705779,4.45128306 11.2533203,4.44376102 C11.3435847,4.43623898 11.4263271,4.39110676 11.5015475,4.33093046 C11.4940255,4.35349657 11.4865034,4.38358472 11.4789814,4.40615083 L11.4940255,4.42119491 C11.7046425,4.41367287 11.7723408,4.41367287 11.998002,4.41367287 L12.0205681,4.3986288 C12.0506562,4.20305583 12.0882664,4.0150049 12.1710088,3.63890304 C12.208619,3.45837414 12.2537512,3.28536729 12.2988834,3.10483839 L12.2913614,3.08979432 Z M11.5466797,4.06013712 C11.5090695,4.11279138 11.4188051,4.15040157 11.3661508,4.15040157 C11.3511068,4.15040157 11.2608423,4.15040157 11.2533203,4.0150049 C11.2533203,3.94730656 11.2683643,3.87960823 11.2834084,3.80438786 C11.3360627,3.59377081 11.3887169,3.40571988 11.5391577,3.40571988 C11.6369442,3.40571988 11.6820764,3.49598433 11.6745544,3.64642507 C11.6670323,3.68403526 11.6595103,3.72164545 11.6444662,3.76677767 C11.6294221,3.834476 11.6143781,3.8946523 11.599334,3.96235064 C11.5842899,3.99243879 11.5692458,4.03004897 11.5466797,4.06013712 Z M8.68078355,4.65437806 C8.49273262,4.65437806 8.42503428,4.65437806 8.2068952,4.6619001 L8.19937316,4.64685602 C8.21441724,4.56411361 8.23698335,4.4813712 8.25954946,4.3986288 L8.28211557,4.28579824 C8.31972576,4.10526934 8.36485798,3.90217434 8.36485798,3.834476 C8.36485798,3.79686582 8.37990206,3.69907933 8.27459354,3.69907933 C8.22946131,3.69907933 8.18432909,3.72164545 8.13167483,3.74421156 C8.10158668,3.84199804 8.04893242,4.10526934 8.02636631,4.22562194 C7.97371205,4.4813712 7.96619001,4.51145935 7.9436239,4.63933399 L7.92857982,4.65437806 C7.73300686,4.65437806 7.66530852,4.65437806 7.44716944,4.6619001 L7.4396474,4.64685602 C7.47725759,4.49641528 7.51486778,4.34597453 7.55247796,4.18801175 C7.64274241,3.77429971 7.66530852,3.61633692 7.69539667,3.40571988 L7.71044074,3.39067581 C7.92857982,3.36058766 7.98123408,3.35306562 8.21441724,3.3079334 L8.22946131,3.33049951 L8.19185113,3.45837414 C8.22946131,3.43580803 8.2670715,3.41324192 8.31220372,3.39067581 C8.42503428,3.33802155 8.54538688,3.32297747 8.61308521,3.32297747 C8.71839373,3.32297747 8.83122429,3.35306562 8.87635651,3.47341822 C8.92148874,3.57872674 8.89140059,3.71412341 8.83122429,3.96987267 L8.80113614,4.09774731 C8.74095984,4.38358472 8.73343781,4.43623898 8.69582762,4.63181195 C8.71087169,4.63181195 8.68078355,4.65437806 8.68078355,4.65437806 Z" id="Shape" fill="#FFFFFF"></path>
            <path d="M10.3130656,2.3977669 L10.1551028,2.3977669 C9.74891283,2.40528893 9.58342801,2.3977669 9.51572968,2.39024486 C9.50820764,2.42033301 9.5006856,2.47298727 9.5006856,2.47298727 L9.3577669,3.14997062 L8.98918707,4.65437806 C9.34272282,4.64685602 9.49316357,4.64685602 9.55333986,4.65437806 C9.56838394,4.58667973 9.65112635,4.18801175 9.65112635,4.18801175 C9.65112635,4.18801175 9.71882468,3.8946523 9.72634672,3.87960823 C9.72634672,3.87960823 9.74891283,3.84952008 9.77147894,3.834476 L9.80156709,3.834476 C10.1099706,3.834476 10.4559843,3.834476 10.7267777,3.631381 C10.9073066,3.49598433 11.0351812,3.29288932 11.0953575,3.0446621 C11.1104016,2.9844858 11.1179236,2.90926543 11.1179236,2.84156709 C11.1179236,2.74378061 11.0953575,2.65351616 11.0427032,2.58581783 C10.9073066,2.40528893 10.6365132,2.3977669 10.3130656,2.3977669 M10.5161606,3.09731636 C10.4860725,3.2477571 10.388286,3.37563173 10.2604114,3.43580803 C10.1551028,3.48846229 10.0272282,3.48846229 9.89935357,3.48846229 L9.81661117,3.48846229 L9.8241332,3.45085211 C9.8241332,3.45085211 9.98209598,2.77386876 9.98209598,2.78139079 L9.98209598,2.71369246 L10.0422723,2.7212145 L10.3732419,2.75130264 C10.5011166,2.81147894 10.5537708,2.93935357 10.5161606,3.09731636 M5.91267385,3.49598433 C6.04054848,3.40571988 6.05559256,3.29288932 5.95028404,3.22519099 C5.84497551,3.16501469 5.65692458,3.18005877 5.53657199,3.27032321 C5.40869736,3.35306562 5.39365328,3.47341822 5.4989618,3.54111655 C5.60427032,3.60129285 5.79232125,3.58624878 5.91267385,3.49598433 M13.8559452,3.08227228 L13.8409011,3.05970617 C13.6077179,3.10483839 13.5701077,3.11236043 13.3519687,3.14244858 L13.3369246,3.15749265 L13.3369246,3.16501469 C13.1789618,3.53359452 13.1864838,3.45085211 13.0510872,3.74421156 L13.0510872,3.70660137 L13.020999,3.08227228 L12.9984329,3.05970617 C12.7577277,3.10483839 12.7502057,3.11236043 12.5245446,3.14244858 L12.5095005,3.15749265 L12.5095005,3.18005877 C12.5395886,3.32297747 12.5320666,3.29288932 12.5621548,3.51855044 C12.5771988,3.631381 12.5922429,3.74421156 12.607287,3.84952008 C12.6298531,4.03004897 12.6448972,4.12783546 12.6674633,4.40615083 C12.5170225,4.65437806 12.4794123,4.75216454 12.3364936,4.97030362 L12.2311851,5.13578844 C12.216141,5.15083252 12.208619,5.16587659 12.1935749,5.16587659 C12.1785309,5.17339863 12.1559647,5.17339863 12.1258766,5.17339863 L12.0657003,5.17339863 L11.9829579,5.45923604 L12.2763173,5.46675808 C12.4493242,5.46675808 12.5546327,5.38401567 12.614809,5.27870715 L12.7953379,4.96278159 L12.817904,4.94021548 C12.9232125,4.69198825 13.8559452,3.08227228 13.8559452,3.08227228" id="Shape" fill="#FFFFFF"></path>
        </g>
    </g>
</svg>