<?xml version="1.0" encoding="UTF-8"?>
<svg width="14px" height="14px" viewBox="0 0 14 14" version="1.1" xmlns="http://www.w3.org/2000/svg" xmlns:xlink="http://www.w3.org/1999/xlink">
    <!-- Generator: Sketch 52.1 (67048) - http://www.bohemiancoding.com/sketch -->
    <title>画板</title>
    <desc>Created with Sketch.</desc>
    <g id="画板" stroke="none" stroke-width="1" fill="none" fill-rule="evenodd">
        <path d="M8.23726234,6.9214565 L13.5382999,12.2224941 C13.9138996,12.5980938 13.9138996,13.2070611 13.5382999,13.5826608 C13.1627003,13.9582605 12.5537329,13.9582605 12.1781333,13.5826608 L6.87709565,8.28162319 L1.64682659,13.5118922 C1.27009223,13.8886266 0.659285139,13.8886266 0.282550774,13.5118922 C-0.0941835912,13.1351579 -0.0941835912,12.5243508 0.282550774,12.1476164 L5.51281983,6.91734737 L0.308958478,1.71348602 C-0.0666411826,1.33788636 -0.0666411826,0.728918993 0.308958478,0.353319333 C0.684558138,-0.022280327 1.29352551,-0.022280327 1.66912517,0.353319333 L6.87298652,5.55718068 L12.1476164,0.282550774 C12.5243508,-0.0941835912 13.1351579,-0.0941835912 13.5118922,0.282550774 C13.8886266,0.659285139 13.8886266,1.27009223 13.5118922,1.64682659 L8.23726234,6.9214565 Z" id="Combined-Shape" fill="#4B505F"></path>
    </g>
</svg>