<?xml version="1.0" encoding="UTF-8"?>
<svg width="44px" height="44px" viewBox="0 0 44 44" version="1.1" xmlns="http://www.w3.org/2000/svg" xmlns:xlink="http://www.w3.org/1999/xlink">
    <!-- Generator: Sketch 52.1 (67048) - http://www.bohemiancoding.com/sketch -->
    <title>画板 copy 24</title>
    <desc>Created with Sketch.</desc>
    <g id="画板-copy-24" stroke="none" stroke-width="1" fill="none" fill-rule="evenodd">
        <path d="M22,44 C9.8505,44 0,34.1495 0,22 C0,9.8505 9.8505,0 22,0 C34.1495,0 44,9.8505 44,22 C44,34.1495 34.1495,44 22,44 Z" id="Shape" fill="#FFF9F5" fill-rule="nonzero"></path>
        <g id="对号-(1)" transform="translate(12.000000, 15.000000)" fill="#FF8862" fill-rule="nonzero">
            <path d="M19.6179218,0.36775419 C19.1302793,-0.113363128 18.3402235,-0.113363128 17.8539218,0.36775419 L7.5052514,10.5832626 L2.14905028,5.29544134 C1.66134078,4.81443575 0.871284916,4.81443575 0.385050279,5.29544134 C0.151088475,5.52489308 0.01926426,5.83881559 0.01926426,6.16651397 C0.01926426,6.49421234 0.151088475,6.80813485 0.385050279,7.03758659 L6.62534078,13.1980335 C6.86779888,13.437095 7.18864804,13.5595084 7.50668156,13.5595084 C7.82612291,13.5595084 8.14690503,13.4371173 8.38934078,13.1980335 L19.6193743,2.10994413 C20.1056536,1.62741899 20.1056536,0.848826816 19.6179218,0.367731844" id="Shape"></path>
        </g>
    </g>
</svg>