<?xml version="1.0" encoding="UTF-8"?>
<svg width="10px" height="10px" viewBox="0 0 10 10" version="1.1" xmlns="http://www.w3.org/2000/svg" xmlns:xlink="http://www.w3.org/1999/xlink">
    <!-- Generator: Sketch 52.1 (67048) - http://www.bohemiancoding.com/sketch -->
    <title>画板 copy 3</title>
    <desc>Created with Sketch.</desc>
    <g id="画板-copy-3" stroke="none" stroke-width="1" fill="none" fill-rule="evenodd">
        <path d="M9.83333333,1.44791666 L8.54166667,0.156249998 C8.33333334,-0.0520833325 8,-0.0520833325 7.75,0.156249998 L6.75,1.15624999 L8.875,3.28124999 L9.83333333,2.23958332 C10.0416667,1.98958332 10.0416667,1.65624999 9.83333333,1.44791666 Z M0,7.86458332 L0,9.98958332 L2.125,9.98958332 L8.25,3.82291666 L6.125,1.69791666 L0,7.86458332 Z M8.75,8.73958332 L10,8.73958332 L10,9.98958332 L8.75,9.98958332 L8.75,8.73958332 Z M6.66666666,8.73958332 L7.91666667,8.73958332 L7.91666667,9.98958332 L6.66666666,9.98958332 L6.66666666,8.73958332 Z M4.58333333,8.73958332 L5.83333333,8.73958332 L5.83333333,9.98958332 L4.58333333,9.98958332 L4.58333333,8.73958332 Z" id="Shape" fill="#4B505F" fill-rule="nonzero"></path>
    </g>
</svg>