<?xml version="1.0" encoding="UTF-8"?>
<svg width="44px" height="44px" viewBox="0 0 44 44" version="1.1" xmlns="http://www.w3.org/2000/svg" xmlns:xlink="http://www.w3.org/1999/xlink">
    <!-- Generator: Sketch 52.1 (67048) - http://www.bohemiancoding.com/sketch -->
    <title>画板 copy 25</title>
    <desc>Created with Sketch.</desc>
    <g id="画板-copy-25" stroke="none" stroke-width="1" fill="none" fill-rule="evenodd">
        <path d="M22,44 C9.8505,44 0,34.1495 0,22 C0,9.8505 9.8505,0 22,0 C34.1495,0 44,9.8505 44,22 C44,34.1495 34.1495,44 22,44 Z" id="Shape" fill="#F4F4F5" fill-rule="nonzero"></path>
        <g id="Group-9" transform="translate(20.000000, 14.000000)" fill="#4B505F">
            <path d="M0.237272006,2.12646312 L1.02137458,11.3721042 C1.10146742,12.1626888 1.76118842,12.7678373 2.55573354,12.77954 L1.98034893,12.77954 C2.75598997,12.77954 3.44983612,12.1491554 3.51470789,11.3721042 L4.2974002,2.12646312 C4.35251071,1.59950674 4.17872146,1.07425145 3.82018927,0.684155476 C3.46165707,0.294059504 2.95289456,0.0766738247 2.42316943,0.0872323553 L2.11432328,0.0872323553 C1.5843549,0.0762633144 1.07520743,0.293470404 0.716358797,0.683617115 C0.357510167,1.07376383 0.183537365,1.59925744 0.238682274,2.12646312 L0.237272006,2.12646312 Z" id="Path"></path>
            <path d="M2.26804124,17.0103093 C2.77192875,17.0103864 3.23757301,16.7416099 3.48953904,16.3052434 C3.74150507,15.8688769 3.74150507,15.3312289 3.48953904,14.8948623 C3.23757301,14.4584958 2.77192875,14.1897193 2.26804124,14.1897965 C1.48926244,14.1899157 0.858000716,14.8212741 0.858000716,15.6000529 C0.858000716,16.3788317 1.48926244,17.0101901 2.26804124,17.0103093 Z" id="Path"></path>
        </g>
    </g>
</svg>