<?xml version="1.0" encoding="UTF-8"?>
<svg width="44px" height="44px" viewBox="0 0 44 44" version="1.1" xmlns="http://www.w3.org/2000/svg" xmlns:xlink="http://www.w3.org/1999/xlink">
    <!-- Generator: Sketch 52.1 (67048) - http://www.bohemiancoding.com/sketch -->
    <title>画板 copy 23</title>
    <desc>Created with Sketch.</desc>
    <g id="画板-copy-23" stroke="none" stroke-width="1" fill="none" fill-rule="evenodd">
        <path d="M22,44 C9.8505,44 0,34.1495 0,22 C0,9.8505 9.8505,0 22,0 C34.1495,0 44,9.8505 44,22 C44,34.1495 34.1495,44 22,44 Z" id="Shape" fill="#F6F7FA" fill-rule="nonzero"></path>
        <g id="Group-9" transform="translate(9.958763, 20.608247)" fill="#4B505F">
            <path d="M2.00484767,4.01030927 C2.72129354,4.01041895 3.38336375,3.62826263 3.74161835,3.00782059 C4.09987294,2.38737854 4.09987294,1.62293075 3.74161835,1.00248871 C3.38336375,0.382046664 2.72129354,-0.00010965932 2.00484767,2.36037761e-08 C0.897551232,0.000169543057 -2.84217094e-14,0.897858194 -2.84217094e-14,2.00515465 C-2.84217094e-14,3.1124511 0.897551232,4.01013975 2.00484767,4.01030927 Z" id="Path"></path>
            <path d="M12.0460848,4.01030927 C12.7625306,4.01041895 13.4246009,3.62826263 13.7828555,3.00782059 C14.1411101,2.38737854 14.1411101,1.62293075 13.7828555,1.00248871 C13.4246009,0.382046664 12.7625306,-0.00010965932 12.0460848,2.36037761e-08 C10.9387883,0.000169543057 10.0412371,0.897858194 10.0412371,2.00515465 C10.0412371,3.1124511 10.9387883,4.01013975 12.0460848,4.01030927 Z" id="Path-Copy"></path>
            <path d="M22.0460848,4.01030927 C22.7625306,4.01041895 23.4246009,3.62826263 23.7828555,3.00782059 C24.1411101,2.38737854 24.1411101,1.62293075 23.7828555,1.00248871 C23.4246009,0.382046664 22.7625306,-0.00010965932 22.0460848,2.36037761e-08 C20.9387883,0.000169543057 20.0412371,0.897858194 20.0412371,2.00515465 C20.0412371,3.1124511 20.9387883,4.01013975 22.0460848,4.01030927 Z" id="Path-Copy-2"></path>
        </g>
    </g>
</svg>