<?xml version="1.0" encoding="UTF-8"?>
<svg width="14px" height="13px" viewBox="0 0 14 13" version="1.1" xmlns="http://www.w3.org/2000/svg" xmlns:xlink="http://www.w3.org/1999/xlink">
    <!-- Generator: Sketch 52.1 (67048) - http://www.bohemiancoding.com/sketch -->
    <title>画板 copy 15</title>
    <desc>Created with Sketch.</desc>
    <g id="画板-copy-15" stroke="none" stroke-width="1" fill="none" fill-rule="evenodd">
        <path d="M13.2308993,3.32229631 C13.7554724,4.13829891 13.988616,5.12915921 13.988616,6.12001952 C13.988616,9.50060172 10.8411774,12.240039 6.99430802,12.240039 C6.06173362,12.240039 5.18744512,12.0651813 4.37144251,11.7737518 L2.44800781,12.822898 C2.38972191,12.822898 2.331436,12.822898 2.27315011,12.7646121 L2.27315011,12.6480403 L2.6228655,10.8994633 C0.990860293,9.73374533 -2.84217094e-14,8.04345422 -2.84217094e-14,6.12001952 C-2.80658025e-14,2.7394373 3.14743861,0 6.99430802,0 C9.38402993,0 11.4823223,1.0491462 12.7063262,2.6228655 L5.53716051,5.88687592 C5.36230282,5.94516181 5.18744511,5.94516181 5.01258741,5.82859001 L3.3805822,4.60458611 C3.2640104,4.48801431 3.1474386,4.54630022 3.08915271,4.60458611 C3.03086681,4.66287201 3.03086681,4.77944381 3.03086681,4.83772972 L4.54630021,8.04345422 C4.6045861,8.21831192 4.8377297,8.27659783 5.01258741,8.21831192 L5.07087332,8.21831192 L13.2308993,3.32229631 Z" id="Shape" fill="#3FB639" fill-rule="nonzero"></path>
    </g>
</svg>