<?xml version="1.0" encoding="UTF-8"?>
<svg width="14px" height="14px" viewBox="0 0 14 14" version="1.1" xmlns="http://www.w3.org/2000/svg" xmlns:xlink="http://www.w3.org/1999/xlink">
    <!-- Generator: Sketch 52.1 (67048) - http://www.bohemiancoding.com/sketch -->
    <title>画板 copy 21</title>
    <desc>Created with Sketch.</desc>
    <g id="画板-copy-21" stroke="none" stroke-width="1" fill="none" fill-rule="evenodd">
        <path d="M10.8907299,1.26271434e-07 L3.09800407,1.26271434e-07 C2.27629048,-0.000234347588 1.48816481,0.326086263 0.907125538,0.907125538 C0.326086263,1.48816481 -0.000234347588,2.27629048 1.26271434e-07,3.09800407 L1.26271434e-07,10.8907299 C-0.000234347588,11.7124435 0.326086263,12.5005692 0.907125538,13.0816084 C1.48816481,13.6626477 2.27629048,13.9889683 3.09800407,13.9887339 L10.8907299,13.9887339 C11.7124435,13.9889683 12.5005692,13.6626477 13.0816084,13.0816084 C13.6626477,12.5005692 13.9889683,11.7124435 13.9887339,10.8907299 L13.9887339,3.09800407 C13.9887339,2.27636234 13.6623379,1.48837291 13.0813495,0.907384474 C12.5003611,0.326396033 11.7123716,1.26271433e-07 10.8907299,1.26271434e-07 Z M9.89222892,7.17595279 L7.5514952,7.17595279 L7.5514952,8.26281669 L9.89222892,8.26281669 L9.89222892,9.37795673 L7.5514952,9.37795673 L7.5514952,11.8856964 L6.43723879,11.8856964 L6.43723879,9.37795673 L4.09650506,9.37795673 L4.09650506,8.26281669 L6.43723879,8.26281669 L6.43723879,7.17595279 L4.09650506,7.17595279 L4.09650506,6.06081275 L5.6808522,6.06081275 L4.15924273,3.06000802 L5.40692715,3.05558987 L6.9311875,6.06081275 L7.05931374,6.06081275 L8.57650506,3.06796068 L9.83037488,3.05912439 L8.30876541,6.06081275 L9.89222892,6.06081275 L9.89222892,7.17595279 Z" id="Shape" fill="#999999" fill-rule="nonzero"></path>
    </g>
</svg>