<?xml version="1.0" encoding="UTF-8"?>
<svg width="3px" height="6px" viewBox="0 0 3 6" version="1.1" xmlns="http://www.w3.org/2000/svg" xmlns:xlink="http://www.w3.org/1999/xlink">
    <!-- Generator: Sketch 52.1 (67048) - http://www.bohemiancoding.com/sketch -->
    <title>画板 copy 7</title>
    <desc>Created with Sketch.</desc>
    <g id="画板-copy-7" stroke="none" stroke-width="1" fill="none" fill-rule="evenodd">
        <path d="M2.91405161,0.0830997369 C2.85922797,0.0299231029 2.7845108,0 2.70655383,0 C2.62859687,0 2.5538797,0.0299231029 2.49905606,0.0830997369 L0.0866094221,2.4284156 C0.0311868936,2.48101762 0,2.55270701 0,2.62750492 C0,2.70230282 0.0311868936,2.77399222 0.0866094221,2.82659423 L2.49905606,5.16753451 C2.61365392,5.2774885 2.79945375,5.2774885 2.91405161,5.16753451 C3.02864946,5.05758051 3.02864946,4.87930987 2.91405161,4.76935588 L0.720503719,2.62531712 L2.91405161,0.476902774 C3.02649113,0.367801192 3.02649113,0.192201319 2.91405161,0.0830997369 Z" id="Shape" fill="#FF8862" fill-rule="nonzero" transform="translate(1.500000, 2.625000) scale(-1, 1) translate(-1.500000, -2.625000) "></path>
    </g>
</svg>