<?xml version="1.0" encoding="UTF-8"?>
<svg width="24px" height="24px" viewBox="0 0 24 24" version="1.1" xmlns="http://www.w3.org/2000/svg" xmlns:xlink="http://www.w3.org/1999/xlink">
    <!-- Generator: Sketch 49.3 (51167) - http://www.bohemiancoding.com/sketch -->
    <title>Artboard</title>
    <desc>Created with Sketch.</desc>
    <defs></defs>
    <g id="Artboard" stroke="none" stroke-width="1" fill="none" fill-rule="evenodd">
        <rect id="Rectangle-14-Copy-2" fill="#F6F7FA" x="0" y="0" width="24" height="24" rx="4"></rect>
        <path d="M19.9972687,7.01244147 C19.9972687,5.90911037 19.1028294,5.01467113 17.9994983,5.01467113 L8.01244147,5.01467113 C6.90911037,5.01467113 6.01467113,5.90911037 6.01467113,7.01244147 L6.01467113,16.9994983 C6.01467113,18.1028294 6.90911037,18.9972687 8.01244147,18.9972687 L17.9994983,18.9972687 C19.1028294,18.9972687 19.9972687,18.1028294 19.9972687,16.9994983 L19.9972687,7.01244147 Z" id="Shape" fill="#F6F7FA" fill-rule="nonzero"></path>
        <path d="M7.01475139,6.01261984 L17.0008562,6.01261984 C17.2659831,6.01288873 17.5201401,6.11848717 17.7073965,6.30617677 C17.8946529,6.49386637 17.9996637,6.74826673 17.99932,7.01339353 C17.99932,8.49559354 17.99932,9.60724354 17.99932,10.3483435 C17.99932,10.6394731 17.99932,11.0761675 17.99932,11.6584266 C17.99932,11.9334752 17.7364519,11.9334752 17.2107157,11.6584266 L16.3559666,10.8045359 C16.2336619,10.6822784 16.056775,10.6320644 15.8884768,10.6718267 C15.7201786,10.711589 15.5844679,10.8356576 15.5298105,10.9997243 L14.9444969,13.025186 L13.4530033,9.93563066 C13.3651362,9.75986578 13.1822906,9.65203846 12.9859561,9.66020447 C12.7896215,9.66837048 12.6163616,9.79100904 12.5433935,9.97346343 L11.1201246,13.7841358 L9.49092531,8.02379565 C9.43438863,7.8259808 9.26223638,7.68314559 9.05738555,7.66408649 C8.85253472,7.64502738 8.65698689,7.75365217 8.56492754,7.93764181 L6.70348941,11.6564601 L6.01263545,11.6584266 L6.01263545,7.01339353 C6.0122907,6.7477534 6.1181366,6.49299497 6.30661984,6.30580825 C6.49410768,6.1175644 6.74904709,6.01201624 7.01475139,6.01261984 Z" id="Path" fill="#4B505F"></path>
        <path d="M17.7069275,17.7077079 C17.5199657,17.8954359 17.2655812,18.0004265 17.0006377,17.9992107 L7.01475139,17.9992107 C6.74767447,17.9992107 6.49548718,17.8965909 6.30660424,17.7077079 C6.11772129,17.518825 6.01261984,17.269291 6.01261984,17.0022297 L6.01261984,12.5077614 L7.01362765,12.5049521 C7.20223712,12.5044311 7.37449157,12.3977816 7.45903679,12.2291817 L8.88338462,9.38243701 L10.5287982,15.1414939 C10.5874564,15.3466581 10.7700596,15.4918337 10.9831661,15.5027313 C10.9917399,15.5031787 11.0002928,15.5034025 11.008825,15.5034025 C11.212808,15.5033396 11.396218,15.3791379 11.4719955,15.1897525 L13.0571014,11.2269877 L14.5579732,14.2286845 C14.6482148,14.4092237 14.8383334,14.5176166 15.0396622,14.5033114 C15.240991,14.4890062 15.4138734,14.3548206 15.4776812,14.1633356 L16.221398,11.9322163 L16.6514181,12.3617837 C16.7450118,12.4552798 16.8719037,12.5077814 17.0041962,12.5077458 L17.9993356,12.5077458 C17.9997882,12.5077458 17.9993356,12.5077458 17.9993356,12.5077458 L17.9993356,17.0022297 C18.0002954,17.2670578 17.8950557,17.5212185 17.7071616,17.7078484 L17.7069275,17.7077079 Z" id="Path" fill="#4B505F"></path>
    </g>
</svg>