<?xml version="1.0" encoding="UTF-8"?>
<svg width="24px" height="24px" viewBox="0 0 24 24" version="1.1" xmlns="http://www.w3.org/2000/svg" xmlns:xlink="http://www.w3.org/1999/xlink">
    <!-- Generator: Sketch 49.3 (51167) - http://www.bohemiancoding.com/sketch -->
    <title>Artboard 3 Copy</title>
    <desc>Created with Sketch.</desc>
    <defs></defs>
    <g id="Artboard-3-Copy" stroke="none" stroke-width="1" fill="none" fill-rule="evenodd">
        <rect id="Rectangle-14" fill="#F6F7FA" x="0" y="0" width="24" height="24" rx="4"></rect>
        <path d="M15.001831,14.4114473 C14.8146964,14.4114473 14.6627526,14.2590915 14.6627526,14.0719569 L14.6627526,12.7736217 C14.6627526,12.5864872 14.8146964,12.4341313 15.001831,12.4341313 C15.1889655,12.4341313 15.3409093,12.5864872 15.3409093,12.7736217 L15.3409093,14.0719569 C15.3408956,14.2590915 15.1889518,14.4114473 15.001831,14.4114473 Z" id="Shape" fill="#4B505F" fill-rule="nonzero"></path>
        <path d="M16.3001524,14.4511846 L15.0018172,14.4511846 C14.8146827,14.4511846 14.6627389,14.2988287 14.6627389,14.1116942 C14.6627389,13.9245596 14.8146827,13.7722037 15.0018172,13.7722037 L16.3001524,13.7722037 C16.487287,13.7722037 16.6392308,13.9245596 16.6392308,14.1116942 C16.6392308,14.2988287 16.487287,14.4511846 16.3001524,14.4511846 Z" id="Shape" fill="#4B505F" fill-rule="nonzero"></path>
        <path d="M16.7203618,6 L7.27183913,6 C6.56942528,6 6.00000001,6.68691406 6,7.53440411 L6,16.4655959 C6,17.3130859 6.56941152,18 7.27183913,18 L16.7203618,18 C17.4227756,18 17.9922009,17.3130859 17.9922009,16.4655959 L17.9922009,7.53440411 C17.9922009,6.68691404 17.4227894,6 16.7203618,6 Z M15.1170127,16.5175718 C13.7179677,16.5175718 12.5733344,15.3730484 12.5733344,13.9738936 C12.5733344,12.5749584 13.7179677,11.4302153 15.1170127,11.4302153 C16.5160027,11.4302153 17.6606909,12.5749584 17.6606909,13.9738936 C17.6606909,15.3730347 16.5160027,16.5175718 15.1170127,16.5175718 Z" id="Shape" fill="#4B505F" fill-rule="nonzero"></path>
        <rect id="Rectangle-4" fill="#FFFFFF" x="8" y="8" width="6" height="1" rx="0.5"></rect>
        <rect id="Rectangle-4-Copy" fill="#FFFFFF" x="8" y="11" width="4" height="1" rx="0.5"></rect>
        <rect id="Rectangle-4-Copy-2" fill="#FFFFFF" x="8" y="14" width="3" height="1" rx="0.5"></rect>
    </g>
</svg>