<?xml version="1.0" encoding="UTF-8"?>
<svg width="24px" height="24px" viewBox="0 0 24 24" version="1.1" xmlns="http://www.w3.org/2000/svg" xmlns:xlink="http://www.w3.org/1999/xlink">
    <!-- Generator: Sketch 49.3 (51167) - http://www.bohemiancoding.com/sketch -->
    <title>Artboard 3</title>
    <desc>Created with Sketch.</desc>
    <defs></defs>
    <g id="Artboard-3" stroke="none" stroke-width="1" fill="none" fill-rule="evenodd">
        <rect id="Rectangle-14-Copy" fill="#F6F7FA" x="0" y="0" width="24" height="24" rx="4"></rect>
        <path d="M17.6542745,6.37863529 C15.7343709,6.07094749 13.8412943,5.61446094 11.9921569,5.01330196 C10.1626825,5.6408934 8.28140077,6.10583874 6.37019608,6.40272941 C6.15428703,6.45231115 6.00316443,6.64709139 6.00878431,6.86854902 L6.00878431,12.0487843 C6.10133106,12.9253265 6.37481188,13.773117 6.81192157,14.5385098 C7.34793355,15.3385024 8.01283985,16.0441172 8.77960784,16.6266667 C9.6971346,17.4086217 10.7622352,17.9985236 11.9118431,18.3614431 L12.1367216,18.3614431 C13.2650779,17.9941117 14.3083086,17.404222 15.2047059,16.6266667 C15.979409,16.0485625 16.6525266,15.3455889 17.1964863,14.5465412 C17.6462327,13.7780499 17.9204914,12.91962 17.9996235,12.0327216 L17.9996235,6.83642353 C17.995166,6.62535761 17.8560016,6.44088386 17.6542745,6.37863529 Z M13.7108706,11.5749333 L11.1087059,14.7874824 C10.9159529,15.0203922 10.8035137,14.9882667 10.8838275,14.6750431 L11.4379922,12.2656314 L10.4742275,12.2656314 C10.33842,12.273597 10.2081298,12.2108566 10.1296774,12.0997156 C10.0512249,11.9885746 10.0357376,11.844797 10.0887216,11.719498 L10.9400471,9.02898824 C11.0203608,8.70773333 11.1328,8.4828549 11.5584627,8.4828549 L12.490102,8.4828549 C12.7952941,8.4828549 12.9318275,8.71576471 12.8193882,9.00489412 L12.1286902,10.7075451 L13.3173333,10.7075451 C13.935749,10.7075451 14.0963765,11.1171451 13.7108706,11.5749333 Z" id="Shape" fill="#4B505F" fill-rule="nonzero"></path>
    </g>
</svg>