<?xml version="1.0" encoding="UTF-8"?>
<svg width="14px" height="18px" viewBox="0 0 14 18" version="1.1" xmlns="http://www.w3.org/2000/svg" xmlns:xlink="http://www.w3.org/1999/xlink">
    <!-- Generator: Sketch 52.1 (67048) - http://www.bohemiancoding.com/sketch -->
    <title>画板 copy 6</title>
    <desc>Created with Sketch.</desc>
    <g id="画板-copy-6" stroke="none" stroke-width="1" fill="none" fill-rule="evenodd">
        <g id="Group-5" fill-rule="nonzero">
            <path d="M6.9877551,13.9755102 C3.13469388,13.9755102 0,10.8408163 0,6.9877551 C0,3.13469388 3.13469388,0 6.9877551,0 C10.8408163,0 13.9755102,3.13469388 13.9755102,6.9877551 C13.9755102,10.8408163 10.8408163,13.9755102 6.9877551,13.9755102 Z" id="Shape" fill="#4B505F"></path>
            <path d="M2.0244898,17.2204082 C1.95918367,17.2204082 1.82857143,17.155102 1.82857143,17.155102 C1.82857143,17.155102 1.76326531,17.0244898 1.76326531,16.9591837 C1.76326531,14.9346939 2.80816327,12.9755102 4.44081633,11.9959184 C4.57142857,11.9306122 4.76734694,11.9306122 4.89795918,12.1265306 C4.96326531,12.2571429 9.53469388,11.8 9.73061224,11.8653061 C11.4285714,12.9102041 12.4734694,14.8040816 12.4734694,16.8938776 C12.4734694,16.9591837 12.4081633,17.0897959 12.4081633,17.0897959 C12.4081633,17.0897959 12.2122449,17.2204082 12.1469388,17.2204082 L2.0244898,17.2204082 Z" id="Shape" fill="#4B505F"></path>
            <path d="M6.9877551,10.7755102 C5.8122449,10.7755102 4.63673469,10.2530612 3.91836735,9.27346939 C3.7877551,9.14285714 3.47495091,8.63449455 3.69665913,8.28640714 C3.91836735,7.93831973 4.41537861,8.03121907 4.54599086,8.16183131 C5.19905208,8.94550478 5.94285714,9.4942651 6.9877551,9.4942651 C8.03265306,9.4942651 8.98844429,9.01711729 9.64150551,8.23344382 C9.77211776,8.10283158 10.0326734,8.0586646 10.2285207,8.20320503 C10.8392706,8.61552412 10.2530612,9.14285714 10.1877551,9.27346939 C9.33877551,10.2530612 8.22857143,10.7755102 6.9877551,10.7755102 Z" id="Shape" fill="#FFFFFF"></path>
        </g>
    </g>
</svg>