<?xml version="1.0" encoding="UTF-8"?>
<svg width="17px" height="17px" viewBox="0 0 17 17" version="1.1" xmlns="http://www.w3.org/2000/svg" xmlns:xlink="http://www.w3.org/1999/xlink">
    <!-- Generator: Sketch 48.1 (47250) - http://www.bohemiancoding.com/sketch -->
    <title>Artboard Copy 3</title>
    <desc>Created with Sketch.</desc>
    <defs></defs>
    <g id="图标" stroke="none" stroke-width="1" fill="none" fill-rule="evenodd">
        <g id="Artboard-Copy-3" fill="#D8D8D8">
            <path d="M8.98528137,8.27817459 L16.4099026,15.7027958 C16.6051647,15.8980579 16.6051647,16.2146404 16.4099026,16.4099026 C16.2146404,16.6051647 15.8980579,16.6051647 15.7027958,16.4099026 L8.27817459,8.98528137 L0.853553391,16.4099026 C0.658291245,16.6051647 0.341708755,16.6051647 0.146446609,16.4099026 C-0.0488155365,16.2146404 -0.0488155365,15.8980579 0.146446609,15.7027958 L7.57106781,8.27817459 L0.146446609,0.853553391 C-0.0488155365,0.658291245 -0.0488155365,0.341708755 0.146446609,0.146446609 C0.341708755,-0.0488155365 0.658291245,-0.0488155365 0.853553391,0.146446609 L8.27817459,7.57106781 L15.7027958,0.146446609 C15.8980579,-0.0488155365 16.2146404,-0.0488155365 16.4099026,0.146446609 C16.6051647,0.341708755 16.6051647,0.658291245 16.4099026,0.853553391 L8.98528137,8.27817459 Z" id="Combined-Shape"></path>
        </g>
    </g>
</svg>