<?xml version="1.0" encoding="UTF-8"?>
<svg width="82px" height="84px" viewBox="0 0 82 84" version="1.1" xmlns="http://www.w3.org/2000/svg" xmlns:xlink="http://www.w3.org/1999/xlink">
    <!-- Generator: Sketch 49.3 (51167) - http://www.bohemiancoding.com/sketch -->
    <title>金币</title>
    <desc>Created with Sketch.</desc>
    <defs>
        <linearGradient x1="50%" y1="0%" x2="50%" y2="100%" id="linearGradient-1">
            <stop stop-color="#FFFFFF" offset="0%"></stop>
            <stop stop-color="#FFFFFF" stop-opacity="0" offset="100%"></stop>
        </linearGradient>
    </defs>
    <g id="金币" stroke="none" stroke-width="1" fill="none" fill-rule="evenodd" opacity="0.127038043">
        <path d="M54.9325788,17.8461935 C52.7444623,21.8239852 50.6279013,25.6920368 48.4921807,29.549382 C46.3795299,33.3665784 44.4436177,37.2835733 41.90046,41.2732185 C39.2595488,37.2518366 37.4464151,33.2392493 35.3110854,29.4040815 C33.1702816,25.5582074 31.2809001,21.5754449 28.9352047,17.7311002 C25.0485216,17.763984 21.337795,17.4821776 17.6313696,17.8855776 C17.2270607,19.1141313 17.9848466,19.8865181 18.4470256,20.7051715 C20.9256658,25.0886574 23.4578751,29.4434656 25.9240029,33.8338342 C26.2411155,34.3982118 26.2825631,35.1109489 26.4534363,35.7613597 C24.0334483,36.3215312 21.7346746,35.5969407 19.4445033,36.3781219 C19.0718666,38.3660619 18.9502611,40.2366143 19.5676728,42.2379371 C23.3765441,42.965969 27.1533521,42.1759932 31.0486375,42.8061385 C31.9487527,44.4549165 32.9325449,46.1465199 33.7869113,47.8981554 C34.0070524,48.3497339 33.8201476,48.9913502 33.8201476,49.6073478 C28.9457621,50.1430477 24.1968923,49.3201882 19.2611176,50.1667546 C19.3330642,52.3462617 18.6804612,54.3579086 19.8046276,56.4735599 C21.0957571,56.5144735 22.3286255,56.5794763 23.5622759,56.5882708 C26.3118891,56.6085364 29.0618934,56.5771821 31.8107246,56.6207723 C32.5145505,56.631861 33.2152483,56.842929 34.022302,56.9805821 C34.0805631,58.2554026 34.1634582,59.3375088 34.1716695,60.4199973 C34.1939573,63.2307968 34.1529008,66.0423609 34.2033417,68.852778 C34.2178092,69.6645488 34.456719,70.4728783 34.6287653,71.4999232 C39.2599398,71.511012 43.7061645,71.7385219 48.3541526,71.3297687 C48.9797757,66.4270248 48.2075222,61.6718756 48.8738108,56.8104276 C50.1446076,56.7312771 51.2390568,56.6150367 52.3338972,56.6035656 C55.3329776,56.5722113 58.333622,56.6161838 61.3319204,56.5576813 C62.0208878,56.5446807 62.7035989,56.2406968 63.4007776,56.0678657 C63.6600201,53.9633031 63.8105607,52.0591021 63.250237,49.9981296 C62.0138495,49.922038 60.9158811,49.8069447 59.8163486,49.7962384 C56.8172682,49.7667959 53.8166237,49.813445 50.8187164,49.7553248 C50.1504728,49.7427066 49.4880944,49.4261046 48.6849508,49.2123599 C49.776272,46.7487521 50.7710126,44.5405673 52.3464096,42.7610188 C56.0665206,42.1373739 59.7307165,43.092151 63.5165179,42.0800185 C63.5133897,40.106991 63.9141795,38.2081432 63.2189559,36.2825295 C60.994084,35.6202653 58.7050857,36.3976228 56.3582173,35.6600317 C56.9072015,34.5358649 57.2814023,33.6522086 57.7537477,32.822084 C60.1236859,28.6592254 62.5374178,24.5200737 64.8881964,20.3468912 C65.2756916,19.6593905 65.4274052,18.8449431 65.7718889,17.8461935 L54.9325788,17.8461935 Z M81.2676174,42.263684 C81.0465166,54.3985126 76.7234964,64.831336 67.6471953,73.1026775 C49.7214718,89.4394146 21.8966752,86.2127996 7.8860527,66.2782878 C-4.13735947,49.1718226 -1.67559144,25.5542645 13.6712653,11.2846015 C19.7615508,5.6220368 27.0024075,2.26408835 35.2717294,0.980066113 C52.1008086,-1.63327887 70.8319705,7.84633028 78.2180449,26.2181646 C80.2830642,31.3527308 81.4282428,36.6822034 81.2676174,42.263684 Z" id="Fill-6" fill="url(#linearGradient-1)" transform="translate(40.782527, 42.052372) rotate(-34.000000) translate(-40.782527, -42.052372) "></path>
    </g>
</svg>