<?xml version="1.0" encoding="UTF-8"?>
<svg width="20px" height="20px" viewBox="0 0 20 20" version="1.1" xmlns="http://www.w3.org/2000/svg" xmlns:xlink="http://www.w3.org/1999/xlink">
    <!-- Generator: Sketch 52.1 (67048) - http://www.bohemiancoding.com/sketch -->
    <title>画板 copy 10</title>
    <desc>Created with Sketch.</desc>
    <g id="画板-copy-10" stroke="none" stroke-width="1" fill="none" fill-rule="evenodd">
        <rect id="Rectangle-18-Copy-2" fill="#F4F4F5" x="0" y="0" width="20" height="20" rx="4"></rect>
        <g id="攻略" transform="translate(5.000000, 5.000000)" fill="#666666" fill-rule="nonzero">
            <path d="M7.83113138,0.406074068 L2.37954154,0.406074068 C1.380091,0.406074068 0.562354418,1.21824357 0.562354418,2.21089834 L0.562354418,7.62513397 C0.562354418,8.61778874 1.38009337,9.42994638 2.37954154,9.42994638 L7.83113138,9.42994638 C8.83059378,9.42994638 9.64831376,8.61778874 9.64831376,7.62513397 L9.64831377,2.21089835 C9.64831377,1.21824357 8.8305938,0.406074068 7.83113138,0.406074068 Z M3.74244136,0.406074068 L6.46824578,0.406074068 L6.46824578,2.66209967 L5.10534594,1.73712984 L3.74244136,2.61697242 L3.74244136,0.406074068 Z M6.87710458,5.25629855 L6.19565348,5.91056419 C6.15020601,5.95566772 6.12752972,6.00078311 6.15020601,6.06846805 L6.3092342,6.97088019 C6.33194607,7.12879592 6.17292737,7.24159624 6.03664663,7.15137733 L5.19621478,6.72271235 C5.15075545,6.70016652 5.08261982,6.70016652 5.01444863,6.72271235 L4.17402864,7.17391131 C4.03773367,7.24159625 3.87873396,7.12879592 3.90144583,6.99344975 L4.06044555,6.09103761 C4.06044555,6.02335267 4.06044555,5.97823728 4.01501468,5.93313375 L3.33356595,5.27886811 C3.21999472,5.16605592 3.28814933,4.9858031 3.42442531,4.96324541 L4.35572837,4.82788264 C4.42389483,4.82788264 4.46930671,4.78275064 4.49202807,4.73764712 L4.90090111,3.90292704 C4.96903673,3.76754529 5.17347917,3.76754529 5.24162666,3.90292704 L5.65049969,4.73764712 C5.67322343,4.78275064 5.74135905,4.82788264 5.78678279,4.82788264 L6.71810958,4.96324541 C6.92252833,4.96324541 6.96796395,5.14351008 6.87710458,5.25629855 Z" id="Shape"></path>
        </g>
    </g>
</svg>