<?xml version="1.0" encoding="UTF-8"?>
<svg width="17px" height="17px" viewBox="0 0 17 17" version="1.1" xmlns="http://www.w3.org/2000/svg" xmlns:xlink="http://www.w3.org/1999/xlink">
    <!-- Generator: Sketch 49.3 (51167) - http://www.bohemiancoding.com/sketch -->
    <title>我的</title>
    <desc>Created with Sketch.</desc>
    <defs></defs>
    <g id="我的" stroke="none" stroke-width="1" fill="none" fill-rule="evenodd">
        <path d="M9.7509888,11.8945973 C9.06008676,12.7582249 7.94022451,12.758614 7.2490112,11.8945973 L5.66666667,9.91666667 C2.53725,9.91666667 0,12.4539167 0,15.5833333 L0,16.2916667 C0,16.6826667 0.317333333,17 0.708333333,17 L10.625,17 L14.875,17 L16.2916667,17 C16.6826667,17 17,16.6826667 17,16.2916667 L17,15.5833333 C17,12.4539167 14.46275,9.91666667 11.3333333,9.91666667 L9.7509888,11.8945973 Z M12.75,4.25 C12.75,3.64154167 12.6472917,3.10108333 12.4744583,2.61729167 C12.6465833,2.25179167 12.75,1.84733333 12.75,1.41666667 L12.75,0 L7.08333333,0 C5.518625,0 4.25,1.268625 4.25,2.83333333 L4.25,4.25 C4.25,6.98841667 6.15258333,9.91666667 8.5,9.91666667 C10.8474167,9.91666667 12.75,6.98841667 12.75,4.25 Z M7.08333333,0.708333333 L12.0416667,0.708333333 L12.0416667,1.41666667 C12.0416667,2.58825 11.08825,3.54166667 9.91666667,3.54166667 L4.95833333,3.54166667 L4.95833333,2.83333333 C4.95833333,1.66175 5.91175,0.708333333 7.08333333,0.708333333 Z" id="Personal-选中" fill="#FFFFFF"></path>
    </g>
</svg>