<?xml version="1.0" encoding="UTF-8"?>
<svg width="18px" height="17px" viewBox="0 0 18 17" version="1.1" xmlns="http://www.w3.org/2000/svg" xmlns:xlink="http://www.w3.org/1999/xlink">
    <!-- Generator: Sketch 49.3 (51167) - http://www.bohemiancoding.com/sketch -->
    <title>消息</title>
    <desc>Created with Sketch.</desc>
    <defs></defs>
    <g id="消息" stroke="none" stroke-width="1" fill="none" fill-rule="evenodd">
        <path d="M11.3485274,14.1619492 L8.85265262,16.3444742 L6.36839282,14.1619492 L2,14.1619492 C0.8954305,14.1619492 1.3527075e-16,13.2665187 0,12.1619492 L0,2 C-1.3527075e-16,0.8954305 0.8954305,2.02906125e-16 2,0 L16,-2.22044605e-16 C17.1045695,-4.2495073e-16 18,0.8954305 18,2 L18,12.1619492 C18,13.2665187 17.1045695,14.1619492 16,14.1619492 L11.3485274,14.1619492 Z M2.94666445,3.50793651 C2.52094112,3.50793651 2.17582418,3.85305345 2.17582418,4.27877678 C2.17582418,4.7045001 2.52094112,5.04961705 2.94666445,5.04961705 L12.6976912,5.04961705 C13.1234145,5.04961705 13.4685315,4.7045001 13.4685315,4.27877678 C13.4685315,3.85305345 13.1234145,3.50793651 12.6976912,3.50793651 L2.94666445,3.50793651 Z M2.94666445,7.11116661 C2.52094112,7.11116661 2.17582418,7.45628356 2.17582418,7.88200688 C2.17582418,8.30773021 2.52094112,8.65284715 2.94666445,8.65284715 L10.1082806,8.65284715 C10.5340039,8.65284715 10.8791209,8.30773021 10.8791209,7.88200688 C10.8791209,7.45628356 10.5340039,7.11116661 10.1082806,7.11116661 L2.94666445,7.11116661 Z" id="Combined-Shape" fill="#FFFFFF"></path>
    </g>
</svg>