<?xml version="1.0" encoding="UTF-8"?>
<svg width="20px" height="20px" viewBox="0 0 20 20" version="1.1" xmlns="http://www.w3.org/2000/svg" xmlns:xlink="http://www.w3.org/1999/xlink">
    <!-- Generator: Sketch 52.1 (67048) - http://www.bohemiancoding.com/sketch -->
    <title>画板 copy 9</title>
    <desc>Created with Sketch.</desc>
    <g id="画板-copy-9" stroke="none" stroke-width="1" fill="none" fill-rule="evenodd">
        <rect id="Rectangle-18-Copy" fill="#F4F4F5" x="0" y="0" width="20" height="20" rx="4"></rect>
        <g id="客服" transform="translate(5.000000, 5.000000)" fill="#666666" fill-rule="nonzero">
            <path d="M7.10605343,8.36006285 C6.64624997,8.36006285 6.27004714,7.98386003 6.27004714,7.52405657 L6.27004714,5.22503928 C6.27004714,4.76523583 6.64624997,4.389033 7.10605343,4.389033 L8.15106128,4.389033 C8.08836081,2.42441823 6.47904871,0.836006286 4.49353378,0.836006286 C2.50801886,0.836006286 0.898706757,2.42441823 0.836006285,4.389033 L1.88101414,4.389033 C2.3408176,4.389033 2.71702043,4.76523583 2.71702043,5.22503928 L2.71702043,7.52405657 C2.71702043,7.98386003 2.3408176,8.36006285 1.88101414,8.36006285 L0.836006285,8.36006285 C0.376202828,8.36006285 7.67544624e-11,7.98386003 1.75438611e-10,7.52405657 L1.75438611e-10,5.22503928 C1.75438611e-10,5.14143865 -2.19298264e-10,4.66073504 1.75438611e-10,4.49353378 C1.75438611e-10,2.00641509 2.00641508,2.96052866e-10 4.49353378,0 C6.98065248,-2.96052866e-10 8.98706757,2.00641508 8.98706757,4.49353378 C8.98706757,4.66073504 8.98706757,5.14143866 8.98706757,5.22503928 L8.98706757,7.52405657 C8.98706757,7.98386003 8.61086474,8.36006285 8.15106128,8.36006285 L7.10605343,8.36006285 Z M4.389033,8.56906443 C4.55623426,8.56906443 4.6816352,8.65266505 4.76523583,8.79896615 C4.78613598,8.79896615 4.80703614,8.778066 4.80703614,8.778066 L8.778066,8.778066 C8.90346694,8.778066 8.98706757,8.86166663 8.98706757,8.98706757 C8.98706757,9.11246851 8.90346694,9.19606914 8.778066,9.19606914 L4.80703614,9.19606914 C4.78613598,9.19606914 4.76523583,9.19606914 4.76523583,9.17516898 C4.70253536,9.30056992 4.55623426,9.40507071 4.389033,9.40507071 C4.15913127,9.40507071 3.97102986,9.2169693 3.97102986,8.98706757 C3.97102986,8.75716584 4.15913127,8.56906442 4.389033,8.56906443 Z" id="Shape"></path>
        </g>
    </g>
</svg>