<?xml version="1.0" encoding="UTF-8"?>
<svg width="17px" height="17px" viewBox="0 0 17 17" version="1.1" xmlns="http://www.w3.org/2000/svg" xmlns:xlink="http://www.w3.org/1999/xlink">
    <!-- Generator: Sketch 52.1 (67048) - http://www.bohemiancoding.com/sketch -->
    <title>画板 copy 4</title>
    <desc>Created with Sketch.</desc>
    <g id="画板-copy-4" stroke="none" stroke-width="1" fill="none" fill-rule="evenodd">
        <rect id="Rectangle" fill="#4B505F" x="0" y="0" width="17" height="17" rx="4"></rect>
        <path d="M11.4480392,9.67290576 C11.7132537,9.67290575 11.958322,9.81439598 12.0909292,10.0440785 C12.2235365,10.2737609 12.2235365,10.5567414 12.0909292,10.7864239 C11.958322,11.0161064 11.7132537,11.1575966 11.4480392,11.1575966 L9.24234542,11.1575966 L9.24234542,12.770342 C9.24234542,13.1803281 8.90998605,13.5126874 8.5,13.5126874 C8.09001395,13.5126874 7.75765458,13.1803281 7.75765458,12.770342 L7.75765458,11.1575966 L5.55196077,11.1575966 C5.28674629,11.1575966 5.041678,11.0161064 4.90907075,10.7864239 C4.77646351,10.5567414 4.77646351,10.2737609 4.90907075,10.0440785 C5.041678,9.81439598 5.28674629,9.67290575 5.55196077,9.67290576 L7.75765458,9.67290576 L7.75765458,8.73012708 L5.55196077,8.73012708 C5.14197472,8.73012708 4.80961535,8.39776772 4.80961535,7.98778166 C4.80961535,7.57779561 5.14197472,7.24543625 5.55196077,7.24543625 L7.11459787,7.24543625 L5.38307719,4.6416597 C5.23060477,4.42089098 5.20912448,4.13502839 5.32689302,3.89395321 C5.44466155,3.65287804 5.68334943,3.49411118 5.95120863,3.47868021 C6.21906783,3.46324925 6.4744088,3.59355587 6.6190823,3.81951215 L8.46473859,6.59402814 L10.3103949,3.81951215 C10.4550684,3.59355587 10.7104094,3.46324925 10.9782686,3.47868021 C11.2461278,3.49411118 11.4848156,3.65287804 11.6025842,3.89395321 C11.7203527,4.13502839 11.6988724,4.42089098 11.5464,4.6416597 L9.81487932,7.24543625 L11.4489672,7.24543625 C11.7141816,7.24543624 11.9592499,7.38692647 12.0918572,7.61660895 C12.2244644,7.84629142 12.2244644,8.1292719 12.0918572,8.35895438 C11.9592499,8.58863686 11.7141816,8.73012709 11.4489672,8.73012708 L9.24234542,8.73012708 L9.24234542,9.67290576 L11.4480392,9.67290576 Z" id="Shape" fill="#FFFFFF" fill-rule="nonzero"></path>
    </g>
</svg>