<?xml version="1.0" encoding="UTF-8"?>
<svg width="16px" height="17px" viewBox="0 0 16 17" version="1.1" xmlns="http://www.w3.org/2000/svg" xmlns:xlink="http://www.w3.org/1999/xlink">
    <!-- Generator: Sketch 52.1 (67048) - http://www.bohemiancoding.com/sketch -->
    <title>画板 copy 3</title>
    <desc>Created with Sketch.</desc>
    <g id="画板-copy-3" stroke="none" stroke-width="1" fill="none" fill-rule="evenodd">
        <g id="Group">
            <g id="还款单" fill="#4B505F">
                <path d="M12.186758,0.00814249364 L3.81595611,0.00814249364 C1.71433871,0.00814249364 0.0108566514,1.81052147 0.0108566514,4.03373346 L0.0108566514,12.8899872 C0.0108566514,15.1131992 1.71433871,16.9155782 3.81595611,16.9155782 L12.1869897,16.9155782 C14.2883755,16.9155782 15.9918575,15.1131992 15.9918575,12.8899872 L15.9918575,4.03373346 L12.186758,0.00814249364 Z" id="Path"></path>
            </g>
            <path d="M11.0166709,3.81092586 L3.42639027,3.81092586 C3.22487132,3.81111003 3.03168263,3.89135566 2.88933926,4.03400308 C2.7469959,4.17665051 2.66716269,4.37000999 2.66740853,4.57152888 C2.66716269,4.77304776 2.74699591,4.96640723 2.88933927,5.10905465 C3.03168264,5.25170208 3.22487132,5.3319477 3.42639027,5.33213187 L11.0166709,5.33213187 C11.2181898,5.3319477 11.4113785,5.25170207 11.5537218,5.10905465 C11.6960652,4.96640723 11.7758984,4.77304776 11.7756526,4.57152888 C11.7758984,4.37000999 11.6960652,4.17665052 11.5537219,4.03400309 C11.4113785,3.89135566 11.2181898,3.81111003 11.0166709,3.81092586 Z" id="Shape" fill="#FFFFFF" fill-rule="nonzero"></path>
            <g id="箭头" transform="translate(10.088139, 11.171980) rotate(-270.000000) translate(-10.088139, -11.171980) translate(6.794021, 8.348451)" fill="#FFFFFF" fill-rule="nonzero">
                <path d="M6.04471872,3.31467886 C6.14279978,3.2165978 6.39142529,2.93003253 6.39142529,2.74331871 C6.39142529,2.55660489 6.12435521,2.33302271 6.04471872,2.25338622 L3.96262232,0.194418763 C3.78490477,0.0167012083 3.37468085,-0.0741573896 3.19696329,0.103560165 C3.01924574,0.281277719 2.9988895,0.660222837 3.17660706,0.837940391 L4.47319908,2.25338622 L0.455114515,2.25338622 C0.203662308,2.25338622 7.28171574e-06,2.54027446 7.28171574e-06,2.79171939 C7.28171574e-06,3.04316431 0.203669589,3.31467886 0.455114515,3.31467886 L4.47319908,3.31467886 L3.19696329,4.60300474 C3.02003404,4.77297815 3.11970396,5.12282039 3.27739218,5.28918281 C3.44948711,5.47074442 3.76403307,5.55166468 3.96262232,5.38902729 L6.04471872,3.31467886 Z" id="Shape"></path>
            </g>
        </g>
    </g>
</svg>