<?xml version="1.0" encoding="UTF-8"?>
<svg width="20px" height="20px" viewBox="0 0 20 20" version="1.1" xmlns="http://www.w3.org/2000/svg" xmlns:xlink="http://www.w3.org/1999/xlink">
    <!-- Generator: Sketch 52.1 (67048) - http://www.bohemiancoding.com/sketch -->
    <title>画板 copy 8</title>
    <desc>Created with Sketch.</desc>
    <g id="画板-copy-8" stroke="none" stroke-width="1" fill="none" fill-rule="evenodd">
        <rect id="Rectangle-18" fill="#F4F4F5" x="0" y="0" width="20" height="20" rx="4"></rect>
        <path d="M14.963125,8.99189507 C14.92375,8.77377008 14.714375,8.55127007 14.495625,8.50314508 L14.333125,8.46564508 C13.5078697,8.21789597 13.0203873,7.36809563 13.223125,6.53064507 L13.274375,6.37689508 C13.34,6.16439508 13.255625,5.87189507 13.084375,5.72627008 C13.084375,5.72627008 12.93125,5.59627008 12.500625,5.34752008 C12.069375,5.09939509 11.88375,5.03064508 11.88375,5.03064508 C11.674375,4.95377008 11.380625,5.02689508 11.2275,5.19002007 L11.113125,5.31252007 C10.8135319,5.59757389 10.4154079,5.75588306 10.001875,5.75439508 C9.570625,5.75439508 9.176875,5.58564508 8.886875,5.30877007 L8.776875,5.19064507 C8.62625,5.02814508 8.330625,4.95564508 8.120625,5.03127008 C8.120625,5.03127008 7.9325,5.10002008 7.500625,5.34814508 C7.069375,5.59939508 6.918125,5.72939509 6.918125,5.72939508 C6.7475,5.87252007 6.663125,6.16252008 6.728125,6.37752008 L6.775,6.53189507 C6.866875,6.92377008 6.81875,7.34814507 6.6025,7.72314507 C6.39572934,8.08386276 6.05761655,8.35077034 5.65875,8.46814508 L5.5025,8.50377008 C5.28750001,8.55314508 5.075625,8.77314508 5.035625,8.99252007 C5.035625,8.99252007 5,9.18877007 5,9.68752007 C5,10.1875201 5.035625,10.3831451 5.035625,10.3831451 C5.074375,10.6037701 5.28375,10.8237701 5.5025,10.8718951 L5.655625,10.9075201 C6.05534694,11.0246177 6.39395208,11.2924093 6.6,11.6543951 C6.815,12.0293951 6.866875,12.4568951 6.773125,12.8468951 L6.728125,12.9981451 C6.663125,13.2106451 6.7475,13.5031451 6.918125,13.6487701 C6.918125,13.6487701 7.071875,13.7787701 7.501875,14.0275201 C7.933125,14.2768951 8.11875,14.3443951 8.11875,14.3443951 C8.328125,14.4212701 8.6225,14.3481451 8.775625,14.1850201 L8.88375,14.0687701 C9.5093873,13.4730879 10.4925298,13.473638 11.1175,14.0700201 L11.225,14.1862701 C11.37625,14.3487701 11.671875,14.4212701 11.8825,14.3456451 C11.8825,14.3456451 12.07,14.2768951 12.50125,14.0287701 C12.9325,13.7800201 13.08375,13.6500201 13.08375,13.6500201 C13.254375,13.5062701 13.339375,13.2143951 13.27375,13.0000201 L13.226875,12.8425201 C13.130475,12.4393221 13.1924413,12.0145057 13.4,11.6556451 C13.615,11.2806451 13.960625,11.0237701 14.34375,10.9087701 L14.4975,10.8731451 C14.7125,10.8237701 14.924375,10.6037701 14.964375,10.3843951 C14.964375,10.3843951 15,10.1881451 15,9.68877008 C14.9975,9.19002008 14.9625,8.99252008 14.9625,8.99252007 L14.963125,8.99189507 Z M8.175,9.70002008 C8.175,8.70502008 8.97375,7.89814508 9.960625,7.89814508 C10.945625,7.89814508 11.74625,8.70502008 11.74625,9.70252008 C11.744375,10.6975201 10.94625,11.5043951 9.960625,11.5043951 C8.975625,11.5043951 8.175,10.6975201 8.175,9.70002008 Z" id="Shape" fill="#666666" fill-rule="nonzero"></path>
    </g>
</svg>