<?xml version="1.0" encoding="UTF-8"?>
<svg width="16px" height="15px" viewBox="0 0 16 15" version="1.1" xmlns="http://www.w3.org/2000/svg" xmlns:xlink="http://www.w3.org/1999/xlink">
    <!-- Generator: Sketch 52.1 (67048) - http://www.bohemiancoding.com/sketch -->
    <title>画板</title>
    <desc>Created with Sketch.</desc>
    <g id="画板" stroke="none" stroke-width="1" fill="none" fill-rule="evenodd">
        <g id="钱包" transform="translate(-1.000000, 0.000000)" fill="#4B505F" fill-rule="nonzero">
            <path d="M16.5206648,2.59463778 L13,2.59166667 C10.5111111,2.59166667 8.55555556,4.54722223 8.55555556,7.0361111 C8.55555556,9.52499998 10.5111111,11.4805555 13,11.4805556 L16.5206648,11.4835267 C16.7873314,11.4835267 16.9651092,11.6613044 16.9651092,11.9279711 L16.9651092,13.3501933 C16.9651092,13.8835267 16.5206648,14.2390822 16.0762203,14.2390822 L3.46832479,14.2390822 C3.01632215,14.2440989 2.69697245,14.2440989 2.5102757,14.2390822 C1.96895006,14.2245365 1.57413184,14.1676983 1.32294647,13.9530796 C1.05755303,13.7263211 1.00018313,13.3263581 1,12.7607799 C0.999946758,12.5963473 0.999946758,12.3187444 1,11.9279711 L1,2.15019334 C1,1.84486785 0.93844579,1.08974419 1.48465408,0.532231272 C1.72215141,0.289818571 2.07367361,0.0404201541 2.59313089,0.0168600098 C2.77779224,0.00848463752 3.09972761,0.00848463752 3.558937,0.0168600098 L16.0762203,0.0168600098 C16.5206648,0.0168600098 16.9651092,0.372415572 16.9651092,0.905748885 L16.9651092,2.15019334 C16.9651092,2.41686001 16.7873314,2.59463778 16.5206648,2.59463778 Z" id="Shape"></path>
            <path d="M11.6666667,7.0361111 C11.6666667,7.56944444 12.0222222,7.925 12.5555556,7.925 C13.0888889,7.925 13.4444445,7.56944444 13.4444444,7.0361111 C13.4444444,6.50277777 13.0888889,6.14722221 12.5555556,6.14722223 C12.0222223,6.14722225 11.6666667,6.59166667 11.6666667,7.0361111 Z M17,9.70277777 C17,9.96944444 16.8222222,10.1472222 16.5555556,10.1472222 L13,10.1472222 C11.3111111,10.1472222 9.8888889,8.725 9.8888889,7.0361111 C9.8888889,6.14722221 10.2444445,5.4361111 10.7777778,4.8138889 C11.3111111,4.28055556 12.1111111,3.925 13,3.925 L16.5555556,3.925 C16.8222222,3.925 17,4.10277777 17,4.36944444 L17,9.70277777 Z" id="Shape"></path>
        </g>
    </g>
</svg>