<?xml version="1.0" encoding="UTF-8"?>
<svg width="18px" height="9px" viewBox="0 0 18 9" version="1.1" xmlns="http://www.w3.org/2000/svg" xmlns:xlink="http://www.w3.org/1999/xlink">
    <!-- Generator: Sketch 49.3 (51167) - http://www.bohemiancoding.com/sketch -->
    <title>闭眼睛</title>
    <desc>Created with Sketch.</desc>
    <defs></defs>
    <g id="闭眼睛" stroke="none" stroke-width="1" fill="none" fill-rule="evenodd">
        <g id="眼睛-闭" fill="#F88F5B" fill-rule="nonzero">
            <path d="M3.97443954,7.73137807 C3.80347483,7.73137807 3.62828877,7.68705018 3.4720988,7.59206184 C3.00986088,7.3134294 2.8621136,6.71394749 3.14072276,6.25378181 L4.21716722,4.47222287 C4.49577638,4.00994633 5.09520819,3.86429754 5.55533542,4.14081914 C6.01757333,4.41945158 6.16532061,5.01893349 5.88671146,5.47909919 L4.81026701,7.26065811 C4.62663826,7.56250992 4.3058156,7.73137807 3.97443954,7.73137807 Z M14.0275865,7.73137807 C13.6983211,7.73137807 13.3753878,7.56462079 13.191759,7.26065811 L12.1153146,5.47909919 C11.8367054,5.01682265 11.9844527,4.41945158 12.4445799,4.14081914 C12.9068179,3.8621867 13.504139,4.00994633 13.7827482,4.47011203 L14.8591926,6.25167094 C15.1378018,6.71394749 14.9900545,7.31131856 14.5299273,7.589951 C14.3737373,7.68493934 14.1985512,7.73137807 14.0275865,7.73137807 Z M9.02739647,9 C8.48917425,9 8.05226443,8.56305367 8.05226443,8.02478646 L8.05226443,5.78517271 C8.05226443,5.24690551 8.48917425,4.80995918 9.02739647,4.80995918 C9.56561869,4.80995918 10.0025285,5.24690551 10.0025285,5.78517271 L10.0025285,8.02478646 C10.0025285,8.56305367 9.56561869,9 9.02739647,9 Z" id="Shape"></path>
            <path d="M9.00154491,6 C5.3568647,6 1.95850307,4.2084965 0.129900627,1.3249382 C-0.137292416,0.903744284 0.0213534551,0.36629324 0.480591503,0.122343815 C0.94191701,-0.121605591 1.53266415,0.0232393707 1.79776976,0.442527417 C3.28194366,2.78291711 6.04154688,4.23708431 8.99945747,4.23708431 C11.9573681,4.23708431 14.7169713,2.78291711 16.2011452,0.440621569 C16.4683382,0.0194276563 17.0569979,-0.125417305 17.5183234,0.118532101 C17.9796489,0.362481507 18.1362074,0.89993257 17.8711018,1.32112648 C16.0445867,4.2084965 12.6462251,6 9.00154491,6 Z" id="Shape"></path>
        </g>
    </g>
</svg>