<?xml version="1.0" encoding="UTF-8"?>
<svg width="20px" height="19px" viewBox="0 0 20 19" version="1.1" xmlns="http://www.w3.org/2000/svg" xmlns:xlink="http://www.w3.org/1999/xlink">
    <!-- Generator: Sketch 46.2 (44496) - http://www.bohemiancoding.com/sketch -->
    <title>Shape</title>
    <desc>Created with Sketch.</desc>
    <defs></defs>
    <g id="Page-1" stroke="none" stroke-width="1" fill="none" fill-rule="evenodd">
        <g id="常见问题" transform="translate(-335.000000, -637.000000)" stroke="#F5A623" fill-rule="nonzero" fill="#F5A623">
            <g id="在线客服" transform="translate(330.000000, 631.000000)">
                <path d="M23.2771739,12.8206522 C22.1684783,9.49456521 19.0271739,7 15.3315217,7 C11.6358696,7 8.49456521,9.40217392 7.38586956,12.7282609 C6.55434783,12.8206522 6,13.5597826 6,14.3913043 L6,18.1793478 C6,19.0108696 6.64673912,19.75 7.47826089,19.8423913 C8.03260871,21.6902174 10.25,23.076087 13.1141304,23.3532609 C13.3913043,23.7228261 13.9456522,24 14.6847826,24 C15.6086957,24 16.3478261,23.5380435 16.3478261,22.9836956 C16.3478261,22.4293478 15.6086957,21.9673913 14.6847826,21.9673913 C13.9456522,21.9673913 13.2989131,22.2445652 13.1141304,22.6141304 C10.7119565,22.4293478 8.86413045,21.1358696 8.49456521,19.5652174 C9.04891304,19.2880435 9.41847825,18.7336957 9.41847828,18.0869565 L9.41847828,14.2989131 C9.41847828,13.6521739 9.04891307,13.0978261 8.58695654,12.8206522 C9.60326089,10.048913 12.2826087,8.01630436 15.423913,8.01630436 C18.5652174,8.01630436 21.2445652,9.95652175 22.1684783,12.8206522 C21.6141304,13.0978261 21.1521739,13.6521739 21.1521739,14.3913043 L21.1521739,18.1793478 C21.1521739,19.1032609 21.8913043,19.8423913 22.8152174,19.8423913 C23.7391304,19.8423913 24.4782609,19.1032609 24.4782609,18.1793478 L24.4782609,14.3913043 C24.4782609,13.6521739 23.923913,13.0054348 23.2771739,12.8206522 L23.2771739,12.8206522 Z" id="Shape"></path>
            </g>
        </g>
    </g>
</svg>