<?xml version="1.0" encoding="UTF-8"?>
<svg width="20px" height="20px" viewBox="0 0 20 20" version="1.1" xmlns="http://www.w3.org/2000/svg" xmlns:xlink="http://www.w3.org/1999/xlink">
    <!-- Generator: Sketch 46.2 (44496) - http://www.bohemiancoding.com/sketch -->
    <title>有用交互</title>
    <desc>Created with Sketch.</desc>
    <defs></defs>
    <g id="Page-1" stroke="none" stroke-width="1" fill="none" fill-rule="evenodd">
        <g id="问题详情页" transform="translate(-87.000000, -480.000000)" fill-rule="nonzero" fill="#F5A623">
            <g id="有用交互" transform="translate(87.000000, 480.000000)">
                <path d="M2.92833721,17.0727778 C1.03908753,15.1827778 -0.000555430365,12.6722222 2.22617539e-07,10 C2.22617539e-07,7.32833334 1.04075451,4.81722223 2.93000419,2.92833334 C4.8186982,1.04 7.33028891,0 10.0019102,0 C12.6746428,0 15.1856779,1.04 17.0754832,2.92833334 C20.9751168,6.82833334 20.9745611,13.1722222 17.0754832,17.0711111 C15.1851222,18.9588889 12.6724202,20 9.99968756,20 C7.32806627,20 4.81647555,18.96 2.92833721,17.0727778 Z M3.85129123,3.84944445 C2.20819969,5.49111111 1.3035825,7.67611111 1.3035825,10 C1.3035825,12.3238889 2.20764402,14.5083333 3.85017991,16.1511111 C5.49271579,17.7922222 7.6770218,18.6977778 10.0002432,18.6977778 C12.324576,18.6977778 14.5099933,17.7922222 16.1536405,16.1488889 C19.5448436,12.7588889 19.5448436,7.24111111 16.1536405,3.84944443 C14.5099933,2.20777777 12.3256873,1.30333334 10.0013545,1.30333334 C7.67757745,1.30333334 5.49382712,2.20777779 3.85129123,3.84944445 Z M9.99968754,14.6022222 C12.3801421,14.6022222 13.9409957,12.7294445 13.9409957,12.7294445 C13.9409957,12.7294445 14.8256091,12.7266667 14.8256091,13.6655556 C14.8256091,13.6655556 13.2914272,15.8505556 9.99968754,15.8505556 C6.70794784,15.8505556 5.63663214,13.6655556 5.63663214,13.6655556 C5.63663214,13.6655556 5.60440378,12.7294445 6.44734252,12.7294445 C6.44734252,12.7294445 7.61923297,14.6022222 9.99968754,14.6022222 Z M7.09357704,6.78444445 C6.41900377,6.78444445 5.86889872,7.33277779 5.86889872,8.00944445 C5.86889872,8.685 6.41900377,9.23333334 7.09357704,9.23333334 C7.77092862,9.23333334 8.31825536,8.68444445 8.31825536,8.00944445 C8.31825536,7.33277777 7.77092862,6.78444445 7.09357704,6.78444445 L7.09357704,6.78444445 L7.09357704,6.78444445 Z M13.3692199,6.78444445 C12.6935353,6.78444445 12.1450973,7.33277779 12.1450973,8.00944445 C12.1450973,8.685 12.6935353,9.23333334 13.3692199,9.23333334 C14.0460158,9.23333334 14.5944539,8.68444445 14.5944539,8.00944445 C14.5938982,7.33277777 14.0460158,6.78444445 13.3692199,6.78444445 L13.3692199,6.78444445 L13.3692199,6.78444445 Z" id="Shape"></path>
            </g>
        </g>
    </g>
</svg>