<?xml version="1.0" encoding="UTF-8"?>
<svg width="20px" height="20px" viewBox="0 0 20 20" version="1.1" xmlns="http://www.w3.org/2000/svg" xmlns:xlink="http://www.w3.org/1999/xlink">
    <!-- Generator: Sketch 46.2 (44496) - http://www.bohemiancoding.com/sketch -->
    <title>无用</title>
    <desc>Created with Sketch.</desc>
    <defs></defs>
    <g id="Page-1" stroke="none" stroke-width="1" fill="none" fill-rule="evenodd">
        <g id="问题详情页" transform="translate(-257.000000, -445.000000)" fill-rule="nonzero" fill="#999999">
            <g id="无用" transform="translate(257.000000, 445.000000)">
                <path d="M9.99968756,20 C7.32806627,20 4.81647555,18.96 2.92833721,17.0727778 C1.03908753,15.1827778 -0.000555430365,12.6722222 2.22617539e-07,10 C2.22617539e-07,7.32833334 1.04075451,4.81722223 2.93000419,2.92833334 C4.8186982,1.04 7.33028891,0 10.0019102,0 C12.6746428,0 15.1856779,1.04 17.0754832,2.92833334 C20.9751168,6.82833334 20.9745611,13.1722222 17.0754832,17.0711111 C15.1851222,18.9588889 12.6724202,20 9.99968756,20 L9.99968756,20 L9.99968756,20 Z M10.0013545,1.30333334 C7.67757745,1.30333334 5.49382712,2.20777779 3.85129123,3.84944445 C2.20819969,5.49111111 1.3035825,7.67611111 1.3035825,10 C1.3035825,12.3238889 2.20764402,14.5083333 3.85017991,16.1511111 C5.49271579,17.7922222 7.6770218,18.6977778 10.0002432,18.6977778 C12.324576,18.6977778 14.5099933,17.7922222 16.1536405,16.1488889 C19.5448436,12.7588889 19.5448436,7.24111111 16.1536405,3.84944443 C14.5099933,2.20777777 12.3256873,1.30333334 10.0013545,1.30333334 L10.0013545,1.30333334 L10.0013545,1.30333334 Z M6.44734252,15.8505555 C5.60440378,15.8505555 5.63663216,14.9144444 5.63663216,14.9144444 C5.63663216,14.9144444 6.70794786,12.7294444 9.99968756,12.7294444 C13.2914273,12.7294444 14.8256091,14.9144444 14.8256091,14.9144444 C14.8256091,15.8533333 13.9409957,15.8505555 13.9409957,15.8505555 C13.9409957,15.8505555 12.3801421,13.9777778 9.99968756,13.9777778 C7.61923299,13.9777778 6.44734252,15.8505555 6.44734252,15.8505555 L6.44734252,15.8505555 Z" id="Shape"></path>
                <polygon id="Shape" points="3.40565075 10 3.00851016 9.17465389 5.7096335 8.02822151 3 6.81735889 3.41416089 6 8 8.04952077"></polygon>
                <polygon id="Shape" points="16.5943493 10 12 8.04952077 16.5858391 6 17 6.81735889 14.2903665 8.02822151 16.9920572 9.17465389"></polygon>
            </g>
        </g>
    </g>
</svg>