<svg xmlns="http://www.w3.org/2000/svg" viewBox="0 0 44.96 39.11"><defs><style>.cls-1{fill:#7dcdb4;}</style></defs><title>资源 2</title><g id="图层_2" data-name="图层 2"><g id="图层_1-2" data-name="图层 1"><path class="cls-1" d="M39,22.61c0-.82.21-1.72-1.5-3-6-4.5-8.49-7.25-13.39-11.49a2.14,2.14,0,0,0-3,0c-4.89,4.23-9,7-13.54,11.48C6,21.11,6,21.76,6,22.61c0,3.76,0,2.14,0,13.49,0,1.51,0,3,3,3h7.42c0-.17,12.25,0,12.25,0H36a3.44,3.44,0,0,0,3-3C39,24.72,39,26.4,39,22.61Zm-14.57,3c.73,0,1.47,0,2.2,0,.23,0,.3.07.29.28,0,.4,0,.8,0,1.23H23.19v1.95h3.66v1.5H23.18c0,.13,0,.23,0,.33,0,.77,0,1.55,0,2.32,0,.22-.07.29-.3.28-.47,0-.94,0-1.4,0-.23,0-.3-.06-.3-.28,0-.77,0-1.55,0-2.32v-.31H17.33v-1.5h3.83v-2H17.31c0-.48,0-.93,0-1.38,0,0,.17-.13.26-.13h3l-4-6.53.33,0c.51,0,1,0,1.54,0a.48.48,0,0,1,.51.28q1.6,2.91,3.22,5.81l0,0q1.67-2.93,3.32-5.86a.43.43,0,0,1,.45-.25c.49,0,1,0,1.48,0l.32,0-4,6.53Z"/><path class="cls-1" d="M44.94,18.67a2.73,2.73,0,0,0-.13-.55l-.21-.54c-.15-.37-.13-.32-.16-.36s-.29-.27-.33-.33l-.38-.33c-6.2-5.24-11.62-10-17.84-15.26a4.86,4.86,0,0,0-6.62,0l-8.8,7.4L.55,17.06l-.05.07a2.7,2.7,0,0,0,.2,3.34c.92,1,1.91.59,2.75.22a4.22,4.22,0,0,0,.6-.34,2.85,2.85,0,0,0,.41-.28c1.84-1.5,3.65-3.06,5.47-4.59L21.06,6.1a2.17,2.17,0,0,1,2.86-.16c.14.1.27.21.4.32,5.37,4.52,10.23,8.92,15.63,13.4l.29.24c.91.76,3.54,1.74,4.17.68A3.21,3.21,0,0,0,44.94,18.67Z"/></g></g></svg>