<?xml version="1.0" encoding="UTF-8"?>
<svg width="21px" height="21px" viewBox="0 0 21 21" version="1.1" xmlns="http://www.w3.org/2000/svg" xmlns:xlink="http://www.w3.org/1999/xlink">
    <!-- Generator: Sketch 48.1 (47250) - http://www.bohemiancoding.com/sketch -->
    <title>Artboard Copy 12</title>
    <desc>Created with Sketch.</desc>
    <defs></defs>
    <g id="图标" stroke="none" stroke-width="1" fill="none" fill-rule="evenodd">
        <g id="Artboard-Copy-12" fill="#CAA668" fill-rule="nonzero">
            <g id="Group-2">
                <path d="M0.0198340143,10.0343681 C0.115803707,5.17379013 4.08771098,0.794335393 8.90167497,0.115828311 C10.4433818,-0.121649164 12.0191423,0.0202205036 13.5206038,0.411904114 C13.2357905,0.698727561 12.9478814,0.985551007 12.6630681,1.27237445 C8.03175607,0.125080668 2.88035023,3.0704182 1.53058284,7.62566797 C-0.172105396,12.3073668 2.75651838,17.9297231 7.48999165,19.4101022 C11.5392938,20.9398272 16.4461317,19.0646804 18.6255727,15.3853216 C19.9165199,13.315875 20.2849198,10.7714735 19.8019755,8.39669873 C20.0929803,8.10370703 20.3839853,7.80763123 20.6811817,7.51463954 C21.226042,10.2625932 21.1857966,13.3004544 19.656473,15.7492481 C17.3284338,19.9251507 11.9231726,22.0346909 7.37235137,20.4987976 C2.9267872,19.1880453 -0.28355406,14.6543844 0.0198340143,10.0343681 Z" id="Shape"></path>
                <path d="M6.52262774,5.13217258 C7.75650185,4.21211662 9.34061625,3.92359734 10.85404,4.01656468 C10.9054514,4.30508396 11.005061,4.88212254 11.0564724,5.17384761 C9.15424987,4.86288792 7.06244766,5.55853999 5.97959459,7.20309995 C4.41797268,9.34134846 5.02848331,12.6817607 7.29379904,14.0826821 C9.30527088,15.4836036 12.3192655,15.0187669 13.8198363,13.0824819 C14.7998665,11.9540509 15.0376443,10.4024583 14.8384251,8.96306762 C15.2207975,9.03038878 15.6063832,9.09129842 15.9919688,9.16182534 C16.0369538,10.5210718 15.9116385,11.9508451 15.1340408,13.1177454 C13.8969535,15.1822612 11.336022,16.3683961 8.9582438,15.8971479 C6.72506021,15.5220728 4.7971319,13.7845455 4.22517984,11.5950047 C3.52469922,9.24196958 4.50472944,6.52347673 6.52262774,5.13217258 Z" id="Shape"></path>
                <path d="M12.6322433,3.79892453 C13.8395315,2.48132286 15.1428905,1.25027896 16.4142259,0 C16.5647367,1.36248348 16.8113181,2.71214358 16.9970547,4.07142122 C18.3356396,4.2317134 19.6646174,4.44329906 21,4.63564967 C19.7574858,5.91798707 18.4509245,7.14261926 17.2340291,8.45060338 C16.1164068,8.37366313 15.0179986,8.15887162 13.906781,8.02422621 C13.115799,8.91865655 12.1999252,9.69126482 11.4153479,10.588901 C11.0823029,11.0761892 11.0182557,11.9449728 10.2753091,11.9770312 C9.48432712,12.1597643 8.68053572,11.2140405 9.12886558,10.4927257 C9.24415041,9.9413206 9.84939572,9.94773229 10.2753091,9.79064596 C11.2232065,8.89942149 12.135878,7.97293272 13.0325378,7.03362057 C12.9044435,5.95966302 12.5297679,4.88249962 12.6322433,3.79892453 Z M13.4904747,4.08745043 C13.6217713,5.09408527 13.7434609,6.10392597 13.9259952,7.10414913 C14.886702,7.21635365 15.8506112,7.32855819 16.8113181,7.43755684 C17.5958954,6.72265376 18.3708656,5.99813312 19.1394311,5.26399497 C18.1338912,5.17102552 17.1315537,5.03317423 16.1356209,4.86647039 C15.9787055,3.92074656 15.8057782,2.98143444 15.6296487,2.03891644 C14.9219279,2.72817278 14.2142072,3.41422329 13.4904747,4.08745043 Z" id="Shape"></path>
            </g>
        </g>
    </g>
</svg>