<?xml version="1.0" encoding="UTF-8"?>
<svg width="29px" height="29px" viewBox="0 0 29 29" version="1.1" xmlns="http://www.w3.org/2000/svg" xmlns:xlink="http://www.w3.org/1999/xlink">
    <!-- Generator: Sketch 49.3 (51167) - http://www.bohemiancoding.com/sketch -->
    <title>加载</title>
    <desc>Created with Sketch.</desc>
    <defs></defs>
    <g id="加载" stroke="none" stroke-width="1" fill="none" fill-rule="evenodd">
        <path d="M7.96470485,10.3195442 C8.03149507,10.3862988 8.10335631,10.4480219 8.20829416,10.5447794 C8.61343638,10.1317218 8.98835724,9.73567746 9.38001352,9.35696877 C9.53421593,9.20787361 9.55001039,9.12051777 9.38621021,8.9579733 C7.74517089,7.32960989 6.11312223,5.69225606 4.47812801,4.05779693 C4.42254583,4.00224203 4.36283281,3.95085575 4.27484331,3.86963593 C3.88327731,4.26681721 3.51011829,4.66344214 3.11542453,5.03728874 C2.94181368,5.20171996 2.92939133,5.2951796 3.10840862,5.47257632 C4.7328939,7.08247521 6.34702261,8.7027836 7.96470485,10.3195442 Z M19.9774868,19.5527934 C19.8662313,19.4410547 19.795736,19.4694853 19.7013684,19.5653397 C19.3298793,19.9427421 18.9533788,20.315218 18.5805536,20.6913142 C18.5436203,20.728582 18.5190788,20.7781218 18.4843935,20.828355 C18.5541898,20.9022535 18.6128392,20.9675164 18.6748301,21.0295057 C19.5995889,21.9545473 20.524834,22.879097 21.4498653,23.8038644 C22.1592815,24.5131046 22.8665415,25.2245379 23.5817891,25.9278356 C23.6370068,25.9821408 23.7929098,26.0277538 23.8261678,25.9965334 C24.2640818,25.5858464 24.6883285,25.1606377 25.1172826,24.7378318 C25.0806226,24.6757216 25.0750033,24.6595631 25.0641299,24.6486618 C23.3681777,22.9504395 21.6710095,21.2534105 19.9774868,19.5527934 Z M20.0030911,9.96507326 C20.1532538,10.1252552 20.2431873,10.1306897 20.4032816,9.96945151 C22.0103033,8.35071545 23.6256472,6.7402441 25.2385608,5.12736992 C25.2726388,5.09329517 25.3239692,5.06380028 25.3356627,5.02310572 C25.352003,4.9662204 25.3650938,4.87516357 25.3339008,4.84291109 C24.9272709,4.42243543 24.5125914,4.00974878 24.0874642,3.58262105 C24.0292703,3.62250125 23.999748,3.63674881 23.9778496,3.65861599 C22.3073186,5.32746434 20.6380932,6.99758668 18.9658617,8.66475791 C18.8541813,8.77610155 18.8870748,8.84799233 18.9830527,8.94199219 C19.3271458,9.2789742 19.6738805,9.61391626 20.0030911,9.96507326 Z M8.99601176,19.0349234 C8.84533222,18.8740722 8.75509465,18.870734 8.59566803,19.0313111 C6.98852535,20.6498294 5.3731815,22.2602363 3.76020744,23.8729895 C3.72612937,23.9070643 3.67473851,23.9365914 3.66313618,23.9772538 C3.64691679,24.0341391 3.63419044,24.1250749 3.66547454,24.1574565 C4.07201416,24.5779563 4.4866324,24.9906752 4.91157658,25.4177384 C4.97016638,25.3773744 4.99959754,25.3630382 5.02149595,25.341171 C6.69202688,23.6724113 8.36128222,22.0023535 10.0335137,20.3352952 C10.145407,20.2237741 10.1117232,20.1518511 10.0159582,20.0580286 C9.67192639,19.7209982 9.32506998,19.3862013 8.99601176,19.0349234 Z M15.4643104,3.33257563 C15.4642806,2.30497116 15.460848,1.27733444 15.467439,0.24976222 C15.4686235,0.0664390878 15.4212417,-0.00517753862 15.2239408,0.00028925511 C14.7345754,0.0138594989 14.2444812,0.0106745637 13.7549327,0.00153098914 C13.5866679,-0.00159751286 13.5319058,0.0541992921 13.5322404,0.221694503 C13.5363712,2.29297324 13.5366139,4.3642439 13.5321186,6.43549038 C13.5317235,6.61241139 13.6047096,6.6499452 13.7630122,6.64745369 C14.2365533,6.63995501 14.7107023,6.63345613 15.1838184,6.64976783 C15.4062383,6.65741973 15.4713876,6.58910897 15.4690492,6.36715542 C15.4583572,5.35574171 15.464341,4.34411028 15.4643104,3.33257563 Z M6.64668032,15.2452968 C6.63723411,14.7638962 6.63228321,14.2818103 6.64844215,13.8007725 C6.65576205,13.5829473 6.58195592,13.5301016 6.37451053,13.5320126 C5.35520107,13.5414303 4.33577065,13.5362941 3.31640071,13.5363263 C2.28898197,13.5363908 1.26156401,13.5398177 0.234205723,13.5330769 C0.0560697356,13.5318916 -0.00379487106,13.5858984 0.000184400122,13.7667865 C0.0109666867,14.2561695 0.00856703292,14.7460122 0.00118664737,15.2355162 C-0.00121297727,15.3932712 0.0342011669,15.466952 0.21233797,15.4665569 C2.28321185,15.461848 4.35408572,15.4621786 6.42495957,15.4662182 C6.59070304,15.4665246 6.65002095,15.4154125 6.64668032,15.2452968 Z M28.9996772,13.7887504 C29.0054481,13.5838262 28.9344368,13.5309805 28.7386235,13.5325609 C27.7193149,13.5406724 26.6998845,13.5363263 25.6805145,13.5363586 C24.6530958,13.5363908 23.625677,13.5402128 22.5983196,13.5328673 C22.4107374,13.5315288 22.3462565,13.5853179 22.3514501,13.7788489 C22.3644191,14.2600882 22.3615946,14.742029 22.3525128,15.2234296 C22.3493238,15.3926907 22.3867731,15.467589 22.5763599,15.4670729 C24.6472337,15.4615094 26.7181076,15.4623963 28.7889815,15.465799 C28.9440652,15.466065 29.0005884,15.4160495 28.9980371,15.2574156 C28.9901407,14.7679116 28.9858575,14.277948 28.9996772,13.7887504 Z M15.4642806,25.6571244 C15.4642499,24.6375428 15.4604537,23.617953 15.4677123,22.5984278 C15.4690484,22.4112505 15.4156538,22.3459231 15.2217234,22.351019 C14.7323274,22.3638958 14.2422637,22.3614366 13.7527161,22.3520269 C13.5815654,22.348713 13.532088,22.4102507 13.532392,22.5748915 C13.5363099,24.6461703 13.5361277,26.7174409 13.5327871,28.7886874 C13.5325436,28.9434913 13.5822943,29.0006508 13.7412049,28.9981028 C14.230813,28.9902332 14.7208774,28.9862258 15.2102428,28.9996832 C15.4131631,29.0052709 15.4697475,28.9376616 15.4681679,28.7399378 C15.459907,27.7123656 15.4643104,26.6847289 15.4642806,25.6571244 Z" id="Shape" fill="#FFFFFF" fill-rule="nonzero"></path>
    </g>
</svg>