<svg xmlns="http://www.w3.org/2000/svg" viewBox="0 0 2456.26 582.26"><defs><style>.cls-1{fill:#ff973a;}.cls-2{fill:#fff;}</style></defs><title>资源 1</title><g id="图层_2" data-name="图层 2"><g id="图层_1-2" data-name="图层 1"><path d="M762.11,90.38l18.07-17.57a159.47,159.47,0,0,1,19.87-13c16.42-8.54,36.3-11.33,56.66-11.33H981.53c19.87,0,39.75,2.79,56.17,11.33a143.35,143.35,0,0,1,19.87,13c6.24,5.09,12,11.33,18.07,17.57l73.09,76c3.45,4.6,5.75,8.54,5.09,13.63,0,5.75-2.3,9.69-6.24,13.63a18.29,18.29,0,0,1-26.11-.49L1047.72,116c-8.54-8.54-15.93-15.27-26.61-20.37A52.65,52.65,0,0,0,1004,89.4a99.08,99.08,0,0,0-22.67-2.3H856.55c-8.54,0-16.42.49-22.67,2.3-12.48,2.3-22.17,7.39-31.7,14.78-3.45,3.94-7.39,7.39-12,12L716,193.36c-6.24,7.39-18.72,7.88-25.46.49-4.6-3.94-6.24-7.88-6.24-13.63a19,19,0,0,1,5.09-13.63Z"/><path d="M1393.62,56.38a19.79,19.79,0,0,1,21-6.24,19.1,19.1,0,0,1,12.48,18.07V514.78a18.51,18.51,0,0,1-18.72,18.72h-.49a18.51,18.51,0,0,1-18.72-18.72V125.53l-48.78,62.41c-6.24,8.54-17.57,10.18-25.46,3.94a17.37,17.37,0,0,1-7.39-12.48c-.49-5.75.49-10.18,3.45-13.63Z"/><path d="M1794,139.32a18.93,18.93,0,0,0,18.72-18.72v-1.15A18.93,18.93,0,0,0,1794,100.73h-32.85V67.39c0-9.69-7.88-18.07-18.72-18.07a18.37,18.37,0,0,0-18.72,18.07v33.51H1557V67.39c0-9.69-7.88-18.07-18.72-18.07h-.49c-10.18,0-18.72,8.54-18.72,18.07v33.51h-32.36A18.93,18.93,0,0,0,1468,119.62v1.15a18.93,18.93,0,0,0,18.72,18.72h32.36v62.74h-32.36A18.93,18.93,0,0,0,1468,221v1.15a18.51,18.51,0,0,0,18.72,18.72H1794a18.51,18.51,0,0,0,18.72-18.72V221A18.93,18.93,0,0,0,1794,202.23h-32.85v-62.9Zm-70.3,62.9H1557v-62.9h166.7Z"/><path d="M1798.47,314.08c-9-22.17-30.55-37.45-55-37.45H1537.16c-25,0-46,15.27-55.51,37.45a54.78,54.78,0,0,0-5.09,23.32V471.75a55.38,55.38,0,0,0,5.09,23.81c9.69,22.17,30.55,37.45,55.51,37.45h206.45c24.31,0,46-15.27,55-37.45a55.9,55.9,0,0,0,5.75-23.81V337.4A58.3,58.3,0,0,0,1798.47,314.08Zm-32.85,157.67c0,6.24-2.3,12.48-6.73,16.42-4.6,3.45-9.69,5.75-15.27,5.75H1537.16a27,27,0,0,1-15.93-5.75c-3.94-3.94-6.24-10.18-6.24-16.42V422.48h250.63Zm0-87.38H1515V337.24c0-6.24,2.3-11.33,6.24-15.93a24.62,24.62,0,0,1,15.93-6.24h206.45c5.75,0,10.84,2.3,15.27,6.24a21.37,21.37,0,0,1,6.73,15.93v47.14Z"/><path d="M2387.6,493.1c9,0,15.93-3.45,22.17-9.69,5.75-6.73,7.88-13.63,7.88-23.32V66.73A18.93,18.93,0,0,1,2436.38,48h1.15c9.69,0,18.72,8.54,18.72,18.72V460.25c0,28.91-15.27,53.38-41.39,65.2a64.38,64.38,0,0,1-27.26,6.24h-55.51A18.93,18.93,0,0,1,2313.37,513v-1.15a18.51,18.51,0,0,1,18.72-18.72Z"/><path d="M2355.25,418.21a18.51,18.51,0,0,1-18.72,18.72h-1.15a18.93,18.93,0,0,1-18.72-18.72V96.13a18.51,18.51,0,0,1,18.72-18.72h1.15c10.84,0,18.72,7.88,18.72,18.72Z"/><path d="M1100.12,290.43c11.17,0,20.69,1.64,28.25,4.76,7.72,3.28,13.14,7.72,16.59,13.8,3.45,5.91,4.43,13,3.28,21s-4.76,16.92-11,26.44q-26.11,39.66-55.84,68.16a341,341,0,0,1-65.7,48.78,440.87,440.87,0,0,1-78.84,34.33,802,802,0,0,1-93.78,24.14c-11.83,2.63-20.2,3.12-25,1.31s-8.21-5.75-10.18-11.5c-2.46-8-1.31-14.62,3.28-19.38s13.3-8.54,26.28-11.17q94.85-19.22,161.61-56.33c44.51-24.8,78-55,100.52-91q3-5.17.49-9.36c-1.64-2.79-5.75-4.27-12.32-4.27H708.4c-7.88,0-13.47-1.81-17.08-5.58-3.61-3.94-5.42-8.87-5.42-14.95,0-12.81,7.56-19.38,22.5-19.38h391.72Z"/><path d="M1012.55,196.48H824.82c-14.29,0-21.35,6.73-21.35,20.37,0,13.14,7.06,19.87,21.35,19.87h187.56c6.73,0,12.32-1.64,16.26-5.09,4.11-3.45,6.08-8.38,6.08-14.78,0-6.73-2-11.83-6.08-15.27C1024.7,198.29,1019.28,196.48,1012.55,196.48Z"/><path d="M2110.53,86.44c-8.21,14.95-54.2,132.71-52.56,135,1.48,2.14,6.57,3,15.11,2.3q33.75-3,66-6.41,32.27-3.2,64.05-5.91-5.67-11.09-12.32-22.17-6.65-10.84-13.8-22.67c-5.42-8.54-8-15.11-7.72-19.87s3.28-9,8.7-12.65c11.5-7.72,22.5-3.28,32.68,13.8,11.83,19.38,23,38.6,33.34,58s20.53,40.57,30.38,64.05c3.12,7.72,4.43,14.62,4.11,20.53s-3.78,10.35-10.18,13.47c-7.06,3.78-13.14,4.11-17.9,1.31s-9-9.36-12.81-19.54c-2.79-6.73-5.42-13.3-8.21-19.87-2.79-6.41-5.42-12.65-8.21-18.72l-72.43,7.06v85.24h86.72c6.73,0,12.32,1.64,16.59,4.76,4.27,3.28,6.41,8,6.41,14.45,0,6.08-2.14,11-6.41,14.45-4.27,3.61-9.85,5.26-16.59,5.26H2148.8v94.6c14.95-1.64,29.89-3.45,44.84-5.26s30.55-3.78,47-5.91c11.83-1.64,20.53-1.15,25.79,1.48s8.21,7.39,8.87,14.29c.66,7.72-1,13.14-5.09,16.26s-11.17,5.26-21.35,6.57c-17.08,2-34,4.11-50.91,6.08-17.08,2-34.82,4.11-53.54,6.08s-38.6,4.11-59.62,6.41c-21,2.14-44.18,4.43-69.31,6.9-13.3,1.31-22.34,1-27.26-1s-7.72-7.39-8.38-16.26q-1-9.61,5.91-14.78c4.6-3.45,12.81-5.58,24.8-6.57,18.4-1.64,35.64-3.28,51.74-4.76s32-3.12,47.63-4.76v-99.2h-91.32c-7.06,0-12.65-1.81-16.26-5.26-3.78-3.61-5.58-8.38-5.58-14.45,0-12.81,7.23-19.38,21.84-19.38h91.32V257.74l-64.71,6.08c-16.26.66-28.09-.82-35.48-4.27-7.39-3.61-9.36-9.36-9.36-17.57,0-7.72,2.79-14.12,10-26.44,2-4.6,51.74-119.24,57.48-129.09H1987c-14.29,0-21.35-6.24-21.35-18.72,0-12.81,7.06-19.38,21.35-19.38h280.85c14.62,0,21.84,6.41,21.84,19.38,0,12.48-7.39,18.72-21.84,18.72Z"/><g id="_编组_" data-name="&lt;编组&gt;"><rect id="_矩形_" data-name="&lt;矩形&gt;" class="cls-1" width="582.26" height="582.26" rx="112.22" ry="112.22"/><g id="_编组_2" data-name="&lt;编组&gt;"><path id="_复合路径_" data-name="&lt;复合路径&gt;" class="cls-2" d="M447.47,309.85c8.3,0,15.3,4.81,19.23,12.24,3.06,7.43,1.31,15.73-3.5,21.85C423.87,402.06,379.73,461.49,329,510.87h-80c48.94-48.94,100.51-108.37,135-162.12,1.75-3.06,2.62-6.12.87-9.18-.87-3.06-3.93-4.81-7.43-4.81H114V309.85H447.47"/><path id="_复合路径_2" data-name="&lt;复合路径&gt;" class="cls-2" d="M51.8,289.66c82.26-76.09,141.9-142.41,197.42-215.42H333c56,73,115.16,139.33,197.42,215.42h-92c-56.55-49.87-102.31-99.23-147-158.86A1051.89,1051.89,0,0,1,143.83,289.66Z"/><path id="_复合路径_3" data-name="&lt;复合路径&gt;" class="cls-2" d="M291.13,192.24a53.8,53.8,0,1,0,53.8,53.8A53.8,53.8,0,0,0,291.13,192.24Zm22.49,42.51q4.88.49,5.38,4.4-.49,3.92-5.38,3.91H296.51v8.8h17.11q4.88.49,5.38,4.4-.49,3.92-5.38,3.91H296.51v19.55q-.49,4.89-5.38,4.89-5.39,0-5.38-4.89V260.17H268.64c-3.59,0-5.38-1.3-5.38-3.91s1.79-4.07,5.38-4.4h17.11v-8.8H268.64c-3.59,0-5.38-1.3-5.38-3.91s1.79-4.07,5.38-4.4h11.73l-15.24-18c-.33,0-.66-.32-1-1a6.89,6.89,0,0,1-1-3.91q0-3.41,4.4-4.4a9.21,9.21,0,0,1,5.87,3.42l17.69,20.93,17.69-20.93a7.82,7.82,0,0,1,5.87-3.42q3.91,1,4.4,4.4a8.35,8.35,0,0,1-1.47,3.91,1.41,1.41,0,0,0-.49,1l-15.24,18Z"/></g></g></g></g></svg>