<svg xmlns="http://www.w3.org/2000/svg" viewBox="0 0 19.37 20.75">
  <defs>
    <style>
      .cls-1 {
        fill: #505f5d;
      }
    </style>
  </defs>
  <title>资源 1</title>
  <g id="图层_2" data-name="图层 2">
    <g id="图层_1-2" data-name="图层 1">
      <path class="cls-1" d="M11.68,20.75l0,0a.73.73,0,0,1-.25-.58c0-.43,0-.86,0-1.3q0-4.44,0-8.88a.92.92,0,0,1,.29-.7l5.84-5.84a1.33,1.33,0,0,0,.36-.58,1.12,1.12,0,0,0-1-1.42H2.6a1.12,1.12,0,0,0-1.11.75,1.07,1.07,0,0,0,.17,1,2.9,2.9,0,0,0,.26.29L7.49,9.08a.91.91,0,0,1,.28.69q0,3,0,6a.72.72,0,0,1-.39.69.71.71,0,0,1-1-.56c0-.05,0-.11,0-.16q0-2.86,0-5.71a.25.25,0,0,0-.08-.2L.78,4.38A2.53,2.53,0,0,1,0,2.56,2.52,2.52,0,0,1,1.89.09,3,3,0,0,1,2.6,0H16.77A2.5,2.5,0,0,1,19,1.27a2.53,2.53,0,0,1-.16,2.79,4.12,4.12,0,0,1-.34.39l-5.61,5.61a.26.26,0,0,0-.09.21q0,4.84,0,9.68a1,1,0,0,1-.27.81Z"/>
    </g>
  </g>
</svg>
