<?xml version="1.0" encoding="UTF-8"?>
<svg width="19px" height="13px" viewBox="0 0 19 13" version="1.1" xmlns="http://www.w3.org/2000/svg" xmlns:xlink="http://www.w3.org/1999/xlink">
    <!-- Generator: Sketch 49.3 (51167) - http://www.bohemiancoding.com/sketch -->
    <title>睁眼睛</title>
    <desc>Created with Sketch.</desc>
    <defs></defs>
    <g id="睁眼睛" stroke="none" stroke-width="1" fill="none" fill-rule="evenodd">
        <path d="M9.5,0 C5.1818142,0 1.49410539,2.6953332 0,6.5 C1.49408347,10.3046668 5.1818142,13 9.5,13 C13.822501,13 17.5059165,10.3046668 19,6.5 C17.5058946,2.69533317 13.822501,0 9.5,0 Z M9.5,10.8333407 C7.11637511,10.8333407 5.1818142,8.8920123 5.1818142,6.5 C5.1818142,4.1079877 7.11635322,2.16665933 9.5,2.16665933 C11.8836468,2.16665933 13.8181858,4.1079877 13.8181858,6.5 C13.8181858,8.8920123 11.8836249,10.8333407 9.5,10.8333407 Z M9.5,3.89999999 C8.0706881,3.89999999 6.9090929,5.06567187 6.9090929,6.5 C6.9090929,7.93432813 8.0706881,9.10000001 9.5,9.10000001 C10.9293119,9.10000001 12.0909071,7.93432813 12.0909071,6.5 C12.0909071,5.06567187 10.9293119,3.89999999 9.5,3.89999999 Z" id="Shape" fill="#F88F5B" fill-rule="nonzero"></path>
    </g>
</svg>