<?xml version="1.0" encoding="UTF-8"?>
<svg width="17px" height="16px" viewBox="0 0 17 16" version="1.1" xmlns="http://www.w3.org/2000/svg" xmlns:xlink="http://www.w3.org/1999/xlink">
    <!-- Generator: Sketch 49.3 (51167) - http://www.bohemiancoding.com/sketch -->
    <title>刷新</title>
    <desc>Created with Sketch.</desc>
    <defs></defs>
    <g id="刷新" stroke="none" stroke-width="1" fill="none" fill-rule="evenodd">
        <g fill="#CDCDCD" fill-rule="nonzero" id="Shape">
            <path d="M16.5889833,3.05979129 C16.2724152,2.94557254 15.9232132,3.11200558 15.8122199,3.42859263 L15.3422533,4.74709821 C14.790702,3.50365067 13.9193002,2.4103192 12.8096708,1.59115067 C9.28163951,-1.01981027 4.2555971,-0.308314732 1.61205915,3.18380022 C0.332695312,4.87438951 -0.209084821,6.95660491 0.0911662946,9.0453471 C0.391436384,11.1438795 1.50434821,13.0008828 3.21776228,14.2704565 C4.65376897,15.331154 6.33456808,15.846808 8.00229464,15.846808 C10.4402388,15.846808 12.8455681,14.7534766 14.4153929,12.6810703 C15.1105525,11.763981 15.5837634,10.7391808 15.8285558,9.62953237 C15.9003504,9.29991071 15.6914743,8.97681585 15.3651161,8.90500223 C15.0387388,8.83320759 14.7123806,9.03882031 14.6405859,9.36844196 C14.4349732,10.3051116 14.0335379,11.17325 13.4460703,11.946731 C11.2039487,14.906875 6.93833371,15.5106596 3.94229241,13.2913627 C2.48996875,12.2176306 1.55003571,10.6478058 1.2954721,8.8723683 C1.04090848,7.10672098 1.49782143,5.34761942 2.58134375,3.91813951 C4.82022098,0.957995536 9.08257254,0.350947545 12.0818583,2.57024442 C13.1686629,3.37309598 13.9813237,4.48600781 14.4219196,5.7425279 L12.3299141,4.92658482 C12.0165904,4.80582031 11.664125,4.95921875 11.5400971,5.27254241 C11.4160882,5.5858471 11.572731,5.9383125 11.8860547,6.0623404 L14.9669442,7.26662723 C15.0387388,7.29599777 15.1137969,7.30905134 15.1888739,7.30905134 C15.1986641,7.30905134 15.2084542,7.30578795 15.2182444,7.30578795 C15.2410882,7.30905134 15.2639319,7.31884152 15.2867757,7.31884152 C15.5380759,7.31884152 15.7730592,7.16219866 15.8611897,6.91414286 L16.9577846,3.84630692 C17.06874,3.52319308 16.9055513,3.17399107 16.5889833,3.05977232 L16.5889833,3.05979129 Z"></path>
        </g>
    </g>
</svg>