<?xml version="1.0" encoding="UTF-8"?>
<svg width="12px" height="6px" viewBox="0 0 12 6" version="1.1" xmlns="http://www.w3.org/2000/svg" xmlns:xlink="http://www.w3.org/1999/xlink">
    <!-- Generator: Sketch 46.2 (44496) - http://www.bohemiancoding.com/sketch -->
    <title>加载更多</title>
    <desc>Created with Sketch.</desc>
    <defs></defs>
    <g id="Page-1" stroke="none" stroke-width="1" fill="none" fill-rule="evenodd" opacity="0.6">
        <g id="iPhone-7" fill-rule="nonzero" fill="#000000">
            <g id="加载更多">
                <path d="M0.550045253,0.0897277377 L6.00074996,3.02174643 L11.4507047,0.0897277377 C11.5791489,-0.0299092418 11.7782358,-0.0299092418 11.90668,0.0897277377 C11.9660709,0.147095653 11.9996112,0.226123187 11.9996112,0.308691796 C11.9996112,0.391260405 11.9660709,0.470287939 11.90668,0.527655854 L6.20773875,3.66064155 C6.07929457,3.78027854 5.88020763,3.78027854 5.75176345,3.66064155 L0.0940699549,0.527655854 C0.0346791038,0.470287939 0.00113880758,0.391260405 0.00113880758,0.308691796 C0.00113880758,0.226123187 0.0346791038,0.147095653 0.0940699549,0.0897277377 C0.222514136,-0.0299092459 0.421601072,-0.0299092459 0.550045253,0.0897277377 Z M0.550045253,2.33935845 L6,5.2728769 L11.4507047,2.33935845 C11.5791489,2.21972147 11.7782358,2.21972147 11.90668,2.33935845 C11.9663077,2.39675096 12,2.47594133 12,2.55869745 C12,2.64145357 11.9663077,2.72064393 11.90668,2.77803644 L6.20698879,5.91027226 C6.0785446,6.02990925 5.87945767,6.02990925 5.75101349,5.91027226 L0.0933199941,2.77803644 C0.0336923412,2.72064393 4.68910962e-17,2.64145357 0,2.55869745 C-4.68910962e-17,2.47594133 0.0336923412,2.39675096 0.0933199941,2.33935845 C0.221764175,2.21972147 0.420851111,2.21972147 0.549295293,2.33935845 L0.550045253,2.33935845 Z" id="Shape"></path>
            </g>
        </g>
    </g>
</svg>