<?xml version="1.0" encoding="UTF-8"?>
<svg width="13px" height="13px" viewBox="0 0 13 13" version="1.1" xmlns="http://www.w3.org/2000/svg" xmlns:xlink="http://www.w3.org/1999/xlink">
    <!-- Generator: Sketch 46.2 (44496) - http://www.bohemiancoding.com/sketch -->
    <title>iPhone 7</title>
    <desc>Created with Sketch.</desc>
    <defs></defs>
    <g id="Page-1" stroke="none" stroke-width="1" fill="none" fill-rule="evenodd" opacity="0.46">
        <g id="iPhone-7" fill-rule="nonzero" fill="#000000">
            <g id="垃圾箱">
                <path d="M12.6735382,2.26386597 L11.3901049,2.26386597 L11.3901049,12.6729682 C11.3901049,12.8537134 11.243928,13 11.0633183,13 L1.93668166,13 C1.75607196,13 1.61021989,12.8537134 1.61021989,12.6729682 L1.61021989,2.26386597 L0.326461769,2.26386597 C0.145852074,2.26386597 0,2.11757939 0,1.93715929 C0,1.75673918 0.145852074,1.61045261 0.326461769,1.61045261 L1.93668166,1.61045261 L3.75772114,1.61045261 L3.75772114,0.326706677 C3.75772114,0.146286572 3.90389805,0 4.08450775,0 L8.91549225,0 C9.09610195,0 9.24227886,0.146286572 9.24227886,0.326706677 L9.24227886,1.61045261 L11.0633183,1.61045261 L12.6735382,1.61045261 C12.8541479,1.61045261 13,1.75673918 13,1.93715929 C13,2.11757939 12.8541479,2.26386597 12.6735382,2.26386597 Z M8.58870565,0.653413353 L4.41129435,0.653413353 L4.41129435,1.61045261 L8.58870565,1.61045261 L8.58870565,0.653413353 Z M10.7365317,2.26386597 L8.91549225,2.26386597 L4.08450775,2.26386597 L2.26346827,2.26386597 L2.26346827,12.3462616 L10.7365317,12.3462616 L10.7365317,2.26386597 Z M4.08450775,3.7576144 C4.26511744,3.7576144 4.41129435,3.90390098 4.41129435,4.08432108 L4.41129435,10.2572893 C4.41129435,10.4377094 4.26511744,10.583996 4.08450775,10.583996 C3.90389805,10.583996 3.75772114,10.4377094 3.75772114,10.2572893 L3.75772114,4.08432108 C3.75772114,3.90390098 3.90389805,3.7576144 4.08450775,3.7576144 Z M6.5,3.7576144 C6.6806097,3.7576144 6.82678661,3.90390098 6.82678661,4.08432108 L6.82678661,10.2572893 C6.82678661,10.4377094 6.6806097,10.583996 6.5,10.583996 C6.3193903,10.583996 6.17321339,10.4377094 6.17321339,10.2572893 L6.17321339,4.08432108 C6.17321339,3.90390098 6.3193903,3.7576144 6.5,3.7576144 Z M8.91549225,3.48909727 C9.09610195,3.48909727 9.24227886,3.63538385 9.24227886,3.81580395 L9.24227886,9.98909727 C9.24227886,10.1695174 9.09610195,10.315804 8.91549225,10.315804 C8.73488256,10.315804 8.58870565,10.1695174 8.58870565,9.98909727 L8.58870565,3.81580395 C8.58870565,3.63538385 8.73488256,3.48909727 8.91549225,3.48909727 Z" id="Shape"></path>
            </g>
        </g>
    </g>
</svg>