<?xml version="1.0" encoding="UTF-8"?>
<svg width="28px" height="29px" viewBox="0 0 28 29" version="1.1" xmlns="http://www.w3.org/2000/svg" xmlns:xlink="http://www.w3.org/1999/xlink">
    <!-- Generator: Sketch 46.2 (44496) - http://www.bohemiancoding.com/sketch -->
    <title>通过</title>
    <desc>Created with Sketch.</desc>
    <defs>
        <filter x="-36.8%" y="-25.0%" width="189.5%" height="185.0%" filterUnits="objectBoundingBox" id="filter-1">
            <feOffset dx="0" dy="2" in="SourceAlpha" result="shadowOffsetOuter1"></feOffset>
            <feGaussianBlur stdDeviation="2" in="shadowOffsetOuter1" result="shadowBlurOuter1"></feGaussianBlur>
            <feColorMatrix values="0 0 0 0 0.266666667   0 0 0 0 0.749019608   0 0 0 0 0.592156863  0 0 0 1 0" type="matrix" in="shadowBlurOuter1" result="shadowMatrixOuter1"></feColorMatrix>
            <feMerge>
                <feMergeNode in="shadowMatrixOuter1"></feMergeNode>
                <feMergeNode in="SourceGraphic"></feMergeNode>
            </feMerge>
        </filter>
        <path d="M9.81818182,15 L18,15 L18,17 L8,17 L8,16 L8,11 L9.81818182,11 L9.81818182,15 Z" id="path-2"></path>
    </defs>
    <g id="Page-1" stroke="none" stroke-width="1" fill="none" fill-rule="evenodd">
        <g id="iPhone-7" transform="translate(0.000000, -1.000000)">
            <g id="通过" filter="url(#filter-1)" transform="translate(4.000000, 3.000000)">
                <rect id="Rectangle-14" fill="#44BF97" x="0" y="0" width="17" height="19"></rect>
                <rect id="Rectangle-15" fill="#FFFFFF" x="4" y="3" width="9" height="2"></rect>
                <rect id="Rectangle-15-Copy" fill="#FFFFFF" x="4" y="8" width="9" height="2"></rect>
                <g id="Combined-Shape" transform="translate(13.000000, 14.000000) rotate(-45.000000) translate(-13.000000, -14.000000) ">
                    <use fill="#44BF97" fill-rule="evenodd" xlink:href="#path-2"></use>
                    <path stroke="#FFFFFF" stroke-width="2" d="M8.81818182,11.1818182 L8.81818182,12 L9,12 L9,11.1818182 L8.90909091,11.0909091 L8.81818182,11.1818182 Z M10.8181818,14 L19,14 L19,18 L7,18 L7,10 L10.8181818,10 L10.8181818,14 Z"></path>
                </g>
            </g>
        </g>
    </g>
</svg>