<?xml version="1.0" encoding="UTF-8"?>
<svg width="24px" height="26px" viewBox="0 0 24 26" version="1.1" xmlns="http://www.w3.org/2000/svg" xmlns:xlink="http://www.w3.org/1999/xlink">
    <!-- Generator: Sketch 46.2 (44496) - http://www.bohemiancoding.com/sketch -->
    <title>申请中</title>
    <desc>Created with Sketch.</desc>
    <defs>
        <filter x="-43.8%" y="-27.8%" width="187.5%" height="177.8%" filterUnits="objectBoundingBox" id="filter-1">
            <feOffset dx="0" dy="2" in="SourceAlpha" result="shadowOffsetOuter1"></feOffset>
            <feGaussianBlur stdDeviation="2" in="shadowOffsetOuter1" result="shadowBlurOuter1"></feGaussianBlur>
            <feColorMatrix values="0 0 0 0 0.101960784   0 0 0 0 0.423529412   0 0 0 0 0.952941176  0 0 0 0.820935236 0" type="matrix" in="shadowBlurOuter1" result="shadowMatrixOuter1"></feColorMatrix>
            <feMerge>
                <feMergeNode in="shadowMatrixOuter1"></feMergeNode>
                <feMergeNode in="SourceGraphic"></feMergeNode>
            </feMerge>
        </filter>
    </defs>
    <g id="Page-1" stroke="none" stroke-width="1" fill="none" fill-rule="evenodd">
        <g id="iPhone-7" transform="translate(-1.000000, -1.000000)">
            <g id="申请中" filter="url(#filter-1)" transform="translate(5.000000, 3.000000)">
                <g id="沙漏" fill-rule="nonzero" fill="#1A6CF3">
                    <path d="M15.2992679,16.5160944 L14.2552467,16.5160944 L14.2552467,14.9498571 C14.2552467,12.5369005 13.0550987,10.3739242 11.1922502,9.20010768 C13.0549552,8.0254067 14.2552467,5.86233823 14.2552467,3.45002655 L14.2552467,1.48375816 L15.3089552,1.48375816 C15.6903475,1.48375816 16,1.15144615 16,0.741925151 C16,0.332367289 15.6903475,0 15.3089552,0 L0.700732159,0 C0.319106614,0 0.00961554371,0.332367289 0.00961552619,0.741759307 C0.00961552619,1.15146458 0.319106614,1.48375816 0.700732159,1.48375816 L1.81721065,1.48375816 L1.81721065,3.45004498 C1.81721065,5.86220925 3.01737659,8.02509342 4.88004575,9.19979443 C3.01737659,10.3741085 1.81721065,12.5369926 1.81721065,14.9498756 L1.81721065,16.5161128 L0.691044867,16.5161128 C0.309652543,16.5161128 0,16.8485538 0,17.2579459 C0,17.6675406 0.309544894,18 0.691044867,18 L15.299232,18 C15.6807858,18 15.9904383,17.6675406 15.9904383,17.2580748 C15.9904383,16.8485354 15.6808037,16.5160944 15.2992679,16.5160944 L15.2992679,16.5160944 Z M12.8731929,16.5160944 L3.19924654,16.5160944 L3.19924654,14.9498571 C3.19924654,12.5778637 4.69021067,10.5165858 6.82894976,9.92605666 C6.9170862,9.90617396 7.00037897,9.86771687 7.07411004,9.81413123 C7.07488144,9.81356 7.0757784,9.81293346 7.0765498,9.81241752 C7.08478399,9.8063919 7.09292849,9.8000346 7.10094742,9.79362201 C7.10184439,9.79290335 7.10286695,9.79224 7.10367423,9.79150291 C7.13121987,9.76924555 7.15705166,9.74483715 7.18093936,9.71849524 C7.18718228,9.71160356 7.19328169,9.7047303 7.19930933,9.69752536 C7.20065478,9.69603277 7.20196436,9.69439276 7.20334571,9.69282648 C7.20937335,9.68554782 7.21516779,9.67812176 7.22094429,9.67060354 C7.22200271,9.66923994 7.22300732,9.66800534 7.223994,9.66667861 C7.23036249,9.65822063 7.23655161,9.64963366 7.242651,9.64093613 C7.24286627,9.64047545 7.24318919,9.64008848 7.24342239,9.63970152 C7.2562712,9.62104732 7.26823869,9.60176884 7.27928332,9.58193296 C7.28082611,9.57918734 7.28217157,9.57653386 7.28380405,9.57373296 C7.28728431,9.56715453 7.29078249,9.56072352 7.29408336,9.55407139 C7.29689985,9.54861701 7.29955489,9.54305207 7.3021561,9.53748711 C7.30393211,9.53380172 7.30565429,9.53015318 7.3073406,9.52635722 C7.31083879,9.51902329 7.314032,9.51141294 7.31727903,9.50391317 L7.31909093,9.49943542 C7.3816254,9.34756765 7.39495275,9.17906803 7.35710458,9.01882315 C7.32038257,8.86245187 7.24010361,8.73080958 7.13395598,8.63454709 C7.13151622,8.63228057 7.12909439,8.63010619 7.12670846,8.62789494 C7.12267209,8.62437539 7.11847427,8.6208927 7.11436612,8.61733629 C7.10898428,8.6128954 7.10356658,8.6082518 7.0979336,8.60381089 C7.09692898,8.60305539 7.09587056,8.60226303 7.0948839,8.60147067 C7.02349208,8.54508173 6.9418743,8.50387478 6.85480049,8.48025805 C4.70289387,7.89940306 3.19928242,5.8309571 3.19928242,3.45004498 L3.19928242,1.48375816 L12.8731929,1.48375816 L12.8731929,3.45004498 C12.8731929,5.8309571 11.3697429,7.89940306 9.21706488,8.48112413 C8.87915774,8.57182169 8.6626288,8.91539255 8.6984359,9.27713243 C8.69859736,9.27838546 8.69883056,9.27956479 8.6988844,9.28081782 C8.69994282,9.29145019 8.7011627,9.30193514 8.70270549,9.31258592 C8.70308223,9.31501828 8.70353071,9.31741378 8.70390743,9.31995672 C8.70536053,9.32942818 8.70688537,9.33882595 8.7086255,9.34835268 C8.70916369,9.35080347 8.70977363,9.3532911 8.71029388,9.35579718 C8.71196224,9.36416303 8.7134871,9.372621 8.71547838,9.38100527 C8.71845632,9.39351719 8.72179306,9.40566057 8.72521948,9.41778551 L8.72643935,9.42180259 C8.72932761,9.43167945 8.73230556,9.44144574 8.73560641,9.45100933 C8.7361446,9.45264934 8.73666484,9.45406821 8.73720303,9.45561607 C8.74048594,9.46532709 8.74400208,9.47487225 8.74764377,9.48441743 C8.74803843,9.48550462 8.74857662,9.4865918 8.7490251,9.48771587 C8.75297178,9.49794283 8.75716961,9.50798554 8.76152889,9.51789924 C8.76165446,9.51830463 8.76181592,9.51859947 8.76197737,9.51893114 C8.78078645,9.56157588 8.80349186,9.6022915 8.82978843,9.64053074 C8.82994989,9.64069658 8.83000371,9.64082557 8.83011134,9.64099141 C8.83603135,9.6495231 8.84205901,9.65781523 8.84821223,9.66605209 C8.8502035,9.66870557 8.85226654,9.67128534 8.85431163,9.67393884 C8.85850946,9.67941165 8.86283287,9.68482917 8.86715627,9.69008086 C8.87326625,9.69762921 8.87957121,9.70500877 8.88606443,9.71221166 C8.89157287,9.71849107 8.89721316,9.72464713 8.90298131,9.73067548 C8.96751376,9.79879063 9.0448405,9.85273538 9.13027392,9.88923957 C9.13357477,9.89064001 9.13680386,9.89205889 9.14010472,9.89331192 C9.14564801,9.89565214 9.1511554,9.89784496 9.15686015,9.89996406 C9.16326453,9.90239642 9.16981242,9.90466294 9.17621679,9.90683732 C9.1793562,9.90785081 9.18229826,9.90901169 9.18550943,9.91006204 C9.19639866,9.91374743 9.2074673,9.9169353 9.21864356,9.91990205 C11.3700479,10.5002227 12.8731929,12.5685581 12.8731929,14.9498756 L12.8731929,16.5160944 L12.8731929,16.5160944 Z" id="Shape"></path>
                </g>
                <polygon id="Path-8" fill="#1A6CF3" points="3 1 14 1 13.5 4.5 12.5 6.5 9.5 9 12.5 11.5 13.5 15 13.5 17 3 17 3 15.5 2.5 13 6 9.5 3.5 6.5 2.5 3.5"></polygon>
                <path d="M5,6 C5,7.65685425 6.34314575,9 8,9 C9.65685425,9 11,7.65685425 11,6 L5,6 Z" id="Combined-Shape" fill="#FFFFFF"></path>
                <path d="M5,13 C5,14.6568542 6.34314575,16 8,16 C9.65685425,16 11,14.6568542 11,13 L5,13 Z" id="Combined-Shape-Copy" fill="#FFFFFF" transform="translate(8.000000, 14.500000) rotate(180.000000) translate(-8.000000, -14.500000) "></path>
                <rect id="Rectangle-22" fill="#FFFFFF" x="7" y="8" width="2" height="6"></rect>
            </g>
        </g>
    </g>
</svg>