<svg xmlns="http://www.w3.org/2000/svg" viewBox="0 0 43.66 32.18"><defs><style>.cls-1{fill:#999999;stroke:#999999;stroke-miterlimit:10;stroke-width:1.5px;}</style></defs><title>资源 3</title><g id="图层_2" data-name="图层 2"><g id="图层_1-2" data-name="图层 1"><path class="cls-1" d="M28.46,25.21l5,.19L36.69,8.92a23.53,23.53,0,0,1,3.46,3.57c1.17,1.66,2,2.35,2.48,2.15s.19-1.18.19-1.18C42.43,12,36.64.75,21.49.75,9.32.75.75,9.12.75,16.16S9,31.43,21.79,31.43s19.09-7,20.79-11.69c0,0,.34-.88,0-1.08s-1.21.31-2.38,2c-2.92,4.11-8.28,7.43-16.12,7.43a22.27,22.27,0,0,1-10.21-2.49h5.25c2.78,0,9.25-.73,9.25-5.14s-5.84-4.7-5.84-8.41c0-1.62,2.44-2.06,4-2.06s3.75-.15,3.75-.15l.39-1.71H22.92c-4.19,0-7.55,1.47-7.55,4.3,0,4.65,6.23,5.38,6.23,8.12,0,1.47-1.8,2.74-4.09,2.74A9.74,9.74,0,0,1,13,21.88l-1.36,2.26A10.1,10.1,0,0,1,7.33,16C7.33,8.58,17.9,5,24,5s9.88,2,11.4,3H31.68L28.46,25.21Z"/></g></g></svg>
