<svg xmlns="http://www.w3.org/2000/svg" viewBox="0 0 186.53 218.26"><defs><style>.cls-1{fill:#f3b21b;}</style></defs><title>资源 2</title><g id="图层_2" data-name="图层 2"><g id="图层_1-2" data-name="图层 1"><path class="cls-1" d="M186.53,157.39V169.5c-.54,3-.59,6-1.6,8.94a70.42,70.42,0,0,1-11.4,20.34,101,101,0,0,1-18.84,18.32,7.72,7.72,0,0,1-.75.55c-1.78,1-2.62.72-3.17-1.27a49.48,49.48,0,0,0-10.26-19.3,48.86,48.86,0,0,0-20.27-14.16,69.68,69.68,0,0,0-19.82-4.09A77.65,77.65,0,0,0,72,182.18a54.62,54.62,0,0,0-19.45,10.69,54.05,54.05,0,0,0-16.17,23.48c-.74,2.1-1.72,2.4-3.82,1.23A42.48,42.48,0,0,1,24.89,212,73.57,73.57,0,0,1,9.77,193.65,75.91,75.91,0,0,1,.66,167.1a60.1,60.1,0,0,1-.42-6.33,216.16,216.16,0,0,1,.35-26.34A98.68,98.68,0,0,1,4.6,115a121.2,121.2,0,0,1,9.87-23.74,123.18,123.18,0,0,1,15.23-22,130.29,130.29,0,0,1,27.47-24A148.45,148.45,0,0,1,86.78,30.4,166.43,166.43,0,0,1,118.85,22,149.43,149.43,0,0,1,137,20c.78,0,1.52-.28,2.31-.25a1.73,1.73,0,0,1,1.91,1.79c0,.52,0,1,0,1.55q0,11.8,0,23.6c0,2.9-.07,3-2.77,3.81a80.26,80.26,0,0,0-26.76,13.4A53.46,53.46,0,0,0,98.29,78.59a34,34,0,0,0-4.45,14.1,36.29,36.29,0,0,0,3.66,20.93c4.47,8.7,11.52,13.81,21.42,14.9,4.32.48,8.45-.28,12.6-1.09A88.54,88.54,0,0,1,154,125.69c8.37.51,16.15,3,22.27,8.94a32.3,32.3,0,0,1,9.91,20.19A14.34,14.34,0,0,0,186.53,157.39Z"/><path class="cls-1" d="M15.84,82.8c-.21-.63.18-1.12.36-1.63C23.9,60,35.93,41.57,51.39,25.3c7-7.34,14.52-14,23.41-19A50.76,50.76,0,0,1,93.32,0c1.29-.16,1.8.16,2.17,1.4,2,6.74,4,13.45,6.09,20.17.3,1,.43,1.7-.86,1.87-1,.14-2.11,1.16-2.64-.76-.79-2.83-1.89-5.57-2.66-8.41-.38-1.39-1.06-1.47-2.22-1.23A58.84,58.84,0,0,0,77.55,18.8c-9.45,5-17.68,11.64-25.33,19C38.61,51,27.09,65.82,16.83,81.67,16.56,82.08,16.44,82.64,15.84,82.8Z"/></g></g></svg>