<?xml version="1.0" encoding="UTF-8"?>
<svg width="16px" height="16px" viewBox="0 0 16 16" version="1.1" xmlns="http://www.w3.org/2000/svg" xmlns:xlink="http://www.w3.org/1999/xlink">
    <!-- Generator: Sketch 52.1 (67048) - http://www.bohemiancoding.com/sketch -->
    <title>画板 copy</title>
    <desc>Created with Sketch.</desc>
    <g id="画板-copy" stroke="none" stroke-width="1" fill="none" fill-rule="evenodd">
        <rect id="Rectangle-10-Copy" fill="#F6F7FA" x="0" y="0" width="16" height="16" rx="4"></rect>
        <g id="基础信息" transform="translate(4.000000, 4.000000)" fill="#D8D8D8" fill-rule="nonzero">
            <path d="M7.36,3.09319148e-09 L0.64,3.09319148e-09 C0.287999997,3.09319148e-09 -3.09333336e-09,0.256965512 -3.09333336e-09,0.571034462 L-3.09333336e-09,7.70896528 C-3.09333336e-09,8.02303424 0.287999997,8.27999974 0.64,8.27999974 L5.54976,8.27999974 C5.88924184,8.28001077 6.21482391,8.15969324 6.45488,7.9455163 L7.62512,6.90137978 C7.86516373,6.6871918 8.00001237,6.39669403 8,6.09379429 L8,0.571034462 C8,0.256965504 7.712,-5.18680833e-09 7.36,3.09319148e-09 Z M4.32,6.42413773 L1.76,6.42413773 C1.58326888,6.42413773 1.44,6.29630731 1.44,6.1386205 C1.44,5.98093368 1.58326888,5.85310326 1.76,5.85310326 L4.32,5.85310326 C4.49673112,5.85310326 4.64,5.98093368 4.64,6.1386205 C4.64,6.29630731 4.49673112,6.42413773 4.32,6.42413773 Z M6.24,4.4255171 L1.76,4.4255171 C1.58326888,4.4255171 1.44000001,4.29768668 1.44000001,4.13999987 C1.44000001,3.98231306 1.58326888,3.85448264 1.76,3.85448264 L6.24,3.85448264 C6.41673112,3.85448264 6.55999999,3.98231306 6.55999999,4.13999987 C6.55999999,4.29768668 6.41673112,4.4255171 6.24,4.4255171 Z M6.24,2.42689648 L1.76,2.42689648 C1.58326888,2.42689648 1.44,2.29906606 1.44,2.14137924 C1.44,1.98369243 1.58326888,1.85586201 1.76,1.85586201 L6.24,1.85586201 C6.41673112,1.85586201 6.56,1.98369243 6.56,2.14137924 C6.56,2.29906606 6.41673112,2.42689648 6.24,2.42689648 Z" id="Shape"></path>
        </g>
    </g>
</svg>