<?xml version="1.0" encoding="UTF-8"?>
<svg width="16px" height="16px" viewBox="0 0 16 16" version="1.1" xmlns="http://www.w3.org/2000/svg" xmlns:xlink="http://www.w3.org/1999/xlink">
    <!-- Generator: Sketch 49.3 (51167) - http://www.bohemiancoding.com/sketch -->
    <title>Artboard 2</title>
    <desc>Created with Sketch.</desc>
    <defs></defs>
    <g id="Artboard-2" stroke="none" stroke-width="1" fill="none" fill-rule="evenodd">
        <path d="M7.98506333,6.73721991 C7.96673143,6.67007657 7.97674094,6.59775072 8.01248036,6.53911236 L8.10387047,6.38971978 C8.12986356,6.34737823 8.14265668,6.29737002 8.14042651,6.24682253 L8.14042651,6.22733654 C8.13422167,6.10337927 8.04048586,6.00485607 7.92413659,6 L7.50069576,6 C7.38434649,6.00485607 7.29061068,6.10337927 7.28440584,6.22733654 L7.28440584,6.24682253 C7.28217567,6.29737002 7.29496879,6.34737823 7.32096188,6.38971978 L7.41539833,6.54236002 C7.45040445,6.59880988 7.46146466,6.66837769 7.4458617,6.73397225 L7.00718918,8.54616921 C6.98371711,8.64295571 7.01889737,8.74512525 7.09553295,8.80273473 L7.6195029,9.18920684 C7.69653535,9.24581933 7.79836275,9.24581933 7.8753952,9.18920684 L8.39327247,8.80598239 C8.47242111,8.74742846 8.50791952,8.641725 8.48161624,8.54292154 L7.98506333,6.73721991 Z" id="Path" fill="#FFFFFF"></path>
        <rect id="Rectangle-10" fill="#4E8CEE" x="0" y="0" width="16" height="16" rx="4"></rect>
        <path d="M4.59607843,12.2407137 C4.59607843,12.628485 5.10816204,12.7669748 6.1271039,12.8500687 C6.71756765,12.899925 7.28190469,12.9110042 8.0866075,12.9110042 C8.89131031,12.9110042 9.45564734,12.899925 10.0461111,12.8500687 C11.0598276,12.7669748 11.5771366,12.628485 11.5771366,12.2407137 C11.5771366,11.4097751 10.2655755,10.6453115 8.83383153,10.3461736 L8.97491579,10.517901 L8.91743702,9.7146603 L8.79725413,9.90854597 C9.3041124,9.73127907 9.5967316,9.36012649 9.83187203,8.71199437 L9.71168914,8.82832577 C9.94160423,8.76185068 10.1453926,8.60120255 10.2812515,8.37407933 C10.547744,7.91983289 10.4589132,7.33817586 10.0670125,7.07781509 C10.0304351,7.05565673 9.99385766,7.03349837 9.95205492,7.01687959 L9.88412546,7.1941465 L10.0617871,7.1941465 C10.0617871,6.36874748 9.94682957,5.84802594 9.64375969,5.48795254 L9.51312611,5.61536313 L9.59150626,5.78709045 C9.82142134,5.67075904 9.95728026,5.50457132 9.816196,5.29406687 C9.74826654,5.19435423 9.64375969,5.10572078 9.51312611,5.02262692 C9.44519665,4.97831019 9.37204185,4.93953306 9.29366171,4.90629551 C9.25185897,4.88413715 9.21528157,4.86751838 9.19438019,4.86197879 L9.27798568,5.14449792 C9.28843637,5.12787914 9.29888705,5.10572078 9.31456308,5.07802283 C9.3406898,5.01708733 9.35114048,4.95615183 9.34591514,4.88967674 C9.32501377,4.69579107 9.16302814,4.59607843 8.91743702,4.59607843 C8.67707125,4.59607843 8.38967739,4.74564738 8.07093147,4.98938938 L8.17543833,5.14449792 L8.18066367,4.95615183 L8.02912873,4.95615183 C6.50855394,4.95615183 5.99647033,5.55442763 5.99124499,7.17198814 L6.16890665,7.17198814 L6.11142788,6.99472123 C6.05917445,7.01134 6.01214636,7.03903796 5.96511827,7.06673591 C5.57321756,7.32709668 5.48438673,7.90875371 5.75087922,8.36300015 C5.89196347,8.59566296 6.10097719,8.76185068 6.34134296,8.82278618 L6.21593473,8.70645478 C6.48242722,9.44875994 6.73324368,9.77559579 7.271454,9.92516475 L7.13559509,9.73681866 L7.10946837,10.5400593 L7.25577797,10.3627924 C5.84493539,10.6342324 4.59607843,11.3876167 4.59607843,12.2407137 Z M11.4252123,4 L10.568256,4 C10.4951012,4 10.4219464,4.02769795 10.3644677,4.08863345 C10.3069889,4.14956895 10.2808622,4.22712322 10.2808622,4.30467749 C10.2808622,4.38223176 10.3069889,4.45978603 10.3644677,4.52072153 C10.4219464,4.58165703 10.4951012,4.60935498 10.568256,4.60935498 L11.4252123,4.60935498 L11.4252123,5.51784787 C11.4252123,5.59540214 11.451339,5.67295641 11.5088178,5.73389191 C11.5662965,5.79482741 11.6394513,5.82252536 11.7126061,5.82252536 C11.7857609,5.82252536 11.8589157,5.79482741 11.9163945,5.73389191 C11.9738733,5.67295641 12,5.59540214 12,5.51784787 L12,4.60381539 C12,4.27143995 11.7439582,4 11.4252123,4 Z M4.28216852,5.81698577 C4.35532332,5.81698577 4.42847812,5.78928782 4.48595689,5.72835232 C4.54343566,5.66741682 4.56956238,5.58986255 4.56956238,5.51230828 L4.56956238,4.60381539 L5.42651862,4.60381539 C5.49967342,4.60381539 5.57282822,4.57611744 5.63030699,4.51518194 C5.68778576,4.45424644 5.71391248,4.37669217 5.71391248,4.2991379 C5.71391248,4.22158363 5.68778576,4.14402936 5.63030699,4.08309386 C5.57282822,4.02215836 5.49967342,4 5.42651862,4 L4.56956238,4 C4.2560418,4 4,4.27143995 4,4.60381539 L4,5.51230828 C4,5.58986255 4.02612671,5.66741682 4.08360549,5.72835232 C4.14108426,5.78928782 4.20901372,5.81698577 4.28216852,5.81698577 Z M12,9.70837356 L12,9.00463675 C12,8.94456165 11.9738733,8.88448656 11.9163945,8.8372847 C11.8589157,8.79008284 11.7857609,8.76862745 11.7126061,8.76862745 C11.6394513,8.76862745 11.5662965,8.79008284 11.5088178,8.8372847 C11.451339,8.88448656 11.4252123,8.94456165 11.4252123,9.00463675 L11.4252123,9.70837356 L10.568256,9.70837356 C10.4951012,9.70837356 10.4219464,9.72982895 10.3644677,9.77703081 C10.3069889,9.82423267 10.2808622,9.88430777 10.2808622,9.94438286 C10.2808622,10.004458 10.3069889,10.064533 10.3644677,10.1117349 C10.4219464,10.1589368 10.4951012,10.1803922 10.568256,10.1803922 L11.4252123,10.1803922 C11.7439582,10.1803922 12,9.97012933 12,9.70837356 Z M4.08360549,8.84157578 C4.02612671,8.88877764 4,8.94885273 4,9.00892783 L4,9.71266464 C4,9.97012933 4.2560418,10.1803922 4.56956238,10.1803922 L5.42651862,10.1803922 C5.49967342,10.1803922 5.57282822,10.1589368 5.63030699,10.1117349 C5.68778576,10.064533 5.71391248,10.004458 5.71391248,9.94438286 C5.71391248,9.88430777 5.68778576,9.82423267 5.63030699,9.77703081 C5.57282822,9.72982895 5.49967342,9.70837356 5.42651862,9.70837356 L4.56956238,9.70837356 L4.56956238,9.00463675 C4.56956238,8.94456165 4.54343566,8.88448656 4.48595689,8.8372847 C4.42847812,8.79008284 4.35532332,8.76862745 4.28216852,8.76862745 C4.20901372,8.77291853 4.13585892,8.79437392 4.08360549,8.84157578 Z" id="Shape" fill="#FFFFFF" fill-rule="nonzero"></path>
    </g>
</svg>