<?xml version="1.0" encoding="UTF-8"?>
<svg width="16px" height="16px" viewBox="0 0 16 16" version="1.1" xmlns="http://www.w3.org/2000/svg" xmlns:xlink="http://www.w3.org/1999/xlink">
    <!-- Generator: Sketch 52.1 (67048) - http://www.bohemiancoding.com/sketch -->
    <title>画板 copy 2</title>
    <desc>Created with Sketch.</desc>
    <g id="画板-copy-2" stroke="none" stroke-width="1" fill="none" fill-rule="evenodd">
        <g id="基础信息-copy-2">
            <rect id="Rectangle-10-Copy-2" fill="#F6F7FA" x="0" y="0" width="16" height="16" rx="4"></rect>
            <g id="手机" transform="translate(5.000000, 4.000000)" fill="#D8D8D8" fill-rule="nonzero">
                <path d="M4.92084035,0 L1.05915967,0 C0.473529413,0 0,0.4744958 0,1.05915967 L0,7.59676473 C0,8.18239498 0.4744958,8.6559244 1.05915967,8.6559244 L4.92084035,8.6559244 C5.50647061,8.6559244 5.98000002,8.1814286 5.98000002,7.59676473 L5.98000002,1.05915967 C5.98000002,0.4744958 5.50550422,6.86658949e-17 4.92084035,0 Z M2.11928572,0.795336137 C2.11928572,0.649411767 2.23718488,0.53054622 2.38407564,0.53054622 L3.59689077,0.53054622 C3.74281514,0.53054622 3.86168068,0.64844538 3.86168068,0.795336137 C3.86168068,0.941260507 3.74378152,1.06012605 3.59689077,1.06012605 L2.38407564,1.06012605 C2.23718488,1.05915967 2.11928572,0.941260507 2.11928572,0.795336137 Z M2.99000001,8.12537818 C2.69718488,8.12537818 2.46042018,7.88764708 2.46042018,7.59579834 C2.46042018,7.30298322 2.69815127,7.06621851 2.99000001,7.06621851 C3.28281514,7.06621851 3.51957984,7.3039496 3.51957984,7.59579834 C3.51957984,7.88764708 3.28281514,8.12537818 2.99000001,8.12537818 Z M5.26197481,6.43613447 C5.26197481,6.49121851 5.21752103,6.53663868 5.1614706,6.53663868 L0.819495801,6.53663868 C0.764411767,6.53663868 0.718991599,6.49218489 0.718991599,6.43613447 L0.718991599,1.6892437 C0.718991599,1.63415967 0.763445381,1.5887395 0.819495801,1.5887395 L5.16243699,1.5887395 C5.21752103,1.5887395 5.26294119,1.63319328 5.26294119,1.6892437 L5.26197481,6.43613447 Z" id="Shape"></path>
            </g>
        </g>
    </g>
</svg>