<?xml version="1.0" encoding="UTF-8"?>
<svg width="16px" height="16px" viewBox="0 0 16 16" version="1.1" xmlns="http://www.w3.org/2000/svg" xmlns:xlink="http://www.w3.org/1999/xlink">
    <!-- Generator: Sketch 52.1 (67048) - http://www.bohemiancoding.com/sketch -->
    <title>画板</title>
    <desc>Created with Sketch.</desc>
    <g id="画板" stroke="none" stroke-width="1" fill="none" fill-rule="evenodd">
        <rect id="Rectangle-10" fill="#F6F7FA" x="0" y="0" width="16" height="16" rx="4"></rect>
        <path d="M4.59607843,12.3230152 C4.59607843,12.7146593 5.10816204,12.8545322 6.1271039,12.9384559 C6.71756765,12.9888102 7.28190469,13 8.0866075,13 C8.89131031,13 9.45564734,12.9888102 10.0461111,12.9384559 C11.0598276,12.8545322 11.5771366,12.7146593 11.5771366,12.3230152 C11.5771366,11.4837779 10.2655755,10.7116795 8.83383153,10.409554 L8.97491579,10.5829964 L8.91743702,9.77173366 L8.79725413,9.96755571 C9.3041124,9.7885184 9.5967316,9.41365905 9.83187203,8.75905392 L9.71168914,8.87654715 C9.94160423,8.80940816 10.1453926,8.64715561 10.2812515,8.41776406 C10.547744,7.95898098 10.4589132,7.37151483 10.0670125,7.1085538 C10.0304351,7.08617413 9.99385766,7.06379447 9.95205492,7.04700972 L9.88412546,7.22604703 L10.0617871,7.22604703 C10.0617871,6.39240459 9.94682957,5.86648252 9.64375969,5.502813 L9.51312611,5.63149606 L9.59150626,5.80493845 C9.82142134,5.68744522 9.95728026,5.51959775 9.816196,5.30699095 C9.74826654,5.20628247 9.64375969,5.11676382 9.51312611,5.03284008 C9.44519665,4.98808076 9.37204185,4.94891635 9.29366171,4.91534685 C9.25185897,4.89296719 9.21528157,4.87618244 9.19438019,4.87058753 L9.27798568,5.15592823 C9.28843637,5.13914348 9.29888705,5.11676382 9.31456308,5.08878924 C9.3406898,5.02724517 9.35114048,4.96570109 9.34591514,4.89856211 C9.32501377,4.70274006 9.16302814,4.60203158 8.91743702,4.60203158 C8.67707125,4.60203158 8.38967739,4.7530943 8.07093147,4.99927059 L8.17543833,5.15592823 L8.18066367,4.96570109 L8.02912873,4.96570109 C6.50855394,4.96570109 5.99647033,5.56995199 5.99124499,7.20366736 L6.16890665,7.20366736 L6.11142788,7.02463006 C6.05917445,7.04141481 6.01214636,7.06938939 5.96511827,7.09736397 C5.57321756,7.360325 5.48438673,7.94779115 5.75087922,8.40657423 C5.89196347,8.64156069 6.10097719,8.80940816 6.34134296,8.87095223 L6.21593473,8.753459 C6.48242722,9.5031777 6.73324368,9.83327773 7.271454,9.98434045 L7.13559509,9.79411332 L7.10946837,10.6053761 L7.25577797,10.4263388 C5.84493539,10.7004897 4.59607843,11.4613982 4.59607843,12.3230152 Z M11.4252123,4 L10.568256,4 C10.4951012,4 10.4219464,4.02797458 10.3644677,4.08951865 C10.3069889,4.15106272 10.2808622,4.22939154 10.2808622,4.30772036 C10.2808622,4.38604918 10.3069889,4.464378 10.3644677,4.52592207 C10.4219464,4.58746615 10.4951012,4.61544072 10.568256,4.61544072 L11.4252123,4.61544072 L11.4252123,5.53300689 C11.4252123,5.61133571 11.451339,5.68966453 11.5088178,5.75120861 C11.5662965,5.81275268 11.6394513,5.84072726 11.7126061,5.84072726 C11.7857609,5.84072726 11.8589157,5.81275268 11.9163945,5.75120861 C11.9738733,5.68966453 12,5.61133571 12,5.53300689 L12,4.60984581 C12,4.27415087 11.7439582,4 11.4252123,4 Z M4.28216852,5.83513234 C4.35532332,5.83513234 4.42847812,5.80715776 4.48595689,5.74561369 C4.54343566,5.68406962 4.56956238,5.6057408 4.56956238,5.52741198 L4.56956238,4.60984581 L5.42651862,4.60984581 C5.49967342,4.60984581 5.57282822,4.58187123 5.63030699,4.52032716 C5.68778576,4.45878309 5.71391248,4.38045427 5.71391248,4.30212545 C5.71391248,4.22379663 5.68778576,4.14546781 5.63030699,4.08392374 C5.57282822,4.02237966 5.49967342,4 5.42651862,4 L4.56956238,4 C4.2560418,4 4,4.27415087 4,4.60984581 L4,5.52741198 C4,5.6057408 4.02612671,5.68406962 4.08360549,5.74561369 C4.14108426,5.80715776 4.20901372,5.83513234 4.28216852,5.83513234 Z M12,9.76538414 L12,9.05461897 C12,8.9939439 11.9738733,8.93326882 11.9163945,8.88559555 C11.8589157,8.83792228 11.7857609,8.81625261 11.7126061,8.81625261 C11.6394513,8.81625261 11.5662965,8.83792228 11.5088178,8.88559555 C11.451339,8.93326882 11.4252123,8.9939439 11.4252123,9.05461897 L11.4252123,9.76538414 L10.568256,9.76538414 C10.4951012,9.76538414 10.4219464,9.78705381 10.3644677,9.83472708 C10.3069889,9.88240035 10.2808622,9.94307543 10.2808622,10.0037505 C10.2808622,10.0644256 10.3069889,10.1251007 10.3644677,10.1727739 C10.4219464,10.2204472 10.4951012,10.2421169 10.568256,10.2421169 L11.4252123,10.2421169 C11.7439582,10.2421169 12,10.0297541 12,9.76538414 Z M4.08360549,8.88992948 C4.02612671,8.93760276 4,8.99827783 4,9.05895291 L4,9.76971807 C4,10.0297541 4.2560418,10.2421169 4.56956238,10.2421169 L5.42651862,10.2421169 C5.49967342,10.2421169 5.57282822,10.2204472 5.63030699,10.1727739 C5.68778576,10.1251007 5.71391248,10.0644256 5.71391248,10.0037505 C5.71391248,9.94307543 5.68778576,9.88240035 5.63030699,9.83472708 C5.57282822,9.78705381 5.49967342,9.76538414 5.42651862,9.76538414 L4.56956238,9.76538414 L4.56956238,9.05461897 C4.56956238,8.9939439 4.54343566,8.93326882 4.48595689,8.88559555 C4.42847812,8.83792228 4.35532332,8.81625261 4.28216852,8.81625261 C4.20901372,8.82058654 4.13585892,8.84225621 4.08360549,8.88992948 Z" id="Shape" fill="#D8D8D8" fill-rule="nonzero"></path>
    </g>
</svg>