<?xml version="1.0" encoding="UTF-8"?>
<svg width="13px" height="13px" viewBox="0 0 13 13" version="1.1" xmlns="http://www.w3.org/2000/svg" xmlns:xlink="http://www.w3.org/1999/xlink">
    <!-- Generator: Sketch 49.3 (51167) - http://www.bohemiancoding.com/sketch -->
    <title>Artboard 13</title>
    <desc>Created with Sketch.</desc>
    <defs></defs>
    <g id="Artboard-13" stroke="none" stroke-width="1" fill="none" fill-rule="evenodd">
        <path d="M8.06716156,12.045685 C7.99317387,12.0693824 7.76350215,12.036489 7.37814639,11.9470048 L3.16832691,9.11437499 C3.12842429,9.08636262 3.07248576,9.0761929 2.96786229,9.0761929 L2.86487673,9.07773054 C2.82308661,9.07958788 2.7812809,9.08065357 2.73947519,9.08088193 L1.47833105,9.08088193 C0.682103849,9.08088193 0,8.22970149 0,7.53362437 L0,4.41963759 C0,3.64873392 0.751566846,3.18802166 1.47833105,3.18802166 L2.73867964,3.18802166 C2.82281103,3.18802166 4.36850959,2.14326656 7.37577532,0.0537563608 L7.43567604,0.0389585181 C7.54828627,0.0124837768 7.66332997,7.10542736e-15 7.77831128,7.10542736e-15 C8.57137185,7.10542736e-15 9.21592856,0.625909165 9.21592856,1.3960364 L9.21592856,10.5969453 C9.21592856,11.3717615 8.81157832,11.8072566 8.06716156,12.045685 Z M7.56287011,11.1128071 C8.04210707,11.1938603 8.45831976,11.0646606 8.45831976,10.5969453 L8.45831976,1.3960364 C8.45477875,1.16673073 8.40977986,1.08690298 8.22929774,0.939959796 C8.04880003,0.793062281 7.93438537,0.730262794 7.70259767,0.767972935 L3.58861934,3.64109894 C3.35616087,3.79935365 3.10139562,3.94510935 2.79952095,3.94510935 L1.53917236,3.94510935 C1.12468746,3.94510935 0.804478506,4.3264252 0.804478506,4.71071239 L0.804478506,7.37996975 C0.804478506,7.80405278 1.26136189,8.30679883 1.64708197,8.30679883 L3.01444069,8.30364744 C3.05513886,8.3021098 3.09669499,8.30055694 3.13581765,8.30055694 C3.29717521,8.30055694 3.5056266,8.31846051 3.69969557,8.45017958 L7.56287011,11.1128071 Z M10.7153022,9.42312448 C10.5646862,9.25269747 10.5785945,9.06250642 10.6707231,8.97400862 C12.4453755,7.24203683 12.4453755,4.91530443 10.6707231,3.18331741 C10.5905279,3.10494365 10.5593296,2.99076277 10.5887652,2.88376766 C10.6182632,2.77678779 10.8512806,2.59280432 10.9609582,2.5642591 C11.0705734,2.53565298 11.187567,2.56639048 11.2676998,2.64477946 C13.3107667,4.63865175 13.3107667,7.3185228 11.2676998,9.31317153 C11.2080487,9.3709775 10.8659182,9.59355148 10.7153022,9.42312448 Z" id="通知2" fill="#FF8862"></path>
    </g>
</svg>