<?xml version="1.0" encoding="UTF-8"?>
<svg width="13px" height="13px" viewBox="0 0 13 13" version="1.1" xmlns="http://www.w3.org/2000/svg" xmlns:xlink="http://www.w3.org/1999/xlink">
    <!-- Generator: Sketch 52.1 (67048) - http://www.bohemiancoding.com/sketch -->
    <title>画板</title>
    <desc>Created with Sketch.</desc>
    <g id="画板" stroke="none" stroke-width="1" fill="none" fill-rule="evenodd">
        <g id="问号" fill="#999999" fill-rule="nonzero">
            <path d="M6.5,0 C4.83725991,0 3.17453469,0.631426111 1.90193083,1.90357493 C-0.633976944,4.43857596 -0.633976944,8.56142404 1.90193083,11.0964251 C3.17453469,12.3685739 4.83725991,13 6.5,13 C8.16274009,13 9.82548016,12.3685739 11.0980692,11.0964251 C13.6339769,8.56142404 13.6339769,4.43857596 11.0980692,1.90357493 C9.82548016,0.631426111 8.16274007,0 6.5,0 Z M6.5,0.650004455 C7.26170232,0.650004455 8.00481967,0.798571807 8.70149681,1.07714303 C9.42604402,1.37429259 10.0762661,1.80143117 10.6336078,2.36785533 C11.2002346,2.92499776 11.6275408,3.57500222 11.9247818,4.29927551 C12.2034527,4.99570355 12.3520732,5.73855518 12.3520732,6.49998515 C12.3520732,7.26141511 12.2034527,8.00426675 11.9247818,8.70069478 C11.6275408,9.42498292 11.2002346,10.0749725 10.6336078,10.632115 C10.0762661,11.1985391 9.42602917,11.6256926 8.70149681,11.9228273 C8.00481967,12.2013985 7.26170232,12.3499658 6.5,12.3499658 C5.73829768,12.3499658 4.99518033,12.2013985 4.29850319,11.9228273 C3.57395598,11.6256777 2.92373389,11.1985391 2.36639217,10.632115 C1.79976538,10.0749725 1.37245917,9.42496808 1.07521818,8.70069478 C0.796547321,8.00426675 0.647926828,7.26141511 0.647926828,6.49998515 C0.647926828,5.73855518 0.796547321,4.99570355 1.07521818,4.29927551 C1.37247404,3.57498737 1.79976539,2.92499778 2.36639217,2.36785533 C2.92373388,1.80143115 3.57397083,1.37427773 4.29850319,1.07714303 C4.99518033,0.798571807 5.73829766,0.650004455 6.5,0.650004455 Z" id="Shape"></path>
            <path d="M6.49998543,8.8833317 C6.23563681,8.8833317 6.00776314,9.18723547 6.00776314,9.56712529 C6.00776314,9.93435752 6.23565139,10.2382613 6.49998543,10.2382613 C6.77344551,10.2382613 6.99220773,9.93435752 6.99220773,9.56712529 C6.9922223,9.18725572 6.7734455,8.8833317 6.49998543,8.8833317 Z M6.50911145,3.11267606 C5.90749346,3.11267606 5.42438261,3.27219712 5.0597789,3.60998259 C4.69516062,3.93838889 4.46728693,4.41693706 4.3943662,5.04561212 L5.22385786,5.1488281 C5.28766715,4.6796741 5.44262009,4.33249444 5.67050833,4.11668331 C5.89839658,3.89149299 6.18096811,3.78827702 6.51823747,3.78827702 C6.87372973,3.78827702 7.17453873,3.91025135 7.42064987,4.15421503 C7.65764958,4.38879953 7.77614214,4.67029493 7.77614214,4.99870123 C7.77614214,5.16760146 7.73968177,5.33650171 7.65764958,5.48662859 C7.57561739,5.63675546 7.39330096,5.83380825 7.11984088,6.0871511 C6.83726936,6.34049395 6.64584147,6.52816757 6.53646037,6.65952108 C6.39973033,6.8378005 6.29034922,7.01607991 6.22653993,7.19435933 C6.13538171,7.42894383 6.08980989,7.71043923 6.08980989,8.02946635 L6.09892133,8.28280921 L6.8646037,8.28280921 C6.87371515,7.95440291 6.89195262,7.71043923 6.92841299,7.56969153 C6.97398481,7.41956465 7.02868266,7.28819613 7.11071485,7.17560097 C7.19274704,7.06300582 7.356826,6.8847264 7.62117463,6.65014189 C8.00401581,6.29358306 8.26836443,5.99331429 8.40509447,5.74935061 C8.53271305,5.50538693 8.6056338,5.23327072 8.6056338,4.94239614 C8.6056338,4.43571044 8.41420592,4.00407314 8.03136473,3.64751431 C7.657635,3.29095548 7.14717524,3.11267606 6.50911145,3.11267606 Z" id="Shape"></path>
        </g>
    </g>
</svg>