<?xml version="1.0" encoding="UTF-8"?>
<svg width="87px" height="92px" viewBox="0 0 87 92" version="1.1" xmlns="http://www.w3.org/2000/svg" xmlns:xlink="http://www.w3.org/1999/xlink">
    <!-- Generator: Sketch 52.5 (67469) - http://www.bohemiancoding.com/sketch -->
    <title>画板 copy 17</title>
    <desc>Created with Sketch.</desc>
    <defs>
        <linearGradient x1="75.4612584%" y1="14.8333141%" x2="0%" y2="61.2220008%" id="linearGradient-1">
            <stop stop-color="#FFFFFF" offset="0%"></stop>
            <stop stop-color="#FFFFFF" stop-opacity="0" offset="100%"></stop>
        </linearGradient>
        <path d="M75.6635409,42.5074029 C73.8815955,44.231953 70.9928171,44.231953 69.2107028,42.5074029 L45.6636878,19.718821 C44.435919,18.5304343 42.4377754,18.5304343 41.2100066,19.718821 L20.0793433,40.1688801 C18.7362125,41.4685861 19.1544208,42.9247276 19.3966302,43.4904782 C19.6386708,44.0560653 20.4070186,45.3717908 22.3061839,45.3717908 L39.6086204,45.3717908 C40.4350715,46.2504123 41.4138747,47.135409 42.8027787,49.670089 C42.9259102,49.9581134 43.21896,50.160319 43.5609922,50.1585209 L43.5621745,50.1585209 C43.9042067,50.160319 44.1972565,49.9581134 44.3203881,49.670089 C45.7091232,47.135409 46.6880953,46.2504123 47.5145463,45.3717908 L62.0984605,45.3717908 C67.4954748,45.3717908 72.0722876,48.5778194 73.7588018,53.5392931 C75.4451471,58.5009301 73.7285678,63.7103794 69.3856882,66.8111369 L69.1978661,66.9381488 L45.9579199,81.8475797 C45.1823092,82.3451656 44.3067068,82.5833333 43.4410698,82.5833333 C41.9623085,82.5834968 40.5119232,81.8889362 39.6337872,80.6067209 C38.2413362,78.5740402 38.8152747,75.8338853 40.9157745,74.4864477 L64.0428923,59.6494315 C65.6137067,58.4736316 65.300895,56.9194114 65.0901019,56.2990637 C64.8759306,55.6690717 64.1557206,54.2036127 62.0984605,54.2036127 L22.3061839,54.2036127 C17.2469791,54.2036127 12.9015659,51.393495 10.9655793,46.8701061 C9.02959278,42.3468807 10.049102,37.386061 13.6263363,33.9238835 L34.7569996,13.4738243 C39.5430854,8.84205855 47.330609,8.84205855 52.1165259,13.4738243 L75.6635409,36.2624062 C77.4454864,37.9869564 77.4454864,40.7828527 75.6635409,42.5074029 Z M52.6185954,38.1082307 C52.6199466,38.3563697 52.4735062,38.5698543 52.2605172,38.6769236 C52.260855,38.6782313 52.2610239,38.679539 52.2613618,38.6808467 C50.6317685,39.4022154 48.9790352,40.5144277 47.4874371,41.9735115 C46.0132362,43.4157586 44.8910329,45.0067583 44.1625466,46.5737287 C44.161871,46.5735652 44.1610264,46.5735652 44.1601819,46.5734018 C44.0645818,46.8102618 43.8281151,46.9794475 43.5492533,46.9807552 C43.2725873,46.9822264 43.035445,46.8185985 42.9357912,46.5854981 C42.1897388,45.0245759 41.0489559,43.4433841 39.55702,42.0148681 C38.0438021,40.5662459 36.3719826,39.4690724 34.728708,38.7653578 C34.7292148,38.7637232 34.7293837,38.7619251 34.7298904,38.7604539 C34.5245022,38.6528943 34.3827911,38.4454579 34.3814398,38.2035305 C34.3799197,37.9380642 34.5459531,37.7097043 34.7834332,37.6117891 C36.3991763,36.88993 38.0358636,35.7863813 39.5142871,34.3400477 C40.9893325,32.8968199 42.1117048,31.3046759 42.8401911,29.7368882 C42.9362979,29.500682 43.1724268,29.3323136 43.4506129,29.3310059 C43.7331906,29.3295347 43.9733732,29.500682 44.0691422,29.7414652 C44.0701557,29.7411383 44.0711691,29.7411383 44.0720136,29.7408113 C44.8182349,31.297647 45.956822,32.8740983 47.4445353,34.2985277 C48.9558953,35.7455152 50.625519,36.8417079 52.2667667,37.5459129 C52.2664289,37.5468937 52.2664289,37.5480379 52.2660911,37.5491822 C52.4736751,37.6560879 52.6172441,37.8646686 52.6185954,38.1082307 Z" id="path-2"></path>
        <filter x="-22.4%" y="-20.7%" width="144.8%" height="141.3%" filterUnits="objectBoundingBox" id="filter-3">
            <feOffset dx="0" dy="0" in="SourceAlpha" result="shadowOffsetOuter1"></feOffset>
            <feGaussianBlur stdDeviation="5" in="shadowOffsetOuter1" result="shadowBlurOuter1"></feGaussianBlur>
            <feColorMatrix values="0 0 0 0 0.154389881   0 0 0 0 0.154389881   0 0 0 0 0.154389881  0 0 0 1 0" type="matrix" in="shadowBlurOuter1"></feColorMatrix>
        </filter>
    </defs>
    <g id="画板-copy-17" stroke="none" stroke-width="1" fill="none" fill-rule="evenodd" opacity="0.164039249">
        <g id="Combined-Shape-Copy">
            <use fill="black" fill-opacity="1" filter="url(#filter-3)" xlink:href="#path-2"></use>
            <use fill="url(#linearGradient-1)" fill-rule="evenodd" xlink:href="#path-2"></use>
        </g>
    </g>
</svg>