<?xml version="1.0" encoding="UTF-8"?>
<svg width="24px" height="24px" viewBox="0 0 24 24" version="1.1" xmlns="http://www.w3.org/2000/svg" xmlns:xlink="http://www.w3.org/1999/xlink">
    <!-- Generator: Sketch 52.1 (67048) - http://www.bohemiancoding.com/sketch -->
    <title>画板</title>
    <desc>Created with Sketch.</desc>
    <g id="画板" stroke="none" stroke-width="1" fill="none" fill-rule="evenodd">
        <rect id="Rectangle-9-Copy-6" fill="#F6F7FA" x="0" y="0" width="24" height="24" rx="4"></rect>
        <g id="定位" transform="translate(7.000000, 6.000000)" fill="#4B505F" fill-rule="nonzero">
            <path d="M7.88531618,0.921595774 C7.85618485,0.900409348 7.82572936,0.881871224 7.79527387,0.862008949 C7.77938405,0.847443281 7.76217008,0.835525916 7.74363196,0.823608551 C7.70390741,0.798449669 7.66418286,0.774614939 7.62445831,0.750780209 L7.55957487,0.712379811 C7.24310262,0.524350274 6.9067681,0.372072832 6.56116452,0.25951994 L6.5095226,0.24363012 C6.41153538,0.213174632 6.31089985,0.184043295 6.19834696,0.15623611 L6.14670504,0.144318745 C6.02488309,0.11651156 5.91365435,0.0940009816 5.81566713,0.0781111616 C5.81037052,0.0767870099 5.79977731,0.0754628583 5.79315655,0.0741387066 C5.67265875,0.0556005833 5.54686434,0.0410349149 5.42106993,0.0304417016 L5.36545556,0.0264692465 C5.26614418,0.0198484882 5.16550866,0.0158760332 5.06354898,0.0145518815 C5.02647273,0.0119035782 4.99072064,0.0132277299 4.95364439,0.0145518815 L4.93775457,0.0145518815 L4.80666355,0.0185243365 C4.74178012,0.0211726399 4.67822084,0.0251450949 4.61201326,0.0304417016 L4.54183322,0.0370624599 C4.45841167,0.0450073699 4.37499011,0.0542764316 4.28229949,0.0675179483 C4.11280808,0.09267683 3.96317894,0.120484015 3.82414302,0.154911958 C3.80163244,0.160208565 3.78044601,0.166829323 3.75793543,0.176098385 C3.54607117,0.230388603 3.34347596,0.296596187 3.15279812,0.372072832 C2.71582807,0.546860852 2.30534105,0.783884001 1.93060613,1.07652152 C1.91206801,1.08711473 1.89485404,1.0990321 1.87896422,1.11227361 C0.689876018,2.06698697 0.00661375661,3.48912586 0.00661375661,5.01322443 C0.00661375661,6.20231263 0.432990594,7.35564873 1.20629517,8.26004432 C1.21026762,8.26534093 1.21424008,8.26931338 1.21953668,8.27460999 C1.25264048,8.31036208 1.53865724,8.61756527 1.71079695,8.77116686 L4.66497933,11.7253492 C4.75899409,11.819364 4.88346435,11.8670335 5.00661046,11.8670335 C5.12975656,11.8670335 5.25422682,11.819364 5.34824159,11.7253492 L8.30242396,8.77116686 C8.47588783,8.61756527 8.76190459,8.31036208 8.79368423,8.27460999 C8.79765668,8.26931338 8.80295329,8.26534093 8.80692575,8.26004432 C9.58023032,7.35564873 10.0066072,6.20231263 10.0066072,5.01322443 C10.0092555,3.38849033 9.21476446,1.85909516 7.88531618,0.921595774 Z M5.00925876,6.77169785 C3.89167475,6.77169785 2.98198256,5.86200565 2.98198256,4.74442164 C2.98198256,3.62683763 3.89167475,2.71714544 5.00925876,2.71714544 C6.12684277,2.71714544 7.03653496,3.62683763 7.03653496,4.74442164 C7.03785912,5.86200565 6.12816692,6.77169785 5.00925876,6.77169785 Z" id="Shape"></path>
        </g>
    </g>
</svg>