<?xml version="1.0" encoding="UTF-8"?>
<svg width="40px" height="40px" viewBox="0 0 40 40" version="1.1" xmlns="http://www.w3.org/2000/svg" xmlns:xlink="http://www.w3.org/1999/xlink">
    <!-- Generator: Sketch 52.1 (67048) - http://www.bohemiancoding.com/sketch -->
    <title>画板 copy 6</title>
    <desc>Created with Sketch.</desc>
    <g id="画板-copy-6" stroke="none" stroke-width="1" fill="none" fill-rule="evenodd">
        <rect id="Rectangle-10-Copy-2" fill="#F4F4F5" x="0" y="0" width="40" height="40" rx="4"></rect>
        <g id="Group" transform="translate(12.000000, 9.000000)" fill="#4B505F" fill-rule="nonzero">
            <path d="M13.166128,0 L2.83387201,0 C1.26696833,0 0,1.26955398 0,2.83387201 L0,20.3257919 C0,21.8926955 1.26955398,23.1596639 2.83387201,23.1596639 L13.166128,23.1596639 C14.7330317,23.1596639 16,21.8901099 16,20.3257919 L16,2.83387201 C16,1.26955398 14.730446,1.83721457e-16 13.166128,0 Z M5.67032967,2.12798966 C5.67032967,1.73755656 5.98577893,1.41952165 6.37879767,1.41952165 L9.62378798,1.41952165 C10.0142211,1.41952165 10.332256,1.73497091 10.332256,2.12798966 C10.332256,2.51842275 10.0168067,2.83645766 9.62378798,2.83645766 L6.37879767,2.83645766 C5.98577893,2.83387201 5.67032967,2.51842275 5.67032967,2.12798966 Z M8,21.7401422 C7.21654816,21.7401422 6.58306399,21.1040724 6.58306399,20.3232062 C6.58306399,19.5397544 7.21913381,18.9062702 8,18.9062702 C8.78345184,18.9062702 9.41693601,19.54234 9.41693601,20.3232062 C9.41693601,21.1040724 8.78345184,21.7401422 8,21.7401422 Z M14.0788623,17.2204266 C14.0788623,17.3678087 13.9599224,17.4893342 13.8099548,17.4893342 L2.1926309,17.4893342 C2.04524887,17.4893342 1.92372334,17.3703943 1.92372334,17.2204266 L1.92372334,4.51971558 C1.92372334,4.37233355 2.04266322,4.25080802 2.1926309,4.25080802 L13.8125404,4.25080802 C13.9599224,4.25080802 14.081448,4.3697479 14.081448,4.51971558 L14.0788623,17.2204266 Z" id="Shape"></path>
        </g>
    </g>
</svg>