<?xml version="1.0" encoding="UTF-8"?>
<svg width="24px" height="24px" viewBox="0 0 24 24" version="1.1" xmlns="http://www.w3.org/2000/svg" xmlns:xlink="http://www.w3.org/1999/xlink">
    <!-- Generator: Sketch 49.3 (51167) - http://www.bohemiancoding.com/sketch -->
    <title>Artboard 7</title>
    <desc>Created with Sketch.</desc>
    <defs>
        <path d="M6.01150794,7.28414443 L5.41309524,6.74921507 C3.29563492,4.84850863 1.9031746,3.7900314 1.9031746,2.24215071 C1.9031746,0.990188383 2.89285714,0.0113814757 4.15873016,0.0113814757 C4.87222222,0.0113814757 5.56269841,0.34144427 6.01150794,0.864992151 C6.46031746,0.34144427 7.15079365,0.0113814757 7.86428571,0.0113814757 C9.13015873,0.0113814757 10.1198413,0.990188383 10.1198413,2.24215071 C10.1198413,3.77864992 8.72738095,4.84850863 6.60992063,6.74921507 L6.01150794,7.28414443 Z" id="path-1"></path>
        <filter x="-60.9%" y="-55.0%" width="221.7%" height="237.5%" filterUnits="objectBoundingBox" id="filter-2">
            <feOffset dx="0" dy="1" in="SourceAlpha" result="shadowOffsetOuter1"></feOffset>
            <feGaussianBlur stdDeviation="1.5" in="shadowOffsetOuter1" result="shadowBlurOuter1"></feGaussianBlur>
            <feColorMatrix values="0 0 0 0 0.705882353   0 0 0 0 0.705882353   0 0 0 0 0.705882353  0 0 0 0.5 0" type="matrix" in="shadowBlurOuter1"></feColorMatrix>
        </filter>
        <path d="M4.6031746,10.0470958 L3.68253968,10.0470958 L3.68253968,9.0455259 C3.68253968,8.82927786 3.53293651,8.64717425 3.32579365,8.60164835 C1.36944444,8.22605965 0,6.4733124 0,4.35635793 L0,3.9010989 L0.920634921,3.9010989 L0.920634921,4.35635793 C0.920634921,6.04081633 1.97936508,7.41797488 3.4984127,7.71389325 C4.14285714,7.83908948 4.6031746,8.39678179 4.6031746,9.05690738 L4.6031746,10.0470958 Z" id="path-3"></path>
        <filter x="-108.6%" y="-65.1%" width="317.2%" height="262.7%" filterUnits="objectBoundingBox" id="filter-4">
            <feOffset dx="0" dy="1" in="SourceAlpha" result="shadowOffsetOuter1"></feOffset>
            <feGaussianBlur stdDeviation="1.5" in="shadowOffsetOuter1" result="shadowBlurOuter1"></feGaussianBlur>
            <feColorMatrix values="0 0 0 0 0.705882353   0 0 0 0 0.705882353   0 0 0 0 0.705882353  0 0 0 0.5 0" type="matrix" in="shadowBlurOuter1"></feColorMatrix>
        </filter>
        <path d="M8.31746032,10.0470958 L7.3968254,10.0470958 L7.3968254,9.0455259 C7.3968254,8.39678179 7.85714286,7.82770801 8.5015873,7.70251177 C10.0206349,7.41797488 11.0793651,6.04081633 11.0793651,4.35635793 L11.0793651,3.9010989 L12,3.9010989 L12,4.35635793 C12,6.4733124 10.6305556,8.22605965 8.67420635,8.60164835 C8.46706349,8.64717425 8.31746032,8.82927786 8.31746032,9.0455259 L8.31746032,10.0470958 Z" id="path-5"></path>
        <filter x="-108.6%" y="-65.1%" width="317.2%" height="262.7%" filterUnits="objectBoundingBox" id="filter-6">
            <feOffset dx="0" dy="1" in="SourceAlpha" result="shadowOffsetOuter1"></feOffset>
            <feGaussianBlur stdDeviation="1.5" in="shadowOffsetOuter1" result="shadowBlurOuter1"></feGaussianBlur>
            <feColorMatrix values="0 0 0 0 0.705882353   0 0 0 0 0.705882353   0 0 0 0 0.705882353  0 0 0 0.5 0" type="matrix" in="shadowBlurOuter1"></feColorMatrix>
        </filter>
    </defs>
    <g id="Artboard-7" stroke="none" stroke-width="1" fill="none" fill-rule="evenodd">
        <rect id="Rectangle-9-Copy-3" fill="#F6F7FA" x="0" y="0" width="24" height="24" rx="4"></rect>
        <g id="37-服务" transform="translate(6.000000, 7.000000)">
            <g id="Shape" fill-rule="nonzero">
                <use fill="black" fill-opacity="1" filter="url(#filter-2)" xlink:href="#path-1"></use>
                <use fill="#4B505F" fill-rule="evenodd" xlink:href="#path-1"></use>
            </g>
            <g id="Path">
                <use fill="black" fill-opacity="1" filter="url(#filter-4)" xlink:href="#path-3"></use>
                <use fill="#4B505F" fill-rule="evenodd" xlink:href="#path-3"></use>
            </g>
            <g id="Path">
                <use fill="black" fill-opacity="1" filter="url(#filter-6)" xlink:href="#path-5"></use>
                <use fill="#4B505F" fill-rule="evenodd" xlink:href="#path-5"></use>
            </g>
        </g>
    </g>
</svg>