<?xml version="1.0" encoding="UTF-8"?>
<svg width="24px" height="25px" viewBox="0 0 24 25" version="1.1" xmlns="http://www.w3.org/2000/svg" xmlns:xlink="http://www.w3.org/1999/xlink">
    <!-- Generator: Sketch 52.1 (67048) - http://www.bohemiancoding.com/sketch -->
    <title>画板</title>
    <desc>Created with Sketch.</desc>
    <g id="画板" stroke="none" stroke-width="1" fill="none" fill-rule="evenodd">
        <g id="分组-copy">
            <rect id="Rectangle-9-Copy-9" fill="#F6F7FA" x="0" y="0" width="24" height="24.3902951" rx="4"></rect>
            <g id="zhifubao1" transform="translate(5.000000, 7.218689)" fill="#CCCCCC" fill-rule="nonzero">
                <path d="M13.9883038,8.1698627 C13.4150197,7.99356967 9.90727172,6.9133866 9.08346965,6.61331806 C9.62383254,5.68156609 10.0548616,4.61478625 10.3384792,3.45276992 L7.24843312,3.45276994 L7.24843312,2.40062808 L11.0372206,2.40062808 L11.0372206,1.75586009 L7.24843312,1.75586008 L7.24843312,0 L5.79143446,0 C5.52971136,0 5.49809912,0.238130989 5.49809912,0.238130989 L5.49809912,1.75586008 L1.94436065,1.75586008 L1.94436065,2.40062806 L5.49807928,2.40062806 L5.49807928,3.45276992 L2.58483559,3.45276994 L2.58483559,4.03874703 L8.47244525,4.03874703 C8.25587965,4.77976718 7.97037794,5.47591745 7.62720477,6.10861661 C6.29919353,5.66842178 5.55424354,5.36289637 3.92563846,5.20966563 C0.836345972,4.91770272 0.124317113,6.62040805 0.0135156396,7.66171581 C-0.15362859,9.24787494 1.24514329,10.5447399 3.34134761,10.5447399 C5.43699665,10.5447399 6.82767705,9.57524782 8.15564862,7.96027079 C9.85713635,8.77523759 13.9596068,10.5573664 13.9596068,10.5573664 L13.9883038,8.1698627 Z M3.10986835,9.54011668 C0.895088395,9.54011668 0.544319535,8.13624516 0.662379531,7.54921252 C0.777861359,6.96476891 1.41932789,6.20409205 2.65119349,6.20409205 C4.06589044,6.20409205 5.3332554,6.56659604 6.85448992,7.31050397 C5.785941,8.7075245 4.47284343,9.54011668 3.10986835,9.54011668 Z" id="形状"></path>
            </g>
        </g>
    </g>
</svg>