<?xml version="1.0" encoding="UTF-8"?>
<svg width="24px" height="24px" viewBox="0 0 24 24" version="1.1" xmlns="http://www.w3.org/2000/svg" xmlns:xlink="http://www.w3.org/1999/xlink">
    <!-- Generator: Sketch 52.1 (67048) - http://www.bohemiancoding.com/sketch -->
    <title>画板 copy 3</title>
    <desc>Created with Sketch.</desc>
    <g id="画板-copy-3" stroke="none" stroke-width="1" fill="none" fill-rule="evenodd">
        <rect id="Rectangle-9-Copy-8" fill="#F6F7FA" x="0" y="0" width="24" height="24" rx="4"></rect>
        <g id="汽车" transform="translate(6.000000, 7.000000)">
            <path d="M9.10468,4.8 C10.1927905,4.8 11.062723,5.52614517 11.062723,6.39977449 C11.062723,7.27610994 10.1955698,8 9.10468,8 L3.09019464,8 C2.00208419,8 1.13168847,7.27385483 1.13168847,6.39977449 C1.13168847,5.52389006 1.99930485,4.8 3.09019464,4.8 L9.10468,4.8 Z" id="Path" fill="#D1D1D1"></path>
            <path d="M0.304102261,6.39973687 C0.304102261,7.73380112 1.46794205,8.8 2.88384866,8.8 L9.27659808,8.8 C10.6959509,8.8 11.8563445,7.73695867 11.8563445,6.40026313 C11.8563445,5.06619888 10.692997,4 9.27659808,4 L2.88434098,4 C1.46498814,4 0.304102261,5.06304133 0.304102261,6.39973687 Z" id="Path" fill="#4B505F"></path>
            <path d="M3.13897283,1.41257083 C3.20537445,0.948893353 3.42980933,0.806850389 3.89783367,0.806850389 L4.59733874,0.806850389 C4.74521214,0.806850389 4.9027666,0.639224662 4.9027666,0.369370974 C4.9027666,0.0995172862 4.74521214,2.84217094e-14 4.59733874,2.84217094e-14 L3.89729817,2.84217094e-14 C3.16366734,2.84217094e-14 2.49215416,0.581607013 2.38826775,1.30955386 L2.00003245,4.03265397 C1.98644912,4.12745134 2.02441984,4.22230174 2.09964142,4.28147595 C2.174863,4.34065015 2.27590749,4.35515819 2.36471241,4.31953502 C2.45351733,4.28391186 2.73715419,4.23046832 2.75073753,4.13567095 L3.13897283,1.41257083 Z" id="Path" fill="#4B505F"></path>
            <path d="M8.23000406,0.805268185 C8.69963489,0.805268185 8.96914131,0.920386398 9.03554293,1.38513597 L9.42377823,4.10823608 C9.4467324,4.25263384 9.75494883,4.35197087 9.89957534,4.33149777 C10.0442018,4.31102467 10.1457494,4.17829698 10.1278053,4.03319002 L9.73956998,1.30955386 C9.63514807,0.580534927 8.96577688,0 8.23000406,0 L4.58212576,0 C4.43425236,3.7195478e-16 4.31437728,0.119997387 4.31437728,0.268021665 C4.31437728,0.416045943 4.43425236,0.805268185 4.58212576,0.805268185 L8.23000406,0.805268185 Z" id="Path" fill="#4B505F"></path>
            <path d="M3.28600406,7.15885867 C3.72962426,7.15885867 4.08924949,6.79886651 4.08924949,6.35479368 C4.08924949,5.91072084 3.72962426,5.55072868 3.28600406,5.55072868 C2.84238385,5.55072868 2.48275862,5.91072084 2.48275862,6.35479368 C2.48275862,6.79886651 2.84238385,7.15885867 3.28600406,7.15885867 Z" id="Path" fill="#FFFFFF"></path>
            <path d="M3.28600406,6.7123552 C3.08872956,6.7123552 2.92880699,6.55226945 2.92880699,6.35479368 C2.92880699,6.15731791 3.08872956,5.99723216 3.28600406,5.99723216 C3.48327855,5.99723216 3.64320112,6.15731791 3.64320112,6.35479368 C3.64320112,6.55226945 3.48327855,6.7123552 3.28600406,6.7123552 Z" id="Path" fill="#4B505F"></path>
            <path d="M9.51724138,6.35479368 C9.51724138,5.91072084 9.15761615,5.55072868 8.71399594,5.55072868 C8.27037574,5.55072868 7.91075051,5.91072084 7.91075051,6.35479368 C7.91075051,6.79886651 8.27037574,7.15885867 8.71399594,7.15885867 C9.15761615,7.15885867 9.51724138,6.79886651 9.51724138,6.35479368 Z" id="Path" fill="#FFFFFF"></path>
            <path d="M8.71399594,6.7123552 C8.51672145,6.7123552 8.35679888,6.55226945 8.35679888,6.35479368 C8.35679888,6.15731791 8.51672145,5.99723216 8.71399594,5.99723216 C8.91127044,5.99723216 9.07119301,6.15731791 9.07119301,6.35479368 C9.07119301,6.55226945 8.91127044,6.7123552 8.71399594,6.7123552 Z" id="Path" fill="#4B505F"></path>
            <path d="M3.52941176,8.58366185 L3.52941176,9.06610084 C3.52941176,9.36092467 3.29165112,9.6 2.99391481,9.6 C2.69832049,9.6 2.45841785,9.35770841 2.45841785,9.0655648 L2.45841785,8.58366185 L3.52941176,8.58366185 Z" id="Path" fill="#4B505F"></path>
            <path d="M9.95537525,9.06610084 C9.95537525,9.36092467 9.7176146,9.6 9.4198783,9.6 C9.12428398,9.6 8.88438134,9.35770841 8.88438134,9.0655648 L8.88438134,8.58366185 L9.95537525,8.58366185 L9.95537525,9.06610084 Z" id="Path" fill="#4B505F"></path>
        </g>
    </g>
</svg>