<?xml version="1.0" encoding="UTF-8"?>
<svg width="40px" height="40px" viewBox="0 0 40 40" version="1.1" xmlns="http://www.w3.org/2000/svg" xmlns:xlink="http://www.w3.org/1999/xlink">
    <!-- Generator: Sketch 52.1 (67048) - http://www.bohemiancoding.com/sketch -->
    <title>画板</title>
    <desc>Created with Sketch.</desc>
    <g id="画板" stroke="none" stroke-width="1" fill="none" fill-rule="evenodd">
        <path d="M4,0 L36,0 C38.209139,-4.05812251e-16 40,1.790861 40,4 L40,36 C40,38.209139 38.209139,40 36,40 L4,40 C1.790861,40 2.705415e-16,38.209139 0,36 L0,4 C-2.705415e-16,1.790861 1.790861,4.05812251e-16 4,0 Z" id="Rectangle-10-Copy" fill="#F6F7FA"></path>
        <g id="Group" transform="translate(10.000000, 10.000000)" fill="#4B505F" fill-rule="nonzero">
            <path d="M18.4,0 L1.60000001,0 C0.719999999,0 0,0.642413772 0,1.42758615 L0,19.2724132 C0,20.0575856 0.719999999,20.6999993 1.60000001,20.6999993 L13.8744,20.6999993 C14.7231046,20.7000269 15.5370598,20.3992331 16.1372,19.8637907 L19.0628,17.2534494 C19.6629093,16.7179795 20.0000309,15.991735 20,15.2344857 L20,1.42758615 C20,0.642413752 19.28,-2.06999995e-08 18.4,0 Z M10.8,16.0603443 L4.40000001,16.0603443 C3.95817221,16.0603443 3.60000001,15.7407683 3.60000001,15.3465512 C3.60000001,14.9523342 3.95817221,14.6327581 4.40000001,14.6327581 L10.8,14.6327581 C11.2418278,14.6327581 11.6,14.9523342 11.6,15.3465512 C11.6,15.7407683 11.2418278,16.0603443 10.8,16.0603443 Z M15.6,11.0637927 L4.40000001,11.0637927 C3.95817222,11.0637927 3.60000002,10.7442167 3.60000002,10.3499997 C3.60000002,9.95578263 3.95817222,9.63620658 4.40000001,9.63620658 L15.6,9.63620658 C16.0418278,9.63620658 16.4,9.95578263 16.4,10.3499997 C16.4,10.7442167 16.0418278,11.0637927 15.6,11.0637927 Z M15.6,6.06724118 L4.40000001,6.06724118 C3.95817221,6.06724118 3.60000001,5.74766513 3.60000001,5.35344809 C3.60000001,4.95923106 3.95817221,4.63965501 4.40000001,4.63965501 L15.6,4.63965501 C16.0418278,4.63965501 16.4,4.95923106 16.4,5.35344809 C16.4,5.74766513 16.0418278,6.06724118 15.6,6.06724118 Z" id="Shape"></path>
        </g>
    </g>
</svg>