<?xml version="1.0" encoding="UTF-8"?>
<svg width="24px" height="24px" viewBox="0 0 24 24" version="1.1" xmlns="http://www.w3.org/2000/svg" xmlns:xlink="http://www.w3.org/1999/xlink">
    <!-- Generator: Sketch 49.3 (51167) - http://www.bohemiancoding.com/sketch -->
    <title>Artboard 4 Copy 3</title>
    <desc>Created with Sketch.</desc>
    <defs></defs>
    <g id="Artboard-4-Copy-3" stroke="none" stroke-width="1" fill="none" fill-rule="evenodd">
        <rect id="Rectangle-9-Copy-7" fill="#F6F7FA" x="0" y="0" width="24" height="24" rx="4"></rect>
        <g id="公积金查询" transform="translate(6.000000, 7.000000)" fill-rule="nonzero">
            <path d="M11.8090082,5.46423378 L6.4082147,0.193693825 C6.28872812,0.0755202883 6.14534422,0.00461616321 6.00196033,0.00461614936 C5.85857643,0.00461614936 5.71519253,0.0518855614 5.59570596,0.170059112 L0.171015165,5.46423378 C-0.187444579,5.79511969 0.075425895,6.40962212 0.57726955,6.40962212 L1.48536756,6.40962212 C1.79603268,6.40962212 1.81992998,6.6459692 1.81992998,6.9532204 L1.81992998,10.4275225 C1.81992998,10.7347737 2.273979,10.9711208 2.58464411,10.9711208 L9.56266044,10.9711208 C9.87332555,10.9711208 10.3273746,10.7347737 10.3273746,10.4275225 L10.3273746,6.9532204 C10.3273746,6.64596919 10.3751692,6.40962212 10.661937,6.40962212 L11.3788565,6.40962212 C11.9284947,6.40962212 12.1913652,5.7951197 11.8090082,5.46423378 Z" id="Shape" fill="#CCCCCC"></path>
            <path d="M4.28135356,7.89860874 L5.50011669,7.89860874 L5.50011669,7.40227987 L4.28135356,7.40227987 C3.94679114,7.40227987 3.77950992,7.18956749 3.77950992,6.97685512 C3.77950992,6.76414274 3.94679114,6.57506508 4.28135356,6.57506508 L5.16555426,6.57506508 L4.09017503,4.92063549 C3.99458576,4.77882724 3.94679114,4.6842884 3.92289382,4.63701899 C3.89899649,4.58974958 3.87509919,4.51884545 3.87509919,4.44794133 C3.87509919,4.32976779 3.92289382,4.23522895 3.99458576,4.16432483 C4.06627771,4.0934207 4.16186698,4.04615129 4.28135356,4.04615128 C4.40084014,4.04615126 4.4964294,4.09342069 4.56812135,4.16432483 C4.6398133,4.23522895 4.73540257,4.35340249 4.83099183,4.51884545 L5.97806301,6.29144858 L7.00564761,4.61338428 C7.05344224,4.54248015 7.07733956,4.47157603 7.12513418,4.4006719 C7.17292881,4.32976778 7.22072345,4.25886365 7.24462077,4.21159424 C7.2924154,4.16432483 7.34021004,4.1170554 7.38800467,4.0934207 C7.45969662,4.06978599 7.53138857,4.04615129 7.60308052,4.04615128 C7.72256709,4.04615128 7.81815636,4.09342069 7.88984831,4.16432483 C7.96154026,4.23522895 8.00933489,4.32976779 8.00933489,4.42430662 C8.00933489,4.49521074 7.98543757,4.58974958 7.96154026,4.6606537 C7.93764294,4.73155783 7.88984831,4.80246195 7.81815636,4.92063549 L6.79057176,6.59869978 L7.67477247,6.59869978 C8.00933489,6.59869978 8.17661611,6.78777744 8.17661611,7.00048983 C8.17661611,7.2132022 8.00933489,7.42591458 7.67477247,7.42591458 L6.43211202,7.42591458 L6.43211202,7.92224346 L7.67477247,7.92224346 C8.00933489,7.92224346 8.17661611,8.11132112 8.17661611,8.32403349 C8.17661611,8.53674587 8.00933489,8.74945824 7.67477247,8.74945824 L6.43211202,8.74945824 L6.43211202,8.82036237 C6.43211202,9.29305653 6.2648308,9.41123008 5.9541657,9.41123008 C5.61960328,9.41123008 5.47621938,9.29305654 5.47621937,8.82036237 L5.47621937,8.74945824 L4.25745624,8.74945824 C3.92289382,8.74945824 3.7556126,8.53674587 3.7556126,8.32403349 C3.77950992,8.0876864 3.94679112,7.89860874 4.28135356,7.89860874 Z" id="Shape" fill="#FFFFFF"></path>
        </g>
    </g>
</svg>