<?xml version="1.0" encoding="UTF-8"?>
<svg width="24px" height="24px" viewBox="0 0 24 24" version="1.1" xmlns="http://www.w3.org/2000/svg" xmlns:xlink="http://www.w3.org/1999/xlink">
    <!-- Generator: Sketch 52.1 (67048) - http://www.bohemiancoding.com/sketch -->
    <title>画板 copy 4</title>
    <desc>Created with Sketch.</desc>
    <g id="画板-copy-4" stroke="none" stroke-width="1" fill="none" fill-rule="evenodd">
        <rect id="Rectangle-9-Copy-6" fill="#F6F7FA" x="0" y="0" width="24" height="24" rx="4"></rect>
        <g id="定位" transform="translate(7.000000, 6.000000)" fill="#CCCCCC" fill-rule="nonzero">
            <path d="M7.87698413,0.920634921 C7.8478836,0.899470899 7.81746032,0.880952381 7.78703704,0.861111111 C7.77116402,0.846560847 7.75396825,0.834656085 7.73544974,0.822751323 C7.6957672,0.797619048 7.65608466,0.773809524 7.61640212,0.75 L7.5515873,0.711640212 C7.23544974,0.523809524 6.8994709,0.371693122 6.5542328,0.259259259 L6.5026455,0.243386243 C6.4047619,0.212962963 6.3042328,0.183862434 6.19179894,0.156084656 L6.14021164,0.144179894 C6.01851852,0.116402116 5.90740741,0.0939153439 5.80952381,0.078042328 C5.8042328,0.0767195767 5.79365079,0.0753968254 5.78703704,0.0740740741 C5.66666667,0.0555555556 5.54100529,0.041005291 5.41534392,0.0304232804 L5.35978836,0.0264550265 C5.26058201,0.0198412698 5.16005291,0.0158730159 5.05820106,0.0145502646 C5.02116402,0.0119047619 4.98544974,0.0132275132 4.9484127,0.0145502646 L4.93253968,0.0145502646 L4.8015873,0.0185185185 C4.73677249,0.0211640212 4.67328042,0.0251322751 4.60714286,0.0304232804 L4.53703704,0.037037037 C4.4537037,0.044973545 4.37037037,0.0542328042 4.27777778,0.0674603175 C4.10846561,0.0925925926 3.95899471,0.12037037 3.82010582,0.154761905 C3.79761905,0.16005291 3.77645503,0.166666667 3.75396825,0.175925926 C3.54232804,0.23015873 3.33994709,0.296296296 3.1494709,0.371693122 C2.71296296,0.546296296 2.30291005,0.783068783 1.92857143,1.07539683 C1.91005291,1.08597884 1.89285714,1.0978836 1.87698413,1.11111111 C0.689153439,2.06481481 0.00661375661,3.48544974 0.00661375661,5.00793651 C0.00661375661,6.1957672 0.432539683,7.3478836 1.20502646,8.25132275 C1.20899471,8.25661376 1.21296296,8.26058201 1.21825397,8.26587302 C1.25132275,8.3015873 1.53703704,8.60846561 1.70899471,8.76190476 L4.66005291,11.712963 C4.75396825,11.8068783 4.87830688,11.8544974 5.00132275,11.8544974 C5.12433862,11.8544974 5.24867725,11.8068783 5.34259259,11.712963 L8.29365079,8.76190476 C8.46693122,8.60846561 8.7526455,8.3015873 8.78439153,8.26587302 C8.78835979,8.26058201 8.79365079,8.25661376 8.79761905,8.25132275 C9.57010582,7.3478836 9.99603175,6.1957672 9.99603175,5.00793651 C9.99867725,3.38492063 9.20502646,1.85714286 7.87698413,0.920634921 Z M5.00396825,6.76455026 C3.88756614,6.76455026 2.97883598,5.85582011 2.97883598,4.73941799 C2.97883598,3.62301587 3.88756614,2.71428571 5.00396825,2.71428571 C6.12037037,2.71428571 7.02910053,3.62301587 7.02910053,4.73941799 C7.03042328,5.85582011 6.12169312,6.76455026 5.00396825,6.76455026 Z" id="Shape"></path>
        </g>
    </g>
</svg>