<?xml version="1.0" encoding="UTF-8"?>
<svg width="60px" height="61px" viewBox="0 0 60 61" version="1.1" xmlns="http://www.w3.org/2000/svg" xmlns:xlink="http://www.w3.org/1999/xlink">
    <!-- Generator: Sketch 52.1 (67048) - http://www.bohemiancoding.com/sketch -->
    <title>画板</title>
    <desc>Created with Sketch.</desc>
    <g id="画板" stroke="none" stroke-width="1" fill="none" fill-rule="evenodd">
        <g id="分组">
            <rect id="Rectangle-9-Copy-9" fill="#F6F7FA" x="0" y="0.26" width="60" height="60.48" rx="4"></rect>
            <g id="zhifubao1" transform="translate(12.500000, 17.900000)" fill="#4B505F" fill-rule="nonzero">
                <path d="M34.9911113,20.2826084 C33.5579011,19.8454591 24.7885311,17.1669563 22.7290259,16.4228839 C24.0799332,14.1124421 25.1575057,11.467175 25.8665499,8.58575236 L18.1414346,8.58575241 L18.1414346,5.97678275 L27.6134034,5.97678275 L27.6134034,4.37796781 L18.1414346,4.37796779 L18.1414346,0.0240058094 L14.498938,0.0240058094 C13.8446302,0.0240058094 13.7655996,0.61449322 13.7655996,0.61449322 L13.7655996,4.37796779 L4.88125346,4.37796779 L4.88125346,5.9767827 L13.76555,5.9767827 L13.76555,8.58575236 L6.48244081,8.58575241 L6.48244081,10.038785 L21.201465,10.038785 C20.660051,11.876274 19.9462967,13.6025003 19.0883638,15.1713885 C15.7683357,14.0798484 13.9059607,13.3222448 9.83444799,12.9422824 C2.11121676,12.2183093 0.331144615,16.4404648 0.0541409302,19.0225694 C-0.363719644,22.9557282 3.13321005,26.1715315 8.37372085,26.1715315 C13.6128435,26.1715315 17.0895444,23.7675065 20.4094734,19.7628887 C24.6631927,21.7837413 34.9193689,26.2028411 34.9193689,26.2028411 L34.9911113,20.2826084 Z M7.79502271,23.6803927 C2.25807282,23.6803927 1.38115067,20.1992479 1.67630066,18.7435978 C1.96500523,17.2943677 3.56867155,15.4081365 6.64833557,15.4081365 C10.1850779,15.4081365 13.3534903,16.3070285 17.1565766,18.1516782 C14.4852043,21.6158349 11.2024604,23.6803927 7.79502271,23.6803927 Z" id="形状"></path>
            </g>
        </g>
    </g>
</svg>