<?xml version="1.0" encoding="UTF-8"?>
<svg width="24px" height="24px" viewBox="0 0 24 24" version="1.1" xmlns="http://www.w3.org/2000/svg" xmlns:xlink="http://www.w3.org/1999/xlink">
    <!-- Generator: Sketch 52.1 (67048) - http://www.bohemiancoding.com/sketch -->
    <title>画板</title>
    <desc>Created with Sketch.</desc>
    <g id="画板" stroke="none" stroke-width="1" fill="none" fill-rule="evenodd">
        <rect id="Rectangle-9-Copy-5" fill="#F6F7FA" x="0" y="0" width="24" height="24" rx="4"></rect>
        <g id="Group-2" transform="translate(6.000000, 6.000000)">
            <g id="金币" fill="#4B505F" fill-rule="nonzero">
                <path d="M6.06726494,1.74430665 C3.76509282,1.74430665 1.89853438,3.61067268 1.89853438,5.91322961 C1.89853438,8.21559413 3.76509282,10.0819602 6.06726494,10.0819602 C8.36982187,10.0819602 10.2361879,8.21559413 10.2361879,5.91322961 C10.2361879,3.61067268 8.36982187,1.74430665 6.06726494,1.74430665 Z" id="Shape"></path>
                <path d="M10.7075896,11.2641203 C10.2236813,11.1711868 9.73784892,11.0984562 9.25490267,11.0415032 C10.9450222,9.94842841 11.9967291,8.0630139 11.996729,6.00731755 C11.996729,2.70173318 9.30723788,0.0124344216 6.00165351,0.0124344216 C2.69606914,0.0124344216 0.0065779752,2.70173318 0.0065779752,6.00731755 C0.0065779752,8.06051259 1.07194588,9.96555281 2.77418715,11.0576655 C1.85254868,11.1577182 1.2847501,11.2608493 1.26858775,11.2637354 C1.16722904,11.2825705 1.08361811,11.354049 1.04925039,11.4512458 C1.01488267,11.5484425 1.03497943,11.656591 1.10197042,11.7349526 C1.16896142,11.8133143 1.27266911,11.8499843 1.37402782,11.8311492 C1.41289441,11.8238377 4.62939347,11.240454 8.27419467,11.5246419 C8.27842766,11.5248343 8.28266066,11.5265659 8.28689366,11.5265659 L8.29151146,11.5259887 C9.05037204,11.5860203 9.82751146,11.6824171 10.5984938,11.8307644 C10.7529743,11.8565688 10.899843,11.7544562 10.9294534,11.6006598 C10.9590637,11.4468634 10.8606081,11.2975185 10.7075896,11.2641203 Z M3.78087034,10.9651169 C3.76100246,10.9471259 3.73864569,10.9320917 3.71448929,10.920478 C1.81272003,10.0332807 0.583804586,8.10457422 0.583804586,6.00731755 C0.583804586,3.01997746 3.01431342,0.589661033 6.00165351,0.589661033 C8.98899361,0.589661033 11.4195024,3.01997746 11.4195024,6.00731755 C11.4188469,8.13539343 10.1727199,10.0661113 8.2337888,10.9431823 C6.57387749,10.8200406 5.00728448,10.8706441 3.78087034,10.9651169 Z" id="Shape"></path>
            </g>
            <polygon id="Rectangle" fill="#FFFFFF" transform="translate(6.006764, 5.925592) rotate(-45.000000) translate(-6.006764, -5.925592) " points="4.74859076 4.66741826 7.26493799 4.66741826 7.26493799 7.1837655 4.74859076 7.1837655"></polygon>
        </g>
    </g>
</svg>