<?xml version="1.0" encoding="UTF-8"?>
<svg width="24px" height="24px" viewBox="0 0 24 24" version="1.1" xmlns="http://www.w3.org/2000/svg" xmlns:xlink="http://www.w3.org/1999/xlink">
    <!-- Generator: Sketch 49.3 (51167) - http://www.bohemiancoding.com/sketch -->
    <title>Artboard 7 Copy</title>
    <desc>Created with Sketch.</desc>
    <defs>
        <path d="M11.7230051,3.03191166 L6.24208521,0.0610380322 C6.09195013,-0.0203460107 5.91281015,-0.0203460107 5.76267508,0.0610380322 L0.28188437,3.03191166 C0.125808,3.11664553 0.0222235676,3.27790102 0.00710524305,3.4596752 C0.00284209722,3.48722539 0,3.51524367 0,3.54406438 L0,7.55622828 C8.96409594e-17,7.85167587 0.231354594,8.09118346 0.516744949,8.09118346 C0.802135304,8.09118346 1.0334899,7.85167587 1.0334899,7.55622828 L1.0334899,4.29935423 L2.31282121,4.83899028 C2.27551778,4.91419614 2.25605488,4.997519 2.25604386,5.08206054 L2.25604386,7.75683647 C2.25604386,7.91177287 2.31966808,8.05139617 2.42146683,8.14909236 C2.93717829,9.03096599 4.54813067,9.42857143 6.00244474,9.42857143 C7.4567588,9.42857143 9.06764659,9.03096599 9.58335805,8.14909236 C9.68895481,8.04796485 9.74892721,7.90575652 9.74878103,7.75683647 L9.74878103,5.08206054 C9.74877982,4.99750985 9.72929304,4.91417954 9.69193908,4.83899028 L11.6783067,4.00118359 C11.8645449,3.92259346 11.9898188,3.73927972 11.9994093,3.53131291 C12.0089998,3.3233461 11.9011644,3.12851141 11.7230051,3.03191166 Z" id="path-1"></path>
        <filter x="-41.7%" y="-42.4%" width="183.3%" height="206.1%" filterUnits="objectBoundingBox" id="filter-2">
            <feOffset dx="0" dy="1" in="SourceAlpha" result="shadowOffsetOuter1"></feOffset>
            <feGaussianBlur stdDeviation="1.5" in="shadowOffsetOuter1" result="shadowBlurOuter1"></feGaussianBlur>
            <feColorMatrix values="0 0 0 0 0.705649447   0 0 0 0 0.705649447   0 0 0 0 0.705649447  0 0 0 1 0" type="matrix" in="shadowBlurOuter1"></feColorMatrix>
        </filter>
        <path d="M8.39600734,5.39848653 L6.19512601,6.3139286 C6.07126684,6.36553194 5.93290986,6.36543607 5.80911753,6.31366112 L3.61773139,5.39821906 C3.58842755,5.38574476 3.56029669,5.37050093 3.53369574,5.352681 C3.52377628,5.34614756 3.51408135,5.33925577 3.50462884,5.33201835 C3.50068866,5.3290761 3.49694226,5.32593324 3.49313126,5.32285724 C3.48428966,5.31579402 3.47567268,5.30843448 3.46729402,5.30079034 C3.46309546,5.29691192 3.45921988,5.29283288 3.45515051,5.28875385 C3.44720556,5.28093013 3.43919601,5.27310641 3.43183239,5.26474774 C3.42183838,5.25352125 3.41229215,5.24187624 3.40321764,5.22984191 C3.39992339,5.2254954 3.3970813,5.22081454 3.39398083,5.21640116 C3.38693986,5.2064929 3.38021848,5.19634545 3.37382777,5.18597559 C3.37137323,5.18182968 3.36911248,5.17768378 3.36678712,5.17353788 C3.36014415,5.1619332 3.35393855,5.1500661 3.34818431,5.13796336 L3.34372738,5.12833416 C3.28244221,4.9941133 3.27815641,4.83947897 3.33190684,4.70184114 C3.43873209,4.42786864 3.73985133,4.29539878 4.00451498,4.40594405 L5.62250801,5.08206054 L6.0028323,5.24094223 L6.384836,5.08206054 L8.01070939,4.40581032 C8.13787255,4.35288962 8.28013595,4.35444074 8.40619424,4.41012235 C8.53225254,4.46580395 8.63177639,4.57105344 8.68286538,4.70271044 C8.7301184,4.82437575 8.73232651,4.95981679 8.68906632,5.08306358 C8.68318439,5.100094 8.67643573,5.11679013 8.66884867,5.13308189 L8.66884867,5.13314876 C8.65382626,5.16561793 8.63569228,5.19644334 8.61471964,5.22516105 C8.61252347,5.22817018 8.61013353,5.23104556 8.60787277,5.23398781 C8.59023523,5.25736027 8.57060624,5.27904615 8.54922222,5.29878426 C8.54392558,5.3037326 8.53862895,5.3087478 8.53307394,5.3135624 C8.5259041,5.31978125 8.51828211,5.32553202 8.51072472,5.33134966 C8.50504053,5.33569617 8.4996147,5.34031016 8.49373673,5.34438919 L8.49457644,5.34405484 C8.46370883,5.36581956 8.43066083,5.38406928 8.39600734,5.39848653 Z" id="path-3"></path>
        <filter x="-92.2%" y="-201.4%" width="284.3%" height="603.6%" filterUnits="objectBoundingBox" id="filter-4">
            <feOffset dx="0" dy="1" in="SourceAlpha" result="shadowOffsetOuter1"></feOffset>
            <feGaussianBlur stdDeviation="1.5" in="shadowOffsetOuter1" result="shadowBlurOuter1"></feGaussianBlur>
            <feColorMatrix values="0 0 0 0 0.705649447   0 0 0 0 0.705649447   0 0 0 0 0.705649447  0 0 0 1 0" type="matrix" in="shadowBlurOuter1"></feColorMatrix>
        </filter>
    </defs>
    <g id="Artboard-7-Copy" stroke="none" stroke-width="1" fill="none" fill-rule="evenodd">
        <rect id="Rectangle-9" fill="#F6F7FA" x="0" y="0" width="24" height="24" rx="4"></rect>
        <g id="学士帽-实" transform="translate(6.000000, 7.000000)">
            <g id="Shape" fill-rule="nonzero">
                <use fill="black" fill-opacity="1" filter="url(#filter-2)" xlink:href="#path-1"></use>
                <use fill="#4B505F" fill-rule="evenodd" xlink:href="#path-1"></use>
            </g>
            <g id="Path">
                <use fill="black" fill-opacity="1" filter="url(#filter-4)" xlink:href="#path-3"></use>
                <use fill="#FFFFFF" fill-rule="evenodd" xlink:href="#path-3"></use>
            </g>
        </g>
    </g>
</svg>