<?xml version="1.0" encoding="UTF-8"?>
<svg width="24px" height="24px" viewBox="0 0 24 24" version="1.1" xmlns="http://www.w3.org/2000/svg" xmlns:xlink="http://www.w3.org/1999/xlink">
    <!-- Generator: Sketch 49.3 (51167) - http://www.bohemiancoding.com/sketch -->
    <title>Artboard 4</title>
    <desc>Created with Sketch.</desc>
    <defs></defs>
    <g id="Artboard-4" stroke="none" stroke-width="1" fill="none" fill-rule="evenodd">
        <rect id="Rectangle-9-Copy-2" fill="#F6F7FA" x="0" y="0" width="24" height="24" rx="4"></rect>
        <path d="M13.90925,17.4158752 L12.27275,17.4158752 L11.18175,17.4158752 L11.18175,16.3086401 L11.18175,9.11211924 L11.18175,8.00488411 L12.27275,8.00488411 L13.90925,8.00488411 C16.1685,8.00488411 18,10.111777 18,12.7103797 C18,15.3089823 16.1685,17.4158752 13.90925,17.4158752 Z M13.90925,9.11211924 L12.27275,9.11211924 L12.27275,16.3083863 L13.90925,16.3083863 C15.566,16.3083863 16.90925,14.6972628 16.90925,12.7101259 C16.90925,10.722989 15.566,9.11211924 13.90925,9.11211924 Z M6.5455,17.4158752 L6,17.4158752 L6,16.3086401 L6.5455,16.3086401 C7.7505,16.3086401 8.72749999,15.3173551 8.72749999,14.0941698 L8.72749999,8.00488411 L9.8185,8.00488411 L9.8185,14.0941698 C9.81825,15.9285672 8.353,17.4158752 6.5455,17.4158752 Z" id="Shape" fill="#CCCCCC" fill-rule="nonzero"></path>
    </g>
</svg>